<?xml version="1.0" standalone="no"?>
<!DOCTYPE svg PUBLIC "-//W3C//DTD SVG 1.1//EN" "http://www.w3.org/Graphics/SVG/1.1/DTD/svg11.dtd" >
<svg xmlns="http://www.w3.org/2000/svg" xmlns:xlink="http://www.w3.org/1999/xlink" version="1.1">
<metadata>
Created by FontForge 20161003 at Sun May 21 15:30:10 2017
 By www-data
Copyright (c) 2012 by Eduardo Manso. All rights reserved.
</metadata>
<defs>
<font id="CiutadellaRegular" horiz-adv-x="498" >
  <font-face 
    font-family="CiutadellaRegular"
    font-weight="400"
    font-stretch="normal"
    units-per-em="1000"
    panose-1="1 0 0 0 0 0 0 0 0 0"
    ascent="750"
    descent="-250"
    x-height="489"
    cap-height="657"
    bbox="-173 -210 1370 875"
    underline-thickness="50"
    underline-position="-150"
    unicode-range="U+000D-FB05"
  />
<missing-glyph horiz-adv-x="841" 
d="M513 144l-92 92l-92 -92q-12 -12 -21 -12q-10 0 -21 12l-51 52q-11 11 -11 19q0 11 12 21l92 92l-92 92q-13 12 -13 22q0 8 11 19l51 52q13 11 21 11q10 0 22 -12l92 -92l92 92q13 13 22 13q8 0 19 -11l52 -51q11 -13 11 -22q0 -11 -12 -21l-92 -92l92 -92q12 -14 12 -21
q0 -11 -12 -21l-52 -51q-11 -11 -19 -11q-10 0 -21 12zM80 328q0 141 99.5 240t240.5 99t240.5 -99t99.5 -240t-100 -239.5t-241 -98.5t-240 98.5t-99 239.5zM128 328q0 -122 85 -207.5t206 -85.5t206.5 85.5t85.5 207.5t-85 208t-206 86t-206.5 -86t-85.5 -208z" />
    <glyph glyph-name="fi" unicode="fi" horiz-adv-x="542" 
d="M471 614h-195q-94 0 -94 -99v-29h289v-486h-73v424h-216v-424h-74v424h-78v62h78v24q0 81 42 124t122 43h199v-63z" />
    <glyph glyph-name="fl" unicode="fl" horiz-adv-x="547" 
d="M30 424v62h78v24q0 81 42 124t122 43h199v-677h-73v614h-122q-94 0 -94 -99v-29h118v-62h-118v-424h-74v424h-78z" />
    <glyph glyph-name=".notdef" horiz-adv-x="841" 
d="M513 144l-92 92l-92 -92q-12 -12 -21 -12q-10 0 -21 12l-51 52q-11 11 -11 19q0 11 12 21l92 92l-92 92q-13 12 -13 22q0 8 11 19l51 52q13 11 21 11q10 0 22 -12l92 -92l92 92q13 13 22 13q8 0 19 -11l52 -51q11 -13 11 -22q0 -11 -12 -21l-92 -92l92 -92q12 -14 12 -21
q0 -11 -12 -21l-52 -51q-11 -11 -19 -11q-10 0 -21 12zM80 328q0 141 99.5 240t240.5 99t240.5 -99t99.5 -240t-100 -239.5t-241 -98.5t-240 98.5t-99 239.5zM128 328q0 -122 85 -207.5t206 -85.5t206.5 85.5t85.5 207.5t-85 208t-206 86t-206.5 -86t-85.5 -208z" />
    <glyph glyph-name=".null" horiz-adv-x="0" 
 />
    <glyph glyph-name="nonmarkingreturn" horiz-adv-x="333" 
 />
    <glyph glyph-name="NULL" horiz-adv-x="0" 
 />
    <glyph glyph-name="NULL" horiz-adv-x="0" 
 />
    <glyph glyph-name="CR" unicode="&#xd;" horiz-adv-x="0" 
 />
    <glyph glyph-name="space" unicode=" " horiz-adv-x="212" 
 />
    <glyph glyph-name="exclam" unicode="!" horiz-adv-x="237" 
d="M157 489l-16 -321h-45l-16 321v168h77v-168zM68 40q0 22 15 36.5t35 14.5q22 0 36.5 -14.5t14.5 -36.5q0 -21 -14.5 -35.5t-36.5 -14.5q-20 0 -35 14.5t-15 35.5z" />
    <glyph glyph-name="quotedbl" unicode="&#x22;" horiz-adv-x="320" 
d="M63 657h72v-71q0 -48 -10 -106l-6 -53h-40l-7 53q-9 69 -9 106v71zM185 657h72v-71q0 -48 -10 -106l-6 -53h-40l-7 53q-9 69 -9 106v71z" />
    <glyph glyph-name="numbersign" unicode="#" horiz-adv-x="653" 
d="M529 657l-31 -168h109v-56h-120l-38 -209h128v-56h-139l-31 -168h-61l31 168h-161l-31 -168h-62l31 168h-109v56h120l39 209h-129v56h139l31 168h62l-31 -168h161l31 168h61zM265 433l-38 -209h161l38 209h-161z" />
    <glyph glyph-name="dollar" unicode="$" horiz-adv-x="499" 
d="M442 473h-75v17q0 49 -31.5 81t-86.5 32q-56 0 -87.5 -27.5t-31.5 -71.5q0 -32 18 -57.5t49 -37.5l106 -45q32 -14 53.5 -26t46.5 -33t37.5 -52.5t12.5 -71.5q0 -80 -47.5 -130.5t-126.5 -58.5v-100h-62v100q-79 9 -125.5 57t-46.5 123v16h74v-21q0 -50 35 -81t95 -31
q61 0 95.5 32.5t34.5 84.5q0 48 -26 74t-76 48l-92 39q-129 54 -129 165q0 67 44 112.5t117 54.5v100h62v-100q74 -8 118.5 -56.5t44.5 -123.5v-12z" />
    <glyph glyph-name="percent" unicode="%" horiz-adv-x="627" 
d="M107 558v-121q0 -27 15 -44t43 -17t43 17t15 44v121q0 27 -15 44t-43 17t-43 -17t-15 -44zM279 557v-119q0 -50 -31 -80t-83 -30t-83 30t-31 80v119q0 50 31 80t83 30t83 -30t31 -80zM283 329l192 328h66l-198 -329l-192 -328h-66zM403 220v-121q0 -27 15.5 -44t43.5 -17
q27 0 42.5 17t15.5 44v121q0 27 -15.5 44t-42.5 17q-28 0 -43.5 -17t-15.5 -44zM575 219v-119q0 -50 -31 -80t-82 -30q-52 0 -83 30t-31 80v119q0 50 31 80t83 30q51 0 82 -30t31 -80z" />
    <glyph glyph-name="ampersand" unicode="&#x26;" horiz-adv-x="579" 
d="M543 373v-60h-68v-123q0 -91 -57 -145.5t-151 -54.5q-97 0 -156.5 51t-59.5 137q0 124 114 166q-89 42 -89 149q0 78 52 126t137 48t135.5 -49t50.5 -130v-13h-73v16q0 49 -29.5 79.5t-82.5 30.5q-54 0 -84 -30.5t-30 -81.5q0 -116 130 -116h261zM269 55q63 0 98.5 37
t35.5 96v125h-124q-75 0 -112.5 -37.5t-37.5 -90.5q0 -60 36.5 -95t103.5 -35z" />
    <glyph glyph-name="quotesingle" unicode="'" horiz-adv-x="200" 
d="M63 657h74v-71q0 -48 -10 -106l-6 -53h-42l-7 53q-9 69 -9 106v71z" />
    <glyph glyph-name="parenleft" unicode="(" horiz-adv-x="297" 
d="M245 -44h10v-67h-9q-84 0 -129 46t-45 130v524q0 84 45 130t129 46h9v-67h-10q-97 0 -97 -105v-532q0 -105 97 -105z" />
    <glyph glyph-name="parenright" unicode=")" horiz-adv-x="297" 
d="M42 -44h10q97 0 97 105v532q0 105 -97 105h-10v67h9q84 0 129 -46t45 -130v-524q0 -84 -45 -130t-129 -46h-9v67z" />
    <glyph glyph-name="asterisk" unicode="*" horiz-adv-x="396" 
d="M170 386l19 101l-76 -70l-31 -18l-30 50l31 18l97 37l-97 37l-31 19l29 48l32 -18l76 -71l-19 102v36h57v-36l-19 -101l75 70l32 18l29 -48l-31 -19l-98 -37l98 -37l31 -18l-30 -50l-31 18l-75 69l19 -100v-36h-57v36z" />
    <glyph glyph-name="plus" unicode="+" horiz-adv-x="479" 
d="M274 506v-145h156v-66h-156v-145h-70v145h-155v66h155v145h70z" />
    <glyph glyph-name="comma" unicode="," horiz-adv-x="222" 
d="M77 81h85l-72 -175h-52z" />
    <glyph glyph-name="hyphen" unicode="-" horiz-adv-x="371" 
d="M68 229v66h235v-66h-235z" />
    <glyph glyph-name="period" unicode="." horiz-adv-x="220" 
d="M60 40q0 22 14.5 36.5t35.5 14.5t36 -14.5t15 -36.5q0 -21 -15 -35.5t-36 -14.5t-35.5 14.5t-14.5 35.5z" />
    <glyph glyph-name="slash" unicode="/" horiz-adv-x="418" 
d="M320 765h73l-295 -876h-73z" />
    <glyph glyph-name="zero" unicode="0" horiz-adv-x="546" 
d="M145 465v-273q0 -59 34 -96t94 -37t94 37t34 96v273q0 59 -34 96t-94 37t-94 -37t-34 -96zM478 463v-269q0 -94 -56.5 -149t-148.5 -55t-148 55t-56 149v269q0 94 55.5 149t148.5 55q92 0 148.5 -55t56.5 -149z" />
    <glyph glyph-name="one" unicode="1" horiz-adv-x="396" 
d="M50 589v68h195v-589h119v-68h-314v68h119v521h-119z" />
    <glyph glyph-name="two" unicode="2" horiz-adv-x="514" 
d="M55 0v36q0 80 32 139.5t106 109.5l103 71q83 55 83 138q0 48 -31.5 76t-90.5 28q-58 0 -91 -31t-33 -80v-21h-74v19q0 82 55.5 132t144.5 50q91 0 145 -45.5t54 -126.5q0 -113 -111 -188l-123 -85q-82 -58 -87 -151h321v-71h-403z" />
    <glyph glyph-name="three" unicode="3" horiz-adv-x="520" 
d="M201 311v62h52q121 0 121 115q0 50 -31.5 80t-89.5 30q-57 0 -89.5 -30t-32.5 -78v-18h-73v16q0 81 54.5 130t142.5 49q89 0 142.5 -47.5t53.5 -125.5q0 -110 -86 -151q98 -43 98 -166q0 -86 -56.5 -136.5t-149.5 -50.5q-91 0 -147 48.5t-56 129.5v15h73v-17
q0 -48 34 -78.5t94 -30.5q63 0 96 34t33 94q0 52 -32.5 89t-98.5 37h-52z" />
    <glyph glyph-name="four" unicode="4" horiz-adv-x="533" 
d="M324 657h97v-435h73v-67h-73v-155h-76v155h-310v73zM109 222h236v349z" />
    <glyph glyph-name="five" unicode="5" horiz-adv-x="512" 
d="M434 657v-68h-284v-221q50 34 119 34q89 0 141.5 -55.5t52.5 -146.5q0 -97 -56 -153.5t-149 -56.5q-91 0 -147 45.5t-56 123.5v15h73v-18q0 -43 34 -71t94 -28q63 0 96 38t33 105q0 59 -30.5 98t-93.5 39q-72 0 -119 -43h-64v363h356z" />
    <glyph glyph-name="six" unicode="6" horiz-adv-x="531" 
d="M477 191q0 -94 -57 -147.5t-150 -53.5q-92 0 -147 58.5t-55 159.5v260q0 92 55.5 145.5t148.5 53.5q88 0 142.5 -48.5t54.5 -130.5v-12h-74v15q0 48 -33 78.5t-90 30.5q-61 0 -94.5 -34.5t-33.5 -90.5v-138q56 54 140 54q89 0 141 -55.5t52 -144.5zM274 325
q-81 0 -130 -62v-57q0 -68 34 -109t94 -41t93 36t33 95t-30.5 98.5t-93.5 39.5z" />
    <glyph glyph-name="seven" unicode="7" horiz-adv-x="450" 
d="M35 589v68h384v-55l-234 -602h-82l232 589h-300z" />
    <glyph glyph-name="eight" unicode="8" horiz-adv-x="527" 
d="M459 489q0 -107 -87 -148q46 -20 72.5 -62t26.5 -100q0 -85 -57.5 -137t-149.5 -52q-93 0 -150 52t-57 137q0 58 26.5 100t71.5 62q-40 19 -63.5 57.5t-23.5 90.5q0 80 54 129t142 49q87 0 141 -49t54 -129zM135 182q0 -57 34 -92.5t95 -35.5t95 35.5t34 92.5t-32.5 92
t-96.5 35q-65 0 -97 -35t-32 -92zM144 486q0 -53 29.5 -85t90.5 -32q60 0 89.5 32t29.5 85q0 51 -31.5 83t-87.5 32q-57 0 -88.5 -31.5t-31.5 -83.5z" />
    <glyph glyph-name="nine" unicode="9" horiz-adv-x="531" 
d="M54 466q0 93 57.5 147t149.5 54t147 -59.5t55 -163.5v-255q0 -92 -55.5 -145.5t-148.5 -53.5q-88 0 -142.5 48.5t-54.5 130.5v12h74v-15q0 -48 32.5 -78.5t90.5 -30.5q61 0 94.5 34.5t33.5 91.5v136q-57 -53 -140 -53q-89 0 -141 55.5t-52 144.5zM257 332q81 0 130 62v52
q0 68 -34 111.5t-93 43.5q-61 0 -94 -36t-33 -95t30.5 -98.5t93.5 -39.5z" />
    <glyph glyph-name="colon" unicode=":" horiz-adv-x="237" 
d="M68 40q0 22 14.5 36.5t35.5 14.5t36 -14.5t15 -36.5q0 -21 -15 -35.5t-36 -14.5t-35.5 14.5t-14.5 35.5zM68 448q0 21 14.5 36t35.5 15t36 -15t15 -36t-15 -35.5t-36 -14.5t-35.5 14.5t-14.5 35.5z" />
    <glyph glyph-name="semicolon" unicode=";" horiz-adv-x="255" 
d="M92 81h85l-72 -175h-53zM83 448q0 21 14.5 36t35.5 15t36 -15t15 -36t-15 -35.5t-36 -14.5t-35.5 14.5t-14.5 35.5z" />
    <glyph glyph-name="less" unicode="&#x3c;" horiz-adv-x="473" 
d="M46 294v64l358 139v-68l-269 -101l269 -103v-70z" />
    <glyph glyph-name="equal" unicode="=" horiz-adv-x="521" 
d="M71 392v66h379v-66h-379zM71 201v66h379v-66h-379z" />
    <glyph glyph-name="greater" unicode="&#x3e;" horiz-adv-x="473" 
d="M427 356v-64l-358 -139v68l269 101l-269 103v70z" />
    <glyph glyph-name="question" unicode="?" horiz-adv-x="475" 
d="M254 168h-58l-4 33q-3 23 2 45t10.5 35.5t24.5 36.5t25.5 29.5l32.5 32.5q46 45 58 68q13 25 13 52q0 45 -31 71.5t-87 26.5q-60 0 -93.5 -31t-33.5 -80v-24h-74v22q0 82 56 132t146 50q88 0 141.5 -45t53.5 -121q0 -48 -24.5 -85t-71.5 -82q-3 -3 -16.5 -16t-17 -16.5
t-13.5 -15t-13.5 -18t-9.5 -18t-9 -23.5t-4 -26zM175 40q0 21 14.5 35.5t35.5 14.5t35.5 -14.5t14.5 -35.5t-14.5 -35.5t-35.5 -14.5t-35.5 14.5t-14.5 35.5z" />
    <glyph glyph-name="at" unicode="@" horiz-adv-x="797" 
d="M238 186l17 94q11 68 47 106t92 38q76 0 105 -55l17 47h48l-46 -266q-19 -105 77 -105q88 0 88 135v140q0 108 -75.5 172t-204.5 64t-204.5 -64t-75.5 -172v-177q0 -108 75.5 -172t204.5 -64h86v-60h-86q-163 0 -253.5 82.5t-90.5 225.5v153q0 144 88.5 226t255.5 82
q163 0 253 -82.5t90 -225.5v-116q0 -105 -41 -153.5t-112 -48.5q-60 0 -96 28t-39 80q-41 -59 -107 -59q-64 0 -94 40t-19 107zM368 92q35 0 60.5 24.5t32.5 62.5l18 104q7 38 -14 62.5t-64 24.5q-33 0 -54.5 -24.5t-28.5 -64.5l-18 -100q-7 -40 10 -64.5t58 -24.5z" />
    <glyph glyph-name="A" unicode="A" horiz-adv-x="548" 
d="M100 0h-75l210 657h77l212 -657h-79l-48 151h-250zM271 554l-104 -337h211z" />
    <glyph glyph-name="B" unicode="B" horiz-adv-x="558" 
d="M83 0v657h211q88 0 144 -47t56 -123q0 -109 -99 -147v-1q115 -35 115 -159q0 -81 -55.5 -130.5t-142.5 -49.5h-229zM307 304h-148v-240h144q60 0 94 32.5t34 86.5q0 56 -33 88.5t-91 32.5zM287 593h-128v-224h132q58 0 91.5 30.5t33.5 84.5q0 50 -35 79.5t-94 29.5z" />
    <glyph glyph-name="C" unicode="C" horiz-adv-x="546" 
d="M419 210h73v-21q0 -91 -58.5 -145t-153.5 -54q-96 0 -155.5 57t-59.5 153v257q0 97 58.5 153.5t156.5 56.5q95 0 153.5 -54t58.5 -145v-15h-73v17q0 57 -37 92.5t-102 35.5t-102 -39t-37 -100v-261q0 -61 37 -100t102 -39t102 35.5t37 92.5v23z" />
    <glyph glyph-name="D" unicode="D" horiz-adv-x="576" 
d="M291 657q101 0 161 -58t60 -157v-227q0 -99 -60 -157t-161 -58h-208v657h208zM291 588h-132v-519h132q68 0 106.5 39.5t38.5 104.5v231q0 65 -38.5 104.5t-106.5 39.5z" />
    <glyph glyph-name="E" unicode="E" horiz-adv-x="514" 
d="M433 302h-274v-233h307v-69h-383v657h375v-69h-299v-218h274v-68z" />
    <glyph glyph-name="F" unicode="F" 
d="M433 284h-274v-284h-76v657h375v-69h-299v-236h274v-68z" />
    <glyph glyph-name="G" unicode="G" horiz-adv-x="551" 
d="M298 259v62h194v-132q0 -92 -58 -145.5t-153 -53.5q-96 0 -156 57t-60 153v257q0 96 59 153t157 57q95 0 153 -51t58 -138v-15h-73v17q0 52 -36.5 85t-101.5 33t-102.5 -38.5t-37.5 -100.5v-261q0 -62 37.5 -100.5t102.5 -38.5q66 0 103 35.5t37 92.5v72h-123z" />
    <glyph glyph-name="H" unicode="H" horiz-adv-x="588" 
d="M505 657v-657h-77v301h-269v-301h-76v657h76v-287h269v287h77z" />
    <glyph glyph-name="I" unicode="I" horiz-adv-x="242" 
d="M159 657v-657h-76v657h76z" />
    <glyph glyph-name="J" unicode="J" horiz-adv-x="487" 
d="M25 204h75v-26q0 -52 31 -85.5t85 -33.5q55 0 85.5 33t30.5 86v479h76v-477q0 -87 -53 -138.5t-139 -51.5t-138.5 51.5t-52.5 138.5v24z" />
    <glyph glyph-name="K" unicode="K" horiz-adv-x="541" 
d="M159 657v-368l271 368h85l-192 -267l198 -390h-86l-165 327l-111 -151v-176h-76v657h76z" />
    <glyph glyph-name="L" unicode="L" horiz-adv-x="462" 
d="M159 657v-588h287v-69h-363v657h76z" />
    <glyph glyph-name="M" unicode="M" horiz-adv-x="643" 
d="M298 217l-144 284v-501h-71v657h67l172 -341l171 341h67v-657h-74v500l-143 -283h-45z" />
    <glyph glyph-name="N" unicode="N" horiz-adv-x="585" 
d="M502 657v-657h-63l-285 508v-508h-71v657h68l280 -500v500h71z" />
    <glyph glyph-name="O" unicode="O" horiz-adv-x="562" 
d="M141 459v-261q0 -62 37.5 -100.5t102.5 -38.5t102 38.5t37 100.5v261q0 62 -37 100.5t-102 38.5t-102.5 -38.5t-37.5 -100.5zM497 457v-257q0 -96 -59.5 -153t-156.5 -57t-156.5 57t-59.5 153v257q0 97 58.5 153.5t157.5 56.5q97 0 156.5 -57t59.5 -153z" />
    <glyph glyph-name="P" unicode="P" horiz-adv-x="544" 
d="M83 0v657h201q98 0 160 -57.5t62 -151.5q0 -96 -62 -154.5t-160 -58.5h-125v-235h-76zM279 590h-120v-288h120q69 0 109 39.5t40 105.5q0 65 -40 104t-109 39z" />
    <glyph glyph-name="Q" unicode="Q" horiz-adv-x="564" 
d="M497 457v-257q0 -64 -28 -112.5t-78 -73.5l102 -147h-93l-85 126q-16 -3 -34 -3q-97 0 -156.5 57t-59.5 153v257q0 97 58.5 153.5t157.5 56.5q97 0 156.5 -57t59.5 -153zM141 459v-261q0 -62 37.5 -100.5t102.5 -38.5t102 38.5t37 100.5v261q0 62 -37 100.5t-102 38.5
t-102.5 -38.5t-37.5 -100.5z" />
    <glyph glyph-name="R" unicode="R" horiz-adv-x="557" 
d="M505 0h-83l-114 260q-4 0 -13 -0.5t-14 -0.5h-122v-259h-76v657h202q97 0 159 -54t62 -142q0 -65 -32.5 -113t-89.5 -70zM279 590h-120v-265h120q69 0 109 37t40 98q0 59 -40 94.5t-109 35.5z" />
    <glyph glyph-name="S" unicode="S" horiz-adv-x="525" 
d="M464 470h-74v16q0 51 -34.5 84t-94.5 33t-93.5 -27.5t-33.5 -71.5q0 -66 75 -96l108 -44q35 -14 57.5 -26t49 -33.5t39.5 -52.5t13 -71q0 -87 -59 -139t-155 -52t-155.5 50t-59.5 135v16h75v-20q0 -51 37 -83.5t102 -32.5t102.5 32.5t37.5 84.5q0 48 -28.5 74.5
t-83.5 48.5l-93 38q-135 53 -135 165q0 75 55.5 122t144.5 47q91 0 147 -50t56 -135v-12z" />
    <glyph glyph-name="T" unicode="T" horiz-adv-x="461" 
d="M19 588v69h422v-69h-173v-588h-76v588h-173z" />
    <glyph glyph-name="U" unicode="U" horiz-adv-x="579" 
d="M425 657h76v-457q0 -96 -58.5 -153t-153.5 -57t-153 57t-58 153v457h76v-459q0 -62 36 -100.5t99 -38.5q64 0 100 38.5t36 100.5v459z" />
    <glyph glyph-name="V" unicode="V" horiz-adv-x="509" 
d="M407 657h77l-190 -657h-78l-191 657h81l150 -536z" />
    <glyph glyph-name="W" unicode="W" horiz-adv-x="738" 
d="M631 657h73l-150 -657h-69l-117 520l-115 -520h-69l-150 657h75l112 -517l114 517h70l114 -517z" />
    <glyph glyph-name="X" unicode="X" horiz-adv-x="490" 
d="M27 657h84l137 -255l135 255h79l-174 -319l182 -338h-84l-144 270l-141 -270h-80l181 335z" />
    <glyph glyph-name="Y" unicode="Y" horiz-adv-x="488" 
d="M16 657h82l148 -320l149 320h77l-190 -394v-263h-76v262z" />
    <glyph glyph-name="Z" unicode="Z" horiz-adv-x="464" 
d="M48 589v68h371v-48l-290 -541h299v-68h-392v48l290 541h-278z" />
    <glyph glyph-name="bracketleft" unicode="[" horiz-adv-x="306" 
d="M157 696v-738h108v-69h-184v876h184v-69h-108z" />
    <glyph glyph-name="backslash" unicode="\" horiz-adv-x="420" 
d="M25 765h75l294 -876h-74z" />
    <glyph glyph-name="bracketright" unicode="]" horiz-adv-x="306" 
d="M149 -42v738h-108v69h184v-876h-184v69h108z" />
    <glyph glyph-name="asciicircum" unicode="^" horiz-adv-x="388" 
d="M165 657h58l118 -267h-71l-77 183l-77 -183h-69z" />
    <glyph glyph-name="underscore" unicode="_" horiz-adv-x="692" 
d="M68 -86v56h556v-56h-556z" />
    <glyph glyph-name="grave" unicode="`" horiz-adv-x="204" 
d="M150 547l-130 102l50 50l114 -119z" />
    <glyph glyph-name="a" unicode="a" 
d="M57 171v147q0 83 45 132t124 49q86 0 133 -66l11 56h56v-489h-56l-11 56q-47 -66 -133 -66q-79 0 -124 49t-45 132zM238 55q53 0 84 34t31 86v138q0 52 -31 86.5t-84 34.5q-51 0 -79.5 -32t-28.5 -81v-153q0 -50 28 -81.5t80 -31.5z" />
    <glyph glyph-name="b" unicode="b" 
d="M139 56l-11 -56h-56v677h73v-237q46 59 127 59q79 0 124 -49t45 -132v-147q0 -83 -45 -132t-124 -49q-86 0 -133 66zM260 55q52 0 80 31.5t28 81.5v153q0 49 -28.5 81t-79.5 32q-53 0 -84 -34.5t-31 -86.5v-138q0 -52 31 -86t84 -34z" />
    <glyph glyph-name="c" unicode="c" horiz-adv-x="473" 
d="M353 169h71v-9q0 -79 -50 -124.5t-133 -45.5q-84 0 -135 51.5t-51 138.5v129q0 87 51 138.5t135 51.5q82 0 132.5 -46t50.5 -123v-6h-71v12q0 43 -30 71t-82 28q-53 0 -83 -34t-30 -87v-140q0 -53 30 -87t83 -34q54 0 83 28t29 73v15z" />
    <glyph glyph-name="d" unicode="d" 
d="M370 0l-11 56q-47 -66 -133 -66q-79 0 -124 49t-45 132v147q0 83 45 132t124 49q81 0 127 -59v237h73v-677h-56zM238 55q53 0 84 34t31 86v138q0 52 -31 86.5t-84 34.5q-51 0 -79.5 -32t-28.5 -81v-153q0 -50 28 -81.5t80 -31.5z" />
    <glyph glyph-name="e" unicode="e" horiz-adv-x="474" 
d="M353 163h69v-7q0 -76 -50 -121t-131 -45q-84 0 -135 49.5t-51 132.5v137q0 87 51 138.5t135 51.5q81 0 131 -51.5t50 -138.5v-74h-295v-70q0 -50 30.5 -82.5t83.5 -32.5q54 0 83 28.5t29 73.5v11zM127 316v-24h226v24q0 54 -30 88.5t-82 34.5q-53 0 -83.5 -34.5
t-30.5 -88.5z" />
    <glyph glyph-name="f" unicode="f" horiz-adv-x="330" 
d="M30 424v62h78v24q0 81 42 124t122 43h42v-63h-38q-94 0 -94 -99v-29h126v-62h-126v-424h-74v424h-78z" />
    <glyph glyph-name="g" unicode="g" 
d="M57 188v130q0 83 45 132t124 49q86 0 133 -66l11 56h56v-516q0 -80 -49.5 -125t-131.5 -45q-81 0 -130.5 39.5t-49.5 106.5v5h70v-10q0 -35 28.5 -58t80.5 -23t80.5 29t28.5 77v97q-45 -58 -127 -58q-79 0 -124 49t-45 131zM238 73q53 0 84 34t31 86v120q0 52 -31 86.5
t-84 34.5q-51 0 -79.5 -32t-28.5 -81v-135q0 -50 28 -81.5t80 -31.5z" />
    <glyph glyph-name="h" unicode="h" horiz-adv-x="509" 
d="M145 0h-73v677h73v-237q46 59 128 59q79 0 123.5 -48t44.5 -131v-320h-73v321q0 49 -28.5 81t-79.5 32q-53 0 -84 -34.5t-31 -86.5v-313z" />
    <glyph glyph-name="i" unicode="i" horiz-adv-x="217" 
d="M61 627q0 20 14 34t34 14t33.5 -14t13.5 -34q0 -19 -14 -33t-33 -14q-20 0 -34 13.5t-14 33.5zM72 489h73v-489h-73v489z" />
    <glyph glyph-name="j" unicode="j" horiz-adv-x="217" 
d="M-57 -134h23q52 0 79 29t27 80v514h73v-509q0 -86 -46.5 -131.5t-127.5 -45.5h-28v63zM61 627q0 20 13.5 34t33.5 14t34 -14t14 -34t-14 -33.5t-34 -13.5t-33.5 14t-13.5 33z" />
    <glyph glyph-name="k" unicode="k" horiz-adv-x="471" 
d="M72 677h73v-425l214 237h85l-167 -187l174 -302h-83l-142 247l-81 -89v-158h-73v677z" />
    <glyph glyph-name="l" unicode="l" horiz-adv-x="226" 
d="M76 677h74v-677h-74v677z" />
    <glyph glyph-name="m" unicode="m" horiz-adv-x="793" 
d="M145 0h-73v489h56l10 -58q46 68 132 68q108 0 147 -88q42 88 143 88q78 0 122 -48t44 -131v-320h-74v321q0 49 -27.5 81t-77.5 32t-80.5 -33t-31.5 -82v-319h-73v321q0 49 -27.5 81t-77.5 32t-81 -33.5t-31 -83.5v-317z" />
    <glyph glyph-name="n" unicode="n" horiz-adv-x="509" 
d="M145 0h-73v489h56l11 -58q46 68 134 68q79 0 123.5 -48t44.5 -131v-320h-73v321q0 49 -28.5 81t-79.5 32q-53 0 -84 -34.5t-31 -86.5v-313z" />
    <glyph glyph-name="o" unicode="o" horiz-adv-x="483" 
d="M128 314v-140q0 -53 30 -87t83 -34t83 34t30 87v140q0 53 -30 87t-83 34t-83 -34t-30 -87zM428 309v-129q0 -87 -51.5 -138.5t-135.5 -51.5t-135 51.5t-51 138.5v129q0 87 51 138.5t135 51.5t135.5 -51.5t51.5 -138.5z" />
    <glyph glyph-name="p" unicode="p" 
d="M128 489l11 -57q46 67 133 67q79 0 124 -49t45 -132v-147q0 -83 -45 -132t-124 -49q-82 0 -127 59v-236h-73v676h56zM260 434q-53 0 -84 -34.5t-31 -86.5v-138q0 -52 31 -86t84 -34q52 0 80 31.5t28 81.5v153q0 49 -28.5 81t-79.5 32z" />
    <glyph glyph-name="q" unicode="q" 
d="M359 432l11 57h56v-676h-73v236q-45 -59 -127 -59q-79 0 -124 49t-45 132v147q0 83 45 132t124 49q87 0 133 -67zM238 434q-51 0 -79.5 -32t-28.5 -81v-153q0 -50 28 -81.5t80 -31.5q53 0 84 34t31 86v138q0 52 -31 86.5t-84 34.5z" />
    <glyph glyph-name="r" unicode="r" horiz-adv-x="315" 
d="M145 0h-73v489h56l12 -62q44 72 130 72q8 0 24 -2v-70q-24 3 -30 3q-53 0 -86 -33.5t-33 -88.5v-308z" />
    <glyph glyph-name="s" unicode="s" horiz-adv-x="448" 
d="M43 151h68v-17q0 -38 30.5 -61.5t83.5 -23.5q50 0 77 22.5t27 59.5q0 30 -15 46.5t-50 27.5l-94 29q-113 34 -113 128q0 57 46.5 97t118.5 40q78 0 126 -38t48 -105v-8h-69v12q0 35 -28 58t-77 23q-38 0 -67 -19t-29 -54q0 -48 59 -65l83 -26q64 -20 98 -50t34 -88
q0 -66 -47.5 -107.5t-126.5 -41.5q-81 0 -132 40t-51 108v13z" />
    <glyph glyph-name="t" unicode="t" horiz-adv-x="314" 
d="M26 424v62h94v133h74v-133h94v-62h-94v-424h-74v424h-94z" />
    <glyph glyph-name="u" unicode="u" horiz-adv-x="503" 
d="M68 165v324h73v-324q0 -48 27 -79t76 -31q52 0 83 34t31 86v314h73v-489h-56l-11 56q-47 -66 -133 -66q-77 0 -120 47t-43 128z" />
    <glyph glyph-name="v" unicode="v" horiz-adv-x="458" 
d="M264 0h-71l-169 489h80l127 -389l127 389h76z" />
    <glyph glyph-name="w" unicode="w" horiz-adv-x="657" 
d="M108 489l93 -376l96 376h66l96 -376l93 376h76l-135 -489h-65l-99 365l-99 -365h-65l-135 489h78z" />
    <glyph glyph-name="x" unicode="x" horiz-adv-x="441" 
d="M27 489h83l113 -184l114 184h79l-155 -237l158 -252h-83l-118 192l-117 -192h-79l159 243z" />
    <glyph glyph-name="y" unicode="y" horiz-adv-x="457" 
d="M198 -187h-69l67 184l-172 492h80l127 -387l127 387h76z" />
    <glyph glyph-name="z" unicode="z" horiz-adv-x="429" 
d="M46 427v62h338v-46l-257 -382h262v-61h-351v45l257 382h-249z" />
    <glyph glyph-name="braceleft" unicode="{" horiz-adv-x="334" 
d="M109 60v156q0 84 -71 84h-9v60h9q71 0 71 84v150q0 82 44.5 126.5t127.5 44.5h12v-67h-13q-95 0 -95 -102v-150q0 -84 -60 -116q60 -34 60 -117v-155q0 -102 95 -102h13v-67h-12q-83 0 -127.5 44.5t-44.5 126.5z" />
    <glyph glyph-name="bar" unicode="|" horiz-adv-x="231" 
d="M150 765v-876h-69v876h69z" />
    <glyph glyph-name="braceright" unicode="}" horiz-adv-x="334" 
d="M225 216v-156q0 -82 -44.5 -126.5t-127.5 -44.5h-12v67h13q95 0 95 102v155q0 83 60 117q-60 32 -60 116v150q0 102 -95 102h-13v67h12q83 0 127.5 -44.5t44.5 -126.5v-150q0 -84 71 -84h9v-60h-9q-71 0 -71 -84z" />
    <glyph glyph-name="asciitilde" unicode="~" horiz-adv-x="511" 
d="M415 395l47 -28q-45 -94 -113 -94q-38 0 -91 37q-45 30 -70 30q-26 0 -47 -20.5t-44 -60.5l-46 29q52 113 138 113q41 0 99 -39q44 -28 61 -28q32 0 66 61z" />
    <glyph glyph-name="uni00A0" unicode="&#xa0;" horiz-adv-x="212" 
 />
    <glyph glyph-name="exclamdown" unicode="&#xa1;" horiz-adv-x="224" 
d="M135 321l16 -321v-168h-77v168l16 321h45zM62 449q0 21 15 35.5t35 14.5q22 0 36.5 -14.5t14.5 -35.5q0 -22 -14.5 -36.5t-36.5 -14.5q-20 0 -35 15t-15 36z" />
    <glyph glyph-name="cent" unicode="&#xa2;" horiz-adv-x="475" 
d="M209 667h61v-86q70 -8 111 -53.5t41 -116.5v-6h-70v12q0 45 -30 74t-83 29t-82.5 -34t-29.5 -87v-140q0 -53 29.5 -87t82.5 -34q54 0 83.5 29t29.5 75v15h70v-9q0 -71 -41 -117t-111 -54v-87h-61v87q-72 8 -114 58t-42 129v130q0 78 42 128t114 59v86z" />
    <glyph glyph-name="sterling" unicode="&#xa3;" horiz-adv-x="557" 
d="M50 260v61h64v140q0 94 54.5 150t142.5 56q84 0 136 -53t52 -142v-19h-73v22q0 55 -30 90t-85 35q-58 0 -90 -38t-32 -99v-142h183v-61h-183v-195h312v-65h-451v65h64v195h-64z" />
    <glyph glyph-name="currency" unicode="&#xa4;" horiz-adv-x="585" 
d="M481 561l48 -47l-86 -81q27 -43 27 -99v-9q0 -55 -26 -99l85 -81l-48 -47l-79 84q-45 -33 -110 -33q-66 0 -110 32l-79 -83l-47 47l85 81q-26 41 -26 99v9q0 58 25 100l-84 80l47 47l78 -84q47 33 111 33q63 0 110 -33zM185 337v-14q0 -48 28.5 -78.5t78.5 -30.5
q51 0 79.5 30.5t28.5 78.5v14q0 48 -29 78.5t-79 30.5t-78.5 -30.5t-28.5 -78.5z" />
    <glyph glyph-name="yen" unicode="&#xa5;" horiz-adv-x="533" 
d="M414 657h75l-151 -303h125v-53h-151l-9 -18v-60h160v-53h-160v-170h-73v170h-160v53h160v60l-9 18h-151v53h124l-150 303h80l145 -303z" />
    <glyph glyph-name="brokenbar" unicode="&#xa6;" horiz-adv-x="239" 
d="M82 405v360h75v-360h-75zM82 -111v360h75v-360h-75z" />
    <glyph glyph-name="section" unicode="&#xa7;" horiz-adv-x="512" 
d="M453 217l-259 110q-135 56 -135 167q0 77 54.5 125t141.5 48q89 0 143 -51t54 -137v-12h-72v18q0 53 -33 86t-92 33t-91.5 -28.5t-32.5 -74.5q0 -69 76 -102l149 -64q49 -21 73 -42.5t24 -58.5v-17zM59 252l260 -109q134 -56 134 -168q0 -76 -54 -124t-142 -48t-142.5 51
t-54.5 137v12h72v-18q0 -53 33 -86t92 -33t92 28.5t33 74.5q0 34 -21 60.5t-56 41.5l-149 64q-48 20 -72.5 42t-24.5 59v16z" />
    <glyph glyph-name="dieresis" unicode="&#xa8;" horiz-adv-x="241" 
d="M20 607q0 18 13 30.5t32 12.5q18 0 30 -12.5t12 -30.5q0 -19 -12 -32t-30 -13q-19 0 -32 13t-13 32zM134 607q0 18 13 30.5t31 12.5t30.5 -12.5t12.5 -30.5q0 -19 -12.5 -32t-30.5 -13t-31 13t-13 32z" />
    <glyph glyph-name="copyright" unicode="&#xa9;" horiz-adv-x="771" 
d="M468 275h63v-7q0 -62 -41 -98.5t-108 -36.5t-108 40.5t-41 108.5v93q0 68 41 108t108 40t108 -36t41 -97v-5h-63v9q0 32 -23 52.5t-62 20.5q-40 0 -63 -24.5t-23 -63.5v-101q0 -39 23 -64t63 -25q41 0 63 20.5t22 53.5v12zM46 327q0 141 99 240.5t240 99.5t240.5 -99.5
t99.5 -240.5t-99.5 -239.5t-240.5 -98.5t-240 98.5t-99 239.5zM100 327q0 -119 83.5 -203t201.5 -84t201.5 84t83.5 203q0 120 -83 204.5t-202 84.5q-118 0 -201.5 -85t-83.5 -204z" />
    <glyph glyph-name="ordfeminine" unicode="&#xaa;" horiz-adv-x="322" 
d="M59 501v68q0 42 21.5 67.5t61.5 25.5q42 0 61 -29l5 24h46v-244h-46l-5 24q-21 -29 -61 -29t-61.5 25.5t-21.5 67.5zM155 455q20 0 32 13.5t12 33.5v65q0 21 -12 34t-32 13t-30.5 -12.5t-10.5 -32.5v-68q0 -20 10.5 -33t30.5 -13z" />
    <glyph glyph-name="guillemotleft" unicode="&#xab;" horiz-adv-x="329" 
d="M159 233l55 165h54l-45 -165l45 -165h-54zM54 233l59 165h54l-49 -165l49 -165h-54z" />
    <glyph glyph-name="logicalnot" unicode="&#xac;" horiz-adv-x="523" 
d="M67 295v66h381v-211h-71v145h-310z" />
    <glyph glyph-name="uni00AD" unicode="&#xad;" horiz-adv-x="371" 
d="M68 229v66h235v-66h-235z" />
    <glyph glyph-name="registered" unicode="&#xae;" horiz-adv-x="517" 
d="M53 460q0 86 60 146.5t145 60.5q86 0 146.5 -60.5t60.5 -146.5q0 -85 -60.5 -145t-146.5 -60t-145.5 59.5t-59.5 145.5zM97 460q0 -68 47 -115.5t114 -47.5t114 47.5t47 115.5t-47 116.5t-114 48.5t-114 -48.5t-47 -116.5zM348 350h-48l-33 82h-43v-82h-43v221h88
q35 0 57 -18.5t22 -49.5q0 -44 -38 -62zM265 534h-41v-66h41q37 0 37 34q0 32 -37 32z" />
    <glyph glyph-name="macron" unicode="&#xaf;" horiz-adv-x="275" 
d="M20 572v55h235v-55h-235z" />
    <glyph glyph-name="degree" unicode="&#xb0;" horiz-adv-x="413" 
d="M49 509q0 65 46 111.5t110 46.5q66 0 112.5 -46.5t46.5 -111.5t-46.5 -111t-112.5 -46q-65 0 -110.5 46t-45.5 111zM110 509q0 -41 27.5 -71t67.5 -30t68 29.5t28 71.5t-28 71.5t-68 29.5t-67.5 -30t-27.5 -71z" />
    <glyph glyph-name="plusminus" unicode="&#xb1;" horiz-adv-x="521" 
d="M296 528v-130h156v-58h-156v-129h-70v129h-155v58h155v130h70zM71 110v55h378v-55h-378z" />
    <glyph glyph-name="twosuperior" unicode="&#xb2;" horiz-adv-x="279" 
d="M32 480v27q0 74 59 114l57 37q38 26 38 62q0 42 -47 42q-23 0 -36 -12t-13 -33v-9h-55v9q0 43 29.5 69.5t76.5 26.5q48 0 76 -24.5t28 -66.5q0 -61 -59 -101l-58 -38q-30 -19 -32 -51h149v-52h-213z" />
    <glyph glyph-name="threesuperior" unicode="&#xb3;" horiz-adv-x="278" 
d="M109 628v44h23q50 0 50 46q0 45 -46 45q-22 0 -35 -12.5t-13 -32.5v-7h-55v8q0 42 29 68.5t75 26.5q47 0 74.5 -24.5t27.5 -64.5q0 -53 -38 -73q44 -23 44 -81q0 -43 -29.5 -69t-78.5 -26t-77.5 25.5t-28.5 69.5v8h55v-8q0 -21 13 -33.5t37 -12.5q51 0 51 52q0 51 -55 51
h-23z" />
    <glyph glyph-name="acute" unicode="&#xb4;" horiz-adv-x="204" 
d="M184 649l-130 -102l-34 33l114 119z" />
    <glyph glyph-name="mu" unicode="&#xb5;" horiz-adv-x="501" 
d="M75 -187v676h74v-324q0 -48 27 -79t76 -31q52 0 82.5 33.5t30.5 85.5v315h74v-489h-57l-11 56q-45 -66 -133 -66q-59 0 -95 36l6 -176v-37h-74z" />
    <glyph glyph-name="paragraph" unicode="&#xb6;" horiz-adv-x="510" 
d="M294 592v-369h-27q-103 0 -166.5 58t-63.5 159q0 99 68 158t177 59h145v-768h-75v703h-58z" />
    <glyph glyph-name="periodcentered" unicode="&#xb7;" horiz-adv-x="230" 
d="M65 274q0 22 14.5 36.5t35.5 14.5t36 -14.5t15 -36.5q0 -21 -15 -35.5t-36 -14.5t-35.5 14.5t-14.5 35.5z" />
    <glyph glyph-name="cedilla" unicode="&#xb8;" horiz-adv-x="239" 
d="M86 -89l-17 11l26 88h50l-17 -55h12q39 0 60 -18.5t21 -51.5t-22 -52.5t-59 -19.5h-97v44h96q29 0 29 27t-29 27h-53z" />
    <glyph glyph-name="onesuperior" unicode="&#xb9;" horiz-adv-x="222" 
d="M31 758v51h114v-279h58v-49h-172v49h57v228h-57z" />
    <glyph glyph-name="ordmasculine" unicode="&#xba;" horiz-adv-x="310" 
d="M112 569v-68q0 -21 11.5 -34t31.5 -13t32 13t12 34v68q0 20 -12 33t-32 13t-31.5 -13t-11.5 -33zM253 564v-59q0 -45 -27 -71.5t-71 -26.5t-71 26.5t-27 71.5v59q0 45 27 71.5t71 26.5t71 -26.5t27 -71.5z" />
    <glyph glyph-name="guillemotright" unicode="&#xbb;" horiz-adv-x="329" 
d="M115 398l55 -165l-55 -165h-54l45 165l-45 165h54zM216 398l59 -165l-59 -165h-54l49 165l-49 165h54z" />
    <glyph glyph-name="onequarter" unicode="&#xbc;" horiz-adv-x="620" 
d="M470 328h69v-208h35v-49h-35v-71h-57v71h-151v55zM384 120h98v142zM291 329l192 328h66l-198 -329l-192 -328h-66zM54 607v50h114v-279h58v-49h-172v49h57v229h-57z" />
    <glyph glyph-name="onehalf" unicode="&#xbd;" horiz-adv-x="631" 
d="M291 329l192 328h66l-198 -329l-193 -328h-65zM53 607v50h114v-279h58v-49h-172v49h57v229h-57zM366 0v27q0 74 58 114l57 37q39 27 39 62q0 42 -47 42q-24 0 -36.5 -12t-12.5 -33v-9h-56v9q0 43 29.5 69.5t76.5 26.5q48 0 76 -24.5t28 -66.5q0 -61 -59 -101l-57 -38
q-28 -18 -33 -51h149v-52h-212z" />
    <glyph glyph-name="threequarters" unicode="&#xbe;" horiz-adv-x="621" 
d="M471 328h68v-208h36v-49h-36v-71h-57v71h-150v55zM384 120h98v142zM292 329l192 328h66l-198 -329l-193 -328h-65zM128 481v44h23q50 0 50 46q0 45 -46 45q-22 0 -35 -12.5t-13 -32.5v-7h-55v8q0 42 29 68.5t75 26.5q47 0 74.5 -24.5t27.5 -64.5q0 -54 -38 -73
q44 -23 44 -80q0 -44 -29.5 -70t-78.5 -26q-48 0 -77 26t-29 69v8h55v-8q0 -21 13 -33.5t37 -12.5q51 0 51 53q0 50 -55 50h-23z" />
    <glyph glyph-name="questiondown" unicode="&#xbf;" horiz-adv-x="471" 
d="M219 321h58l4 -33q3 -23 -2 -45t-10.5 -35.5t-24.5 -36.5t-25.5 -29.5l-32.5 -32.5q-46 -45 -58 -68q-13 -25 -13 -52q0 -45 31 -71.5t87 -26.5q60 0 93.5 31t33.5 80v24h74v-22q0 -82 -56 -132t-146 -50q-88 0 -141.5 45t-53.5 121q0 48 24.5 85t71.5 82q3 3 16.5 16
t17 16.5t13.5 15t13.5 18t9.5 18t9 23.5t4 26zM298 449q0 -21 -14.5 -35.5t-35.5 -14.5t-35.5 14.5t-14.5 35.5t14.5 35.5t35.5 14.5t35.5 -14.5t14.5 -35.5z" />
    <glyph glyph-name="Agrave" unicode="&#xc0;" horiz-adv-x="548" 
d="M100 0h-75l210 657h77l212 -657h-79l-48 151h-250zM271 554l-104 -337h211zM274 694l-130 101l50 51l114 -119z" />
    <glyph glyph-name="Aacute" unicode="&#xc1;" horiz-adv-x="548" 
d="M100 0h-75l210 657h77l212 -657h-79l-48 151h-250zM271 554l-104 -337h211zM402 795l-130 -101l-34 33l114 119z" />
    <glyph glyph-name="Acircumflex" unicode="&#xc2;" horiz-adv-x="548" 
d="M100 0h-75l210 657h77l212 -657h-79l-48 151h-250zM271 554l-104 -337h211zM253 844h42l102 -123l-29 -26l-95 85l-93 -84l-29 25z" />
    <glyph glyph-name="Atilde" unicode="&#xc3;" horiz-adv-x="548" 
d="M100 0h-75l210 657h77l212 -657h-79l-48 151h-250zM271 554l-104 -337h211zM383 802h40q2 -16 2 -24q0 -37 -18 -59.5t-53 -22.5q-27 0 -64 21l-40 22q-28 14 -40 14q-19 0 -29.5 -15t-12 -25t-1.5 -17h-40q-3 12 -3 23q0 36 23 60.5t60 24.5q27 0 58 -17l41 -22
q30 -18 45 -18q32 0 32 55z" />
    <glyph glyph-name="Adieresis" unicode="&#xc4;" horiz-adv-x="548" 
d="M100 0h-75l210 657h77l212 -657h-79l-48 151h-250zM271 554l-104 -337h211zM174 762q0 18 13 30.5t32 12.5q18 0 30 -12.5t12 -30.5q0 -19 -12 -32t-30 -13q-19 0 -32 13t-13 32zM288 762q0 18 13 30.5t31 12.5t30.5 -12.5t12.5 -30.5q0 -19 -12.5 -32t-30.5 -13t-31 13
t-13 32z" />
    <glyph glyph-name="Aring" unicode="&#xc5;" horiz-adv-x="548" 
d="M100 0h-75l201 629q-50 26 -50 84q0 40 28 68t70 28t70 -28t28 -68q0 -58 -51 -84l203 -629h-79l-48 151h-250zM271 554l-104 -337h211zM274 658q22 0 36.5 16t14.5 39t-14.5 39t-36.5 16t-36.5 -16t-14.5 -39t14.5 -39t36.5 -16z" />
    <glyph glyph-name="AE" unicode="&#xc6;" horiz-adv-x="806" 
d="M89 0h-81l326 657h415v-69h-301v-218h277v-68h-277v-233h309v-69h-385v146h-213zM191 212h181v375z" />
    <glyph glyph-name="Ccedilla" unicode="&#xc7;" horiz-adv-x="548" 
d="M235 -89l-17 11l21 71q-79 12 -125.5 67t-46.5 140v257q0 97 58.5 153.5t156.5 56.5q95 0 153.5 -54t58.5 -145v-15h-73v17q0 57 -37 92.5t-102 35.5t-102 -39t-37 -100v-261q0 -61 37 -100t102 -39t102 35.5t37 92.5v23h73v-21q0 -90 -56.5 -143.5t-149.5 -55.5l-11 -35
h12q39 0 60 -18.5t21 -51.5t-22 -52.5t-59 -19.5h-97v44h96q29 0 29 27t-29 27h-53z" />
    <glyph glyph-name="Egrave" unicode="&#xc8;" horiz-adv-x="514" 
d="M275 694l-130 101l50 51l114 -119zM433 302h-274v-233h307v-69h-383v657h375v-69h-299v-218h274v-68z" />
    <glyph glyph-name="Eacute" unicode="&#xc9;" horiz-adv-x="514" 
d="M433 302h-274v-233h307v-69h-383v657h375v-69h-299v-218h274v-68zM403 795l-130 -101l-34 33l114 119z" />
    <glyph glyph-name="Ecircumflex" unicode="&#xca;" horiz-adv-x="514" 
d="M254 844h42l102 -123l-29 -26l-95 85l-93 -84l-29 25zM433 302h-274v-233h307v-69h-383v657h375v-69h-299v-218h274v-68z" />
    <glyph glyph-name="Edieresis" unicode="&#xcb;" horiz-adv-x="514" 
d="M433 302h-274v-233h307v-69h-383v657h375v-69h-299v-218h274v-68zM174 762q0 18 13 30.5t32 12.5q18 0 30 -12.5t12 -30.5q0 -19 -12 -32t-30 -13q-19 0 -32 13t-13 32zM288 762q0 18 13 30.5t31 12.5t30.5 -12.5t12.5 -30.5q0 -19 -12.5 -32t-30.5 -13t-31 13t-13 32z
" />
    <glyph glyph-name="Igrave" unicode="&#xcc;" horiz-adv-x="242" 
d="M159 657v-657h-76v657h76zM123 694l-130 101l50 51l114 -119z" />
    <glyph glyph-name="Iacute" unicode="&#xcd;" horiz-adv-x="242" 
d="M159 657v-657h-76v657h76zM250 795l-130 -101l-34 33l114 119z" />
    <glyph glyph-name="Icircumflex" unicode="&#xce;" horiz-adv-x="242" 
d="M159 657v-657h-76v657h76zM100 844h42l102 -123l-29 -26l-95 85l-93 -84l-29 25z" />
    <glyph glyph-name="Idieresis" unicode="&#xcf;" horiz-adv-x="242" 
d="M159 657v-657h-76v657h76zM20 762q0 18 13 30.5t32 12.5q18 0 30 -12.5t12 -30.5q0 -19 -12 -32t-30 -13q-19 0 -32 13t-13 32zM134 762q0 18 13 30.5t31 12.5t30.5 -12.5t12.5 -30.5q0 -19 -12.5 -32t-30.5 -13t-31 13t-13 32z" />
    <glyph glyph-name="Eth" unicode="&#xd0;" horiz-adv-x="579" 
d="M294 657q101 0 161 -58t60 -157v-227q0 -99 -60 -157t-161 -58h-208v303h-73v64h73v290h208zM294 588h-132v-221h132v-64h-132v-234h132q68 0 106.5 39.5t38.5 104.5v231q0 65 -38.5 104.5t-106.5 39.5z" />
    <glyph glyph-name="Ntilde" unicode="&#xd1;" horiz-adv-x="585" 
d="M401 802h40q2 -16 2 -24q0 -37 -18 -59.5t-53 -22.5q-27 0 -64 21l-40 22q-28 14 -40 14q-19 0 -29.5 -15t-12 -25t-1.5 -17h-40q-3 12 -3 23q0 36 23 60.5t60 24.5q27 0 58 -17l41 -22q30 -18 45 -18q32 0 32 55zM502 657v-657h-63l-285 508v-508h-71v657h68l280 -500
v500h71z" />
    <glyph glyph-name="Ograve" unicode="&#xd2;" horiz-adv-x="562" 
d="M281 694l-130 101l50 51l114 -119zM141 459v-261q0 -62 37.5 -100.5t102.5 -38.5t102 38.5t37 100.5v261q0 62 -37 100.5t-102 38.5t-102.5 -38.5t-37.5 -100.5zM497 457v-257q0 -96 -59.5 -153t-156.5 -57t-156.5 57t-59.5 153v257q0 97 58.5 153.5t157.5 56.5
q97 0 156.5 -57t59.5 -153z" />
    <glyph glyph-name="Oacute" unicode="&#xd3;" horiz-adv-x="562" 
d="M410 795l-130 -101l-34 33l114 119zM141 459v-261q0 -62 37.5 -100.5t102.5 -38.5t102 38.5t37 100.5v261q0 62 -37 100.5t-102 38.5t-102.5 -38.5t-37.5 -100.5zM497 457v-257q0 -96 -59.5 -153t-156.5 -57t-156.5 57t-59.5 153v257q0 97 58.5 153.5t157.5 56.5
q97 0 156.5 -57t59.5 -153z" />
    <glyph glyph-name="Ocircumflex" unicode="&#xd4;" horiz-adv-x="562" 
d="M260 844h42l102 -123l-29 -26l-95 85l-93 -84l-29 25zM141 459v-261q0 -62 37.5 -100.5t102.5 -38.5t102 38.5t37 100.5v261q0 62 -37 100.5t-102 38.5t-102.5 -38.5t-37.5 -100.5zM497 457v-257q0 -96 -59.5 -153t-156.5 -57t-156.5 57t-59.5 153v257q0 97 58.5 153.5
t157.5 56.5q97 0 156.5 -57t59.5 -153z" />
    <glyph glyph-name="Otilde" unicode="&#xd5;" horiz-adv-x="562" 
d="M141 459v-261q0 -62 37.5 -100.5t102.5 -38.5t102 38.5t37 100.5v261q0 62 -37 100.5t-102 38.5t-102.5 -38.5t-37.5 -100.5zM497 457v-257q0 -96 -59.5 -153t-156.5 -57t-156.5 57t-59.5 153v257q0 97 58.5 153.5t157.5 56.5q97 0 156.5 -57t59.5 -153zM390 802h40
q2 -16 2 -24q0 -37 -18 -59.5t-53 -22.5q-27 0 -64 21l-40 22q-28 14 -40 14q-19 0 -29.5 -15t-12 -25t-1.5 -17h-40q-3 12 -3 23q0 36 23 60.5t60 24.5q27 0 58 -17l41 -22q30 -18 45 -18q32 0 32 55z" />
    <glyph glyph-name="Odieresis" unicode="&#xd6;" horiz-adv-x="562" 
d="M141 459v-261q0 -62 37.5 -100.5t102.5 -38.5t102 38.5t37 100.5v261q0 62 -37 100.5t-102 38.5t-102.5 -38.5t-37.5 -100.5zM497 457v-257q0 -96 -59.5 -153t-156.5 -57t-156.5 57t-59.5 153v257q0 97 58.5 153.5t157.5 56.5q97 0 156.5 -57t59.5 -153zM181 762
q0 18 13 30.5t32 12.5q18 0 30 -12.5t12 -30.5q0 -19 -12 -32t-30 -13q-19 0 -32 13t-13 32zM295 762q0 18 13 30.5t31 12.5t30.5 -12.5t12.5 -30.5q0 -19 -12.5 -32t-30.5 -13t-31 13t-13 32z" />
    <glyph glyph-name="multiply" unicode="&#xd7;" horiz-adv-x="424" 
d="M58 222l106 106l-106 106l49 48l106 -106l106 106l47 -48l-106 -106l107 -106l-48 -48l-107 106l-106 -106z" />
    <glyph glyph-name="Oslash" unicode="&#xd8;" horiz-adv-x="562" 
d="M497 457v-257q0 -96 -59.5 -153t-156.5 -57q-71 0 -120 30l-33 -69h-57l48 101q-54 57 -54 148v257q0 97 58.5 153.5t157.5 56.5q67 0 119 -30l34 69h57l-49 -101q55 -57 55 -148zM422 460q0 41 -17 73l-215 -449q37 -27 91 -27q66 0 103.5 39t37.5 101v263zM140 460
v-263q0 -42 16 -73l215 448q-36 28 -90 28q-66 0 -103.5 -39t-37.5 -101z" />
    <glyph glyph-name="Ugrave" unicode="&#xd9;" horiz-adv-x="579" 
d="M290 694l-130 101l50 51l114 -119zM425 657h76v-457q0 -96 -58.5 -153t-153.5 -57t-153 57t-58 153v457h76v-459q0 -62 36 -100.5t99 -38.5q64 0 100 38.5t36 100.5v459z" />
    <glyph glyph-name="Uacute" unicode="&#xda;" horiz-adv-x="579" 
d="M425 657h76v-457q0 -96 -58.5 -153t-153.5 -57t-153 57t-58 153v457h76v-459q0 -62 36 -100.5t99 -38.5q64 0 100 38.5t36 100.5v459zM418 795l-130 -101l-34 33l114 119z" />
    <glyph glyph-name="Ucircumflex" unicode="&#xdb;" horiz-adv-x="579" 
d="M268 844h42l102 -123l-29 -26l-95 85l-93 -84l-29 25zM425 657h76v-457q0 -96 -58.5 -153t-153.5 -57t-153 57t-58 153v457h76v-459q0 -62 36 -100.5t99 -38.5q64 0 100 38.5t36 100.5v459z" />
    <glyph glyph-name="Udieresis" unicode="&#xdc;" horiz-adv-x="579" 
d="M425 657h76v-457q0 -96 -58.5 -153t-153.5 -57t-153 57t-58 153v457h76v-459q0 -62 36 -100.5t99 -38.5q64 0 100 38.5t36 100.5v459zM188 762q0 18 13 30.5t32 12.5q18 0 30 -12.5t12 -30.5q0 -19 -12 -32t-30 -13q-19 0 -32 13t-13 32zM302 762q0 18 13 30.5t31 12.5
t30.5 -12.5t12.5 -30.5q0 -19 -12.5 -32t-30.5 -13t-31 13t-13 32z" />
    <glyph glyph-name="Yacute" unicode="&#xdd;" horiz-adv-x="488" 
d="M16 657h82l148 -320l149 320h77l-190 -394v-263h-76v262zM374 795l-130 -101l-34 33l114 119z" />
    <glyph glyph-name="Thorn" unicode="&#xde;" horiz-adv-x="547" 
d="M159 657v-118h125q98 0 160 -57.5t62 -151.5q0 -96 -62 -154.5t-160 -58.5h-125v-117h-76v657h76zM279 472h-120v-288h120q69 0 109 39.5t40 105.5q0 65 -40 104t-109 39z" />
    <glyph glyph-name="germandbls" unicode="&#xdf;" horiz-adv-x="504" 
d="M220 0v62h27q61 0 97 35t36 93q0 61 -34 97t-92 36h-34v61h20q56 0 90 31.5t34 85.5q0 52 -29 82.5t-81 30.5q-109 0 -109 -122v-492h-73v487q0 90 48 140t135 50q82 0 133.5 -47t51.5 -123q0 -110 -100 -149v-2q55 -18 85.5 -61t30.5 -108q0 -84 -56.5 -135.5
t-145.5 -51.5h-34z" />
    <glyph glyph-name="agrave" unicode="&#xe0;" 
d="M57 171v147q0 83 45 132t124 49q86 0 133 -66l11 56h56v-489h-56l-11 56q-47 -66 -133 -66q-79 0 -124 49t-45 132zM238 55q53 0 84 34t31 86v138q0 52 -31 86.5t-84 34.5q-51 0 -79.5 -32t-28.5 -81v-153q0 -50 28 -81.5t80 -31.5zM243 547l-130 102l50 50l114 -119z
" />
    <glyph glyph-name="aacute" unicode="&#xe1;" 
d="M57 171v147q0 83 45 132t124 49q86 0 133 -66l11 56h56v-489h-56l-11 56q-47 -66 -133 -66q-79 0 -124 49t-45 132zM238 55q53 0 84 34t31 86v138q0 52 -31 86.5t-84 34.5q-51 0 -79.5 -32t-28.5 -81v-153q0 -50 28 -81.5t80 -31.5zM370 649l-130 -102l-34 33l114 119z
" />
    <glyph glyph-name="acircumflex" unicode="&#xe2;" 
d="M57 171v147q0 83 45 132t124 49q86 0 133 -66l11 56h56v-489h-56l-11 56q-47 -66 -133 -66q-79 0 -124 49t-45 132zM238 55q53 0 84 34t31 86v138q0 52 -31 86.5t-84 34.5q-51 0 -79.5 -32t-28.5 -81v-153q0 -50 28 -81.5t80 -31.5zM220 697h42l102 -123l-29 -26l-95 85
l-93 -84l-29 25z" />
    <glyph glyph-name="atilde" unicode="&#xe3;" 
d="M57 171v147q0 83 45 132t124 49q86 0 133 -66l11 56h56v-489h-56l-11 56q-47 -66 -133 -66q-79 0 -124 49t-45 132zM238 55q53 0 84 34t31 86v138q0 52 -31 86.5t-84 34.5q-51 0 -79.5 -32t-28.5 -81v-153q0 -50 28 -81.5t80 -31.5zM350 662h40q2 -16 2 -24
q0 -37 -18 -59.5t-53 -22.5q-24 0 -64 21l-40 22q-24 14 -40 14q-19 0 -29.5 -15t-12 -24.5t-1.5 -16.5h-40q-3 11 -3 22q0 37 23 61.5t60 24.5q27 0 58 -17l41 -23q28 -17 45 -17q32 0 32 54z" />
    <glyph glyph-name="adieresis" unicode="&#xe4;" 
d="M57 171v147q0 83 45 132t124 49q86 0 133 -66l11 56h56v-489h-56l-11 56q-47 -66 -133 -66q-79 0 -124 49t-45 132zM238 55q53 0 84 34t31 86v138q0 52 -31 86.5t-84 34.5q-51 0 -79.5 -32t-28.5 -81v-153q0 -50 28 -81.5t80 -31.5zM141 607q0 18 13 30.5t32 12.5
q18 0 30 -12.5t12 -30.5q0 -19 -12 -32t-30 -13q-19 0 -32 13t-13 32zM255 607q0 18 13 30.5t31 12.5t30.5 -12.5t12.5 -30.5q0 -19 -12.5 -32t-30.5 -13t-31 13t-13 32z" />
    <glyph glyph-name="aring" unicode="&#xe5;" 
d="M57 171v147q0 83 45 132t124 49q86 0 133 -66l11 56h56v-489h-56l-11 56q-47 -66 -133 -66q-79 0 -124 49t-45 132zM238 55q53 0 84 34t31 86v138q0 52 -31 86.5t-84 34.5q-51 0 -79.5 -32t-28.5 -81v-153q0 -50 28 -81.5t80 -31.5zM241 569q22 0 36.5 16t14.5 39
t-14.5 38.5t-36.5 15.5t-36.5 -15.5t-14.5 -38.5t14.5 -39t36.5 -16zM241 528q-42 0 -70 28t-28 68t28 68t70 28t70 -28t28 -68t-28 -68t-70 -28z" />
    <glyph glyph-name="ae" unicode="&#xe6;" horiz-adv-x="760" 
d="M47 132q0 67 45 101t127 34h121v62q0 47 -28.5 77.5t-78.5 30.5t-79 -28.5t-29 -71.5v-11h-71v6q0 76 49.5 121.5t129.5 45.5q101 0 146 -78q47 78 147 78q82 0 132 -51.5t50 -138.5v-74h-295v-70q0 -50 30 -82.5t83 -32.5q54 0 83 28.5t29 73.5v11h70v-7q0 -76 -50 -121
t-132 -45q-55 0 -96 24t-61 67q-45 -91 -160 -91q-75 0 -118.5 37t-43.5 105zM221 52q54 0 86.5 34t32.5 86v38h-116q-102 0 -102 -80q0 -35 25 -56.5t74 -21.5zM413 316v-24h225v24q0 54 -30 88.5t-82 34.5q-53 0 -83 -34.5t-30 -88.5z" />
    <glyph glyph-name="ccedilla" unicode="&#xe7;" horiz-adv-x="473" 
d="M194 -89l-17 11l21 72q-66 12 -104.5 61t-38.5 125v129q0 87 51 138.5t135 51.5q82 0 132.5 -46t50.5 -123v-6h-71v12q0 43 -30 71t-82 28q-53 0 -83 -34t-30 -87v-140q0 -53 30 -87t83 -34q54 0 83 28t29 73v15h71v-9q0 -77 -48.5 -122.5t-128.5 -47.5l-11 -35h12
q39 0 60 -18.5t21 -51.5t-22 -52.5t-59 -19.5h-97v44h96q29 0 29 27t-29 27h-53z" />
    <glyph glyph-name="egrave" unicode="&#xe8;" horiz-adv-x="474" 
d="M353 163h69v-7q0 -76 -50 -121t-131 -45q-84 0 -135 49.5t-51 132.5v137q0 87 51 138.5t135 51.5q81 0 131 -51.5t50 -138.5v-74h-295v-70q0 -50 30.5 -82.5t83.5 -32.5q54 0 83 28.5t29 73.5v11zM127 316v-24h226v24q0 54 -30 88.5t-82 34.5q-53 0 -83.5 -34.5
t-30.5 -88.5zM240 547l-130 102l50 50l114 -119z" />
    <glyph glyph-name="eacute" unicode="&#xe9;" horiz-adv-x="474" 
d="M367 649l-130 -102l-34 33l114 119zM353 163h69v-7q0 -76 -50 -121t-131 -45q-84 0 -135 49.5t-51 132.5v137q0 87 51 138.5t135 51.5q81 0 131 -51.5t50 -138.5v-74h-295v-70q0 -50 30.5 -82.5t83.5 -32.5q54 0 83 28.5t29 73.5v11zM127 316v-24h226v24q0 54 -30 88.5
t-82 34.5q-53 0 -83.5 -34.5t-30.5 -88.5z" />
    <glyph glyph-name="ecircumflex" unicode="&#xea;" horiz-adv-x="474" 
d="M218 697h42l102 -123l-29 -26l-95 85l-93 -84l-29 25zM353 163h69v-7q0 -76 -50 -121t-131 -45q-84 0 -135 49.5t-51 132.5v137q0 87 51 138.5t135 51.5q81 0 131 -51.5t50 -138.5v-74h-295v-70q0 -50 30.5 -82.5t83.5 -32.5q54 0 83 28.5t29 73.5v11zM127 316v-24h226
v24q0 54 -30 88.5t-82 34.5q-53 0 -83.5 -34.5t-30.5 -88.5z" />
    <glyph glyph-name="edieresis" unicode="&#xeb;" horiz-adv-x="474" 
d="M138 607q0 18 13 30.5t32 12.5q18 0 30 -12.5t12 -30.5q0 -19 -12 -32t-30 -13q-19 0 -32 13t-13 32zM252 607q0 18 13 30.5t31 12.5t30.5 -12.5t12.5 -30.5q0 -19 -12.5 -32t-30.5 -13t-31 13t-13 32zM353 163h69v-7q0 -76 -50 -121t-131 -45q-84 0 -135 49.5t-51 132.5
v137q0 87 51 138.5t135 51.5q81 0 131 -51.5t50 -138.5v-74h-295v-70q0 -50 30.5 -82.5t83.5 -32.5q54 0 83 28.5t29 73.5v11zM127 316v-24h226v24q0 54 -30 88.5t-82 34.5q-53 0 -83.5 -34.5t-30.5 -88.5z" />
    <glyph glyph-name="igrave" unicode="&#xec;" horiz-adv-x="217" 
d="M72 489h73v-489h-73v489zM110 547l-130 102l50 50l114 -119z" />
    <glyph glyph-name="iacute" unicode="&#xed;" horiz-adv-x="217" 
d="M237 649l-130 -102l-34 33l114 119zM72 489h73v-489h-73v489z" />
    <glyph glyph-name="icircumflex" unicode="&#xee;" horiz-adv-x="217" 
d="M88 697h42l102 -123l-29 -26l-95 85l-93 -84l-29 25zM72 489h73v-489h-73v489z" />
    <glyph glyph-name="idieresis" unicode="&#xef;" horiz-adv-x="217" 
d="M8 607q0 18 13 30.5t32 12.5q18 0 30 -12.5t12 -30.5q0 -19 -12 -32t-30 -13q-19 0 -32 13t-13 32zM122 607q0 18 13 30.5t31 12.5t30.5 -12.5t12.5 -30.5q0 -19 -12.5 -32t-30.5 -13t-31 13t-13 32zM72 489h73v-489h-73v489z" />
    <glyph glyph-name="eth" unicode="&#xf0;" horiz-adv-x="494" 
d="M421 612l-57 -18q64 -82 64 -220v-194q0 -87 -51.5 -138.5t-134.5 -51.5q-84 0 -135.5 51.5t-51.5 138.5v129q0 87 48 138.5t129 51.5q83 0 124 -66q-10 88 -53 141l-101 -32v47l68 22l-60 66h78l43 -46l90 29v-48zM128 314v-140q0 -53 30.5 -87t83.5 -34t83 34t30 87
v140q0 53 -30 87t-83 34t-83.5 -34t-30.5 -87z" />
    <glyph glyph-name="ntilde" unicode="&#xf1;" horiz-adv-x="509" 
d="M145 0h-73v489h56l11 -58q46 68 134 68q79 0 123.5 -48t44.5 -131v-320h-73v321q0 49 -28.5 81t-79.5 32q-53 0 -84 -34.5t-31 -86.5v-313zM366 662h40q2 -16 2 -24q0 -37 -18 -59.5t-53 -22.5q-24 0 -64 21l-40 22q-24 14 -40 14q-19 0 -29.5 -15t-12 -24.5t-1.5 -16.5
h-40q-3 10 -3 22q0 37 23 61.5t60 24.5q27 0 58 -17l41 -23q28 -17 45 -17q32 0 32 54z" />
    <glyph glyph-name="ograve" unicode="&#xf2;" horiz-adv-x="483" 
d="M128 314v-140q0 -53 30 -87t83 -34t83 34t30 87v140q0 53 -30 87t-83 34t-83 -34t-30 -87zM428 309v-129q0 -87 -51.5 -138.5t-135.5 -51.5t-135 51.5t-51 138.5v129q0 87 51 138.5t135 51.5t135.5 -51.5t51.5 -138.5zM242 547l-130 102l50 50l114 -119z" />
    <glyph glyph-name="oacute" unicode="&#xf3;" horiz-adv-x="483" 
d="M370 649l-130 -102l-34 33l114 119zM128 314v-140q0 -53 30 -87t83 -34t83 34t30 87v140q0 53 -30 87t-83 34t-83 -34t-30 -87zM428 309v-129q0 -87 -51.5 -138.5t-135.5 -51.5t-135 51.5t-51 138.5v129q0 87 51 138.5t135 51.5t135.5 -51.5t51.5 -138.5z" />
    <glyph glyph-name="ocircumflex" unicode="&#xf4;" horiz-adv-x="483" 
d="M220 697h42l102 -123l-29 -26l-95 85l-93 -84l-29 25zM128 314v-140q0 -53 30 -87t83 -34t83 34t30 87v140q0 53 -30 87t-83 34t-83 -34t-30 -87zM428 309v-129q0 -87 -51.5 -138.5t-135.5 -51.5t-135 51.5t-51 138.5v129q0 87 51 138.5t135 51.5t135.5 -51.5
t51.5 -138.5z" />
    <glyph glyph-name="otilde" unicode="&#xf5;" horiz-adv-x="483" 
d="M128 314v-140q0 -53 30 -87t83 -34t83 34t30 87v140q0 53 -30 87t-83 34t-83 -34t-30 -87zM428 309v-129q0 -87 -51.5 -138.5t-135.5 -51.5t-135 51.5t-51 138.5v129q0 87 51 138.5t135 51.5t135.5 -51.5t51.5 -138.5zM349 662h40q2 -16 2 -24q0 -37 -18 -59.5t-53 -22.5
q-24 0 -64 21l-40 22q-24 14 -40 14q-19 0 -29.5 -15t-12 -24.5t-1.5 -16.5h-40q-3 11 -3 22q0 37 23 61.5t60 24.5q27 0 58 -17l41 -23q28 -17 45 -17q32 0 32 54z" />
    <glyph glyph-name="odieresis" unicode="&#xf6;" horiz-adv-x="483" 
d="M140 607q0 18 13 30.5t32 12.5q18 0 30 -12.5t12 -30.5q0 -19 -12 -32t-30 -13q-19 0 -32 13t-13 32zM254 607q0 18 13 30.5t31 12.5t30.5 -12.5t12.5 -30.5q0 -19 -12.5 -32t-30.5 -13t-31 13t-13 32zM128 314v-140q0 -53 30 -87t83 -34t83 34t30 87v140q0 53 -30 87
t-83 34t-83 -34t-30 -87zM428 309v-129q0 -87 -51.5 -138.5t-135.5 -51.5t-135 51.5t-51 138.5v129q0 87 51 138.5t135 51.5t135.5 -51.5t51.5 -138.5z" />
    <glyph glyph-name="divide" unicode="&#xf7;" horiz-adv-x="506" 
d="M62 296v64h381v-64h-381zM205 485q0 19 14 33t33 14t33 -14t14 -33q0 -20 -14 -34t-33 -14t-33 14.5t-14 33.5zM205 172q0 19 14 33.5t33 14.5t33 -14t14 -34q0 -19 -14 -33t-33 -14t-33 14t-14 33z" />
    <glyph glyph-name="oslash" unicode="&#xf8;" horiz-adv-x="483" 
d="M428 309v-129q0 -87 -51.5 -138.5t-135.5 -51.5q-50 0 -94 21l-32 -60h-54l47 88q-53 51 -53 141v129q0 87 51 138.5t135 51.5q53 0 95 -22l32 62h54l-47 -91q53 -53 53 -139zM127 316v-143q0 -40 17 -69l163 314q-27 19 -66 19q-53 0 -83.5 -34t-30.5 -87zM356 316
q0 38 -17 67l-164 -313q27 -18 66 -18q54 0 84.5 34t30.5 87v143z" />
    <glyph glyph-name="ugrave" unicode="&#xf9;" horiz-adv-x="503" 
d="M68 165v324h73v-324q0 -48 27 -79t76 -31q52 0 83 34t31 86v314h73v-489h-56l-11 56q-47 -66 -133 -66q-77 0 -120 47t-43 128zM251 547l-130 102l50 50l114 -119z" />
    <glyph glyph-name="uacute" unicode="&#xfa;" horiz-adv-x="503" 
d="M379 649l-130 -102l-34 33l114 119zM68 165v324h73v-324q0 -48 27 -79t76 -31q52 0 83 34t31 86v314h73v-489h-56l-11 56q-47 -66 -133 -66q-77 0 -120 47t-43 128z" />
    <glyph glyph-name="ucircumflex" unicode="&#xfb;" horiz-adv-x="503" 
d="M228 697h42l102 -123l-29 -26l-95 85l-93 -84l-29 25zM68 165v324h73v-324q0 -48 27 -79t76 -31q52 0 83 34t31 86v314h73v-489h-56l-11 56q-47 -66 -133 -66q-77 0 -120 47t-43 128z" />
    <glyph glyph-name="udieresis" unicode="&#xfc;" horiz-adv-x="503" 
d="M149 607q0 18 13 30.5t32 12.5q18 0 30 -12.5t12 -30.5q0 -19 -12 -32t-30 -13q-19 0 -32 13t-13 32zM263 607q0 18 13 30.5t31 12.5t30.5 -12.5t12.5 -30.5q0 -19 -12.5 -32t-30.5 -13t-31 13t-13 32zM68 165v324h73v-324q0 -48 27 -79t76 -31q52 0 83 34t31 86v314h73
v-489h-56l-11 56q-47 -66 -133 -66q-77 0 -120 47t-43 128z" />
    <glyph glyph-name="yacute" unicode="&#xfd;" horiz-adv-x="457" 
d="M198 -187h-69l67 184l-172 492h80l127 -387l127 387h76zM359 649l-130 -102l-34 33l114 119z" />
    <glyph glyph-name="thorn" unicode="&#xfe;" 
d="M145 677v-237q45 59 127 59q79 0 124 -49t45 -132v-147q0 -83 -45 -132t-124 -49q-83 0 -127 58v-235h-73v864h73zM260 434q-53 0 -84 -34.5t-31 -86.5v-138q0 -52 31 -86t84 -34q52 0 80 31.5t28 81.5v153q0 49 -28.5 81t-79.5 32z" />
    <glyph glyph-name="ydieresis" unicode="&#xff;" horiz-adv-x="457" 
d="M198 -187h-69l67 184l-172 492h80l127 -387l127 387h76zM129 607q0 18 13 30.5t32 12.5q18 0 30 -12.5t12 -30.5q0 -19 -12 -32t-30 -13q-19 0 -32 13t-13 32zM243 607q0 18 13 30.5t31 12.5t30.5 -12.5t12.5 -30.5q0 -19 -12.5 -32t-30.5 -13t-31 13t-13 32z" />
    <glyph glyph-name="Amacron" unicode="&#x100;" horiz-adv-x="548" 
d="M100 0h-75l210 657h77l212 -657h-79l-48 151h-250zM271 554l-104 -337h211zM157 732v55h235v-55h-235z" />
    <glyph glyph-name="amacron" unicode="&#x101;" 
d="M57 171v147q0 83 45 132t124 49q86 0 133 -66l11 56h56v-489h-56l-11 56q-47 -66 -133 -66q-79 0 -124 49t-45 132zM238 55q53 0 84 34t31 86v138q0 52 -31 86.5t-84 34.5q-51 0 -79.5 -32t-28.5 -81v-153q0 -50 28 -81.5t80 -31.5zM124 572v55h235v-55h-235z" />
    <glyph glyph-name="Abreve" unicode="&#x102;" horiz-adv-x="548" 
d="M100 0h-75l210 657h77l212 -657h-79l-48 151h-250zM271 554l-104 -337h211zM326 812h49v-19q0 -42 -28 -70t-74 -28q-45 0 -73 28t-28 70v19h49v-19q0 -24 14 -39.5t38 -15.5q25 0 39 15.5t14 39.5v19z" />
    <glyph glyph-name="abreve" unicode="&#x103;" 
d="M57 171v147q0 83 45 132t124 49q86 0 133 -66l11 56h56v-489h-56l-11 56q-47 -66 -133 -66q-79 0 -124 49t-45 132zM238 55q53 0 84 34t31 86v138q0 52 -31 86.5t-84 34.5q-51 0 -79.5 -32t-28.5 -81v-153q0 -50 28 -81.5t80 -31.5zM293 666h49v-20q0 -42 -28 -70
t-74 -28q-45 0 -73 28t-28 70v20h49v-20q0 -24 14 -39.5t38 -15.5q25 0 39 15.5t14 39.5v20z" />
    <glyph glyph-name="Aogonek" unicode="&#x104;" horiz-adv-x="548" 
d="M453 -140h45v-48h-55q-44 0 -67 21t-23 53q0 36 26.5 68.5t63.5 50.5l-46 146h-250l-47 -151h-75l210 657h77l212 -657h-34q-87 -49 -87 -103q0 -37 50 -37zM271 554l-104 -337h211z" />
    <glyph glyph-name="aogonek" unicode="&#x105;" 
d="M376 -140h45v-48h-55q-44 0 -67 21t-23 53q0 37 27.5 70t65.5 50l-10 50q-47 -66 -133 -66q-79 0 -124 49t-45 132v147q0 83 45 132t124 49q86 0 133 -66l11 56h56v-489h-13q-87 -49 -87 -103q0 -37 50 -37zM238 55q53 0 84 34t31 86v138q0 52 -31 86.5t-84 34.5
q-51 0 -79.5 -32t-28.5 -81v-153q0 -50 28 -81.5t80 -31.5z" />
    <glyph glyph-name="Cacute" unicode="&#x106;" horiz-adv-x="546" 
d="M419 210h73v-21q0 -91 -58.5 -145t-153.5 -54q-96 0 -155.5 57t-59.5 153v257q0 97 58.5 153.5t156.5 56.5q95 0 153.5 -54t58.5 -145v-15h-73v17q0 57 -37 92.5t-102 35.5t-102 -39t-37 -100v-261q0 -61 37 -100t102 -39t102 35.5t37 92.5v23zM408 795l-130 -101l-34 33
l114 119z" />
    <glyph glyph-name="cacute" unicode="&#x107;" horiz-adv-x="473" 
d="M369 649l-130 -102l-34 33l114 119zM353 169h71v-9q0 -79 -50 -124.5t-133 -45.5q-84 0 -135 51.5t-51 138.5v129q0 87 51 138.5t135 51.5q82 0 132.5 -46t50.5 -123v-6h-71v12q0 43 -30 71t-82 28q-53 0 -83 -34t-30 -87v-140q0 -53 30 -87t83 -34q54 0 83 28t29 73v15z
" />
    <glyph glyph-name="Ccircumflex" unicode="&#x108;" horiz-adv-x="546" 
d="M419 210h73v-21q0 -91 -58.5 -145t-153.5 -54q-96 0 -155.5 57t-59.5 153v257q0 97 58.5 153.5t156.5 56.5q95 0 153.5 -54t58.5 -145v-15h-73v17q0 57 -37 92.5t-102 35.5t-102 -39t-37 -100v-261q0 -61 37 -100t102 -39t102 35.5t37 92.5v23zM258 844h42l102 -123
l-29 -26l-95 85l-93 -84l-29 25z" />
    <glyph glyph-name="ccircumflex" unicode="&#x109;" horiz-adv-x="473" 
d="M219 697h42l102 -123l-29 -26l-95 85l-93 -84l-29 25zM353 169h71v-9q0 -79 -50 -124.5t-133 -45.5q-84 0 -135 51.5t-51 138.5v129q0 87 51 138.5t135 51.5q82 0 132.5 -46t50.5 -123v-6h-71v12q0 43 -30 71t-82 28q-53 0 -83 -34t-30 -87v-140q0 -53 30 -87t83 -34
q54 0 83 28t29 73v15z" />
    <glyph glyph-name="Cdotaccent" unicode="&#x10a;" horiz-adv-x="546" 
d="M230 760q0 21 14 35t34 14q21 0 35 -14t14 -35q0 -20 -14 -34t-35 -14q-20 0 -34 14t-14 34zM419 210h73v-21q0 -91 -58.5 -145t-153.5 -54q-96 0 -155.5 57t-59.5 153v257q0 97 58.5 153.5t156.5 56.5q95 0 153.5 -54t58.5 -145v-15h-73v17q0 57 -37 92.5t-102 35.5
t-102 -39t-37 -100v-261q0 -61 37 -100t102 -39t102 35.5t37 92.5v23z" />
    <glyph glyph-name="cdotaccent" unicode="&#x10b;" horiz-adv-x="473" 
d="M353 169h71v-9q0 -79 -50 -124.5t-133 -45.5q-84 0 -135 51.5t-51 138.5v129q0 87 51 138.5t135 51.5q82 0 132.5 -46t50.5 -123v-6h-71v12q0 43 -30 71t-82 28q-53 0 -83 -34t-30 -87v-140q0 -53 30 -87t83 -34q54 0 83 28t29 73v15zM190 607q0 20 14 34.5t34 14.5
q21 0 35 -14.5t14 -34.5t-14 -34t-35 -14q-20 0 -34 14t-14 34z" />
    <glyph glyph-name="Ccaron" unicode="&#x10c;" horiz-adv-x="546" 
d="M419 210h73v-21q0 -91 -58.5 -145t-153.5 -54q-96 0 -155.5 57t-59.5 153v257q0 97 58.5 153.5t156.5 56.5q95 0 153.5 -54t58.5 -145v-15h-73v17q0 57 -37 92.5t-102 35.5t-102 -39t-37 -100v-261q0 -61 37 -100t102 -39t102 35.5t37 92.5v23zM300 691h-42l-102 123
l30 26l95 -85l93 84l28 -25z" />
    <glyph glyph-name="ccaron" unicode="&#x10d;" horiz-adv-x="473" 
d="M260 548h-42l-102 123l30 26l95 -85l93 84l28 -25zM353 169h71v-9q0 -79 -50 -124.5t-133 -45.5q-84 0 -135 51.5t-51 138.5v129q0 87 51 138.5t135 51.5q82 0 132.5 -46t50.5 -123v-6h-71v12q0 43 -30 71t-82 28q-53 0 -83 -34t-30 -87v-140q0 -53 30 -87t83 -34
q54 0 83 28t29 73v15z" />
    <glyph glyph-name="Dcaron" unicode="&#x10e;" horiz-adv-x="576" 
d="M291 657q101 0 161 -58t60 -157v-227q0 -99 -60 -157t-161 -58h-208v657h208zM291 588h-132v-519h132q68 0 106.5 39.5t38.5 104.5v231q0 65 -38.5 104.5t-106.5 39.5zM279 691h-42l-102 123l30 26l95 -85l93 84l28 -25z" />
    <glyph glyph-name="dcaron" unicode="&#x10f;" 
d="M480 677h77l-52 -132h-48zM370 0l-11 56q-47 -66 -133 -66q-79 0 -124 49t-45 132v147q0 83 45 132t124 49q81 0 127 -59v237h73v-677h-56zM238 55q53 0 84 34t31 86v138q0 52 -31 86.5t-84 34.5q-51 0 -79.5 -32t-28.5 -81v-153q0 -50 28 -81.5t80 -31.5z" />
    <glyph glyph-name="Dcroat" unicode="&#x110;" horiz-adv-x="594" 
d="M309 657q101 0 161 -58t60 -157v-227q0 -99 -60 -157t-161 -58h-208v303h-74v64h74v290h208zM309 588h-132v-221h131v-64h-131v-234h132q68 0 106.5 39.5t38.5 104.5v231q0 65 -38.5 104.5t-106.5 39.5z" />
    <glyph glyph-name="dcroat" unicode="&#x111;" 
d="M370 0l-11 56q-47 -66 -133 -66q-79 0 -124 49t-45 132v147q0 83 45 132t124 49q81 0 127 -59v111h-120v52h120v74h73v-74h60v-52h-60v-551h-56zM238 55q53 0 84 34t31 86v138q0 52 -31 86.5t-84 34.5q-51 0 -79.5 -32t-28.5 -81v-153q0 -50 28 -81.5t80 -31.5z" />
    <glyph glyph-name="Emacron" unicode="&#x112;" horiz-adv-x="514" 
d="M433 302h-274v-233h307v-69h-383v657h375v-69h-299v-218h274v-68zM156 732v55h235v-55h-235z" />
    <glyph glyph-name="emacron" unicode="&#x113;" horiz-adv-x="474" 
d="M353 163h69v-7q0 -76 -50 -121t-131 -45q-84 0 -135 49.5t-51 132.5v137q0 87 51 138.5t135 51.5q81 0 131 -51.5t50 -138.5v-74h-295v-70q0 -50 30.5 -82.5t83.5 -32.5q54 0 83 28.5t29 73.5v11zM127 316v-24h226v24q0 54 -30 88.5t-82 34.5q-53 0 -83.5 -34.5
t-30.5 -88.5zM121 572v55h235v-55h-235z" />
    <glyph glyph-name="Ebreve" unicode="&#x114;" horiz-adv-x="514" 
d="M433 302h-274v-233h307v-69h-383v657h375v-69h-299v-218h274v-68zM327 812h49v-19q0 -42 -28 -70t-74 -28q-45 0 -73 28t-28 70v19h49v-19q0 -24 14 -39.5t38 -15.5q25 0 39 15.5t14 39.5v19z" />
    <glyph glyph-name="ebreve" unicode="&#x115;" horiz-adv-x="474" 
d="M353 163h69v-7q0 -76 -50 -121t-131 -45q-84 0 -135 49.5t-51 132.5v137q0 87 51 138.5t135 51.5q81 0 131 -51.5t50 -138.5v-74h-295v-70q0 -50 30.5 -82.5t83.5 -32.5q54 0 83 28.5t29 73.5v11zM127 316v-24h226v24q0 54 -30 88.5t-82 34.5q-53 0 -83.5 -34.5
t-30.5 -88.5zM291 666h49v-20q0 -42 -28 -70t-74 -28q-45 0 -73 28t-28 70v20h49v-20q0 -24 14 -39.5t38 -15.5q25 0 39 15.5t14 39.5v20z" />
    <glyph glyph-name="Edotaccent" unicode="&#x116;" horiz-adv-x="514" 
d="M226 760q0 21 14 35t34 14q21 0 35 -14t14 -35q0 -20 -14 -34t-35 -14q-20 0 -34 14t-14 34zM433 302h-274v-233h307v-69h-383v657h375v-69h-299v-218h274v-68z" />
    <glyph glyph-name="edotaccent" unicode="&#x117;" horiz-adv-x="474" 
d="M353 163h69v-7q0 -76 -50 -121t-131 -45q-84 0 -135 49.5t-51 132.5v137q0 87 51 138.5t135 51.5q81 0 131 -51.5t50 -138.5v-74h-295v-70q0 -50 30.5 -82.5t83.5 -32.5q54 0 83 28.5t29 73.5v11zM127 316v-24h226v24q0 54 -30 88.5t-82 34.5q-53 0 -83.5 -34.5
t-30.5 -88.5zM190 607q0 20 14 34.5t34 14.5q21 0 35 -14.5t14 -34.5t-14 -34t-35 -14q-20 0 -34 14t-14 34z" />
    <glyph glyph-name="Eogonek" unicode="&#x118;" horiz-adv-x="514" 
d="M433 302h-274v-233h307v-69h-26q-87 -49 -87 -103q0 -37 50 -37h45v-48h-55q-44 0 -67 21t-23 53q0 34 23.5 65t57.5 49h-301v657h375v-69h-299v-218h274v-68z" />
    <glyph glyph-name="eogonek" unicode="&#x119;" horiz-adv-x="475" 
d="M353 163h69v-7q0 -75 -49 -121q-28 -28 -39.5 -40.5t-24.5 -36.5t-13 -46q0 -52 49 -52h46v-48h-55q-44 0 -67 25t-23 63q0 45 39 95q-22 -5 -44 -5q-84 0 -135 49.5t-51 132.5v137q0 87 51 138.5t135 51.5q81 0 131 -51.5t50 -138.5v-74h-295v-70q0 -50 30.5 -82.5
t83.5 -32.5q54 0 83 28.5t29 73.5v11zM127 316v-24h226v24q0 54 -30 88.5t-82 34.5q-53 0 -83.5 -34.5t-30.5 -88.5z" />
    <glyph glyph-name="Ecaron" unicode="&#x11a;" horiz-adv-x="514" 
d="M433 302h-274v-233h307v-69h-383v657h375v-69h-299v-218h274v-68zM296 691h-42l-102 123l30 26l95 -85l93 84l28 -25z" />
    <glyph glyph-name="ecaron" unicode="&#x11b;" horiz-adv-x="474" 
d="M260 548h-42l-102 123l30 26l95 -85l93 84l28 -25zM353 163h69v-7q0 -76 -50 -121t-131 -45q-84 0 -135 49.5t-51 132.5v137q0 87 51 138.5t135 51.5q81 0 131 -51.5t50 -138.5v-74h-295v-70q0 -50 30.5 -82.5t83.5 -32.5q54 0 83 28.5t29 73.5v11zM127 316v-24h226v24
q0 54 -30 88.5t-82 34.5q-53 0 -83.5 -34.5t-30.5 -88.5z" />
    <glyph glyph-name="Gcircumflex" unicode="&#x11c;" horiz-adv-x="551" 
d="M257 844h42l102 -123l-29 -26l-95 85l-93 -84l-29 25zM298 259v62h194v-132q0 -92 -58 -145.5t-153 -53.5q-96 0 -156 57t-60 153v257q0 96 59 153t157 57q95 0 153 -51t58 -138v-15h-73v17q0 52 -36.5 85t-101.5 33t-102.5 -38.5t-37.5 -100.5v-261q0 -62 37.5 -100.5
t102.5 -38.5q66 0 103 35.5t37 92.5v72h-123z" />
    <glyph glyph-name="gcircumflex" unicode="&#x11d;" 
d="M221 697h42l102 -123l-29 -26l-95 85l-93 -84l-29 25zM57 188v130q0 83 45 132t124 49q86 0 133 -66l11 56h56v-516q0 -80 -49.5 -125t-131.5 -45q-81 0 -130.5 39.5t-49.5 106.5v5h70v-10q0 -35 28.5 -58t80.5 -23t80.5 29t28.5 77v97q-45 -58 -127 -58q-79 0 -124 49
t-45 131zM238 73q53 0 84 34t31 86v120q0 52 -31 86.5t-84 34.5q-51 0 -79.5 -32t-28.5 -81v-135q0 -50 28 -81.5t80 -31.5z" />
    <glyph glyph-name="Gbreve" unicode="&#x11e;" horiz-adv-x="551" 
d="M298 259v62h194v-132q0 -92 -58 -145.5t-153 -53.5q-96 0 -156 57t-60 153v257q0 96 59 153t157 57q95 0 153 -51t58 -138v-15h-73v17q0 52 -36.5 85t-101.5 33t-102.5 -38.5t-37.5 -100.5v-261q0 -62 37.5 -100.5t102.5 -38.5q66 0 103 35.5t37 92.5v72h-123zM331 812
h49v-19q0 -42 -28 -70t-74 -28q-45 0 -73 28t-28 70v19h49v-19q0 -24 14 -39.5t38 -15.5q25 0 39 15.5t14 39.5v19z" />
    <glyph glyph-name="gbreve" unicode="&#x11f;" 
d="M57 188v130q0 83 45 132t124 49q86 0 133 -66l11 56h56v-516q0 -80 -49.5 -125t-131.5 -45q-81 0 -130.5 39.5t-49.5 106.5v5h70v-10q0 -35 28.5 -58t80.5 -23t80.5 29t28.5 77v97q-45 -58 -127 -58q-79 0 -124 49t-45 131zM238 73q53 0 84 34t31 86v120q0 52 -31 86.5
t-84 34.5q-51 0 -79.5 -32t-28.5 -81v-135q0 -50 28 -81.5t80 -31.5zM294 666h49v-20q0 -42 -28 -70t-74 -28q-45 0 -73 28t-28 70v20h49v-20q0 -24 14 -39.5t38 -15.5q25 0 39 15.5t14 39.5v20z" />
    <glyph glyph-name="Gdotaccent" unicode="&#x120;" horiz-adv-x="551" 
d="M230 760q0 21 14 35t34 14q21 0 35 -14t14 -35q0 -20 -14 -34t-35 -14q-20 0 -34 14t-14 34zM298 259v62h194v-132q0 -92 -58 -145.5t-153 -53.5q-96 0 -156 57t-60 153v257q0 96 59 153t157 57q95 0 153 -51t58 -138v-15h-73v17q0 52 -36.5 85t-101.5 33t-102.5 -38.5
t-37.5 -100.5v-261q0 -62 37.5 -100.5t102.5 -38.5q66 0 103 35.5t37 92.5v72h-123z" />
    <glyph glyph-name="gdotaccent" unicode="&#x121;" 
d="M57 188v130q0 83 45 132t124 49q86 0 133 -66l11 56h56v-516q0 -80 -49.5 -125t-131.5 -45q-81 0 -130.5 39.5t-49.5 106.5v5h70v-10q0 -35 28.5 -58t80.5 -23t80.5 29t28.5 77v97q-45 -58 -127 -58q-79 0 -124 49t-45 131zM238 73q53 0 84 34t31 86v120q0 52 -31 86.5
t-84 34.5q-51 0 -79.5 -32t-28.5 -81v-135q0 -50 28 -81.5t80 -31.5zM193 607q0 20 14 34.5t34 14.5q21 0 35 -14.5t14 -34.5t-14 -34t-35 -14q-20 0 -34 14t-14 34z" />
    <glyph glyph-name="uni0122" unicode="&#x122;" horiz-adv-x="551" 
d="M248 -44h85l-69 -166h-53zM298 259v62h194v-132q0 -92 -58 -145.5t-153 -53.5q-96 0 -156 57t-60 153v257q0 96 59 153t157 57q95 0 153 -51t58 -138v-15h-73v17q0 52 -36.5 85t-101.5 33t-102.5 -38.5t-37.5 -100.5v-261q0 -62 37.5 -100.5t102.5 -38.5q66 0 103 35.5
t37 92.5v72h-123z" />
    <glyph glyph-name="uni0123" unicode="&#x123;" 
d="M275 550h-85l69 166h53zM57 188v130q0 83 45 132t124 49q86 0 133 -66l11 56h56v-516q0 -80 -49.5 -125t-131.5 -45q-81 0 -130.5 39.5t-49.5 106.5v5h70v-10q0 -35 28.5 -58t80.5 -23t80.5 29t28.5 77v97q-45 -58 -127 -58q-79 0 -124 49t-45 131zM238 73q53 0 84 34
t31 86v120q0 52 -31 86.5t-84 34.5q-51 0 -79.5 -32t-28.5 -81v-135q0 -50 28 -81.5t80 -31.5z" />
    <glyph glyph-name="Hcircumflex" unicode="&#x124;" horiz-adv-x="588" 
d="M505 657v-657h-77v301h-269v-301h-76v657h76v-287h269v287h77zM272 844h42l102 -123l-29 -26l-95 85l-93 -84l-29 25z" />
    <glyph glyph-name="hcircumflex" unicode="&#x125;" horiz-adv-x="509" 
d="M87 845h42l102 -123l-29 -26l-95 85l-93 -84l-29 25zM145 0h-73v677h73v-237q46 59 128 59q79 0 123.5 -48t44.5 -131v-320h-73v321q0 49 -28.5 81t-79.5 32q-53 0 -84 -34.5t-31 -86.5v-313z" />
    <glyph glyph-name="Hbar" unicode="&#x126;" horiz-adv-x="589" 
d="M506 657v-113h60v-51h-60v-493h-77v301h-269v-301h-76v493h-61v51h61v113h76v-113h269v113h77zM160 370h269v123h-269v-123z" />
    <glyph glyph-name="hbar" unicode="&#x127;" horiz-adv-x="509" 
d="M145 0h-73v551h-60v52h60v74h73v-74h121v-52h-121v-111q46 59 128 59q79 0 123.5 -48t44.5 -131v-320h-73v321q0 49 -28.5 81t-79.5 32q-53 0 -84 -34.5t-31 -86.5v-313z" />
    <glyph glyph-name="Itilde" unicode="&#x128;" horiz-adv-x="242" 
d="M159 657v-657h-76v657h76zM230 802h40q2 -16 2 -24q0 -37 -18 -59.5t-53 -22.5q-27 0 -64 21l-40 22q-28 14 -40 14q-19 0 -29.5 -15t-12 -25t-1.5 -17h-40q-3 12 -3 23q0 36 23 60.5t60 24.5q27 0 58 -17l41 -22q30 -18 45 -18q32 0 32 55z" />
    <glyph glyph-name="itilde" unicode="&#x129;" horiz-adv-x="217" 
d="M72 489h73v-489h-73v489zM217 662h40q2 -16 2 -24q0 -37 -18 -59.5t-53 -22.5q-24 0 -64 21l-40 22q-24 14 -40 14q-19 0 -29.5 -15t-12 -24.5t-1.5 -16.5h-40q-3 11 -3 22q0 37 23 61.5t60 24.5q27 0 58 -17l41 -23q28 -17 45 -17q32 0 32 54z" />
    <glyph glyph-name="Imacron" unicode="&#x12a;" horiz-adv-x="242" 
d="M159 657v-657h-76v657h76zM4 732v55h235v-55h-235z" />
    <glyph glyph-name="imacron" unicode="&#x12b;" horiz-adv-x="217" 
d="M72 489h73v-489h-73v489zM-9 572v55h235v-55h-235z" />
    <glyph glyph-name="Iogonek" unicode="&#x12e;" horiz-adv-x="242" 
d="M101 -140h45v-48h-55q-44 0 -67 21t-23 53q0 34 23.5 65t58.5 49v657h76v-657h-21q-87 -49 -87 -103q0 -37 50 -37z" />
    <glyph glyph-name="iogonek" unicode="&#x12f;" horiz-adv-x="217" 
d="M90 -140h45v-48h-55q-44 0 -67 21t-23 53q0 34 23.5 65t58.5 49v489h73v-489h-18q-87 -49 -87 -103q0 -37 50 -37zM61 627q0 20 14 34t34 14t33.5 -14t13.5 -34q0 -19 -14 -33t-33 -14q-20 0 -34 13.5t-14 33.5z" />
    <glyph glyph-name="Idotaccent" unicode="&#x130;" horiz-adv-x="242" 
d="M159 657v-657h-76v657h76zM72 760q0 21 14 35t34 14q21 0 35 -14t14 -35q0 -20 -14 -34t-35 -14q-20 0 -34 14t-14 34z" />
    <glyph glyph-name="dotlessi" unicode="&#x131;" horiz-adv-x="217" 
d="M72 489h73v-489h-73v489z" />
    <glyph glyph-name="IJ" unicode="&#x132;" horiz-adv-x="732" 
d="M159 657v-657h-76v657h76zM270 204h75v-26q0 -52 31 -85.5t85 -33.5q55 0 85.5 33t30.5 86v479h76v-477q0 -87 -53 -138.5t-139 -51.5t-138.5 51.5t-52.5 138.5v24z" />
    <glyph glyph-name="ij" unicode="&#x133;" horiz-adv-x="440" 
d="M61 627q0 20 14 34t34 14t33.5 -14t13.5 -34q0 -19 -14 -33t-33 -14q-20 0 -34 13.5t-14 33.5zM72 489h73v-489h-73v489zM166 -134h23q52 0 79 29t27 80v514h73v-509q0 -86 -46.5 -131.5t-127.5 -45.5h-28v63zM284 627q0 20 13.5 34t33.5 14t34 -14t14 -34t-14 -33.5
t-34 -13.5q-19 0 -33 14t-14 33z" />
    <glyph glyph-name="Jcircumflex" unicode="&#x134;" horiz-adv-x="487" 
d="M25 204h75v-26q0 -52 31 -85.5t85 -33.5q55 0 85.5 33t30.5 86v479h76v-477q0 -87 -53 -138.5t-139 -51.5t-138.5 51.5t-52.5 138.5v24zM349 844h42l102 -123l-29 -26l-95 85l-93 -84l-29 25z" />
    <glyph glyph-name="jcircumflex" unicode="&#x135;" horiz-adv-x="217" 
d="M88 697h42l102 -123l-29 -26l-95 85l-93 -84l-29 25zM-57 -134h23q52 0 79 29t27 80v514h73v-509q0 -86 -46.5 -131.5t-127.5 -45.5h-28v63z" />
    <glyph glyph-name="uni0136" unicode="&#x136;" horiz-adv-x="541" 
d="M241 -44h85l-69 -166h-53zM159 657v-368l271 368h85l-192 -267l198 -390h-86l-165 327l-111 -151v-176h-76v657h76z" />
    <glyph glyph-name="uni0137" unicode="&#x137;" horiz-adv-x="471" 
d="M205 -44h85l-69 -166h-53zM72 677h73v-425l214 237h85l-167 -187l174 -302h-83l-142 247l-81 -89v-158h-73v677z" />
    <glyph glyph-name="kgreenlandic" unicode="&#x138;" horiz-adv-x="471" 
d="M72 489h73v-235l212 235h87l-167 -187l174 -302h-83l-142 247l-81 -89v-158h-73v489z" />
    <glyph glyph-name="Lacute" unicode="&#x139;" horiz-adv-x="462" 
d="M250 795l-130 -101l-34 33l114 119zM159 657v-588h287v-69h-363v657h76z" />
    <glyph glyph-name="lacute" unicode="&#x13a;" horiz-adv-x="226" 
d="M242 804l-130 -101l-34 33l114 119zM76 677h74v-677h-74v677z" />
    <glyph glyph-name="uni013B" unicode="&#x13b;" horiz-adv-x="462" 
d="M218 -44h85l-69 -166h-53zM159 657v-588h287v-69h-363v657h76z" />
    <glyph glyph-name="uni013C" unicode="&#x13c;" horiz-adv-x="226" 
d="M70 -44h85l-69 -166h-53zM76 677h74v-677h-74v677z" />
    <glyph glyph-name="Lcaron" unicode="&#x13d;" horiz-adv-x="462" 
d="M241 657h77l-52 -132h-48zM159 657v-588h287v-69h-363v657h76z" />
    <glyph glyph-name="lcaron" unicode="&#x13e;" horiz-adv-x="226" 
d="M219 677h77l-52 -132h-48zM76 677h74v-677h-74v677z" />
    <glyph glyph-name="Ldot" unicode="&#x13f;" horiz-adv-x="462" 
d="M159 657v-588h287v-69h-363v657h76zM236 348q0 22 14.5 36.5t35.5 14.5t36 -14.5t15 -36.5q0 -21 -15 -35.5t-36 -14.5t-35.5 14.5t-14.5 35.5z" />
    <glyph glyph-name="ldot" unicode="&#x140;" horiz-adv-x="289" 
d="M76 677h74v-677h-74v677zM206 356q0 22 14.5 36.5t35.5 14.5t36 -14.5t15 -36.5q0 -21 -15 -35.5t-36 -14.5t-35.5 14.5t-14.5 35.5z" />
    <glyph glyph-name="Lslash" unicode="&#x141;" horiz-adv-x="465" 
d="M163 657v-263l140 73v-68l-140 -72v-258h287v-69h-363v288l-72 -37v67l72 37v302h76z" />
    <glyph glyph-name="lslash" unicode="&#x142;" horiz-adv-x="248" 
d="M88 677h74v-245l65 34v-68l-65 -34v-364h-74v326l-65 -34v67l65 34v284z" />
    <glyph glyph-name="Nacute" unicode="&#x143;" horiz-adv-x="585" 
d="M422 795l-130 -101l-34 33l114 119zM502 657v-657h-63l-285 508v-508h-71v657h68l280 -500v500h71z" />
    <glyph glyph-name="nacute" unicode="&#x144;" horiz-adv-x="509" 
d="M386 649l-130 -102l-34 33l114 119zM145 0h-73v489h56l11 -58q46 68 134 68q79 0 123.5 -48t44.5 -131v-320h-73v321q0 49 -28.5 81t-79.5 32q-53 0 -84 -34.5t-31 -86.5v-313z" />
    <glyph glyph-name="uni0145" unicode="&#x145;" horiz-adv-x="585" 
d="M258 -44h85l-69 -166h-53zM502 657v-657h-63l-285 508v-508h-71v657h68l280 -500v500h71z" />
    <glyph glyph-name="uni0146" unicode="&#x146;" horiz-adv-x="509" 
d="M218 -44h85l-69 -166h-53zM145 0h-73v489h56l11 -58q46 68 134 68q79 0 123.5 -48t44.5 -131v-320h-73v321q0 49 -28.5 81t-79.5 32q-53 0 -84 -34.5t-31 -86.5v-313z" />
    <glyph glyph-name="Ncaron" unicode="&#x147;" horiz-adv-x="585" 
d="M502 657v-657h-63l-285 508v-508h-71v657h68l280 -500v500h71zM314 691h-42l-102 123l30 26l95 -85l93 84l28 -25z" />
    <glyph glyph-name="ncaron" unicode="&#x148;" horiz-adv-x="509" 
d="M277 548h-42l-102 123l30 26l95 -85l93 84l28 -25zM145 0h-73v489h56l11 -58q46 68 134 68q79 0 123.5 -48t44.5 -131v-320h-73v321q0 49 -28.5 81t-79.5 32q-53 0 -84 -34.5t-31 -86.5v-313z" />
    <glyph glyph-name="napostrophe" unicode="&#x149;" horiz-adv-x="521" 
d="M39 677h85l-69 -166h-53zM157 0h-73v489h56l11 -58q46 68 134 68q79 0 123.5 -48t44.5 -131v-320h-73v321q0 49 -28.5 81t-79.5 32q-53 0 -84 -34.5t-31 -86.5v-313z" />
    <glyph glyph-name="Omacron" unicode="&#x14c;" horiz-adv-x="562" 
d="M141 459v-261q0 -62 37.5 -100.5t102.5 -38.5t102 38.5t37 100.5v261q0 62 -37 100.5t-102 38.5t-102.5 -38.5t-37.5 -100.5zM497 457v-257q0 -96 -59.5 -153t-156.5 -57t-156.5 57t-59.5 153v257q0 97 58.5 153.5t157.5 56.5q97 0 156.5 -57t59.5 -153zM164 732v55h235
v-55h-235z" />
    <glyph glyph-name="omacron" unicode="&#x14d;" horiz-adv-x="483" 
d="M124 572v55h235v-55h-235zM128 314v-140q0 -53 30 -87t83 -34t83 34t30 87v140q0 53 -30 87t-83 34t-83 -34t-30 -87zM428 309v-129q0 -87 -51.5 -138.5t-135.5 -51.5t-135 51.5t-51 138.5v129q0 87 51 138.5t135 51.5t135.5 -51.5t51.5 -138.5z" />
    <glyph glyph-name="Obreve" unicode="&#x14e;" horiz-adv-x="562" 
d="M141 459v-261q0 -62 37.5 -100.5t102.5 -38.5t102 38.5t37 100.5v261q0 62 -37 100.5t-102 38.5t-102.5 -38.5t-37.5 -100.5zM497 457v-257q0 -96 -59.5 -153t-156.5 -57t-156.5 57t-59.5 153v257q0 97 58.5 153.5t157.5 56.5q97 0 156.5 -57t59.5 -153zM333 812h49v-19
q0 -42 -28 -70t-74 -28q-45 0 -73 28t-28 70v19h49v-19q0 -24 14 -39.5t38 -15.5q25 0 39 15.5t14 39.5v19z" />
    <glyph glyph-name="obreve" unicode="&#x14f;" horiz-adv-x="483" 
d="M128 314v-140q0 -53 30 -87t83 -34t83 34t30 87v140q0 53 -30 87t-83 34t-83 -34t-30 -87zM428 309v-129q0 -87 -51.5 -138.5t-135.5 -51.5t-135 51.5t-51 138.5v129q0 87 51 138.5t135 51.5t135.5 -51.5t51.5 -138.5zM294 666h49v-20q0 -42 -28 -70t-74 -28
q-45 0 -73 28t-28 70v20h49v-20q0 -24 14 -39.5t38 -15.5q25 0 39 15.5t14 39.5v20z" />
    <glyph glyph-name="Ohungarumlaut" unicode="&#x150;" horiz-adv-x="562" 
d="M336 799l-127 -105l-27 27l111 120zM453 800l-123 -110l-27 27l107 124zM141 459v-261q0 -62 37.5 -100.5t102.5 -38.5t102 38.5t37 100.5v261q0 62 -37 100.5t-102 38.5t-102.5 -38.5t-37.5 -100.5zM497 457v-257q0 -96 -59.5 -153t-156.5 -57t-156.5 57t-59.5 153v257
q0 97 58.5 153.5t157.5 56.5q97 0 156.5 -57t59.5 -153z" />
    <glyph glyph-name="ohungarumlaut" unicode="&#x151;" horiz-adv-x="483" 
d="M298 655l-127 -104l-27 26l111 120zM415 656l-123 -109l-27 27l107 124zM128 314v-140q0 -53 30 -87t83 -34t83 34t30 87v140q0 53 -30 87t-83 34t-83 -34t-30 -87zM428 309v-129q0 -87 -51.5 -138.5t-135.5 -51.5t-135 51.5t-51 138.5v129q0 87 51 138.5t135 51.5
t135.5 -51.5t51.5 -138.5z" />
    <glyph glyph-name="OE" unicode="&#x152;" horiz-adv-x="854" 
d="M798 657v-69h-301v-218h276v-68h-276v-233h309v-69h-383v47q-54 -57 -146 -57q-95 0 -153.5 57t-58.5 153v257q0 97 57 153.5t155 56.5q91 0 146 -58v48h375zM141 459v-261q0 -62 37.5 -100.5t102.5 -38.5q64 0 101.5 37.5t37.5 96.5v266q0 62 -37 100.5t-102 38.5
t-102.5 -38.5t-37.5 -100.5z" />
    <glyph glyph-name="oe" unicode="&#x153;" horiz-adv-x="774" 
d="M653 163h69v-7q0 -76 -50 -121t-132 -45q-107 0 -150 87q-43 -87 -149 -87q-84 0 -135 51.5t-51 138.5v129q0 87 51 138.5t135 51.5q106 0 150 -90q43 90 149 90q82 0 132 -51.5t50 -138.5v-74h-295v-70q0 -50 30.5 -82.5t83.5 -32.5t82.5 28.5t29.5 73.5v11zM128 314
v-140q0 -53 30 -87t83 -34t83 34t30 87v140q0 53 -30 87t-83 34t-83 -34t-30 -87zM427 316v-24h226v24q0 54 -30 88.5t-83 34.5t-83 -34.5t-30 -88.5z" />
    <glyph glyph-name="Racute" unicode="&#x154;" horiz-adv-x="557" 
d="M505 0h-83l-114 260q-4 0 -13 -0.5t-14 -0.5h-122v-259h-76v657h202q97 0 159 -54t62 -142q0 -65 -32.5 -113t-89.5 -70zM279 590h-120v-265h120q69 0 109 37t40 98q0 59 -40 94.5t-109 35.5zM369 795l-130 -101l-34 33l114 119z" />
    <glyph glyph-name="racute" unicode="&#x155;" horiz-adv-x="315" 
d="M296 649l-130 -102l-34 33l114 119zM145 0h-73v489h56l12 -62q44 72 130 72q8 0 24 -2v-70q-24 3 -30 3q-53 0 -86 -33.5t-33 -88.5v-308z" />
    <glyph glyph-name="uni0156" unicode="&#x156;" horiz-adv-x="557" 
d="M242 -44h85l-69 -166h-53zM505 0h-83l-114 260q-4 0 -13 -0.5t-14 -0.5h-122v-259h-76v657h202q97 0 159 -54t62 -142q0 -65 -32.5 -113t-89.5 -70zM279 590h-120v-265h120q69 0 109 37t40 98q0 59 -40 94.5t-109 35.5z" />
    <glyph glyph-name="uni0157" unicode="&#x157;" horiz-adv-x="315" 
d="M69 -44h85l-69 -166h-53zM145 0h-73v489h56l12 -62q44 72 130 72q8 0 24 -2v-70q-24 3 -30 3q-53 0 -86 -33.5t-33 -88.5v-308z" />
    <glyph glyph-name="Rcaron" unicode="&#x158;" horiz-adv-x="557" 
d="M505 0h-83l-114 260q-4 0 -13 -0.5t-14 -0.5h-122v-259h-76v657h202q97 0 159 -54t62 -142q0 -65 -32.5 -113t-89.5 -70zM279 590h-120v-265h120q69 0 109 37t40 98q0 59 -40 94.5t-109 35.5zM273 691h-42l-102 123l30 26l95 -85l93 84l28 -25z" />
    <glyph glyph-name="rcaron" unicode="&#x159;" horiz-adv-x="315" 
d="M183 548h-42l-102 123l30 26l95 -85l93 84l28 -25zM145 0h-73v489h56l12 -62q44 72 130 72q8 0 24 -2v-70q-24 3 -30 3q-53 0 -86 -33.5t-33 -88.5v-308z" />
    <glyph glyph-name="Sacute" unicode="&#x15a;" horiz-adv-x="525" 
d="M464 470h-74v16q0 51 -34.5 84t-94.5 33t-93.5 -27.5t-33.5 -71.5q0 -66 75 -96l108 -44q35 -14 57.5 -26t49 -33.5t39.5 -52.5t13 -71q0 -87 -59 -139t-155 -52t-155.5 50t-59.5 135v16h75v-20q0 -51 37 -83.5t102 -32.5t102.5 32.5t37.5 84.5q0 48 -28.5 74.5
t-83.5 48.5l-93 38q-135 53 -135 165q0 75 55.5 122t144.5 47q91 0 147 -50t56 -135v-12zM389 795l-130 -101l-34 33l114 119z" />
    <glyph glyph-name="sacute" unicode="&#x15b;" horiz-adv-x="448" 
d="M349 649l-130 -102l-34 33l114 119zM43 151h68v-17q0 -38 30.5 -61.5t83.5 -23.5q50 0 77 22.5t27 59.5q0 30 -15 46.5t-50 27.5l-94 29q-113 34 -113 128q0 57 46.5 97t118.5 40q78 0 126 -38t48 -105v-8h-69v12q0 35 -28 58t-77 23q-38 0 -67 -19t-29 -54q0 -48 59 -65
l83 -26q64 -20 98 -50t34 -88q0 -66 -47.5 -107.5t-126.5 -41.5q-81 0 -132 40t-51 108v13z" />
    <glyph glyph-name="Scircumflex" unicode="&#x15c;" horiz-adv-x="525" 
d="M464 470h-74v16q0 51 -34.5 84t-94.5 33t-93.5 -27.5t-33.5 -71.5q0 -66 75 -96l108 -44q35 -14 57.5 -26t49 -33.5t39.5 -52.5t13 -71q0 -87 -59 -139t-155 -52t-155.5 50t-59.5 135v16h75v-20q0 -51 37 -83.5t102 -32.5t102.5 32.5t37.5 84.5q0 48 -28.5 74.5
t-83.5 48.5l-93 38q-135 53 -135 165q0 75 55.5 122t144.5 47q91 0 147 -50t56 -135v-12zM240 844h42l102 -123l-29 -26l-95 85l-93 -84l-29 25z" />
    <glyph glyph-name="scircumflex" unicode="&#x15d;" horiz-adv-x="448" 
d="M200 697h42l102 -123l-29 -26l-95 85l-93 -84l-29 25zM43 151h68v-17q0 -38 30.5 -61.5t83.5 -23.5q50 0 77 22.5t27 59.5q0 30 -15 46.5t-50 27.5l-94 29q-113 34 -113 128q0 57 46.5 97t118.5 40q78 0 126 -38t48 -105v-8h-69v12q0 35 -28 58t-77 23q-38 0 -67 -19
t-29 -54q0 -48 59 -65l83 -26q64 -20 98 -50t34 -88q0 -66 -47.5 -107.5t-126.5 -41.5q-81 0 -132 40t-51 108v13z" />
    <glyph glyph-name="Scedilla" unicode="&#x15e;" horiz-adv-x="526" 
d="M221 -89l-17 11l20 70q-81 9 -129 58t-48 125v16h75v-20q0 -51 37 -83.5t102 -32.5t102.5 32.5t37.5 84.5q0 48 -28.5 74.5t-83.5 48.5l-93 38q-135 53 -135 165q0 75 55.5 122t144.5 47q91 0 147 -50t56 -135v-12h-74v16q0 51 -34.5 84t-94.5 33t-93.5 -27.5
t-33.5 -71.5q0 -66 75 -96l108 -44q35 -14 57.5 -26t49 -33.5t39.5 -52.5t13 -71q0 -84 -55.5 -135.5t-146.5 -55.5l-11 -35h12q39 0 60 -18.5t21 -51.5t-22 -52.5t-59 -19.5h-97v44h96q29 0 29 27t-29 27h-53z" />
    <glyph glyph-name="scedilla" unicode="&#x15f;" horiz-adv-x="449" 
d="M185 -89l-17 11l21 71q-66 8 -106 46.5t-40 98.5v13h68v-17q0 -38 30.5 -61.5t83.5 -23.5q50 0 77 22.5t27 59.5q0 30 -15 46.5t-50 27.5l-94 29q-113 34 -113 128q0 57 46.5 97t118.5 40q78 0 126 -38t48 -105v-8h-69v12q0 35 -28 58t-77 23q-38 0 -67 -19t-29 -54
q0 -48 59 -65l83 -26q64 -20 98 -50t34 -88q0 -64 -44 -104.5t-118 -43.5l-11 -36h12q39 0 60 -18.5t21 -51.5t-22 -52.5t-59 -19.5h-97v44h96q29 0 29 27t-29 27h-53z" />
    <glyph glyph-name="Scaron" unicode="&#x160;" horiz-adv-x="525" 
d="M464 470h-74v16q0 51 -34.5 84t-94.5 33t-93.5 -27.5t-33.5 -71.5q0 -66 75 -96l108 -44q35 -14 57.5 -26t49 -33.5t39.5 -52.5t13 -71q0 -87 -59 -139t-155 -52t-155.5 50t-59.5 135v16h75v-20q0 -51 37 -83.5t102 -32.5t102.5 32.5t37.5 84.5q0 48 -28.5 74.5
t-83.5 48.5l-93 38q-135 53 -135 165q0 75 55.5 122t144.5 47q91 0 147 -50t56 -135v-12zM282 691h-42l-102 123l30 26l95 -85l93 84l28 -25z" />
    <glyph glyph-name="scaron" unicode="&#x161;" horiz-adv-x="448" 
d="M242 548h-42l-102 123l30 26l95 -85l93 84l28 -25zM43 151h68v-17q0 -38 30.5 -61.5t83.5 -23.5q50 0 77 22.5t27 59.5q0 30 -15 46.5t-50 27.5l-94 29q-113 34 -113 128q0 57 46.5 97t118.5 40q78 0 126 -38t48 -105v-8h-69v12q0 35 -28 58t-77 23q-38 0 -67 -19
t-29 -54q0 -48 59 -65l83 -26q64 -20 98 -50t34 -88q0 -66 -47.5 -107.5t-126.5 -41.5q-81 0 -132 40t-51 108v13z" />
    <glyph glyph-name="uni0162" unicode="&#x162;" horiz-adv-x="461" 
d="M200 -89l-17 11l23 78h-14v588h-173v69h422v-69h-173v-588h-12l-14 -45h12q39 0 60 -18.5t21 -51.5t-22 -52.5t-59 -19.5h-97v44h96q29 0 29 27t-29 27h-53z" />
    <glyph glyph-name="uni0163" unicode="&#x163;" horiz-adv-x="314" 
d="M126 -89l-17 11l23 78h-12v424h-94v62h94v133h74v-133h94v-62h-94v-424h-12l-14 -45h12q39 0 60 -18.5t21 -51.5t-22 -52.5t-59 -19.5h-97v44h96q29 0 29 27t-29 27h-53z" />
    <glyph glyph-name="Tcaron" unicode="&#x164;" horiz-adv-x="461" 
d="M19 588v69h422v-69h-173v-588h-76v588h-173zM251 691h-42l-102 123l30 26l95 -85l93 84l28 -25z" />
    <glyph glyph-name="tcaron" unicode="&#x165;" horiz-adv-x="314" 
d="M263 677h77l-52 -132h-48zM26 424v62h94v133h74v-133h94v-62h-94v-424h-74v424h-94z" />
    <glyph glyph-name="Tbar" unicode="&#x166;" horiz-adv-x="462" 
d="M20 588v69h422v-69h-173v-162h134v-60h-134v-366h-76v366h-134v60h134v162h-173z" />
    <glyph glyph-name="tbar" unicode="&#x167;" horiz-adv-x="317" 
d="M28 424v62h94v133h74v-133h94v-62h-94v-101h79v-54h-79v-269h-74v269h-80v54h80v101h-94z" />
    <glyph glyph-name="Utilde" unicode="&#x168;" horiz-adv-x="579" 
d="M425 657h76v-457q0 -96 -58.5 -153t-153.5 -57t-153 57t-58 153v457h76v-459q0 -62 36 -100.5t99 -38.5q64 0 100 38.5t36 100.5v459zM397 802h40q2 -16 2 -24q0 -37 -18 -59.5t-53 -22.5q-27 0 -64 21l-40 22q-28 14 -40 14q-19 0 -29.5 -15t-12 -25t-1.5 -17h-40
q-3 12 -3 23q0 36 23 60.5t60 24.5q27 0 58 -17l41 -22q30 -18 45 -18q32 0 32 55z" />
    <glyph glyph-name="utilde" unicode="&#x169;" horiz-adv-x="503" 
d="M68 165v324h73v-324q0 -48 27 -79t76 -31q52 0 83 34t31 86v314h73v-489h-56l-11 56q-47 -66 -133 -66q-77 0 -120 47t-43 128zM358 662h40q2 -16 2 -24q0 -37 -18 -59.5t-53 -22.5q-24 0 -64 21l-40 22q-24 14 -40 14q-19 0 -29.5 -15t-12 -24.5t-1.5 -16.5h-40
q-3 10 -3 22q0 37 23 61.5t60 24.5q27 0 58 -17l41 -23q28 -17 45 -17q32 0 32 54z" />
    <glyph glyph-name="Umacron" unicode="&#x16a;" horiz-adv-x="579" 
d="M425 657h76v-457q0 -96 -58.5 -153t-153.5 -57t-153 57t-58 153v457h76v-459q0 -62 36 -100.5t99 -38.5q64 0 100 38.5t36 100.5v459zM172 732v55h235v-55h-235z" />
    <glyph glyph-name="umacron" unicode="&#x16b;" horiz-adv-x="503" 
d="M68 165v324h73v-324q0 -48 27 -79t76 -31q52 0 83 34t31 86v314h73v-489h-56l-11 56q-47 -66 -133 -66q-77 0 -120 47t-43 128zM132 572v55h235v-55h-235z" />
    <glyph glyph-name="Ubreve" unicode="&#x16c;" horiz-adv-x="579" 
d="M425 657h76v-457q0 -96 -58.5 -153t-153.5 -57t-153 57t-58 153v457h76v-459q0 -62 36 -100.5t99 -38.5q64 0 100 38.5t36 100.5v459zM342 812h49v-19q0 -42 -28 -70t-74 -28q-45 0 -73 28t-28 70v19h49v-19q0 -24 14 -39.5t38 -15.5q25 0 39 15.5t14 39.5v19z" />
    <glyph glyph-name="ubreve" unicode="&#x16d;" horiz-adv-x="503" 
d="M68 165v324h73v-324q0 -48 27 -79t76 -31q52 0 83 34t31 86v314h73v-489h-56l-11 56q-47 -66 -133 -66q-77 0 -120 47t-43 128zM302 666h49v-20q0 -42 -28 -70t-74 -28q-45 0 -73 28t-28 70v20h49v-20q0 -24 14 -39.5t38 -15.5q25 0 39 15.5t14 39.5v20z" />
    <glyph glyph-name="Uring" unicode="&#x16e;" horiz-adv-x="579" 
d="M289 720q22 0 36.5 16t14.5 39t-14.5 39t-36.5 16t-36.5 -16t-14.5 -39t14.5 -39t36.5 -16zM289 680q-42 0 -70 27.5t-28 67.5t28 68t70 28t70 -28t28 -68t-28 -67.5t-70 -27.5zM425 657h76v-457q0 -96 -58.5 -153t-153.5 -57t-153 57t-58 153v457h76v-459
q0 -62 36 -100.5t99 -38.5q64 0 100 38.5t36 100.5v459z" />
    <glyph glyph-name="uring" unicode="&#x16f;" horiz-adv-x="503" 
d="M249 569q22 0 36.5 16t14.5 39t-14.5 38.5t-36.5 15.5t-36.5 -15.5t-14.5 -38.5t14.5 -39t36.5 -16zM249 528q-42 0 -70 28t-28 68t28 68t70 28t70 -28t28 -68t-28 -68t-70 -28zM68 165v324h73v-324q0 -48 27 -79t76 -31q52 0 83 34t31 86v314h73v-489h-56l-11 56
q-47 -66 -133 -66q-77 0 -120 47t-43 128z" />
    <glyph glyph-name="Uhungarumlaut" unicode="&#x170;" horiz-adv-x="579" 
d="M354 799l-127 -105l-27 27l111 120zM471 800l-123 -110l-27 27l107 124zM425 657h76v-457q0 -96 -58.5 -153t-153.5 -57t-153 57t-58 153v457h76v-459q0 -62 36 -100.5t99 -38.5q64 0 100 38.5t36 100.5v459z" />
    <glyph glyph-name="uhungarumlaut" unicode="&#x171;" horiz-adv-x="503" 
d="M68 165v324h73v-324q0 -48 27 -79t76 -31q52 0 83 34t31 86v314h73v-489h-56l-11 56q-47 -66 -133 -66q-77 0 -120 47t-43 128zM311 655l-127 -104l-27 26l111 120zM428 656l-123 -109l-27 27l107 124z" />
    <glyph glyph-name="Uogonek" unicode="&#x172;" horiz-adv-x="580" 
d="M425 657h76v-457q0 -92 -57 -152l-14 -14l-14.5 -14.5t-12.5 -13.5t-12.5 -15.5t-10 -14t-10 -15.5t-6.5 -15t-5 -17t-1 -17q0 -52 49 -52h45v-48h-55q-43 0 -66.5 25t-23.5 63q0 48 42 97q-33 -7 -60 -7q-95 0 -153 57t-58 153v457h76v-459q0 -62 36 -100.5t99 -38.5
q64 0 100 38.5t36 100.5v459z" />
    <glyph glyph-name="uogonek" unicode="&#x173;" horiz-adv-x="503" 
d="M68 165v324h73v-324q0 -48 27 -79t76 -31q52 0 83 34t31 86v314h73v-489h-12q-87 -49 -87 -103q0 -37 50 -37h45v-48h-55q-44 0 -67 21t-23 53q0 36 27 69t65 50l-10 51q-47 -66 -133 -66q-77 0 -120 47t-43 128z" />
    <glyph glyph-name="Wcircumflex" unicode="&#x174;" horiz-adv-x="738" 
d="M348 844h42l102 -123l-29 -26l-95 85l-93 -84l-29 25zM631 657h73l-150 -657h-69l-117 520l-115 -520h-69l-150 657h75l112 -517l114 517h70l114 -517z" />
    <glyph glyph-name="wcircumflex" unicode="&#x175;" horiz-adv-x="657" 
d="M308 697h42l102 -123l-29 -26l-95 85l-93 -84l-29 25zM108 489l93 -376l96 376h66l96 -376l93 376h76l-135 -489h-65l-99 365l-99 -365h-65l-135 489h78z" />
    <glyph glyph-name="Ycircumflex" unicode="&#x176;" horiz-adv-x="488" 
d="M16 657h82l148 -320l149 320h77l-190 -394v-263h-76v262zM223 844h42l102 -123l-29 -26l-95 85l-93 -84l-29 25z" />
    <glyph glyph-name="ycircumflex" unicode="&#x177;" horiz-adv-x="457" 
d="M198 -187h-69l67 184l-172 492h80l127 -387l127 387h76zM207 697h42l102 -123l-29 -26l-95 85l-93 -84l-29 25z" />
    <glyph glyph-name="Ydieresis" unicode="&#x178;" horiz-adv-x="488" 
d="M16 657h82l148 -320l149 320h77l-190 -394v-263h-76v262zM144 762q0 18 13 30.5t32 12.5q18 0 30 -12.5t12 -30.5q0 -19 -12 -32t-30 -13q-19 0 -32 13t-13 32zM258 762q0 18 13 30.5t31 12.5t30.5 -12.5t12.5 -30.5q0 -19 -12.5 -32t-30.5 -13t-31 13t-13 32z" />
    <glyph glyph-name="Zacute" unicode="&#x179;" horiz-adv-x="464" 
d="M48 589v68h371v-48l-290 -541h299v-68h-392v48l290 541h-278zM361 795l-130 -101l-34 33l114 119z" />
    <glyph glyph-name="zacute" unicode="&#x17a;" horiz-adv-x="429" 
d="M342 649l-130 -102l-34 33l114 119zM46 427v62h338v-46l-257 -382h262v-61h-351v45l257 382h-249z" />
    <glyph glyph-name="Zdotaccent" unicode="&#x17b;" horiz-adv-x="464" 
d="M183 760q0 21 14 35t34 14q21 0 35 -14t14 -35q0 -20 -14 -34t-35 -14q-20 0 -34 14t-14 34zM48 589v68h371v-48l-290 -541h299v-68h-392v48l290 541h-278z" />
    <glyph glyph-name="zdotaccent" unicode="&#x17c;" horiz-adv-x="429" 
d="M46 427v62h338v-46l-257 -382h262v-61h-351v45l257 382h-249zM165 607q0 20 14 34.5t34 14.5q21 0 35 -14.5t14 -34.5t-14 -34t-35 -14q-20 0 -34 14t-14 34z" />
    <glyph glyph-name="Zcaron" unicode="&#x17d;" horiz-adv-x="464" 
d="M48 589v68h371v-48l-290 -541h299v-68h-392v48l290 541h-278zM257 691h-42l-102 123l30 26l95 -85l93 84l28 -25z" />
    <glyph glyph-name="zcaron" unicode="&#x17e;" horiz-adv-x="429" 
d="M235 548h-42l-102 123l30 26l95 -85l93 84l28 -25zM46 427v62h338v-46l-257 -382h262v-61h-351v45l257 382h-249z" />
    <glyph glyph-name="longs" unicode="&#x17f;" horiz-adv-x="237" 
d="M278 614h-39q-94 0 -94 -99v-515h-73v510q0 81 42 124t121 43h43v-63z" />
    <glyph glyph-name="florin" unicode="&#x192;" horiz-adv-x="413" 
d="M87 306v62h78v137q0 81 42 124t121 43h43v-63h-39q-94 0 -94 -99v-142h126v-62h-126v-326q0 -81 -42 -124t-121 -43h-43v63h39q94 0 94 99v331h-78z" />
    <glyph glyph-name="uni0218" unicode="&#x218;" horiz-adv-x="525" 
d="M224 -44h85l-69 -166h-53zM464 470h-74v16q0 51 -34.5 84t-94.5 33t-93.5 -27.5t-33.5 -71.5q0 -66 75 -96l108 -44q35 -14 57.5 -26t49 -33.5t39.5 -52.5t13 -71q0 -87 -59 -139t-155 -52t-155.5 50t-59.5 135v16h75v-20q0 -51 37 -83.5t102 -32.5t102.5 32.5t37.5 84.5
q0 48 -28.5 74.5t-83.5 48.5l-93 38q-135 53 -135 165q0 75 55.5 122t144.5 47q91 0 147 -50t56 -135v-12z" />
    <glyph glyph-name="uni0219" unicode="&#x219;" horiz-adv-x="448" 
d="M186 -44h85l-69 -166h-53zM43 151h68v-17q0 -38 30.5 -61.5t83.5 -23.5q50 0 77 22.5t27 59.5q0 30 -15 46.5t-50 27.5l-94 29q-113 34 -113 128q0 57 46.5 97t118.5 40q78 0 126 -38t48 -105v-8h-69v12q0 35 -28 58t-77 23q-38 0 -67 -19t-29 -54q0 -48 59 -65l83 -26
q64 -20 98 -50t34 -88q0 -66 -47.5 -107.5t-126.5 -41.5q-81 0 -132 40t-51 108v13z" />
    <glyph glyph-name="uni021A" unicode="&#x21a;" horiz-adv-x="461" 
d="M186 -44h85l-69 -166h-53zM19 588v69h422v-69h-173v-588h-76v588h-173z" />
    <glyph glyph-name="uni021B" unicode="&#x21b;" horiz-adv-x="314" 
d="M114 -44h85l-69 -166h-53zM26 424v62h94v133h74v-133h94v-62h-94v-424h-74v424h-94z" />
    <glyph glyph-name="uni0237" unicode="&#x237;" horiz-adv-x="217" 
d="M-57 -134h23q52 0 79 29t27 80v514h73v-509q0 -86 -46.5 -131.5t-127.5 -45.5h-28v63z" />
    <glyph glyph-name="circumflex" unicode="&#x2c6;" horiz-adv-x="286" 
d="M122 697h42l102 -123l-29 -26l-95 85l-93 -84l-29 25z" />
    <glyph glyph-name="caron" unicode="&#x2c7;" horiz-adv-x="286" 
d="M164 548h-42l-102 123l30 26l95 -85l93 84l28 -25z" />
    <glyph glyph-name="uni02C9" unicode="&#x2c9;" horiz-adv-x="275" 
d="M20 574v55h235v-55h-235z" />
    <glyph glyph-name="breve" unicode="&#x2d8;" horiz-adv-x="243" 
d="M174 666h49v-20q0 -42 -28 -70t-74 -28q-45 0 -73 28t-28 70v20h49v-20q0 -24 14 -39.5t38 -15.5q25 0 39 15.5t14 39.5v20z" />
    <glyph glyph-name="dotaccent" unicode="&#x2d9;" horiz-adv-x="137" 
d="M20 607q0 20 14 34.5t34 14.5q21 0 35 -14.5t14 -34.5t-14 -34t-35 -14q-20 0 -34 14t-14 34z" />
    <glyph glyph-name="ring" unicode="&#x2da;" horiz-adv-x="236" 
d="M118 569q22 0 36.5 16t14.5 39t-14.5 38.5t-36.5 15.5t-36.5 -15.5t-14.5 -38.5t14.5 -39t36.5 -16zM118 528q-42 0 -70 28t-28 68t28 68t70 28t70 -28t28 -68t-28 -68t-70 -28z" />
    <glyph glyph-name="ogonek" unicode="&#x2db;" horiz-adv-x="236" 
d="M145 -140h45v-48h-55q-44 0 -67 21t-23 53q0 38 30 72.5t70 50.5l37 -9q-87 -49 -87 -103q0 -37 50 -37z" />
    <glyph glyph-name="tilde" unicode="&#x2dc;" horiz-adv-x="341" 
d="M279 662h40q2 -16 2 -24q0 -37 -18 -59.5t-53 -22.5q-24 0 -64 21l-40 22q-24 14 -40 14q-19 0 -29.5 -15t-12 -24.5t-1.5 -16.5h-40q-3 11 -3 22q0 37 23 61.5t60 24.5q27 0 58 -17l41 -23q28 -17 45 -17q32 0 32 54z" />
    <glyph glyph-name="hungarumlaut" unicode="&#x2dd;" horiz-adv-x="311" 
d="M174 655l-127 -104l-27 26l111 120zM291 656l-123 -109l-27 27l107 124z" />
    <glyph glyph-name="uni0394" unicode="&#x394;" horiz-adv-x="515" 
d="M490 0h-464l193 657h78zM256 538l-134 -470h267z" />
    <glyph glyph-name="uni03A9" unicode="&#x3a9;" horiz-adv-x="589" 
d="M360 0v77q36 14 55 46.5t19 76.5v259q0 62 -37.5 100.5t-102.5 38.5t-102 -38.5t-37 -100.5v-259q0 -44 19 -76.5t55 -46.5v-77h-180v58h105q-75 47 -75 158v241q0 97 58.5 153.5t156.5 56.5q99 0 157.5 -56.5t58.5 -153.5v-241q0 -111 -76 -158h106v-58h-180z" />
    <glyph glyph-name="uni03BC" unicode="&#x3bc;" horiz-adv-x="507" 
d="M71 -187v676h74v-324q0 -48 27 -79t76 -31q52 0 82.5 33.5t30.5 85.5v315h74v-489h-57l-11 56q-45 -66 -133 -66q-59 0 -95 36l6 -176v-37h-74z" />
    <glyph glyph-name="pi" unicode="&#x3c0;" horiz-adv-x="624" 
d="M25 422v67h574v-67h-98v-422h-73v422h-232v-422h-73v422h-98z" />
    <glyph glyph-name="Wgrave" unicode="&#x1e80;" horiz-adv-x="738" 
d="M370 694l-130 101l50 51l114 -119zM631 657h73l-150 -657h-69l-117 520l-115 -520h-69l-150 657h75l112 -517l114 517h70l114 -517z" />
    <glyph glyph-name="wgrave" unicode="&#x1e81;" horiz-adv-x="657" 
d="M108 489l93 -376l96 376h66l96 -376l93 376h76l-135 -489h-65l-99 365l-99 -365h-65l-135 489h78zM329 547l-130 102l50 50l114 -119z" />
    <glyph glyph-name="Wacute" unicode="&#x1e82;" horiz-adv-x="738" 
d="M501 795l-130 -101l-34 33l114 119zM631 657h73l-150 -657h-69l-117 520l-115 -520h-69l-150 657h75l112 -517l114 517h70l114 -517z" />
    <glyph glyph-name="wacute" unicode="&#x1e83;" horiz-adv-x="657" 
d="M458 649l-130 -102l-34 33l114 119zM108 489l93 -376l96 376h66l96 -376l93 376h76l-135 -489h-65l-99 365l-99 -365h-65l-135 489h78z" />
    <glyph glyph-name="Wdieresis" unicode="&#x1e84;" horiz-adv-x="738" 
d="M631 657h73l-150 -657h-69l-117 520l-115 -520h-69l-150 657h75l112 -517l114 517h70l114 -517zM268 762q0 18 13 30.5t32 12.5q18 0 30 -12.5t12 -30.5q0 -19 -12 -32t-30 -13q-19 0 -32 13t-13 32zM382 762q0 18 13 30.5t31 12.5t30.5 -12.5t12.5 -30.5
q0 -19 -12.5 -32t-30.5 -13t-31 13t-13 32z" />
    <glyph glyph-name="wdieresis" unicode="&#x1e85;" horiz-adv-x="657" 
d="M228 607q0 18 13 30.5t32 12.5q18 0 30 -12.5t12 -30.5q0 -19 -12 -32t-30 -13q-19 0 -32 13t-13 32zM342 607q0 18 13 30.5t31 12.5t30.5 -12.5t12.5 -30.5q0 -19 -12.5 -32t-30.5 -13t-31 13t-13 32zM108 489l93 -376l96 376h66l96 -376l93 376h76l-135 -489h-65
l-99 365l-99 -365h-65l-135 489h78z" />
    <glyph glyph-name="endash" unicode="&#x2013;" horiz-adv-x="511" 
d="M68 234v58h375v-58h-375z" />
    <glyph glyph-name="emdash" unicode="&#x2014;" horiz-adv-x="796" 
d="M68 234v58h659v-58h-659z" />
    <glyph glyph-name="quoteleft" unicode="&#x2018;" horiz-adv-x="221" 
d="M133 482h-85l72 175h52z" />
    <glyph glyph-name="quoteright" unicode="&#x2019;" horiz-adv-x="218" 
d="M93 657h85l-72 -175h-52z" />
    <glyph glyph-name="quotesinglbase" unicode="&#x201a;" horiz-adv-x="222" 
d="M77 81h85l-72 -175h-52z" />
    <glyph glyph-name="quotedblleft" unicode="&#x201c;" horiz-adv-x="343" 
d="M255 482h-85l72 175h53zM132 482h-84l77 175h52z" />
    <glyph glyph-name="quotedblright" unicode="&#x201d;" horiz-adv-x="340" 
d="M93 657h85l-72 -175h-52zM216 657h85l-78 -175h-52z" />
    <glyph glyph-name="quotedblbase" unicode="&#x201e;" horiz-adv-x="345" 
d="M77 81h85l-72 -175h-52zM200 81h85l-77 -175h-52z" />
    <glyph glyph-name="dagger" unicode="&#x2020;" horiz-adv-x="383" 
d="M228 551l-10 -62h131v-51h-136l15 -443v-106h-72v106l13 443h-134v51h129l-8 62v106h72v-106z" />
    <glyph glyph-name="daggerdbl" unicode="&#x2021;" horiz-adv-x="417" 
d="M244 551l-3 -62h124v-51h-127l-8 -165l8 -165h127v-51h-124l3 -62v-106h-71v106l2 62h-123v51h127l8 165l-8 165h-127v51h123l-2 62v106h71v-106z" />
    <glyph glyph-name="bullet" unicode="&#x2022;" horiz-adv-x="339" 
d="M78 274q0 38 27 65.5t64 27.5q38 0 65 -27.5t27 -65.5q0 -37 -27 -64t-65 -27q-37 0 -64 27t-27 64z" />
    <glyph glyph-name="ellipsis" unicode="&#x2026;" horiz-adv-x="594" 
d="M60 38q0 21 14 35t34 14q21 0 35 -14t14 -35q0 -20 -14 -34t-35 -14q-20 0 -34 14t-14 34zM248 38q0 21 14.5 35t34.5 14t34 -14t14 -35q0 -20 -14 -34t-34 -14t-34.5 14t-14.5 34zM437 38q0 21 14 35t34 14t34.5 -14t14.5 -35q0 -20 -14.5 -34t-34.5 -14t-34 14t-14 34z
" />
    <glyph glyph-name="perthousand" unicode="&#x2030;" horiz-adv-x="899" 
d="M107 558v-121q0 -27 15.5 -44t43.5 -17q27 0 42.5 17t15.5 44v121q0 27 -15.5 44t-42.5 17q-28 0 -43.5 -17t-15.5 -44zM279 557v-119q0 -50 -31 -80t-82 -30q-52 0 -83 30t-31 80v119q0 50 31 80t83 30q51 0 82 -30t31 -80zM284 329l192 328h66l-198 -329l-193 -328h-65
zM404 220v-121q0 -27 15.5 -44t42.5 -17q28 0 43 17t15 44v121q0 27 -15 44t-43 17q-27 0 -42.5 -17t-15.5 -44zM576 219v-119q0 -50 -31 -80t-83 -30t-83 30t-31 80v119q0 50 31 80t83 30t83 -30t31 -80zM681 220v-121q0 -27 15.5 -44t42.5 -17q28 0 43.5 17t15.5 44v121
q0 27 -15.5 44t-43.5 17q-27 0 -42.5 -17t-15.5 -44zM853 219v-119q0 -50 -31 -80t-83 -30t-82.5 30t-30.5 80v119q0 50 30.5 80t82.5 30t83 -30t31 -80z" />
    <glyph glyph-name="guilsinglleft" unicode="&#x2039;" horiz-adv-x="250" 
d="M53 233l76 165h63l-65 -165l65 -165h-63z" />
    <glyph glyph-name="guilsinglright" unicode="&#x203a;" horiz-adv-x="250" 
d="M121 398l76 -165l-76 -165h-63l65 165l-65 165h63z" />
    <glyph glyph-name="fraction" unicode="&#x2044;" horiz-adv-x="109" 
d="M25 329l192 328h66l-198 -329l-192 -328h-66z" />
    <glyph glyph-name="zero.superior" unicode="&#x2070;" horiz-adv-x="291" 
d="M95 709v-130q0 -24 13.5 -38.5t37.5 -14.5t37 14.5t13 38.5v130q0 24 -13 38.5t-37 14.5t-37.5 -14.5t-13.5 -38.5zM253 708v-128q0 -48 -29.5 -76.5t-77.5 -28.5q-49 0 -78.5 28.5t-29.5 76.5v128q0 49 28.5 77t79.5 28q48 0 77.5 -28.5t29.5 -76.5z" />
    <glyph glyph-name="four.superior" unicode="&#x2074;" horiz-adv-x="290" 
d="M160 808h68v-208h36v-49h-36v-71h-57v71h-150v55zM73 600h98v142z" />
    <glyph glyph-name="five.superior" unicode="&#x2075;" horiz-adv-x="278" 
d="M232 808v-49h-137v-90q22 17 56 17q44 0 70.5 -27.5t26.5 -75.5q0 -50 -29.5 -79t-77.5 -29t-77.5 23.5t-29.5 63.5v8h54v-7q0 -18 13 -29t37 -11q51 0 51 58t-49 58q-27 0 -48 -19h-49v188h189z" />
    <glyph glyph-name="six.superior" unicode="&#x2076;" horiz-adv-x="286" 
d="M253 577q0 -48 -29.5 -75t-78.5 -27t-78 28t-29 78v126q0 49 28.5 77.5t79.5 28.5q46 0 74.5 -25t28.5 -67v-5h-56v5q0 19 -12.5 31t-34.5 12q-24 0 -37.5 -14t-13.5 -38v-54q27 20 61 20q44 0 70.5 -27.5t26.5 -73.5zM145 631q-30 0 -50 -22v-28q0 -28 13.5 -43
t36.5 -15q49 0 49 52q0 56 -49 56z" />
    <glyph glyph-name="seven.superior" unicode="&#x2077;" horiz-adv-x="239" 
d="M19 759v49h200v-42l-111 -286h-61l110 279h-138z" />
    <glyph glyph-name="eight.superior" unicode="&#x2078;" horiz-adv-x="281" 
d="M242 723q0 -53 -39 -73q46 -20 46 -79q0 -43 -30 -69.5t-78 -26.5q-49 0 -78.5 26.5t-29.5 69.5q0 58 45 79q-40 21 -40 73q0 40 28.5 65t74.5 25q45 0 73 -25t28 -65zM91 574q0 -24 13 -38.5t37 -14.5t37 14.5t13 38.5q0 53 -50 53t-50 -53zM95 718q0 -49 46 -49
q45 0 45 49q0 47 -45 47q-46 0 -46 -47z" />
    <glyph glyph-name="nine.superior" unicode="&#x2079;" horiz-adv-x="284" 
d="M33 711q0 48 29.5 75t78.5 27q48 0 77 -29.5t29 -83.5v-119q0 -49 -28.5 -77.5t-78.5 -28.5q-47 0 -75 24.5t-28 67.5v5h54v-5q0 -19 13 -31t34 -12q52 0 52 52v55q-24 -21 -61 -21q-45 0 -70.5 27.5t-25.5 73.5zM139 657q32 0 51 23v20q0 65 -50 65q-49 0 -49 -52
q0 -56 48 -56z" />
    <glyph glyph-name="parenleft.superior" unicode="&#x207d;" horiz-adv-x="173" 
d="M142 475h5v-51h-5q-49 0 -75.5 27t-26.5 74v236q0 48 26.5 74.5t75.5 26.5h5v-50h-5q-45 0 -45 -48v-242q0 -47 45 -47z" />
    <glyph glyph-name="parenright.superior" unicode="&#x207e;" horiz-adv-x="173" 
d="M26 475h5q44 0 44 47v242q0 48 -44 48h-5v50h5q49 0 75 -26.5t26 -74.5v-236q0 -47 -26 -74t-75 -27h-5v51z" />
    <glyph glyph-name="zero.inferior" unicode="&#x2080;" horiz-adv-x="301" 
d="M101 81v-129q0 -24 13 -39t37 -15t37 15t13 39v129q0 24 -13 39t-37 15t-37 -15t-13 -39zM258 81v-129q0 -48 -29 -76t-78 -28t-78 28t-29 76v129q0 49 28 77t79 28q48 0 77.5 -28.5t29.5 -76.5z" />
    <glyph glyph-name="one.inferior" unicode="&#x2081;" horiz-adv-x="227" 
d="M34 130v51h114v-279h58v-49h-172v49h57v228h-57z" />
    <glyph glyph-name="two.inferior" unicode="&#x2082;" horiz-adv-x="286" 
d="M36 -147v26q0 74 58 114l58 38q38 25 38 62q0 42 -47 42q-24 0 -36.5 -12t-12.5 -33v-10h-56v10q0 42 29.5 69t76.5 27q48 0 76 -24.5t28 -66.5q0 -61 -59 -101l-57 -39q-28 -19 -33 -51h149v-51h-212z" />
    <glyph glyph-name="three.inferior" unicode="&#x2083;" horiz-adv-x="286" 
d="M112 -1v45h23q50 0 50 46q0 45 -46 45q-22 0 -35 -12.5t-13 -32.5v-7h-55v8q0 42 29 68.5t76 26.5q46 0 73.5 -25t27.5 -64q0 -53 -38 -74q44 -21 44 -80q0 -43 -29.5 -69t-78.5 -26q-48 0 -77 26t-29 69v8h55v-8q0 -21 13 -33.5t37 -12.5q51 0 51 52q0 50 -55 50h-23z
" />
    <glyph glyph-name="four.inferior" unicode="&#x2084;" horiz-adv-x="295" 
d="M161 181h69v-209h35v-48h-35v-71h-57v71h-150v54zM75 -28h98v142z" />
    <glyph glyph-name="five.inferior" unicode="&#x2085;" horiz-adv-x="283" 
d="M235 181v-49h-137v-90q25 17 56 17q44 0 70.5 -28t26.5 -76q0 -50 -29 -78.5t-78 -28.5q-48 0 -77.5 23t-29.5 63v8h54v-7q0 -18 13.5 -29t36.5 -11q51 0 51 59q0 58 -49 58q-27 0 -48 -19h-49v188h189z" />
    <glyph glyph-name="six.inferior" unicode="&#x2086;" horiz-adv-x="293" 
d="M258 -50q0 -48 -29.5 -75t-78.5 -27t-77.5 28t-28.5 78v126q0 49 28.5 77.5t78.5 28.5q46 0 74.5 -25t28.5 -67v-5h-56v5q0 19 -12.5 31t-33.5 12q-24 0 -37.5 -14t-13.5 -38v-54q24 19 60 19q44 0 70.5 -27t26.5 -73zM150 4q-29 0 -49 -22v-28q0 -59 49 -59
q24 0 36.5 14.5t12.5 38.5q0 56 -49 56z" />
    <glyph glyph-name="seven.inferior" unicode="&#x2087;" horiz-adv-x="243" 
d="M22 132v49h200v-43l-111 -285h-61l110 279h-138z" />
    <glyph glyph-name="eight.inferior" unicode="&#x2088;" horiz-adv-x="291" 
d="M247 95q0 -52 -40 -72q46 -21 46 -79q0 -43 -29.5 -69.5t-78.5 -26.5t-78 26t-29 70q0 57 45 79q-40 18 -40 72q0 41 28 66t74 25t74 -25t28 -66zM96 -53q0 -25 13 -39.5t36 -14.5q24 0 37 15t13 39q0 53 -50 53q-49 0 -49 -53zM100 91q0 -49 45 -49t45 49q0 47 -45 47
t-45 -47z" />
    <glyph glyph-name="nine.inferior" unicode="&#x2089;" horiz-adv-x="293" 
d="M36 84q0 48 29.5 75t77.5 27q49 0 78 -29.5t29 -83.5v-119q0 -50 -28.5 -78t-79.5 -28q-47 0 -74.5 24.5t-27.5 66.5v6h54v-6q0 -18 13 -30t34 -12q52 0 52 52v54q-23 -20 -61 -20q-45 0 -70.5 27.5t-25.5 73.5zM142 30q31 0 51 22v21q0 65 -50 65q-24 0 -36.5 -14
t-12.5 -38q0 -56 48 -56z" />
    <glyph glyph-name="parenleft.inferior" unicode="&#x208d;" horiz-adv-x="181" 
d="M147 -153h5v-50h-5q-49 0 -75 26.5t-26 74.5v236q0 48 26 74.5t75 26.5h5v-50h-5q-44 0 -44 -48v-243q0 -47 44 -47z" />
    <glyph glyph-name="parenright.inferior" unicode="&#x208e;" horiz-adv-x="181" 
d="M29 -153h5q44 0 44 47v243q0 48 -44 48h-5v50h5q49 0 75 -26.5t26 -74.5v-236q0 -48 -26 -74.5t-75 -26.5h-5v50z" />
    <glyph glyph-name="franc" unicode="&#x20a3;" horiz-adv-x="527" 
d="M116 425v232h375v-69h-298v-163h181v-59h-181v-77h181v-59h-181v-230h-77v230h-63v59h63v77h-63v59h63z" />
    <glyph glyph-name="lira" unicode="&#x20a4;" horiz-adv-x="562" 
d="M195 195v-130h312v-65h-450v65h63v130h-63v53h63v78h-63v53h63v82q0 94 54.5 150t142.5 56q84 0 136 -53t52 -142v-17h-73v20q0 55 -30 90t-85 35q-58 0 -90 -38t-32 -99v-84h172v-53h-172v-78h172v-53h-172z" />
    <glyph glyph-name="peseta" unicode="&#x20a7;" horiz-adv-x="1200" 
d="M84 0v657h200q98 0 160.5 -57.5t62.5 -151.5q0 -96 -62.5 -154.5t-160.5 -58.5h-124v-235h-76zM280 590h-120v-288h120q68 0 108.5 39.5t40.5 105.5q0 65 -40.5 104t-108.5 39zM538 424v62h94v133h73v-133h95v-62h-95v-424h-73v424h-94zM791 151h68v-17q0 -38 30.5 -61.5
t83.5 -23.5q50 0 77 22.5t27 59.5q0 30 -15 46.5t-50 27.5l-94 29q-113 34 -113 128q0 57 46.5 97t118.5 40q78 0 126 -38t48 -105v-8h-69v12q0 35 -28 58t-77 23q-38 0 -67 -19t-29 -54q0 -48 59 -65l83 -26q64 -20 98 -50t34 -88q0 -66 -47.5 -107.5t-126.5 -41.5
q-81 0 -132 40t-51 108v13z" />
    <glyph glyph-name="Euro" unicode="&#x20ac;" horiz-adv-x="581" 
d="M46 372v53h69v30q0 98 57 155t153 57q89 0 143.5 -53.5t54.5 -144.5v-15h-71v18q0 57 -34 93t-94 36q-63 0 -99.5 -39.5t-36.5 -101.5v-35h141v-53h-141v-78h141v-53h-141v-44q0 -62 36.5 -101.5t99.5 -39.5q60 0 94 36t34 93v23h71v-20q0 -91 -55 -144.5t-144 -53.5
q-94 0 -151.5 58t-57.5 155v38h-69v53h69v78h-69z" />
    <glyph glyph-name="uni2113" unicode="&#x2113;" horiz-adv-x="453" 
d="M59 177l-38 59l98 68v203q0 75 41.5 118.5t111.5 43.5q69 0 109.5 -40.5t40.5 -101.5q0 -92 -101 -163l-129 -92v-100q0 -51 27 -80t79 -29h114v-63h-118q-82 0 -128.5 45.5t-46.5 131.5v43zM192 510v-156l90 63q71 47 71 108q0 36 -21 58.5t-59 22.5t-59.5 -27
t-21.5 -69z" />
    <glyph glyph-name="trademark" unicode="&#x2122;" horiz-adv-x="778" 
d="M549 379h-36l-93 162v-252h-58v368h56l114 -201l114 201h56v-368h-59v254zM60 605v52h264v-52h-101v-316h-62v316h-101z" />
    <glyph glyph-name="Omega" unicode="&#x2126;" horiz-adv-x="592" 
d="M362 0v77q36 14 55 46.5t19 76.5v259q0 62 -37.5 100.5t-102.5 38.5t-102 -38.5t-37 -100.5v-259q0 -94 74 -123v-77h-180v58h104q-75 48 -75 158v241q0 96 58.5 153t157.5 57t157.5 -56.5t58.5 -153.5v-241q0 -110 -76 -158h106v-58h-180z" />
    <glyph glyph-name="estimated" unicode="&#x212e;" horiz-adv-x="768" 
d="M603 140h67q-47 -70 -122 -110.5t-163 -40.5q-141 0 -240 98.5t-99 239.5t99.5 240.5t240.5 99.5t240.5 -99.5t99.5 -240.5v-8h-555v-181q85 -98 214 -98q134 0 218 100zM386 616q-130 0 -215 -100v-147h430v146q-85 101 -215 101z" />
    <glyph glyph-name="uni2153" unicode="&#x2153;" horiz-adv-x="634" 
d="M291 329l192 328h66l-198 -329l-192 -328h-66zM53 607v50h114v-279h59v-49h-173v49h57v229h-57zM449 147v44h23q50 0 50 46q0 45 -46 45q-22 0 -35 -12.5t-13 -32.5v-7h-55v8q0 42 29 68.5t75 26.5q47 0 74.5 -24.5t27.5 -64.5q0 -54 -38 -73q44 -23 44 -80
q0 -44 -29.5 -70t-78.5 -26q-48 0 -77 26t-29 69v8h55v-8q0 -21 13 -33.5t37 -12.5q51 0 51 53q0 50 -55 50h-23z" />
    <glyph glyph-name="uni2154" unicode="&#x2154;" horiz-adv-x="665" 
d="M322 329l192 328h66l-198 -329l-192 -328h-66zM480 147v44h23q50 0 50 46q0 45 -46 45q-22 0 -35 -12.5t-13 -32.5v-7h-55v8q0 42 29 68.5t75 26.5q47 0 74.5 -24.5t27.5 -64.5q0 -54 -38 -73q44 -23 44 -80q0 -44 -29.5 -70t-78.5 -26q-48 0 -77 26t-29 69v8h55v-8
q0 -21 13 -33.5t37 -12.5q51 0 51 53q0 50 -55 50h-23zM51 329v27q0 74 58 114l57 37q39 27 39 62q0 42 -47 42q-24 0 -36.5 -12t-12.5 -33v-9h-56v9q0 43 29.5 69.5t76.5 26.5q48 0 76 -24.5t28 -66.5q0 -61 -59 -101l-57 -38q-28 -18 -33 -51h149v-52h-212z" />
    <glyph glyph-name="uni2155" unicode="&#x2155;" horiz-adv-x="648" 
d="M291 329l192 328h66l-198 -329l-192 -328h-66zM53 607v50h114v-279h59v-49h-173v49h57v229h-57zM583 328v-49h-137v-90q22 17 56 17q44 0 70.5 -27.5t26.5 -75.5q0 -50 -29.5 -79t-77.5 -29t-77.5 23.5t-29.5 63.5v8h54v-7q0 -18 13 -29t37 -11q51 0 51 58t-49 58
q-27 0 -48 -19h-49v188h189z" />
    <glyph glyph-name="uni2156" unicode="&#x2156;" horiz-adv-x="677" 
d="M320 329l192 328h65l-197 -329l-193 -328h-66zM612 328v-49h-137v-90q20 17 56 17q44 0 70.5 -27.5t26.5 -75.5q0 -50 -29.5 -79t-78.5 -29q-48 0 -77.5 23.5t-29.5 63.5v8h55v-7q0 -18 13 -29t37 -11q51 0 51 58t-49 58q-27 0 -48 -19h-49v188h189zM51 329v27
q0 74 59 114l57 37q38 26 38 62q0 42 -47 42q-24 0 -36.5 -12t-12.5 -33v-9h-55v9q0 43 29.5 69.5t76.5 26.5q48 0 76 -24.5t28 -66.5q0 -61 -59 -101l-58 -38q-28 -18 -33 -51h150v-52h-213z" />
    <glyph glyph-name="uni2157" unicode="&#x2157;" horiz-adv-x="648" 
d="M291 329l192 328h65l-197 -329l-193 -328h-66zM583 328v-49h-137v-90q20 17 56 17q44 0 70.5 -27.5t26.5 -75.5q0 -50 -29.5 -79t-78.5 -29q-48 0 -77.5 23.5t-29.5 63.5v8h55v-7q0 -18 13 -29t37 -11q51 0 51 58t-49 58q-27 0 -48 -19h-49v188h189zM128 479v44h24
q50 0 50 46q0 45 -47 45q-22 0 -35 -12.5t-13 -32.5v-7h-54v8q0 42 28.5 68.5t75.5 26.5q46 0 74 -25t28 -64q0 -54 -39 -73q45 -23 45 -81q0 -43 -29.5 -69t-79.5 -26q-48 0 -76.5 26t-28.5 69v8h54v-8q0 -21 13.5 -33.5t36.5 -12.5q51 0 51 52q0 51 -54 51h-24z" />
    <glyph glyph-name="uni2158" unicode="&#x2158;" horiz-adv-x="669" 
d="M312 329l192 328h65l-197 -329l-193 -328h-66zM604 328v-49h-137v-90q20 17 56 17q44 0 70 -27.5t26 -75.5q0 -50 -29.5 -79t-77.5 -29t-77.5 23.5t-29.5 63.5v8h55v-7q0 -18 13 -29t37 -11q51 0 51 58t-49 58q-27 0 -48 -19h-49v188h189zM177 657h68v-208h36v-49h-36
v-71h-57v71h-150v55zM90 449h98v142z" />
    <glyph glyph-name="uni2159" unicode="&#x2159;" horiz-adv-x="643" 
d="M291 329l192 328h66l-198 -329l-192 -328h-66zM53 607v50h114v-279h59v-49h-173v49h57v229h-57zM593 97q0 -48 -29.5 -75t-78.5 -27t-78 28t-29 78v126q0 49 28.5 77.5t79.5 28.5q46 0 74.5 -25t28.5 -67v-5h-56v5q0 19 -12.5 31t-34.5 12q-24 0 -37.5 -14t-13.5 -38v-54
q27 20 61 20q44 0 70.5 -27.5t26.5 -73.5zM485 151q-30 0 -50 -22v-28q0 -28 13.5 -43t36.5 -15q49 0 49 52q0 56 -49 56z" />
    <glyph glyph-name="uni215A" unicode="&#x215a;" horiz-adv-x="645" 
d="M293 329l192 328h66l-198 -329l-192 -328h-66zM595 97q0 -48 -29.5 -75t-78.5 -27q-48 0 -77 28t-29 78v126q0 49 28.5 77.5t78.5 28.5q46 0 74.5 -25t28.5 -67v-5h-56v5q0 19 -12.5 31t-33.5 12q-24 0 -37.5 -14t-13.5 -38v-54q25 20 60 20q44 0 70.5 -27.5t26.5 -73.5z
M488 151q-32 0 -50 -22v-28q0 -58 49 -58t49 52q0 56 -48 56zM249 657v-49h-137v-90q20 17 56 17q44 0 70 -27.5t26 -75.5q0 -50 -29.5 -79t-77.5 -29t-77.5 23.5t-29.5 63.5v8h55v-7q0 -40 50 -40q51 0 51 58t-50 58q-27 0 -48 -19h-48v188h189z" />
    <glyph glyph-name="uni215B" unicode="&#x215b;" horiz-adv-x="637" 
d="M291 329l192 328h66l-198 -329l-192 -328h-66zM53 607v50h114v-279h59v-49h-173v49h57v229h-57zM582 243q0 -52 -40 -73q46 -20 46 -79q0 -43 -29.5 -69.5t-78.5 -26.5q-48 0 -77.5 26.5t-29.5 69.5q0 59 44 79q-39 20 -39 73q0 40 28 65t74 25t74 -25t28 -65zM431 94
q0 -24 12.5 -38.5t36.5 -14.5t37 14.5t13 38.5q0 53 -50 53q-49 0 -49 -53zM434 238q0 -49 46 -49q45 0 45 49q0 47 -45 47q-46 0 -46 -47z" />
    <glyph glyph-name="uni215C" unicode="&#x215c;" horiz-adv-x="638" 
d="M292 329l192 328h66l-198 -329l-192 -328h-66zM583 243q0 -53 -40 -73q46 -20 46 -79q0 -43 -29.5 -69.5t-77.5 -26.5q-49 0 -78.5 26.5t-29.5 69.5q0 59 45 79q-40 20 -40 73q0 40 28 65t75 25q45 0 73 -25t28 -65zM432 94q0 -53 50 -53q23 0 36 14.5t13 38.5
q0 53 -50 53q-49 0 -49 -53zM436 238q0 -49 46 -49q44 0 44 49q0 47 -45 47t-45 -47zM128 479v44h24q50 0 50 46q0 45 -47 45q-22 0 -35 -12.5t-13 -32.5v-7h-54v8q0 42 28.5 68.5t75.5 26.5q46 0 74 -25t28 -64q0 -54 -39 -73q45 -23 45 -81q0 -43 -29.5 -69t-79.5 -26
q-48 0 -76.5 26t-28.5 69v8h54v-8q0 -21 13.5 -33.5t36.5 -12.5q51 0 51 52q0 51 -54 51h-24z" />
    <glyph glyph-name="uni215D" unicode="&#x215d;" horiz-adv-x="639" 
d="M293 329l192 328h66l-198 -329l-192 -328h-66zM584 243q0 -52 -40 -73q46 -20 46 -79q0 -43 -29.5 -69.5t-78.5 -26.5q-48 0 -77.5 26.5t-29.5 69.5q0 59 44 79q-39 20 -39 73q0 40 28 65t74 25t74 -25t28 -65zM433 94q0 -24 12.5 -38.5t36.5 -14.5t37 14.5t13 38.5
q0 53 -50 53q-49 0 -49 -53zM436 238q0 -49 46 -49q45 0 45 49q0 47 -45 47q-46 0 -46 -47zM249 657v-49h-137v-90q20 17 56 17q44 0 70 -27.5t26 -75.5q0 -50 -29.5 -79t-77.5 -29t-77.5 23.5t-29.5 63.5v8h55v-7q0 -40 50 -40q51 0 51 58t-50 58q-27 0 -48 -19h-48v188
h189z" />
    <glyph glyph-name="uni215E" unicode="&#x215e;" horiz-adv-x="617" 
d="M264 329l192 328h66l-198 -329l-193 -328h-65zM562 243q0 -53 -40 -73q46 -20 46 -79q0 -43 -29.5 -69.5t-77.5 -26.5q-49 0 -78.5 26.5t-29.5 69.5q0 59 45 79q-40 20 -40 73q0 40 28 65t75 25q45 0 73 -25t28 -65zM411 94q0 -24 13 -38.5t37 -14.5q23 0 36 14.5
t13 38.5q0 53 -50 53q-49 0 -49 -53zM415 238q0 -49 46 -49q44 0 44 49q0 47 -45 47t-45 -47zM47 608v49h206v-42l-114 -286h-61l112 279h-143z" />
    <glyph glyph-name="uni215F" unicode="&#x215f;" horiz-adv-x="464" 
d="M380 329l192 328h66l-198 -329l-193 -328h-65zM142 607v50h114v-279h58v-49h-172v49h57v229h-57z" />
    <glyph glyph-name="partialdiff" unicode="&#x2202;" horiz-adv-x="489" 
d="M426 332v-152q0 -87 -51.5 -138.5t-135.5 -51.5t-135 51.5t-51 138.5v90q0 88 48 139t129 51q85 0 124 -66q-17 233 -165 233q-22 0 -43 -4.5t-32 -8.5l-10 -4l-18 55q53 22 110 22q230 0 230 -355zM126 276v-102q0 -53 30 -87t83 -34t83 34t30 87v102q0 53 -30 87
t-83 34t-83 -34t-30 -87z" />
    <glyph glyph-name="Delta" unicode="&#x2206;" horiz-adv-x="522" 
d="M493 0h-464l193 657h78zM259 538l-134 -470h267z" />
    <glyph glyph-name="product" unicode="&#x220f;" horiz-adv-x="588" 
d="M505 657v-657h-77v588h-269v-588h-76v657h422z" />
    <glyph glyph-name="summation" unicode="&#x2211;" horiz-adv-x="547" 
d="M477 588h-320l212 -253l-229 -264h362v-71h-458v64l233 271l-223 258v64h423v-69z" />
    <glyph glyph-name="minus" unicode="&#x2212;" horiz-adv-x="523" 
d="M71 296v66h381v-66h-381z" />
    <glyph glyph-name="uni2215" unicode="&#x2215;" horiz-adv-x="481" 
d="M211 329l192 328h66l-198 -329l-192 -328h-66z" />
    <glyph glyph-name="uni2219" unicode="&#x2219;" horiz-adv-x="299" 
d="M58 274q0 38 27 65.5t64 27.5q38 0 65 -27.5t27 -65.5q0 -37 -27 -64t-65 -27q-37 0 -64 27t-27 64z" />
    <glyph glyph-name="radical" unicode="&#x221a;" horiz-adv-x="578" 
d="M32 392v62h143l123 -428l190 661h70l-227 -779h-72l-145 484h-82z" />
    <glyph glyph-name="infinity" unicode="&#x221e;" horiz-adv-x="757" 
d="M558 412h1q62 0 102.5 -41t40.5 -105q0 -59 -42.5 -102.5t-104.5 -43.5q-43 0 -82 23.5t-95 76.5q-101 -99 -179 -99h-1q-61 0 -102 41t-41 105q0 59 43 102.5t104 43.5q43 0 80.5 -23.5t95.5 -77.5q102 100 180 100zM198 187h1q57 0 133 78q-40 41 -69 61.5t-61 20.5
q-34 0 -57.5 -23.5t-23.5 -56.5q0 -35 22 -57.5t55 -22.5zM559 346h-1q-53 0 -133 -78q40 -41 69.5 -61.5t60.5 -20.5q35 0 58 23.5t23 56.5q0 35 -21.5 57.5t-55.5 22.5z" />
    <glyph glyph-name="integral" unicode="&#x222b;" horiz-adv-x="390" 
d="M159 30v545q0 81 42 124t121 43h43v-63h-39q-94 0 -94 -99v-545q0 -81 -42 -124t-121 -43h-43v63h39q94 0 94 99z" />
    <glyph glyph-name="approxequal" unicode="&#x2248;" horiz-adv-x="534" 
d="M426 459l47 -29q-47 -94 -113 -94q-38 0 -91 37q-47 30 -70 30q-27 0 -48 -20.5t-43 -60.5l-46 29q51 113 138 113q9 0 17 -1t16.5 -4t14 -4.5t14.5 -6.5t12 -7t13 -8t12 -7q43 -29 61 -29q32 0 66 62zM426 269l47 -28q-47 -94 -113 -94q-37 0 -91 36q-45 31 -70 31
q-27 0 -48 -21t-43 -61l-46 30q51 112 138 112q9 0 17 -1t16.5 -4t14 -4.5t14.5 -6.5t12 -7t13 -8t12 -7q43 -29 61 -29q32 0 66 62z" />
    <glyph glyph-name="notequal" unicode="&#x2260;" horiz-adv-x="516" 
d="M69 387v63h219l57 112h59l-57 -112h100v-63h-131l-58 -115h189v-63h-219l-57 -112h-58l56 112h-100v63h131l58 115h-189z" />
    <glyph glyph-name="lessequal" unicode="&#x2264;" horiz-adv-x="520" 
d="M70 110v54h379v-54h-379zM70 338v58l379 124v-66l-288 -85l288 -88v-67z" />
    <glyph glyph-name="greaterequal" unicode="&#x2265;" horiz-adv-x="520" 
d="M450 164v-54h-379v54h379zM450 396v-58l-379 -124v67l288 88l-288 85v66z" />
    <glyph glyph-name="lozenge" unicode="&#x25ca;" horiz-adv-x="495" 
d="M279 670l186 -342l-186 -341h-63l-186 341l186 342h63zM247 582l-135 -254l135 -254l134 254z" />
    <glyph glyph-name="cent.denominator" unicode="&#xf629;" horiz-adv-x="263" 
d="M114 333h42v-44q34 -6 54 -29t20 -59v-2h-54v6q0 18 -11 29t-30 11q-41 0 -41 -47v-67q0 -22 10.5 -35t30.5 -13q41 0 41 43v7h54v-3q0 -37 -20 -61.5t-54 -29.5v-44h-42v44q-36 6 -56 31.5t-20 64.5v59q0 39 20 64t56 31v44z" />
    <glyph glyph-name="dollar.denominator" unicode="&#xf62a;" horiz-adv-x="272" 
d="M236 231h-55v10q0 20 -12.5 32.5t-33.5 12.5t-33 -11t-12 -28q0 -27 28 -40l46 -18q17 -7 28.5 -13.5t24.5 -17.5t19.5 -27.5t6.5 -37.5q0 -39 -24 -65.5t-64 -31.5v-50h-42v51q-39 5 -61.5 30t-22.5 63v10h56v-12q0 -21 13.5 -33.5t36.5 -12.5q25 0 38.5 13t13.5 33
q0 31 -40 48l-46 20q-66 27 -66 86q0 34 21 58.5t57 30.5v51h42v-51q37 -6 59 -30.5t22 -62.5v-7z" />
    <glyph glyph-name="hyphen.denominator" unicode="&#xf62b;" horiz-adv-x="215" 
d="M48 105v49h119v-49h-119z" />
    <glyph glyph-name="parenleft.denominator" unicode="&#xf62c;" horiz-adv-x="181" 
d="M147 -5h5v-51h-5q-49 0 -75 27t-26 74v236q0 48 26 74.5t75 26.5h5v-50h-5q-44 0 -44 -48v-242q0 -47 44 -47z" />
    <glyph glyph-name="parenright.denominator" unicode="&#xf62d;" horiz-adv-x="181" 
d="M29 -5h5q44 0 44 47v242q0 48 -44 48h-5v50h5q49 0 75 -26.5t26 -74.5v-236q0 -47 -26 -74t-75 -27h-5v51z" />
    <glyph glyph-name="cent.numerator" unicode="&#xf62e;" horiz-adv-x="263" 
d="M114 663h42v-44q34 -6 54 -29t20 -59v-2h-54v6q0 18 -11 29t-30 11q-20 0 -30.5 -13t-10.5 -34v-67q0 -22 10.5 -35t30.5 -13q41 0 41 42v8h54v-4q0 -37 -20 -61t-54 -30v-43h-42v43q-35 6 -55.5 31.5t-20.5 64.5v60q0 39 20 64t56 31v44z" />
    <glyph glyph-name="dollar.numerator" unicode="&#xf62f;" horiz-adv-x="272" 
d="M236 561h-55v10q0 20 -12.5 32.5t-33.5 12.5t-33 -11t-12 -28q0 -28 28 -40l46 -19q23 -9 38 -17.5t28 -29t13 -48.5q0 -39 -24 -65.5t-64 -31.5v-50h-42v51q-39 5 -61.5 30t-22.5 63v10h56v-13q0 -21 13.5 -33.5t36.5 -12.5q25 0 38.5 13t13.5 34q0 31 -40 48l-46 20
q-66 27 -66 86q0 34 21 58.5t57 30.5v51h42v-51q37 -6 59 -30.5t22 -62.5v-7z" />
    <glyph glyph-name="hyphen.numerator" unicode="&#xf630;" horiz-adv-x="215" 
d="M48 435v49h119v-49h-119z" />
    <glyph glyph-name="parenleft.numerator" unicode="&#xf631;" horiz-adv-x="180" 
d="M147 324h5v-50h-5q-49 0 -75 26.5t-26 74.5v236q0 48 26 74.5t75 26.5h5v-50h-5q-44 0 -44 -48v-242q0 -48 44 -48z" />
    <glyph glyph-name="parenright.numerator" unicode="&#xf632;" horiz-adv-x="180" 
d="M28 324h5q45 0 45 48v242q0 48 -45 48h-5v50h5q49 0 75.5 -26.5t26.5 -74.5v-236q0 -48 -26.5 -74.5t-75.5 -26.5h-5v50z" />
    <glyph glyph-name="zero.denominator" unicode="&#xf655;" horiz-adv-x="303" 
d="M101 229v-130q0 -24 13 -38.5t37 -14.5t37.5 14.5t13.5 38.5v130q0 24 -13.5 38.5t-37.5 14.5t-37 -14.5t-13 -38.5zM259 228v-128q0 -48 -29.5 -76.5t-78.5 -28.5q-48 0 -77.5 28.5t-29.5 76.5v128q0 49 28 77t79 28q49 0 78.5 -28.5t29.5 -76.5z" />
    <glyph glyph-name="one.denominator" unicode="&#xf656;" horiz-adv-x="228" 
d="M35 278v50h114v-279h58v-49h-172v49h57v229h-57z" />
    <glyph glyph-name="two.denominator" unicode="&#xf657;" horiz-adv-x="286" 
d="M36 0v27q0 74 59 114l57 37q38 26 38 62q0 42 -47 42q-23 0 -36 -12t-13 -33v-9h-55v9q0 43 29.5 69.5t76.5 26.5q48 0 76 -24.5t28 -66.5q0 -61 -59 -101l-58 -38q-28 -18 -33 -51h150v-52h-213z" />
    <glyph glyph-name="three.denominator" unicode="&#xf658;" horiz-adv-x="286" 
d="M112 147v44h24q50 0 50 46q0 45 -47 45q-22 0 -35 -12.5t-13 -32.5v-7h-54v8q0 42 28.5 68.5t75.5 26.5q46 0 74 -24.5t28 -64.5q0 -54 -39 -73q45 -23 45 -80q0 -44 -29.5 -70t-79.5 -26q-48 0 -76.5 26t-28.5 69v8h54v-8q0 -21 13.5 -33.5t36.5 -12.5q51 0 51 53
q0 23 -13.5 36.5t-40.5 13.5h-24z" />
    <glyph glyph-name="four.denominator" unicode="&#xf659;" horiz-adv-x="295" 
d="M161 328h69v-208h35v-49h-35v-71h-57v71h-150v55zM75 120h98v142z" />
    <glyph glyph-name="five.denominator" unicode="&#xf65a;" horiz-adv-x="285" 
d="M236 328v-49h-137v-90q22 17 56 17q44 0 70.5 -27.5t26.5 -75.5q0 -50 -29.5 -79t-77.5 -29t-77.5 23.5t-29.5 63.5v8h54v-7q0 -18 13 -29t37 -11q51 0 51 58t-49 58q-27 0 -48 -19h-49v188h189z" />
    <glyph glyph-name="six.denominator" unicode="&#xf65b;" horiz-adv-x="294" 
d="M258 97q0 -48 -29.5 -75t-78.5 -27t-77.5 28t-28.5 78v126q0 49 28.5 77.5t78.5 28.5q46 0 74.5 -25t28.5 -67v-5h-56v5q0 19 -12.5 31t-33.5 12q-24 0 -37.5 -14t-13.5 -38v-54q25 20 60 20q44 0 70.5 -27.5t26.5 -73.5zM150 151q-31 0 -49 -22v-28q0 -58 49 -58t49 52
q0 56 -49 56z" />
    <glyph glyph-name="seven.denominator" unicode="&#xf65c;" horiz-adv-x="243" 
d="M22 279v49h200v-42l-111 -286h-61l110 279h-138z" />
    <glyph glyph-name="eight.denominator" unicode="&#xf65d;" horiz-adv-x="291" 
d="M247 243q0 -53 -39 -73q45 -20 45 -79q0 -43 -29.5 -69.5t-77.5 -26.5q-49 0 -78.5 26.5t-29.5 69.5q0 59 45 79q-40 20 -40 73q0 40 28 65t75 25q45 0 73 -25t28 -65zM96 94q0 -24 13 -38.5t37 -14.5t36.5 14.5t12.5 38.5q0 53 -50 53q-49 0 -49 -53zM100 238
q0 -49 46 -49q44 0 44 49q0 47 -45 47t-45 -47z" />
    <glyph glyph-name="nine.denominator" unicode="&#xf65e;" horiz-adv-x="293" 
d="M36 231q0 48 29.5 75t78.5 27q48 0 77 -29.5t29 -83.5v-119q0 -49 -28.5 -77.5t-78.5 -28.5q-47 0 -75 25t-28 67v5h55v-5q0 -19 12.5 -31t33.5 -12q52 0 52 52v55q-25 -21 -61 -21q-44 0 -70 27.5t-26 73.5zM143 177q31 0 50 23v20q0 31 -13 48t-36 17q-50 0 -50 -52
q0 -56 49 -56z" />
    <glyph glyph-name="comma.denominator" unicode="&#xf65f;" horiz-adv-x="137" 
d="M46 55h58l-45 -102h-34z" />
    <glyph glyph-name="period.denominator" unicode="&#xf660;" horiz-adv-x="132" 
d="M33 27q0 14 9.5 23.5t23.5 9.5t23.5 -9.5t9.5 -23.5t-9.5 -23.5t-23.5 -9.5t-23.5 9.5t-9.5 23.5z" />
    <glyph glyph-name="zero.numerator" unicode="&#xf661;" horiz-adv-x="301" 
d="M101 558v-129q0 -24 13 -39t37 -15t37 15t13 39v129q0 24 -13 39t-37 15t-37 -15t-13 -39zM258 558v-129q0 -48 -29.5 -76t-77.5 -28t-77.5 28t-29.5 76v129q0 49 28 77t79 28q48 0 77.5 -28.5t29.5 -76.5z" />
    <glyph glyph-name="one.numerator" unicode="&#xf662;" horiz-adv-x="226" 
d="M34 607v50h114v-279h58v-49h-172v49h57v229h-57z" />
    <glyph glyph-name="two.numerator" unicode="&#xf663;" horiz-adv-x="285" 
d="M35 330v26q0 75 59 114l57 38q38 24 38 62q0 42 -47 42q-23 0 -36 -12t-13 -33v-10h-55v10q0 42 29.5 69t76.5 27q48 0 76 -24.5t28 -66.5q0 -61 -59 -101l-58 -39q-28 -19 -33 -51h150v-51h-213z" />
    <glyph glyph-name="three.numerator" unicode="&#xf664;" horiz-adv-x="286" 
d="M112 477v44h23q50 0 50 46q0 45 -46 45q-22 0 -35 -12.5t-13 -32.5v-7h-55v8q0 42 29 68.5t76 26.5q46 0 73.5 -25t27.5 -64q0 -53 -38 -74q44 -21 44 -80q0 -43 -29.5 -69t-78.5 -26q-48 0 -77 26t-29 69v8h55v-8q0 -21 13 -33.5t37 -12.5q51 0 51 52q0 51 -55 51h-23z
" />
    <glyph glyph-name="four.numerator" unicode="&#xf665;" horiz-adv-x="295" 
d="M161 658h69v-209h35v-48h-35v-71h-57v71h-150v54zM75 449h98v142z" />
    <glyph glyph-name="five.numerator" unicode="&#xf666;" horiz-adv-x="283" 
d="M235 658v-49h-137v-90q25 17 56 17q44 0 70.5 -27.5t26.5 -75.5q0 -50 -29 -79t-78 -29q-48 0 -77.5 23.5t-29.5 63.5v8h54v-8q0 -18 13.5 -29t36.5 -11q51 0 51 59q0 58 -49 58q-27 0 -48 -19h-49v188h189z" />
    <glyph glyph-name="six.numerator" unicode="&#xf667;" horiz-adv-x="294" 
d="M258 427q0 -48 -29.5 -75t-78.5 -27t-77.5 28t-28.5 78v126q0 49 28.5 77.5t78.5 28.5q46 0 74.5 -25t28.5 -67v-5h-56v5q0 19 -12.5 31t-33.5 12q-24 0 -37.5 -14t-13.5 -38v-54q25 20 60 20q44 0 70.5 -27.5t26.5 -73.5zM150 481q-29 0 -49 -22v-28q0 -59 49 -59
q24 0 36.5 14.5t12.5 38.5q0 56 -49 56z" />
    <glyph glyph-name="seven.numerator" unicode="&#xf668;" horiz-adv-x="242" 
d="M21 609v49h201v-43l-111 -285h-61l109 279h-138z" />
    <glyph glyph-name="eight.numerator" unicode="&#xf669;" horiz-adv-x="291" 
d="M247 572q0 -52 -40 -72q46 -20 46 -79q0 -43 -29.5 -69.5t-78.5 -26.5t-78 26t-29 70q0 57 45 79q-40 18 -40 72q0 41 28 66t74 25t74 -25t28 -66zM96 424q0 -24 12.5 -38.5t36.5 -14.5t37 14.5t13 38.5q0 53 -50 53q-49 0 -49 -53zM100 568q0 -49 45 -49t45 49
q0 47 -45 47t-45 -47z" />
    <glyph glyph-name="nine.numerator" unicode="&#xf66a;" horiz-adv-x="292" 
d="M35 561q0 48 29.5 75t78.5 27q48 0 77 -29.5t29 -83.5v-119q0 -50 -28.5 -78t-78.5 -28q-47 0 -75 24.5t-28 66.5v6h55v-6q0 -18 12.5 -30t33.5 -12q52 0 52 52v54q-23 -20 -61 -20q-44 0 -70 27.5t-26 73.5zM142 507q30 0 50 22v21q0 31 -13 48t-36 17q-50 0 -50 -52
q0 -56 49 -56z" />
    <glyph glyph-name="comma.numerator" unicode="&#xf66b;" horiz-adv-x="135" 
d="M45 385h58l-45 -102h-35z" />
    <glyph glyph-name="period.numerator" unicode="&#xf66c;" horiz-adv-x="134" 
d="M34 357q0 14 9.5 23.5t23.5 9.5t23.5 -9.5t9.5 -23.5t-9.5 -24t-23.5 -10t-23.5 10t-9.5 24z" />
    <glyph glyph-name="commaaccent" unicode="&#xf6c3;" horiz-adv-x="180" 
d="M57 -44h85l-69 -166h-53z" />
    <glyph glyph-name="uniF8FF" unicode="&#xf8ff;" horiz-adv-x="1420" 
d="M340 488h38q11 0 11 -11v-6q28 21 58 21q34 0 51 -26q29 26 64 26q26 0 41.5 -15t15.5 -39v-132q0 -11 -12 -11h-38q-13 0 -13 11v116q0 9 -2.5 12.5t-11.5 3.5q-18 0 -38 -15v-117q0 -11 -11 -11h-38q-12 0 -12 11v116q0 9 -3 12.5t-12 3.5q-20 0 -37 -15v-117
q0 -11 -10 -11h-41q-11 0 -11 11v171q0 11 11 11zM1007 488h36q12 0 12 -11l1 -7q27 22 60 22q57 0 57 -60v-80q0 -62 -57 -62q-32 0 -58 21v-83q0 -11 -11 -11h-40q-11 0 -11 11v249q0 11 11 11zM296 431v-43q0 -11 -12 -11h-93v-23q0 -18 23 -18q25 0 25 18v1q0 11 11 11
h32q12 0 12 -11v-3q0 -62 -80 -62q-85 0 -85 62v79q0 61 85 61q82 0 82 -61zM1370 431v-43q0 -11 -11 -11h-94v-23q0 -18 23 -18q24 0 24 18v1q0 11 12 11h32q11 0 11 -11v-3q0 -62 -79 -62q-84 0 -84 62v79q0 61 84 61q82 0 82 -61zM850 477l22 -70q7 -27 7 -37q2 2 10 35
l24 72q3 11 12 11h37q14 0 11 -11l-84 -249q-4 -11 -14 -11h-28q-14 0 -11 11l16 59l-65 190q-4 11 11 11h40q9 0 12 -11zM731 487h31q11 0 11 -10v-27q0 -11 -11 -11h-31v-77q0 -18 24 -18h10q12 0 12 -11v-27q0 -11 -12 -11h-19q-43 0 -60.5 14t-17.5 46v84h-17
q-11 0 -11 11v25q0 8 11 11l16 1h1v36q0 12 12 12h39q12 0 12 -12v-36zM472 147v-49q0 -4 -4 -4h-114v-48q0 -33 50 -33q48 0 48 33v8q0 4 6 4h9q5 0 5 -4v-9q0 -48 -69 -48t-69 48v102q0 48 70 48q68 0 68 -48zM154 188v-17q33 24 67 24q27 0 40.5 -12.5t13.5 -33.5v-144
q0 -5 -4 -5h-11q-4 0 -4 5v140q0 31 -39 31t-62 -23v-148q0 -5 -4 -5h-11q-5 0 -5 5v183q0 4 5 4h9q5 0 5 -4zM556 191h47q4 0 4 -4v-8q0 -5 -4 -5h-47v-124q0 -33 50 -33h6q5 0 5 -5v-7q0 -5 -5 -5h-9q-37 0 -51.5 12t-14.5 36v126h-25q-4 0 -4 5v7q0 4 4 5h25v41q0 5 4 5
h11q4 0 4 -5v-41zM354 146v-36h98v36q0 32 -48 32q-50 0 -50 -32zM1112 361v62q0 15 -17 15q-13 0 -37 -15v-63q26 -16 37 -16q17 0 17 17zM191 428v-11h48v11q0 18 -25 18q-23 0 -23 -18zM1265 428v-11h47v11q0 18 -24 18q-23 0 -23 -18zM70 35v-30q0 -5 -5 -5h-11
q-4 0 -4 5v30q0 5 4 5h11q5 0 5 -5z" />
    <glyph glyph-name="f_f" unicode="&#xfb00;" horiz-adv-x="608" 
d="M182 424v-424h-74v424h-78v62h78v24q0 81 42 124t122 43h42v-63h-38q-94 0 -94 -99v-29h204v24q0 81 42 124t121 43h43v-63h-39q-94 0 -94 -99v-29h126v-62h-126v-424h-73v424h-204z" />
    <glyph glyph-name="f_f_i" unicode="&#xfb03;" horiz-adv-x="803" 
d="M30 424v62h78v24q0 81 42 124t122 43h42v-63h-38q-94 0 -94 -99v-29h204v24q0 81 42 124t122 43h182v-63h-179q-94 0 -94 -99v-29h273v-486h-74v424h-199v-424h-73v424h-204v-424h-74v424h-78z" />
    <glyph glyph-name="f_f_l" unicode="&#xfb04;" horiz-adv-x="808" 
d="M182 424v-424h-74v424h-78v62h78v24q0 81 42 124t122 43h42v-63h-38q-94 0 -94 -99v-29h204v24q0 81 42 124t122 43h182v-677h-74v614h-105q-94 0 -94 -99v-29h119v-62h-119v-424h-73v424h-204z" />
    <glyph glyph-name="longs_t" unicode="&#xfb05;" horiz-adv-x="527" 
d="M278 614h-39q-94 0 -94 -99v-515h-73v510q0 81 42 124t121 43h43v-63zM239 424v62h94v133h73v-133h95v-62h-95v-424h-73v424h-94z" />
    <glyph glyph-name="grave.case" horiz-adv-x="204" 
d="M150 694l-130 101l50 51l114 -119z" />
    <glyph glyph-name="dieresis.case" horiz-adv-x="241" 
d="M20 762q0 18 13 30.5t32 12.5q18 0 30 -12.5t12 -30.5q0 -19 -12 -32t-30 -13q-19 0 -32 13t-13 32zM134 762q0 18 13 30.5t31 12.5t30.5 -12.5t12.5 -30.5q0 -19 -12.5 -32t-30.5 -13t-31 13t-13 32z" />
    <glyph glyph-name="macron.case" horiz-adv-x="275" 
d="M20 732v55h235v-55h-235z" />
    <glyph glyph-name="acute.case" horiz-adv-x="204" 
d="M184 795l-130 -101l-34 33l114 119z" />
    <glyph glyph-name="circumflex.case" horiz-adv-x="286" 
d="M122 844h42l102 -123l-29 -26l-95 85l-93 -84l-29 25z" />
    <glyph glyph-name="caron.case" horiz-adv-x="286" 
d="M164 691h-42l-102 123l30 26l95 -85l93 84l28 -25z" />
    <glyph glyph-name="breve.case" horiz-adv-x="243" 
d="M174 812h49v-19q0 -42 -28 -70t-74 -28q-45 0 -73 28t-28 70v19h49v-19q0 -24 14 -39.5t38 -15.5q25 0 39 15.5t14 39.5v19z" />
    <glyph glyph-name="dotaccent.case" horiz-adv-x="137" 
d="M20 760q0 21 14 35t34 14q21 0 35 -14t14 -35q0 -20 -14 -34t-35 -14q-20 0 -34 14t-14 34z" />
    <glyph glyph-name="ring.case" horiz-adv-x="236" 
d="M118 724q22 0 36.5 16t14.5 39t-14.5 39t-36.5 16t-36.5 -16t-14.5 -39t14.5 -39t36.5 -16zM118 684q-42 0 -70 27.5t-28 67.5t28 68t70 28t70 -28t28 -68t-28 -67.5t-70 -27.5z" />
    <glyph glyph-name="tilde.case" horiz-adv-x="341" 
d="M279 802h40q2 -16 2 -24q0 -37 -18 -59.5t-53 -22.5q-27 0 -64 21l-40 22q-28 14 -40 14q-19 0 -29.5 -15t-12 -25t-1.5 -17h-40q-3 12 -3 23q0 36 23 60.5t60 24.5q27 0 58 -17l41 -22q30 -18 45 -18q32 0 32 55z" />
    <glyph glyph-name="hungarumlaut.case" horiz-adv-x="311" 
d="M174 799l-127 -105l-27 27l111 120zM291 800l-123 -110l-27 27l107 124z" />
    <glyph glyph-name="caron.salt" horiz-adv-x="152" 
d="M48 677h77l-52 -132h-48z" />
    <glyph glyph-name="commaaccent.salt" horiz-adv-x="191" 
d="M62 -41h85l-70 -167h-52z" />
    <glyph glyph-name="a.alt" horiz-adv-x="479" 
d="M355 0l-11 54q-46 -64 -135 -64q-76 0 -119 35.5t-43 101.5q0 69 45 104.5t126 35.5h120v71q0 43 -28.5 71t-78.5 28t-78.5 -26t-28.5 -65v-12h-70v7q0 73 49.5 115.5t130.5 42.5t129 -45t48 -122v-332h-56zM221 52q47 0 77.5 25.5t39.5 67.5v65h-115q-101 0 -101 -80
q0 -36 24.5 -57t74.5 -21z" />
    <glyph glyph-name="t.alt" horiz-adv-x="332" 
d="M29 424v62h78v133h73v-133h127v-62h-127v-267q0 -41 25 -67.5t70 -26.5h32v-63h-37q-75 0 -119 43t-44 119v262h-78z" />
    <glyph glyph-name="ampersand.alt" horiz-adv-x="611" 
d="M464 500v-17h-71v20q0 44 -24.5 72.5t-68.5 28.5t-68.5 -26t-24.5 -68q0 -55 47 -111l167 -209l83 170h71l-113 -221l112 -139h-84l-67 82q-71 -92 -183 -92q-90 0 -143 46t-53 130q0 65 42.5 112.5t119.5 70.5l-13 17q-59 73 -59 145q0 71 46 113.5t121 42.5
q74 0 118.5 -45t44.5 -122zM249 55q84 0 135 75l-142 175q-60 -14 -90.5 -49t-30.5 -81q0 -56 33 -88t95 -32z" />
    <glyph glyph-name="zero.tab" horiz-adv-x="535" 
d="M139 465v-273q0 -59 34 -96t95 -37q60 0 94 37t34 96v273q0 59 -34 96t-94 37q-61 0 -95 -37t-34 -96zM472 463v-269q0 -94 -56 -149t-148 -55t-148.5 55t-56.5 149v269q0 94 55.5 149t149.5 55q92 0 148 -55t56 -149z" />
    <glyph glyph-name="one.tab" horiz-adv-x="535" 
d="M94 589v68h222v-589h143v-68h-365v68h145v521h-145z" />
    <glyph glyph-name="two.tab" horiz-adv-x="535" 
d="M65 0v36q0 80 32 139.5t106 109.5l103 71q83 55 83 138q0 48 -31.5 76t-90.5 28q-58 0 -91 -31t-33 -80v-21h-74v19q0 82 55.5 132t144.5 50q91 0 145 -45.5t54 -126.5q0 -113 -111 -188l-123 -85q-82 -58 -87 -151h321v-71h-403z" />
    <glyph glyph-name="three.tab" horiz-adv-x="535" 
d="M208 311v62h52q121 0 121 115q0 50 -31.5 80t-88.5 30q-58 0 -90 -30t-32 -78v-18h-74v16q0 81 54.5 130t142.5 49q89 0 142.5 -47.5t53.5 -125.5q0 -110 -85 -151q97 -43 97 -166q0 -86 -56.5 -136.5t-149.5 -50.5q-91 0 -147 48.5t-56 129.5v15h74v-17q0 -48 34 -78.5
t94 -30.5q62 0 95 34t33 94q0 52 -32 89t-99 37h-52z" />
    <glyph glyph-name="four.tab" horiz-adv-x="535" 
d="M324 657h97v-435h73v-67h-73v-155h-75v155h-311v73zM109 222h237v349z" />
    <glyph glyph-name="five.tab" horiz-adv-x="535" 
d="M446 657v-68h-284v-221q48 34 119 34q89 0 141.5 -55.5t52.5 -146.5q0 -97 -56 -153.5t-149 -56.5q-91 0 -147 45.5t-56 123.5v15h73v-18q0 -44 34 -71.5t94 -27.5q63 0 95.5 38t32.5 105q0 59 -30.5 98t-93.5 39q-72 0 -119 -43h-63v363h356z" />
    <glyph glyph-name="six.tab" horiz-adv-x="535" 
d="M480 191q0 -94 -57 -147.5t-150 -53.5q-92 0 -147 58.5t-55 159.5v260q0 92 55.5 145.5t148.5 53.5q88 0 142.5 -48.5t54.5 -130.5v-12h-74v15q0 48 -33 78.5t-90 30.5q-61 0 -94.5 -34.5t-33.5 -90.5v-138q56 54 140 54q89 0 141 -55.5t52 -144.5zM277 325
q-81 0 -130 -62v-57q0 -68 34 -109t94 -41t93 36t33 95t-30.5 98.5t-93.5 39.5z" />
    <glyph glyph-name="seven.tab" horiz-adv-x="535" 
d="M60 589v68h419v-55l-252 -602h-81l248 589h-334z" />
    <glyph glyph-name="eight.tab" horiz-adv-x="535" 
d="M463 489q0 -107 -87 -148q46 -20 72.5 -62t26.5 -100q0 -85 -57.5 -137t-149.5 -52q-93 0 -150.5 52t-57.5 137q0 58 26.5 100t72.5 62q-41 19 -64.5 58t-23.5 90q0 80 54.5 129t142.5 49q87 0 141 -49t54 -129zM139 182q0 -57 34 -92.5t95 -35.5q60 0 94.5 35.5
t34.5 92.5t-32.5 92t-97.5 35q-64 0 -96 -35t-32 -92zM148 486q0 -53 29.5 -85t90.5 -32q60 0 89.5 32t29.5 85q0 52 -31.5 83.5t-88.5 31.5q-56 0 -87.5 -31.5t-31.5 -83.5z" />
    <glyph glyph-name="nine.tab" horiz-adv-x="535" 
d="M56 466q0 93 57 147t150 54q91 0 146 -59.5t55 -163.5v-255q0 -92 -55.5 -145.5t-148.5 -53.5q-88 0 -142 48.5t-54 130.5v12h73v-15q0 -48 33 -78.5t90 -30.5q61 0 94.5 34.5t33.5 91.5v136q-57 -53 -140 -53q-89 0 -140.5 55.5t-51.5 144.5zM258 332q81 0 130 62v52
q0 68 -34 111.5t-93 43.5q-61 0 -94 -36t-33 -95t30.5 -98.5t93.5 -39.5z" />
    <glyph glyph-name="agrave.alt" horiz-adv-x="479" 
d="M355 0l-11 54q-46 -64 -135 -64q-76 0 -119 35.5t-43 101.5q0 69 45 104.5t126 35.5h120v71q0 43 -28.5 71t-78.5 28t-78.5 -26t-28.5 -65v-12h-70v7q0 73 49.5 115.5t130.5 42.5t129 -45t48 -122v-332h-56zM221 52q47 0 77.5 25.5t39.5 67.5v65h-115q-101 0 -101 -80
q0 -36 24.5 -57t74.5 -21zM238 547l-130 102l50 50l114 -119z" />
    <glyph glyph-name="aacute.alt" horiz-adv-x="479" 
d="M360 649l-130 -102l-34 33l114 119zM355 0l-11 54q-46 -64 -135 -64q-76 0 -119 35.5t-43 101.5q0 69 45 104.5t126 35.5h120v71q0 43 -28.5 71t-78.5 28t-78.5 -26t-28.5 -65v-12h-70v7q0 73 49.5 115.5t130.5 42.5t129 -45t48 -122v-332h-56zM221 52q47 0 77.5 25.5
t39.5 67.5v65h-115q-101 0 -101 -80q0 -36 24.5 -57t74.5 -21z" />
    <glyph glyph-name="acircumflex.alt" horiz-adv-x="479" 
d="M212 697h42l102 -123l-29 -26l-95 85l-93 -84l-29 25zM355 0l-11 54q-46 -64 -135 -64q-76 0 -119 35.5t-43 101.5q0 69 45 104.5t126 35.5h120v71q0 43 -28.5 71t-78.5 28t-78.5 -26t-28.5 -65v-12h-70v7q0 73 49.5 115.5t130.5 42.5t129 -45t48 -122v-332h-56zM221 52
q47 0 77.5 25.5t39.5 67.5v65h-115q-101 0 -101 -80q0 -36 24.5 -57t74.5 -21z" />
    <glyph glyph-name="atilde.alt" horiz-adv-x="479" 
d="M355 0l-11 54q-46 -64 -135 -64q-76 0 -119 35.5t-43 101.5q0 69 45 104.5t126 35.5h120v71q0 43 -28.5 71t-78.5 28t-78.5 -26t-28.5 -65v-12h-70v7q0 73 49.5 115.5t130.5 42.5t129 -45t48 -122v-332h-56zM221 52q47 0 77.5 25.5t39.5 67.5v65h-115q-101 0 -101 -80
q0 -36 24.5 -57t74.5 -21zM340 662h40q2 -16 2 -24q0 -37 -18 -59.5t-53 -22.5q-24 0 -64 21l-40 22q-24 14 -40 14q-19 0 -29.5 -15t-12 -24.5t-1.5 -16.5h-40q-3 11 -3 22q0 37 23 61.5t60 24.5q27 0 58 -17l41 -23q28 -17 45 -17q32 0 32 54z" />
    <glyph glyph-name="adieresis.alt" horiz-adv-x="479" 
d="M131 607q0 18 13 30.5t32 12.5q18 0 30 -12.5t12 -30.5q0 -19 -12 -32t-30 -13q-19 0 -32 13t-13 32zM245 607q0 18 13 30.5t31 12.5t30.5 -12.5t12.5 -30.5q0 -19 -12.5 -32t-30.5 -13t-31 13t-13 32zM355 0l-11 54q-46 -64 -135 -64q-76 0 -119 35.5t-43 101.5
q0 69 45 104.5t126 35.5h120v71q0 43 -28.5 71t-78.5 28t-78.5 -26t-28.5 -65v-12h-70v7q0 73 49.5 115.5t130.5 42.5t129 -45t48 -122v-332h-56zM221 52q47 0 77.5 25.5t39.5 67.5v65h-115q-101 0 -101 -80q0 -36 24.5 -57t74.5 -21z" />
    <glyph glyph-name="aring.alt" horiz-adv-x="479" 
d="M232 569q22 0 36.5 16t14.5 39t-14.5 38.5t-36.5 15.5t-36.5 -15.5t-14.5 -38.5t14.5 -39t36.5 -16zM232 528q-42 0 -70 28t-28 68t28 68t70 28t70 -28t28 -68t-28 -68t-70 -28zM355 0l-11 54q-46 -64 -135 -64q-76 0 -119 35.5t-43 101.5q0 69 45 104.5t126 35.5h120v71
q0 43 -28.5 71t-78.5 28t-78.5 -26t-28.5 -65v-12h-70v7q0 73 49.5 115.5t130.5 42.5t129 -45t48 -122v-332h-56zM221 52q47 0 77.5 25.5t39.5 67.5v65h-115q-101 0 -101 -80q0 -36 24.5 -57t74.5 -21z" />
    <glyph glyph-name="amacron.alt" horiz-adv-x="479" 
d="M355 0l-11 54q-46 -64 -135 -64q-76 0 -119 35.5t-43 101.5q0 69 45 104.5t126 35.5h120v71q0 43 -28.5 71t-78.5 28t-78.5 -26t-28.5 -65v-12h-70v7q0 73 49.5 115.5t130.5 42.5t129 -45t48 -122v-332h-56zM221 52q47 0 77.5 25.5t39.5 67.5v65h-115q-101 0 -101 -80
q0 -36 24.5 -57t74.5 -21zM114 572v55h235v-55h-235z" />
    <glyph glyph-name="abreve.alt" horiz-adv-x="479" 
d="M355 0l-11 54q-46 -64 -135 -64q-76 0 -119 35.5t-43 101.5q0 69 45 104.5t126 35.5h120v71q0 43 -28.5 71t-78.5 28t-78.5 -26t-28.5 -65v-12h-70v7q0 73 49.5 115.5t130.5 42.5t129 -45t48 -122v-332h-56zM221 52q47 0 77.5 25.5t39.5 67.5v65h-115q-101 0 -101 -80
q0 -36 24.5 -57t74.5 -21zM284 666h49v-20q0 -42 -28 -70t-74 -28q-45 0 -73 28t-28 70v20h49v-20q0 -24 14 -39.5t38 -15.5q25 0 39 15.5t14 39.5v20z" />
    <glyph glyph-name="aogonek.alt" horiz-adv-x="479" 
d="M361 -140h45v-48h-55q-44 0 -67 21t-23 53q0 37 27.5 70t65.5 50l-10 48q-46 -64 -135 -64q-76 0 -119 35.5t-43 101.5q0 69 45 104.5t126 35.5h120v71q0 43 -28.5 71t-78.5 28t-78.5 -26t-28.5 -65v-12h-70v7q0 73 49.5 115.5t130.5 42.5t129 -45t48 -122v-332h-13
q-87 -49 -87 -103q0 -37 50 -37zM221 52q47 0 77.5 25.5t39.5 67.5v65h-115q-101 0 -101 -80q0 -36 24.5 -57t74.5 -21z" />
    <glyph glyph-name="uni0163.alt" horiz-adv-x="332" 
d="M29 424v62h78v133h73v-133h127v-62h-127v-267q0 -41 25 -67.5t70 -26.5h32v-63h-37q-22 0 -41 3l-15 -48h12q39 0 60 -18.5t21 -51.5t-22 -52.5t-59 -19.5h-96v44h95q30 0 30 27t-30 27h-52l-17 11l29 96q-78 40 -78 144v262h-78z" />
    <glyph glyph-name="tcaron.alt" horiz-adv-x="332" 
d="M29 424v62h78v133h73v-133h127v-62h-127v-267q0 -41 25 -67.5t70 -26.5h32v-63h-37q-75 0 -119 43t-44 119v262h-78zM259 677h77l-52 -132h-48z" />
    <glyph glyph-name="tbar.alt" horiz-adv-x="364" 
d="M48 423v62h78v133h73v-133h127v-62h-127v-103h122v-53h-122v-111q0 -41 25 -67.5t70 -26.5h32v-63h-37q-75 0 -119 43t-44 119v106h-80v53h80v103h-78z" />
    <glyph glyph-name="longs_t.alt" horiz-adv-x="541" 
d="M239 424v62h77v133h73v-133h127v-62h-127v-267q0 -41 25 -67.5t70 -26.5h32v-63h-36q-76 0 -120 43t-44 119v262h-77zM278 614h-39q-94 0 -94 -99v-515h-73v510q0 81 42 124t121 43h43v-63z" />
    <glyph glyph-name="uni021B.alt" horiz-adv-x="349" 
d="M131 -44h85l-69 -166h-53zM29 424v62h78v133h73v-133h127v-62h-127v-267q0 -41 25 -67.5t70 -26.5h32v-63h-37q-75 0 -119 43t-44 119v262h-78z" />
    </font>
</defs>
</svg>
