<svg xmlns="http://www.w3.org/2000/svg" viewBox="0 0 21 21"><defs><style>.cls-1{fill:#fff;}</style></defs><title>Settings</title><g id="SETTINGS"><path class="cls-1" d="M19.12,9.49l-.08,0L17.86,9a2,2,0,0,1-1.05-1.08V7.82a1.94,1.94,0,0,1,0-1.45l.51-1.27c.05,0,0-.11,0-.14L16.05,3.7a.12.12,0,0,0-.13,0l-.08,0-1.19.49a2,2,0,0,1-2.59-1.08l-.54-1.27c0-.05-.05-.08-.11-.08H9.61c-.05,0-.11,0-.11.08l0,.08L9,3.13A2.05,2.05,0,0,1,6.38,4.21L5.11,3.7c0-.05-.11,0-.14,0L3.71,5a.12.12,0,0,0,0,.14l0,.08.49,1.19A2,2,0,0,1,3.14,9l-1.27.54c-.05,0-.08.05-.08.11V11.4c0,.05,0,.11.08.11l.05,0,1.19.51a2.05,2.05,0,0,1,1.08,2.59L3.68,15.9c-.05,0,0,.11,0,.13l1.27,1.27a.12.12,0,0,0,.13,0l.08,0,1.19-.49a2,2,0,0,1,2.59,1.08l.54,1.27c0,.05.05.08.11.08h1.81c.05,0,.11,0,.11-.08l.05-.11.51-1.16a2,2,0,0,1,2.59-1.08l1.27.51c0,.05.11,0,.13,0L17.32,16a.12.12,0,0,0,0-.13l0-.08-.48-1.19a2,2,0,0,1,1.05-2.59l1.27-.54c.05,0,.08-.05.08-.11V9.6c0-.05,0-.11-.08-.11M10.5,13.23a2.71,2.71,0,1,1,2.71-2.71,2.72,2.72,0,0,1-2.71,2.71"/></g></svg>