<svg xmlns="http://www.w3.org/2000/svg" viewBox="0 0 21 21"><defs><style>.cls-1{fill:#fff;}.cls-2{fill:none;stroke:#fff;stroke-linecap:round;stroke-linejoin:round;stroke-width:1.24px;}</style></defs><title>Volume</title><g id="VOLUME"><path class="cls-1" d="M2.68,14.34A1.86,1.86,0,0,1,.77,12.55V7.8A1.83,1.83,0,0,1,2.66,6H6.14l4.33-3.92A.83.83,0,0,1,11.58,2a.7.7,0,0,1,.25.55V17.76a.76.76,0,0,1-.8.73.78.78,0,0,1-.59-.24L6.14,14.34Z"/><path class="cls-2" d="M15.55,16h0a6.27,6.27,0,0,0,3.27-8.54,6.63,6.63,0,0,0-3.27-3.09M15,13a3.87,3.87,0,0,0,0-5.69"/></g></svg>