<?xml version="1.0" standalone="no"?>
<!DOCTYPE svg PUBLIC "-//W3C//DTD SVG 1.1//EN" "http://www.w3.org/Graphics/SVG/1.1/DTD/svg11.dtd" >
<svg xmlns="http://www.w3.org/2000/svg" xmlns:xlink="http://www.w3.org/1999/xlink" version="1.1">
<metadata>
Created by FontForge 20161003 at Wed May 31 20:48:23 2017
 By www-data
Copyright (c) 2012 by Eduardo Manso. All rights reserved.
</metadata>
<defs>
<font id="CiutadellaSemiBold" horiz-adv-x="506" >
  <font-face 
    font-family="CiutadellaSemiBold"
    font-weight="600"
    font-stretch="normal"
    units-per-em="1000"
    panose-1="0 0 0 0 0 0 0 0 0 0"
    ascent="750"
    descent="-250"
    x-height="490"
    cap-height="657"
    bbox="-160 -235 1370 897"
    underline-thickness="50"
    underline-position="-150"
    unicode-range="U+000D-FB05"
  />
<missing-glyph horiz-adv-x="841" 
d="M513 144l-92 92l-92 -92q-12 -12 -21 -12q-10 0 -21 12l-51 52q-11 11 -11 19q0 11 12 21l92 92l-92 92q-13 12 -13 22q0 8 11 19l51 52q13 11 21 11q10 0 22 -12l92 -92l92 92q13 13 22 13q8 0 19 -11l52 -51q11 -13 11 -22q0 -11 -12 -21l-92 -92l92 -92q12 -14 12 -21
q0 -11 -12 -21l-52 -51q-11 -11 -19 -11q-10 0 -21 12zM80 328q0 141 99.5 240t240.5 99t240.5 -99t99.5 -240t-100 -239.5t-241 -98.5t-240 98.5t-99 239.5zM128 328q0 -122 85 -207.5t206 -85.5t206.5 85.5t85.5 207.5t-85 208t-206 86t-206.5 -86t-85.5 -208z" />
    <glyph glyph-name="fi" unicode="fi" horiz-adv-x="576" 
d="M515 575h-226q-74 0 -74 -67v-23h300v-485h-120v384h-180v-384h-120v384h-69v101h69v16q0 87 46 131.5t134 44.5h240v-102z" />
    <glyph glyph-name="fl" unicode="fl" horiz-adv-x="578" 
d="M26 384v101h69v16q0 87 46 131.5t134 44.5h240v-677h-120v575h-106q-74 0 -74 -67v-23h102v-101h-102v-384h-120v384h-69z" />
    <glyph glyph-name=".notdef" horiz-adv-x="841" 
d="M513 144l-92 92l-92 -92q-12 -12 -21 -12q-10 0 -21 12l-51 52q-11 11 -11 19q0 11 12 21l92 92l-92 92q-13 12 -13 22q0 8 11 19l51 52q13 11 21 11q10 0 22 -12l92 -92l92 92q13 13 22 13q8 0 19 -11l52 -51q11 -13 11 -22q0 -11 -12 -21l-92 -92l92 -92q12 -14 12 -21
q0 -11 -12 -21l-52 -51q-11 -11 -19 -11q-10 0 -21 12zM80 328q0 141 99.5 240t240.5 99t240.5 -99t99.5 -240t-100 -239.5t-241 -98.5t-240 98.5t-99 239.5zM128 328q0 -122 85 -207.5t206 -85.5t206.5 85.5t85.5 207.5t-85 208t-206 86t-206.5 -86t-85.5 -208z" />
    <glyph glyph-name=".null" horiz-adv-x="0" 
 />
    <glyph glyph-name="nonmarkingreturn" horiz-adv-x="333" 
 />
    <glyph glyph-name="NULL" horiz-adv-x="0" 
 />
    <glyph glyph-name="NULL" horiz-adv-x="0" 
 />
    <glyph glyph-name="CR" unicode="&#xd;" horiz-adv-x="0" 
 />
    <glyph glyph-name="space" unicode=" " horiz-adv-x="197" 
 />
    <glyph glyph-name="exclam" unicode="!" horiz-adv-x="255" 
d="M189 490l-25 -303h-73l-26 303v167h124v-167zM57 60q0 30 20.5 50.5t49.5 20.5q30 0 50.5 -20.5t20.5 -50.5q0 -29 -20.5 -49.5t-50.5 -20.5q-29 0 -49.5 20.5t-20.5 49.5z" />
    <glyph glyph-name="quotedbl" unicode="&#x22;" horiz-adv-x="383" 
d="M52 657h115v-71q0 -42 -13 -117l-6 -42h-77l-6 42q-13 75 -13 117v71zM217 657h114v-71q0 -42 -13 -117l-6 -42h-77l-6 42q-12 69 -12 117v71z" />
    <glyph glyph-name="numbersign" unicode="#" horiz-adv-x="660" 
d="M542 657l-31 -167h109v-77h-124l-31 -169h125v-77h-139l-31 -167h-89l31 167h-124l-31 -167h-89l31 167h-109v77h124l31 169h-125v77h139l31 167h89l-31 -167h124l31 167h89zM283 413l-31 -169h125l31 169h-125z" />
    <glyph glyph-name="dollar" unicode="$" horiz-adv-x="514" 
d="M461 460h-123v19q0 38 -23 61.5t-61 23.5t-59 -20t-21 -53q0 -53 52 -73l87 -34q35 -14 58.5 -27t49.5 -35.5t39.5 -55.5t13.5 -76q0 -80 -47.5 -133t-127.5 -64v-101h-91v103q-78 13 -123.5 62.5t-45.5 125.5v22h123v-27q0 -40 25 -62t70 -22t70 23t25 60q0 59 -62 85
l-94 37q-143 57 -143 183q0 68 41.5 118t113.5 63v102h91v-102q74 -12 118 -62.5t44 -126.5v-14z" />
    <glyph glyph-name="percent" unicode="%" horiz-adv-x="642" 
d="M124 548v-101q0 -21 10.5 -33.5t30.5 -12.5t30.5 12.5t10.5 33.5v101q0 21 -10.5 33.5t-30.5 12.5t-30.5 -12.5t-10.5 -33.5zM288 550v-105q0 -52 -32.5 -84.5t-90.5 -32.5t-90.5 32.5t-32.5 84.5v105q0 52 32.5 84.5t90.5 32.5t90.5 -32.5t32.5 -84.5zM280 330l182 327
h93l-192 -329l-183 -328h-93zM435 210v-101q0 -21 11 -33.5t31 -12.5q19 0 30 12.5t11 33.5v101q0 21 -11 33.5t-30 12.5q-20 0 -31 -12.5t-11 -33.5zM600 212v-105q0 -52 -33 -84.5t-90 -32.5q-58 0 -90.5 32.5t-32.5 84.5v105q0 52 32.5 84.5t90.5 32.5q57 0 90 -32.5
t33 -84.5z" />
    <glyph glyph-name="ampersand" unicode="&#x26;" horiz-adv-x="589" 
d="M560 386v-96h-69v-99q0 -89 -60 -145t-160 -56q-103 0 -164.5 51.5t-61.5 139.5q0 118 105 162q-85 43 -85 142q0 81 55.5 131.5t147.5 50.5t147.5 -54.5t55.5 -139.5v-15h-118v15q0 40 -21.5 63.5t-59.5 23.5q-39 0 -61 -22t-22 -62q0 -90 100 -90h271zM275 94
q46 0 72.5 26t26.5 71v99h-86q-58 0 -87.5 -25.5t-29.5 -72.5q0 -98 104 -98z" />
    <glyph glyph-name="quotesingle" unicode="'" horiz-adv-x="223" 
d="M52 657h119v-71q0 -42 -13 -117l-6 -42h-81l-6 42q-13 75 -13 117v71z" />
    <glyph glyph-name="parenleft" unicode="(" horiz-adv-x="318" 
d="M270 0h10v-111h-9q-103 0 -157.5 55.5t-54.5 153.5v458q0 98 54.5 153.5t157.5 55.5h9v-111h-10q-42 0 -64.5 -24.5t-22.5 -67.5v-470q0 -43 22.5 -67.5t64.5 -24.5z" />
    <glyph glyph-name="parenright" unicode=")" horiz-adv-x="318" 
d="M38 0h10q42 0 64.5 24.5t22.5 67.5v470q0 43 -22.5 67.5t-64.5 24.5h-10v111h9q103 0 157.5 -55.5t54.5 -153.5v-458q0 -98 -54.5 -153.5t-157.5 -55.5h-9v111z" />
    <glyph glyph-name="asterisk" unicode="*" horiz-adv-x="392" 
d="M155 386l28 94l-67 -72l-31 -18l-42 72l31 18l95 24l-95 24l-31 19l41 70l32 -18l67 -74l-28 96v36h83v-36l-27 -93l65 71l32 18l41 -70l-31 -19l-97 -24l97 -24l31 -18l-42 -72l-31 18l-66 70l28 -92v-36h-83v36z" />
    <glyph glyph-name="plus" unicode="+" horiz-adv-x="487" 
d="M303 523v-142h143v-108h-143v-143h-119v143h-143v108h143v142h119z" />
    <glyph glyph-name="comma" unicode="," horiz-adv-x="241" 
d="M71 118h124l-96 -212h-74z" />
    <glyph glyph-name="hyphen" unicode="-" horiz-adv-x="356" 
d="M58 206v107h240v-107h-240z" />
    <glyph glyph-name="period" unicode="." horiz-adv-x="234" 
d="M47 60q0 30 20.5 50.5t49.5 20.5t50 -20.5t21 -50.5q0 -29 -21 -49.5t-50 -20.5t-49.5 20.5t-20.5 49.5z" />
    <glyph glyph-name="slash" unicode="/" horiz-adv-x="463" 
d="M321 765h116l-295 -876h-116z" />
    <glyph glyph-name="zero" unicode="0" horiz-adv-x="550" 
d="M182 455v-253q0 -46 24.5 -73t68.5 -27t68.5 27t24.5 73v253q0 46 -24.5 73t-68.5 27t-68.5 -27t-24.5 -73zM493 457v-257q0 -96 -60 -153t-158 -57t-157.5 57t-59.5 153v257q0 98 57 154t160 56q98 0 158 -57t60 -153z" />
    <glyph glyph-name="one" unicode="1" horiz-adv-x="429" 
d="M47 546v111h238v-548h116v-109h-354v109h114v437h-114z" />
    <glyph glyph-name="two" unicode="2" horiz-adv-x="529" 
d="M46 0v49q0 78 23 132.5t89 98.5l116 77q76 49 76 121q0 36 -22.5 56.5t-64.5 20.5t-66.5 -23t-24.5 -62v-18h-120v20q0 86 59.5 140.5t155.5 54.5q97 0 154.5 -49.5t57.5 -133.5q0 -127 -123 -208l-117 -78q-49 -32 -55 -84h295v-114h-433z" />
    <glyph glyph-name="three" unicode="3" horiz-adv-x="526" 
d="M203 289v97h45q50 0 72 21.5t22 64.5q0 39 -23 61t-63 22q-41 0 -64.5 -22.5t-23.5 -61.5v-14h-120v16q0 84 58.5 139t152.5 55q95 0 151 -50t56 -131q0 -100 -74 -144q86 -43 86 -159q0 -88 -60 -140.5t-160 -52.5q-97 0 -155.5 53t-58.5 141v15h120v-13q0 -40 24.5 -64
t67.5 -24q45 0 69.5 25.5t24.5 72.5q0 93 -102 93h-45z" />
    <glyph glyph-name="four" unicode="4" horiz-adv-x="558" 
d="M306 657h147v-412h71v-105h-71v-140h-123v140h-299v119zM145 245h185v268z" />
    <glyph glyph-name="five" unicode="5" horiz-adv-x="522" 
d="M451 657v-109h-272v-167q41 34 110 34q87 0 140 -55.5t53 -151.5q0 -102 -59.5 -160t-158.5 -58q-96 0 -155.5 47.5t-59.5 128.5v16h120v-15q0 -32 23.5 -51.5t66.5 -19.5q46 0 70.5 28.5t24.5 80.5q0 50 -22 79.5t-68 29.5q-51 0 -91 -36h-107v379h385z" />
    <glyph glyph-name="six" unicode="6" horiz-adv-x="537" 
d="M492 196q0 -98 -59.5 -152t-158.5 -54q-98 0 -157.5 55.5t-59.5 156.5v249q0 100 57.5 158t160.5 58q95 0 152 -50t57 -135v-10h-121v8q0 35 -23 57t-63 22q-46 0 -70.5 -25.5t-24.5 -71.5v-102q49 38 116 38q89 0 141.5 -54t52.5 -148zM275 296q-55 0 -93 -40v-53
q0 -53 24 -80.5t67 -27.5q44 0 67.5 25.5t23.5 71.5q0 47 -22.5 75.5t-66.5 28.5z" />
    <glyph glyph-name="seven" unicode="7" horiz-adv-x="463" 
d="M31 548v109h405v-94l-219 -563h-133l215 548h-268z" />
    <glyph glyph-name="eight" unicode="8" horiz-adv-x="530" 
d="M470 484q0 -102 -76 -143q89 -39 89 -157q0 -88 -59.5 -141t-158.5 -53q-98 0 -157.5 53t-59.5 141q0 117 88 156q-77 42 -77 144q0 82 56 132.5t150 50.5t149.5 -50.5t55.5 -132.5zM174 191q0 -47 23.5 -72.5t67.5 -25.5t67.5 25.5t23.5 72.5q0 99 -91 99t-91 -99z
M182 475q0 -92 83 -92q82 0 82 92q0 40 -21.5 62.5t-60.5 22.5q-40 0 -61.5 -22t-21.5 -63z" />
    <glyph glyph-name="nine" unicode="9" horiz-adv-x="536" 
d="M45 461q0 97 60 151.5t159 54.5q98 0 156.5 -59t58.5 -168v-234q0 -100 -57.5 -158t-160.5 -58q-94 0 -151 50t-57 135v10h120v-8q0 -35 23.5 -57t63.5 -22q46 0 70.5 25.5t24.5 72.5v100q-49 -37 -116 -37q-89 0 -141.5 54.5t-52.5 147.5zM262 361q53 0 93 40v37
q0 60 -23.5 92t-66.5 32q-44 0 -68 -25.5t-24 -71.5q0 -47 22 -75.5t67 -28.5z" />
    <glyph glyph-name="colon" unicode=":" horiz-adv-x="256" 
d="M57 60q0 30 21 50.5t50 20.5t49.5 -20.5t20.5 -50.5q0 -29 -20.5 -49.5t-49.5 -20.5t-50 20.5t-21 49.5zM57 429q0 29 21 50t50 21t49.5 -21t20.5 -50t-20.5 -49.5t-49.5 -20.5t-50 20.5t-21 49.5z" />
    <glyph glyph-name="semicolon" unicode=";" horiz-adv-x="266" 
d="M79 118h123l-96 -212h-74zM68 429q0 29 20.5 50t50.5 21q29 0 49.5 -21t20.5 -50t-20.5 -49.5t-49.5 -20.5q-30 0 -50.5 20.5t-20.5 49.5z" />
    <glyph glyph-name="less" unicode="&#x3c;" horiz-adv-x="492" 
d="M40 269v113l392 140v-109l-253 -84l253 -85v-115z" />
    <glyph glyph-name="equal" unicode="=" horiz-adv-x="520" 
d="M61 392v107h398v-107h-398zM61 160v107h398v-107h-398z" />
    <glyph glyph-name="greater" unicode="&#x3e;" horiz-adv-x="492" 
d="M452 381v-113l-392 -140v109l253 84l-253 85v115z" />
    <glyph glyph-name="question" unicode="?" horiz-adv-x="494" 
d="M290 187h-100l-4 37q-4 9 -1 22.5t1.5 20t5 18.5t7.5 17t9.5 16t11.5 15.5t13 14.5l14.5 14.5t15.5 15t16 15.5q51 49 51 87q0 34 -22 54.5t-63 20.5q-42 0 -65.5 -23t-23.5 -62v-27h-120v29q0 86 58.5 140.5t153.5 54.5t152.5 -49.5t57.5 -132.5q0 -79 -77 -151
q-6 -5 -20.5 -19t-20 -19.5t-16 -17t-15 -19.5t-9.5 -19.5t-6 -23.5zM172 59q0 29 20 49t48 20q29 0 49 -20t20 -49t-20 -49t-49 -20t-48.5 20t-19.5 49z" />
    <glyph glyph-name="at" unicode="@" horiz-adv-x="800" 
d="M230 194l16 84q26 145 136 145q68 0 94 -51l17 43h85l-46 -259q-8 -44 6.5 -62.5t50.5 -18.5q69 0 69 100v145q0 98 -68.5 156.5t-185.5 58.5t-185.5 -58.5t-68.5 -156.5v-177q0 -98 68.5 -156.5t185.5 -58.5h91v-92h-91q-162 0 -258 86.5t-96 232.5v153q0 148 91 233.5
t263 85.5q161 0 257 -86.5t96 -232.5v-121q0 -102 -50.5 -149.5t-122.5 -47.5q-62 0 -102.5 25.5t-47.5 76.5q-41 -53 -98 -53q-63 0 -90.5 43.5t-15.5 111.5zM375 119q24 0 41 17.5t22 46.5l17 93q5 28 -9 46t-43 18q-46 0 -58 -65l-16 -91q-5 -30 6.5 -47.5t39.5 -17.5z
" />
    <glyph glyph-name="A" unicode="A" horiz-adv-x="556" 
d="M138 0h-122l196 657h132l196 -657h-128l-33 118h-209zM274 503l-76 -279h153z" />
    <glyph glyph-name="B" unicode="B" horiz-adv-x="573" 
d="M73 0v657h239q91 0 148.5 -47.5t57.5 -125.5q0 -106 -95 -145v-1q111 -38 111 -156q0 -83 -57 -132.5t-148 -49.5h-256zM309 283h-112v-182h111q46 0 72 24.5t26 66.5q0 41 -26 66t-71 25zM296 556h-99v-170h100q44 0 69 22.5t25 64.5q0 39 -25.5 61t-69.5 22z" />
    <glyph glyph-name="C" unicode="C" horiz-adv-x="554" 
d="M389 225h120v-19q0 -99 -61.5 -157.5t-162.5 -58.5q-103 0 -166.5 59.5t-63.5 159.5v239q0 102 60.5 160.5t169.5 58.5q101 0 162.5 -58.5t61.5 -157.5v-16h-120v15q0 48 -28 76.5t-78 28.5q-48 0 -75.5 -29.5t-27.5 -79.5v-235q0 -50 27.5 -79.5t75.5 -29.5
q50 0 78 28.5t28 76.5v18z" />
    <glyph glyph-name="D" unicode="D" horiz-adv-x="591" 
d="M300 657q111 0 174 -60t63 -164v-209q0 -104 -63 -164t-174 -60h-227v657h227zM300 545h-102v-433h102q53 0 82.5 30.5t29.5 83.5v205q0 53 -29.5 83.5t-82.5 30.5z" />
    <glyph glyph-name="E" unicode="E" horiz-adv-x="525" 
d="M444 279h-246v-167h284v-112h-409v657h400v-112h-275v-156h246v-110z" />
    <glyph glyph-name="F" unicode="F" horiz-adv-x="508" 
d="M444 261h-246v-261h-125v657h400v-112h-275v-173h246v-111z" />
    <glyph glyph-name="G" unicode="G" horiz-adv-x="558" 
d="M297 236v98h212v-128q0 -99 -61.5 -157.5t-162.5 -58.5q-103 0 -166.5 59.5t-63.5 159.5v239q0 102 62 160.5t170 58.5q101 0 161.5 -55.5t60.5 -150.5v-16h-120v15q0 44 -27 69.5t-76 25.5q-50 0 -78 -29.5t-28 -79.5v-235q0 -50 28 -79.5t76 -29.5q52 0 80.5 28.5
t28.5 76.5v29h-96z" />
    <glyph glyph-name="H" unicode="H" horiz-adv-x="599" 
d="M526 657v-657h-125v278h-203v-278h-125v657h125v-267h203v267h125z" />
    <glyph glyph-name="I" unicode="I" horiz-adv-x="271" 
d="M198 657v-657h-125v657h125z" />
    <glyph glyph-name="J" unicode="J" horiz-adv-x="499" 
d="M17 215h124v-24q0 -41 21.5 -65t60.5 -24t60.5 24t21.5 65v466h125v-468q0 -91 -57 -145t-150 -54t-149.5 53.5t-56.5 145.5v26z" />
    <glyph glyph-name="K" unicode="K" horiz-adv-x="556" 
d="M198 657v-314l201 314h139l-172 -273l178 -384h-140l-126 280l-80 -125v-155h-125v657h125z" />
    <glyph glyph-name="L" unicode="L" horiz-adv-x="469" 
d="M198 657v-545h257v-112h-382v657h125z" />
    <glyph glyph-name="M" unicode="M" horiz-adv-x="672" 
d="M299 215l-110 197v-412h-116v657h107l157 -286l155 286h107v-657h-121v409l-107 -194h-72z" />
    <glyph glyph-name="N" unicode="N" horiz-adv-x="595" 
d="M522 657v-657h-102l-233 415v-415h-114v657h107l228 -405v405h114z" />
    <glyph glyph-name="O" unicode="O" horiz-adv-x="573" 
d="M180 446v-235q0 -50 28.5 -79.5t78.5 -29.5t78 29.5t28 79.5v235q0 50 -28 79.5t-78 29.5t-78.5 -29.5t-28.5 -79.5zM518 448v-239q0 -100 -63.5 -159.5t-167.5 -59.5t-168 59.5t-64 159.5v239q0 102 60.5 160.5t171.5 58.5q104 0 167.5 -59.5t63.5 -159.5z" />
    <glyph glyph-name="P" unicode="P" horiz-adv-x="558" 
d="M73 0v657h229q99 0 163 -59t64 -154q0 -100 -63.5 -160t-163.5 -60h-104v-224h-125zM291 548h-93v-215h93q52 0 81.5 29t29.5 79q0 49 -30 78t-81 29z" />
    <glyph glyph-name="Q" unicode="Q" horiz-adv-x="574" 
d="M518 448v-239q0 -127 -98 -186l97 -156h-144l-76 124q-3 -1 -10 -1q-104 0 -168 59.5t-64 159.5v239q0 102 60.5 160.5t171.5 58.5q104 0 167.5 -59.5t63.5 -159.5zM180 446v-235q0 -50 28.5 -79.5t78.5 -29.5t78 29.5t28 79.5v235q0 50 -28 79.5t-78 29.5t-78.5 -29.5
t-28.5 -79.5z" />
    <glyph glyph-name="R" unicode="R" horiz-adv-x="574" 
d="M533 0h-136l-95 241h-104v-241h-125v657h231q99 0 162 -56.5t63 -147.5q0 -63 -27.5 -110t-76.5 -73zM291 548h-93v-198h93q52 0 81.5 27t29.5 73q0 45 -29.5 71.5t-81.5 26.5z" />
    <glyph glyph-name="S" unicode="S" horiz-adv-x="533" 
d="M479 459h-122v19q0 39 -26 62.5t-69 23.5q-42 0 -65.5 -20.5t-23.5 -52.5q0 -52 62 -74l93 -34q37 -13 61.5 -26t50.5 -35t39.5 -55t13.5 -76q0 -90 -61.5 -145.5t-163.5 -55.5q-103 0 -166.5 52.5t-63.5 141.5v22h123v-27q0 -40 27.5 -62.5t76.5 -22.5q50 0 78 23t28 60
q0 61 -72 86l-100 38q-147 54 -147 181q0 78 57.5 131.5t152.5 53.5q98 0 157.5 -52.5t59.5 -141.5v-14z" />
    <glyph glyph-name="T" unicode="T" horiz-adv-x="476" 
d="M18 545v112h439v-112h-157v-545h-124v545h-158z" />
    <glyph glyph-name="U" unicode="U" horiz-adv-x="588" 
d="M395 657h124v-448q0 -100 -62 -159.5t-163 -59.5t-163 59.5t-62 159.5v448h124v-446q0 -50 27 -79.5t74 -29.5t74 29.5t27 79.5v446z" />
    <glyph glyph-name="V" unicode="V" horiz-adv-x="527" 
d="M383 657h126l-179 -657h-133l-179 657h132l117 -473z" />
    <glyph glyph-name="W" unicode="W" horiz-adv-x="727" 
d="M584 657h119l-139 -657h-115l-86 445l-85 -445h-114l-139 657h125l77 -440l82 440h115l82 -441z" />
    <glyph glyph-name="X" unicode="X" horiz-adv-x="519" 
d="M22 657h135l108 -206l106 206h126l-172 -311l186 -346h-134l-124 236l-117 -236h-127l181 344z" />
    <glyph glyph-name="Y" unicode="Y" horiz-adv-x="508" 
d="M7 657h132l118 -271l118 271h126l-185 -391v-266h-124v264z" />
    <glyph glyph-name="Z" unicode="Z" horiz-adv-x="479" 
d="M45 547v110h390v-79l-248 -468h254v-110h-405v79l248 468h-239z" />
    <glyph glyph-name="bracketleft" unicode="[" horiz-adv-x="329" 
d="M194 653v-652h98v-112h-222v876h222v-112h-98z" />
    <glyph glyph-name="backslash" unicode="\" horiz-adv-x="467" 
d="M26 765h120l295 -876h-120z" />
    <glyph glyph-name="bracketright" unicode="]" horiz-adv-x="329" 
d="M135 1v652h-98v112h222v-876h-222v112h98z" />
    <glyph glyph-name="asciicircum" unicode="^" horiz-adv-x="463" 
d="M183 657h97l140 -330h-115l-78 202l-76 -202h-109z" />
    <glyph glyph-name="underscore" unicode="_" horiz-adv-x="690" 
d="M59 -118v88h572v-88h-572z" />
    <glyph glyph-name="grave" unicode="`" horiz-adv-x="228" 
d="M152 542l-132 110l76 71l112 -132z" />
    <glyph glyph-name="a" unicode="a" 
d="M46 180v130q0 86 43.5 138t123.5 52q77 0 119 -56l9 46h103v-490h-103l-9 46q-41 -56 -119 -56q-80 0 -123.5 52t-43.5 138zM243 95q37 0 59 24.5t22 61.5v127q0 38 -22 62.5t-59 24.5q-36 0 -56 -23.5t-20 -61.5v-131q0 -37 20 -60.5t56 -23.5z" />
    <glyph glyph-name="b" unicode="b" 
d="M173 46l-8 -46h-104v677h121v-224q42 47 111 47q80 0 123 -52t43 -138v-130q0 -86 -43 -138t-123 -52q-77 0 -120 56zM263 95q36 0 56 23.5t20 60.5v131q0 38 -20 61.5t-56 23.5q-37 0 -59 -24.5t-22 -62.5v-127q0 -37 22 -61.5t59 -24.5z" />
    <glyph glyph-name="c" unicode="c" horiz-adv-x="474" 
d="M320 184h116v-6q0 -88 -53 -138t-141 -50q-89 0 -143.5 53.5t-54.5 143.5v116q0 90 54.5 143.5t143.5 53.5q87 0 140.5 -50t53.5 -133v-4h-116v12q0 32 -21 52.5t-57 20.5t-56.5 -24.5t-20.5 -62.5v-133q0 -38 20.5 -62t56.5 -24q37 0 57.5 20t20.5 56v16z" />
    <glyph glyph-name="d" unicode="d" 
d="M341 0l-9 46q-41 -56 -119 -56q-80 0 -123.5 52t-43.5 138v130q0 86 43.5 138t123.5 52q69 0 111 -47v224h120v-677h-103zM243 95q37 0 59 24.5t22 61.5v127q0 38 -22 62.5t-59 24.5q-36 0 -56 -23.5t-20 -61.5v-131q0 -37 20 -60.5t56 -23.5z" />
    <glyph glyph-name="e" unicode="e" horiz-adv-x="475" 
d="M319 170h114v-4q0 -80 -52.5 -128t-138.5 -48q-89 0 -143.5 53t-54.5 142v118q0 90 54.5 143.5t143.5 53.5q85 0 138 -54t53 -143v-81h-271v-50q0 -37 22 -61.5t59 -24.5q36 0 56 21t20 56v7zM162 317v-12h157v12q0 38 -21 62.5t-56 24.5q-37 0 -58.5 -24t-21.5 -63z" />
    <glyph glyph-name="f" unicode="f" horiz-adv-x="341" 
d="M26 384v101h69v16q0 87 46 131.5t134 44.5h50v-102h-36q-74 0 -74 -67v-23h104v-101h-104v-384h-120v384h-69z" />
    <glyph glyph-name="g" unicode="g" 
d="M46 199v111q0 86 43.5 138t123.5 52q77 0 119 -56l9 46h103v-506q0 -83 -53.5 -132t-142.5 -49q-88 0 -142 43.5t-54 113.5v4h116v-9q0 -25 20 -41t58 -16q39 0 58.5 22t19.5 60v75q-41 -46 -111 -46q-80 0 -123.5 52t-43.5 138zM243 114q37 0 59 24.5t22 62.5v107
q0 38 -22 62.5t-59 24.5q-36 0 -56 -23.5t-20 -61.5v-111q0 -38 20 -61.5t56 -23.5z" />
    <glyph glyph-name="h" unicode="h" horiz-adv-x="517" 
d="M182 0h-121v677h121v-226q44 49 115 49q80 0 121 -49.5t41 -133.5v-317h-120v310q0 38 -20 61.5t-56 23.5q-37 0 -59 -24.5t-22 -62.5v-308z" />
    <glyph glyph-name="i" unicode="i" horiz-adv-x="243" 
d="M53 622q0 29 20 48.5t49 19.5q28 0 48 -20t20 -48t-20 -48t-48 -20q-29 0 -49 19.5t-20 48.5zM61 490h121v-490h-121v490z" />
    <glyph glyph-name="j" unicode="j" horiz-adv-x="243" 
d="M-37 -95h21q77 0 77 70v515h121v-508q0 -88 -47.5 -133.5t-136.5 -45.5h-35v102zM53 622q0 28 19.5 48t48.5 20t48.5 -20t19.5 -48t-19.5 -48t-48.5 -20t-48.5 20t-19.5 48z" />
    <glyph glyph-name="k" unicode="k" horiz-adv-x="484" 
d="M61 677h121v-379l151 192h131l-149 -188l157 -302h-133l-105 208l-52 -66v-142h-121v677z" />
    <glyph glyph-name="l" unicode="l" horiz-adv-x="246" 
d="M63 677h120v-677h-120v677z" />
    <glyph glyph-name="m" unicode="m" horiz-adv-x="784" 
d="M182 0h-121v490h104l8 -48q43 58 122 58q99 0 137 -80q18 37 53 58.5t82 21.5q78 0 119 -50t41 -133v-317h-121v310q0 38 -19 61.5t-54 23.5t-56 -23t-23 -58v-314h-120v310q0 38 -19.5 61.5t-54.5 23.5t-56.5 -24.5t-21.5 -61.5v-309z" />
    <glyph glyph-name="n" unicode="n" horiz-adv-x="517" 
d="M182 0h-121v490h104l8 -48q45 58 124 58q80 0 121 -49.5t41 -133.5v-317h-120v310q0 38 -20 61.5t-56 23.5q-37 0 -59 -24.5t-22 -62.5v-308z" />
    <glyph glyph-name="o" unicode="o" horiz-adv-x="488" 
d="M165 311v-133q0 -38 21 -62t58 -24t58 24t21 62v133q0 38 -21 62.5t-58 24.5t-58 -24.5t-21 -62.5zM443 303v-116q0 -90 -54.5 -143.5t-144.5 -53.5t-145 53.5t-55 143.5v116q0 90 55 143.5t145 53.5t144.5 -53.5t54.5 -143.5z" />
    <glyph glyph-name="p" unicode="p" 
d="M165 490l8 -47q44 57 120 57q80 0 123 -52t43 -138v-130q0 -86 -43 -138t-123 -52q-70 0 -111 47v-224h-121v677h104zM263 395q-37 0 -59 -24.5t-22 -62.5v-127q0 -37 22 -61.5t59 -24.5q36 0 56 23.5t20 60.5v131q0 38 -20 61.5t-56 23.5z" />
    <glyph glyph-name="q" unicode="q" 
d="M332 443l9 47h103v-677h-120v224q-41 -47 -111 -47q-80 0 -123.5 52t-43.5 138v130q0 86 43.5 138t123.5 52q77 0 119 -57zM243 395q-36 0 -56 -23.5t-20 -61.5v-131q0 -37 20 -60.5t56 -23.5q37 0 59 24.5t22 61.5v127q0 38 -22 62.5t-59 24.5z" />
    <glyph glyph-name="r" unicode="r" horiz-adv-x="336" 
d="M182 0h-121v490h104l10 -56q41 66 113 66q16 0 29 -4v-113q-24 4 -41 4q-41 0 -67.5 -22t-26.5 -66v-299z" />
    <glyph glyph-name="s" unicode="s" horiz-adv-x="451" 
d="M35 156h111v-19q0 -27 21 -42t57 -15q76 0 76 54q0 36 -51 52l-87 27q-116 36 -116 141q0 60 48.5 103t126.5 43q85 0 135.5 -39.5t50.5 -107.5v-11h-112v14q0 25 -19 40t-53 15q-29 0 -47.5 -13t-18.5 -35q0 -33 48 -47l70 -21q65 -21 101.5 -53.5t36.5 -95.5
q0 -70 -50.5 -113.5t-136.5 -43.5q-85 0 -138 41t-53 111v15z" />
    <glyph glyph-name="t" unicode="t" horiz-adv-x="331" 
d="M24 384v101h81v134h120v-134h82v-101h-82v-384h-120v384h-81z" />
    <glyph glyph-name="u" unicode="u" horiz-adv-x="511" 
d="M57 164v326h121v-319q0 -34 18.5 -55t52.5 -21q37 0 59 24.5t22 61.5v309h120v-490h-103l-10 47q-42 -57 -122 -57q-78 0 -118 47.5t-40 126.5z" />
    <glyph glyph-name="v" unicode="v" horiz-adv-x="465" 
d="M295 0h-125l-154 490h129l91 -335l90 335h123z" />
    <glyph glyph-name="w" unicode="w" horiz-adv-x="682" 
d="M147 490l69 -323l77 323h100l77 -323l69 323h124l-136 -490h-110l-76 296l-76 -296h-109l-137 490h128z" />
    <glyph glyph-name="x" unicode="x" horiz-adv-x="459" 
d="M18 490h131l84 -148l83 148h127l-151 -236l155 -254h-131l-91 156l-85 -156h-127l152 243z" />
    <glyph glyph-name="y" unicode="y" horiz-adv-x="464" 
d="M231 -187h-113l60 173l-162 504h129l90 -328l91 328h123z" />
    <glyph glyph-name="z" unicode="z" horiz-adv-x="437" 
d="M43 391v99h352v-70l-210 -322h215v-98h-365v70l211 321h-203z" />
    <glyph glyph-name="braceleft" unicode="{" horiz-adv-x="358" 
d="M98 83v126q0 71 -65 71h-10v95h10q65 0 65 72v124q0 91 53 142.5t152 51.5h17v-111h-17q-40 0 -60 -22.5t-20 -61.5v-125q0 -79 -61 -117q61 -41 61 -118v-126q0 -39 20 -61.5t60 -22.5h17v-111h-17q-99 0 -152 51.5t-53 142.5z" />
    <glyph glyph-name="bar" unicode="|" horiz-adv-x="255" 
d="M185 765v-876h-115v876h115z" />
    <glyph glyph-name="braceright" unicode="}" horiz-adv-x="358" 
d="M260 209v-126q0 -91 -53 -142.5t-152 -51.5h-17v111h17q40 0 60 22.5t20 61.5v126q0 77 61 118q-61 38 -61 117v125q0 39 -20 61.5t-60 22.5h-17v111h17q99 0 152 -51.5t53 -142.5v-124q0 -72 65 -72h10v-95h-10q-65 0 -65 -71z" />
    <glyph glyph-name="asciitilde" unicode="~" horiz-adv-x="529" 
d="M426 390l67 -49q-58 -110 -140 -110q-46 0 -104 40q-45 28 -67 28q-21 0 -39.5 -18t-43.5 -55l-62 51q25 51 64.5 83t84.5 32q47 0 101 -37q43 -29 65 -29q19 0 35.5 15t38.5 49z" />
    <glyph glyph-name="uni00A0" unicode="&#xa0;" horiz-adv-x="197" 
 />
    <glyph glyph-name="exclamdown" unicode="&#xa1;" horiz-adv-x="244" 
d="M159 303l25 -303v-167h-124v167l26 303h73zM52 430q0 29 20.5 49.5t49.5 20.5q30 0 50.5 -20.5t20.5 -49.5q0 -30 -20.5 -50.5t-50.5 -20.5q-29 0 -49.5 20.5t-20.5 50.5z" />
    <glyph glyph-name="cent" unicode="&#xa2;" horiz-adv-x="481" 
d="M198 667h91v-88q68 -12 108 -60t40 -119v-3h-116v11q0 32 -21 53t-57 21q-37 0 -57 -24t-20 -62v-134q0 -38 20 -62t57 -24t57.5 20.5t20.5 56.5v17h116v-7q0 -75 -40 -123.5t-108 -61.5v-88h-91v88q-71 13 -112 64t-41 129v116q0 77 41.5 128.5t111.5 64.5v87z" />
    <glyph glyph-name="sterling" unicode="&#xa3;" horiz-adv-x="563" 
d="M45 238v98h61v126q0 94 56.5 149.5t147.5 55.5q90 0 146 -55t56 -147v-30h-120v29q0 42 -21.5 67t-59.5 25q-39 0 -60 -26t-21 -70v-124h161v-98h-161v-129h285v-109h-470v109h61v129h-61z" />
    <glyph glyph-name="currency" unicode="&#xa4;" horiz-adv-x="610" 
d="M490 588l76 -75l-80 -76q25 -44 25 -98v-12q0 -55 -25 -99l80 -75l-76 -75l-75 81q-47 -27 -110 -27t-110 26l-75 -80l-76 75l79 75q-24 42 -24 99v12q0 57 23 100l-78 74l76 75l73 -79q48 25 112 25q61 0 110 -27zM218 338v-9q0 -39 23.5 -62.5t63.5 -23.5t63.5 23.5
t23.5 62.5v9q0 38 -23.5 61.5t-63.5 23.5t-63.5 -23t-23.5 -62z" />
    <glyph glyph-name="yen" unicode="&#xa5;" horiz-adv-x="556" 
d="M398 657h122l-129 -269h90v-74h-125l-20 -42v-15h145v-74h-145v-183h-117v183h-144v74h144v13l-21 44h-123v74h88l-127 269h127l118 -268z" />
    <glyph glyph-name="brokenbar" unicode="&#xa6;" horiz-adv-x="266" 
d="M71 405v360h124v-360h-124zM71 -111v360h124v-360h-124z" />
    <glyph glyph-name="section" unicode="&#xa7;" horiz-adv-x="513" 
d="M464 198l-274 104q-140 53 -140 179q0 79 55 132.5t147 53.5q93 0 150.5 -51.5t57.5 -139.5v-15h-116v23q0 38 -24 60.5t-68 22.5q-42 0 -64.5 -20.5t-22.5 -53.5q0 -59 61 -82l119 -47q61 -24 90 -54.5t29 -90.5v-21zM50 271l274 -104q140 -53 140 -179q0 -78 -55 -132
t-147 -54q-94 0 -151.5 52t-57.5 140v14h116v-23q0 -38 24.5 -60.5t67.5 -22.5q42 0 65 20.5t23 53.5q0 59 -62 82l-118 48q-61 23 -90 53.5t-29 91.5v20z" />
    <glyph glyph-name="dieresis" unicode="&#xa8;" horiz-adv-x="298" 
d="M20 612q0 25 17.5 41.5t42.5 16.5t41.5 -16.5t16.5 -41.5t-17 -43t-41 -18q-25 0 -42.5 18t-17.5 43zM160 612q0 25 17 41.5t42 16.5t42 -16.5t17 -41.5t-17 -43t-42 -18t-42 18t-17 43z" />
    <glyph glyph-name="copyright" unicode="&#xa9;" horiz-adv-x="761" 
d="M443 288h97v-5q0 -69 -43.5 -109t-115.5 -40t-116.5 43.5t-44.5 115.5v71q0 73 44.5 116.5t116.5 43.5t115.5 -40t43.5 -106v-2h-97v9q0 23 -16 38t-44 15q-29 0 -46 -18.5t-17 -48.5v-84q0 -30 17 -49.5t46 -19.5t44.5 15.5t15.5 42.5v12zM41 327q0 141 99 240.5
t240 99.5t240.5 -99.5t99.5 -240.5t-99.5 -239.5t-240.5 -98.5t-240 98.5t-99 239.5zM108 327q0 -115 79.5 -195t192.5 -80t192.5 80t79.5 195t-79.5 196t-192.5 81t-192.5 -81t-79.5 -196z" />
    <glyph glyph-name="ordfeminine" unicode="&#xaa;" horiz-adv-x="316" 
d="M48 505v59q0 44 21 71t61 27q37 0 55 -25l3 20h70v-245h-70l-3 19q-22 -24 -55 -24q-40 0 -61 27t-21 71zM152 474q13 0 20.5 8.5t7.5 22.5v59q0 14 -7.5 22.5t-20.5 8.5q-25 0 -25 -32v-57q0 -32 25 -32z" />
    <glyph glyph-name="guillemotleft" unicode="&#xab;" horiz-adv-x="381" 
d="M183 233l58 165h89l-45 -165l45 -165h-89zM44 233l62 165h89l-49 -165l49 -165h-89z" />
    <glyph glyph-name="logicalnot" unicode="&#xac;" horiz-adv-x="524" 
d="M54 273v108h405v-251h-119v143h-286z" />
    <glyph glyph-name="uni00AD" unicode="&#xad;" horiz-adv-x="356" 
d="M58 206v107h240v-107h-240z" />
    <glyph glyph-name="registered" unicode="&#xae;" horiz-adv-x="532" 
d="M50 450q0 90 62.5 153.5t152.5 63.5t153.5 -63.5t63.5 -153.5q0 -89 -63.5 -152t-153.5 -63t-152.5 63t-62.5 152zM104 450q0 -69 46.5 -116.5t114.5 -47.5t115 47.5t47 116.5t-47.5 117.5t-114.5 48.5t-114 -48.5t-47 -117.5zM361 339h-63l-28 80h-33v-80h-56v221h97
q36 0 59 -19t23 -50q0 -39 -34 -61zM271 516h-34v-55h34q14 0 22 8t8 20q0 27 -30 27z" />
    <glyph glyph-name="macron" unicode="&#xaf;" horiz-adv-x="280" 
d="M20 563v85h240v-85h-240z" />
    <glyph glyph-name="degree" unicode="&#xb0;" horiz-adv-x="442" 
d="M38 484q0 76 53 129.5t129 53.5t130 -53.5t54 -129.5t-53.5 -129.5t-130.5 -53.5q-76 0 -129 53.5t-53 129.5zM131 484q0 -40 26 -67.5t63 -27.5q38 0 64 27.5t26 67.5q0 38 -26.5 66t-63.5 28t-63 -27.5t-26 -66.5z" />
    <glyph glyph-name="plusminus" unicode="&#xb1;" horiz-adv-x="521" 
d="M319 529v-116h146v-84h-146v-117h-113v117h-146v84h146v116h113zM60 100v76h397v-76h-397z" />
    <glyph glyph-name="twosuperior" unicode="&#xb2;" horiz-adv-x="288" 
d="M29 480v40q0 68 45 98l63 41q35 21 35 53q0 29 -29 29q-33 0 -33 -32v-8h-78v10q0 44 31.5 73t82.5 29q50 0 80 -26.5t30 -70.5q0 -67 -65 -110l-51 -32q-17 -11 -17 -21h133v-73h-227z" />
    <glyph glyph-name="threesuperior" unicode="&#xb3;" horiz-adv-x="283" 
d="M110 619v61h21q19 0 27.5 7t8.5 25q0 31 -30 31t-30 -33v-5h-78v8q0 44 30.5 73t80.5 29q49 0 78 -26t29 -67q0 -48 -33 -69q39 -23 39 -77q0 -45 -31.5 -72t-83.5 -27q-51 0 -81 28.5t-30 74.5v8h78v-6q0 -36 32 -36q33 0 33 38q0 35 -39 35h-21z" />
    <glyph glyph-name="acute" unicode="&#xb4;" horiz-adv-x="228" 
d="M208 652l-132 -110l-56 49l112 132z" />
    <glyph glyph-name="mu" unicode="&#xb5;" horiz-adv-x="512" 
d="M66 -187v677h120v-319q0 -34 19 -55t53 -21q35 0 56.5 22.5t23.5 59.5v313h121v-490h-104l-9 47q-44 -57 -123 -57q-22 0 -42 11l5 -144v-44h-120z" />
    <glyph glyph-name="paragraph" unicode="&#xb6;" horiz-adv-x="551" 
d="M279 548v-356h-14q-103 0 -166.5 62t-63.5 171q0 105 68 168.5t177 63.5h194v-768h-124v659h-71z" />
    <glyph glyph-name="periodcentered" unicode="&#xb7;" horiz-adv-x="240" 
d="M50 278q0 30 20.5 50.5t49.5 20.5t50 -20.5t21 -50.5q0 -29 -21 -49.5t-50 -20.5t-49.5 20.5t-20.5 49.5z" />
    <glyph glyph-name="cedilla" unicode="&#xb8;" horiz-adv-x="240" 
d="M70 -97l-21 16l28 96h67l-17 -55h12q39 0 60 -19t21 -53q0 -35 -22 -55t-59 -20h-112v57h101q19 0 19 17q0 16 -19 16h-58z" />
    <glyph glyph-name="onesuperior" unicode="&#xb9;" horiz-adv-x="241" 
d="M31 739v71h136v-258h56v-70h-192v70h55v187h-55z" />
    <glyph glyph-name="ordmasculine" unicode="&#xba;" horiz-adv-x="302" 
d="M125 566v-64q0 -30 26 -30q12 0 19.5 8.5t7.5 21.5v64q0 13 -7.5 21.5t-19.5 8.5q-26 0 -26 -30zM256 560v-53q0 -46 -29 -73.5t-76 -27.5t-76 27.5t-29 73.5v53q0 46 28.5 73.5t76.5 27.5q47 0 76 -27.5t29 -73.5z" />
    <glyph glyph-name="guillemotright" unicode="&#xbb;" horiz-adv-x="381" 
d="M140 398l58 -165l-58 -165h-89l45 165l-45 165h89zM275 398l62 -165l-62 -165h-89l49 165l-49 165h89z" />
    <glyph glyph-name="onequarter" unicode="&#xbc;" horiz-adv-x="665" 
d="M498 328h94v-197h34v-67h-34v-64h-81v64h-145v77zM439 131h72v102zM302 330l182 327h93l-192 -329l-182 -328h-94zM47 586v71h136v-259h56v-69h-192v69h55v188h-55z" />
    <glyph glyph-name="onehalf" unicode="&#xbd;" horiz-adv-x="667" 
d="M300 330l182 327h94l-192 -329l-183 -328h-93zM45 586v71h136v-259h57v-69h-193v69h55v188h-55zM395 0v40q0 67 46 98l63 41q35 21 35 53q0 29 -29 29q-33 0 -33 -32v-8h-78v10q0 44 31.5 73t82.5 29q50 0 80 -26.5t30 -70.5q0 -67 -65 -110l-51 -32q-15 -10 -18 -21h134
v-73h-228z" />
    <glyph glyph-name="threequarters" unicode="&#xbe;" horiz-adv-x="657" 
d="M490 328h93v-197h35v-67h-35v-64h-81v64h-144v77zM430 131h72v102zM293 330l183 327h93l-192 -329l-183 -328h-93zM126 470v61h20q20 0 28 7t8 25q0 32 -29 32q-14 0 -22.5 -9t-8.5 -24v-5h-78v7q0 44 31 73.5t80 29.5t78.5 -26t29.5 -67q0 -50 -34 -70q39 -20 39 -76
q0 -45 -31 -72t-83 -27q-51 0 -81.5 28t-30.5 75v8h78v-6q0 -36 32 -36q34 0 34 38q0 34 -40 34h-20z" />
    <glyph glyph-name="questiondown" unicode="&#xbf;" horiz-adv-x="489" 
d="M201 303h100l4 -37q4 -9 1 -22.5t-1.5 -20t-5 -18.5t-7.5 -17t-9.5 -16t-11.5 -15.5t-13 -14.5l-14.5 -14.5t-15.5 -15t-16 -15.5q-51 -49 -51 -87q0 -34 22 -54.5t63 -20.5q42 0 65.5 23t23.5 62v27h120v-29q0 -86 -58.5 -140.5t-153.5 -54.5t-152.5 49.5t-57.5 132.5
q0 79 77 151q6 5 20.5 19t20 19.5t16 17t15 19.5t9.5 19.5t6 23.5zM319 431q0 -29 -20 -49t-48 -20q-29 0 -49 20t-20 49t20 49t49 20t48.5 -20t19.5 -49z" />
    <glyph glyph-name="Agrave" unicode="&#xc0;" horiz-adv-x="556" 
d="M138 0h-122l196 657h132l196 -657h-128l-33 118h-209zM274 503l-76 -279h153zM278 694l-132 110l76 71l112 -133z" />
    <glyph glyph-name="Aacute" unicode="&#xc1;" horiz-adv-x="556" 
d="M138 0h-122l196 657h132l196 -657h-128l-33 118h-209zM274 503l-76 -279h153zM407 804l-132 -110l-56 48l112 133z" />
    <glyph glyph-name="Acircumflex" unicode="&#xc2;" horiz-adv-x="556" 
d="M138 0h-122l196 657h132l196 -657h-128l-33 118h-209zM274 503l-76 -279h153zM251 868h53l108 -134l-47 -40l-89 78l-87 -77l-46 39z" />
    <glyph glyph-name="Atilde" unicode="&#xc3;" horiz-adv-x="556" 
d="M138 0h-122l196 657h132l196 -657h-128l-33 118h-209zM274 503l-76 -279h153zM375 818h62q1 -9 1 -25q0 -49 -23 -73t-61 -24q-28 0 -58 15l-43 21q-20 10 -32 10q-15 0 -24.5 -11.5t-11.5 -19.5t-2 -12h-62q-4 20 -4 28q0 42 26.5 69t67.5 27q26 0 53 -13l41 -20
q28 -14 39 -14q17 0 24 15.5t7 26.5z" />
    <glyph glyph-name="Adieresis" unicode="&#xc4;" horiz-adv-x="556" 
d="M138 0h-122l196 657h132l196 -657h-128l-33 118h-209zM274 503l-76 -279h153zM149 765q0 25 17.5 42t42.5 17t41.5 -17t16.5 -42t-16.5 -42.5t-41.5 -17.5t-42.5 17.5t-17.5 42.5zM289 765q0 25 17 42t42 17t42 -17t17 -42t-17 -42.5t-42 -17.5t-42 17.5t-17 42.5z" />
    <glyph glyph-name="Aring" unicode="&#xc5;" horiz-adv-x="556" 
d="M138 0h-122l187 628q-33 28 -33 77q0 44 30 73.5t77 29.5q48 0 78.5 -29.5t30.5 -73.5q0 -48 -34 -77l188 -628h-128l-33 118h-209zM274 503l-76 -279h153zM277 658q20 0 31.5 13t11.5 34q0 20 -11.5 32.5t-31.5 12.5q-19 0 -30.5 -12.5t-11.5 -32.5q0 -21 11.5 -34
t30.5 -13z" />
    <glyph glyph-name="AE" unicode="&#xc6;" horiz-adv-x="837" 
d="M132 0h-133l318 657h468v-112h-283v-156h255v-110h-255v-167h292v-112h-416v117h-193zM232 223h146v321z" />
    <glyph glyph-name="Ccedilla" unicode="&#xc7;" horiz-adv-x="554" 
d="M228 -97l-21 16l22 77q-79 15 -126 71t-47 142v239q0 102 60.5 160.5t169.5 58.5q101 0 162.5 -58.5t61.5 -157.5v-16h-120v15q0 48 -28 76.5t-78 28.5q-48 0 -75.5 -29.5t-27.5 -79.5v-235q0 -50 27.5 -79.5t75.5 -29.5q50 0 78 28.5t28 76.5v18h120v-19q0 -97 -59 -155
t-157 -61l-9 -30h12q39 0 60 -19t21 -53q0 -35 -22 -55t-59 -20h-112v57h101q19 0 19 17q0 16 -19 16h-58z" />
    <glyph glyph-name="Egrave" unicode="&#xc8;" horiz-adv-x="525" 
d="M278 694l-132 110l76 71l112 -133zM444 279h-246v-167h284v-112h-409v657h400v-112h-275v-156h246v-110z" />
    <glyph glyph-name="Eacute" unicode="&#xc9;" horiz-adv-x="525" 
d="M444 279h-246v-167h284v-112h-409v657h400v-112h-275v-156h246v-110zM408 804l-132 -110l-56 48l112 133z" />
    <glyph glyph-name="Ecircumflex" unicode="&#xca;" horiz-adv-x="525" 
d="M251 868h53l108 -134l-47 -40l-89 78l-87 -77l-46 39zM444 279h-246v-167h284v-112h-409v657h400v-112h-275v-156h246v-110z" />
    <glyph glyph-name="Edieresis" unicode="&#xcb;" horiz-adv-x="525" 
d="M444 279h-246v-167h284v-112h-409v657h400v-112h-275v-156h246v-110zM149 765q0 25 17.5 42t42.5 17t41.5 -17t16.5 -42t-16.5 -42.5t-41.5 -17.5t-42.5 17.5t-17.5 42.5zM289 765q0 25 17 42t42 17t42 -17t17 -42t-17 -42.5t-42 -17.5t-42 17.5t-17 42.5z" />
    <glyph glyph-name="Igrave" unicode="&#xcc;" horiz-adv-x="271" 
d="M198 657v-657h-125v657h125zM137 694l-132 110l76 71l112 -133z" />
    <glyph glyph-name="Iacute" unicode="&#xcd;" horiz-adv-x="271" 
d="M198 657v-657h-125v657h125zM267 804l-132 -110l-56 48l112 133z" />
    <glyph glyph-name="Icircumflex" unicode="&#xce;" horiz-adv-x="271" 
d="M198 657v-657h-125v657h125zM109 868h53l108 -134l-47 -40l-89 78l-87 -77l-46 39z" />
    <glyph glyph-name="Idieresis" unicode="&#xcf;" horiz-adv-x="271" 
d="M198 657v-657h-125v657h125zM7 765q0 25 17.5 42t42.5 17t41.5 -17t16.5 -42t-16.5 -42.5t-41.5 -17.5t-42.5 17.5t-17.5 42.5zM147 765q0 25 17 42t42 17t42 -17t17 -42t-17 -42.5t-42 -17.5t-42 17.5t-17 42.5z" />
    <glyph glyph-name="Eth" unicode="&#xd0;" horiz-adv-x="596" 
d="M305 657q111 0 174 -60t63 -164v-209q0 -104 -63 -164t-174 -60h-227v282h-67v102h67v273h227zM305 545h-102v-161h102v-102h-102v-170h102q53 0 82.5 30.5t29.5 83.5v205q0 53 -29.5 83.5t-82.5 30.5z" />
    <glyph glyph-name="Ntilde" unicode="&#xd1;" horiz-adv-x="595" 
d="M394 818h62q1 -9 1 -25q0 -49 -23 -73t-61 -24q-28 0 -58 15l-43 21q-20 10 -32 10q-15 0 -24.5 -11.5t-11.5 -19.5t-2 -12h-62q-4 20 -4 28q0 42 26.5 69t67.5 27q26 0 53 -13l41 -20q28 -14 39 -14q17 0 24 15.5t7 26.5zM522 657v-657h-102l-233 415v-415h-114v657h107
l228 -405v405h114z" />
    <glyph glyph-name="Ograve" unicode="&#xd2;" horiz-adv-x="573" 
d="M286 694l-132 110l76 71l112 -133zM180 446v-235q0 -50 28.5 -79.5t78.5 -29.5t78 29.5t28 79.5v235q0 50 -28 79.5t-78 29.5t-78.5 -29.5t-28.5 -79.5zM518 448v-239q0 -100 -63.5 -159.5t-167.5 -59.5t-168 59.5t-64 159.5v239q0 102 60.5 160.5t171.5 58.5
q104 0 167.5 -59.5t63.5 -159.5z" />
    <glyph glyph-name="Oacute" unicode="&#xd3;" horiz-adv-x="573" 
d="M419 804l-132 -110l-56 48l112 133zM180 446v-235q0 -50 28.5 -79.5t78.5 -29.5t78 29.5t28 79.5v235q0 50 -28 79.5t-78 29.5t-78.5 -29.5t-28.5 -79.5zM518 448v-239q0 -100 -63.5 -159.5t-167.5 -59.5t-168 59.5t-64 159.5v239q0 102 60.5 160.5t171.5 58.5
q104 0 167.5 -59.5t63.5 -159.5z" />
    <glyph glyph-name="Ocircumflex" unicode="&#xd4;" horiz-adv-x="573" 
d="M260 868h53l108 -134l-47 -40l-89 78l-87 -77l-46 39zM180 446v-235q0 -50 28.5 -79.5t78.5 -29.5t78 29.5t28 79.5v235q0 50 -28 79.5t-78 29.5t-78.5 -29.5t-28.5 -79.5zM518 448v-239q0 -100 -63.5 -159.5t-167.5 -59.5t-168 59.5t-64 159.5v239q0 102 60.5 160.5
t171.5 58.5q104 0 167.5 -59.5t63.5 -159.5z" />
    <glyph glyph-name="Otilde" unicode="&#xd5;" horiz-adv-x="573" 
d="M180 446v-235q0 -50 28.5 -79.5t78.5 -29.5t78 29.5t28 79.5v235q0 50 -28 79.5t-78 29.5t-78.5 -29.5t-28.5 -79.5zM518 448v-239q0 -100 -63.5 -159.5t-167.5 -59.5t-168 59.5t-64 159.5v239q0 102 60.5 160.5t171.5 58.5q104 0 167.5 -59.5t63.5 -159.5zM384 818h62
q1 -9 1 -25q0 -49 -23 -73t-61 -24q-28 0 -58 15l-43 21q-20 10 -32 10q-15 0 -24.5 -11.5t-11.5 -19.5t-2 -12h-62q-4 20 -4 28q0 42 26.5 69t67.5 27q26 0 53 -13l41 -20q28 -14 39 -14q17 0 24 15.5t7 26.5z" />
    <glyph glyph-name="Odieresis" unicode="&#xd6;" horiz-adv-x="573" 
d="M180 446v-235q0 -50 28.5 -79.5t78.5 -29.5t78 29.5t28 79.5v235q0 50 -28 79.5t-78 29.5t-78.5 -29.5t-28.5 -79.5zM518 448v-239q0 -100 -63.5 -159.5t-167.5 -59.5t-168 59.5t-64 159.5v239q0 102 60.5 160.5t171.5 58.5q104 0 167.5 -59.5t63.5 -159.5zM158 765
q0 25 17.5 42t42.5 17t41.5 -17t16.5 -42t-16.5 -42.5t-41.5 -17.5t-42.5 17.5t-17.5 42.5zM298 765q0 25 17 42t42 17t42 -17t17 -42t-17 -42.5t-42 -17.5t-42 17.5t-17 42.5z" />
    <glyph glyph-name="multiply" unicode="&#xd7;" horiz-adv-x="457" 
d="M44 223l105 104l-104 105l79 79l104 -105l106 106l78 -79l-106 -106l108 -106l-79 -79l-108 106l-104 -104z" />
    <glyph glyph-name="Oslash" unicode="&#xd8;" horiz-adv-x="573" 
d="M518 448v-239q0 -100 -63.5 -159.5t-167.5 -59.5q-66 0 -119 25l-32 -64h-73l51 103q-59 57 -59 155v239q0 102 60.5 160.5t171.5 58.5q64 0 117 -25l32 64h74l-51 -103q59 -59 59 -155zM396 449q0 13 -3 27l-176 -357q28 -20 70 -20q51 0 80 30t29 79v241zM177 449v-241
q0 -18 2 -26l176 356q-26 20 -68 20q-51 0 -80.5 -30t-29.5 -79z" />
    <glyph glyph-name="Ugrave" unicode="&#xd9;" horiz-adv-x="588" 
d="M294 694l-132 110l76 71l112 -133zM395 657h124v-448q0 -100 -62 -159.5t-163 -59.5t-163 59.5t-62 159.5v448h124v-446q0 -50 27 -79.5t74 -29.5t74 29.5t27 79.5v446z" />
    <glyph glyph-name="Uacute" unicode="&#xda;" horiz-adv-x="588" 
d="M395 657h124v-448q0 -100 -62 -159.5t-163 -59.5t-163 59.5t-62 159.5v448h124v-446q0 -50 27 -79.5t74 -29.5t74 29.5t27 79.5v446zM424 804l-132 -110l-56 48l112 133z" />
    <glyph glyph-name="Ucircumflex" unicode="&#xdb;" horiz-adv-x="588" 
d="M268 868h53l108 -134l-47 -40l-89 78l-87 -77l-46 39zM395 657h124v-448q0 -100 -62 -159.5t-163 -59.5t-163 59.5t-62 159.5v448h124v-446q0 -50 27 -79.5t74 -29.5t74 29.5t27 79.5v446z" />
    <glyph glyph-name="Udieresis" unicode="&#xdc;" horiz-adv-x="588" 
d="M395 657h124v-448q0 -100 -62 -159.5t-163 -59.5t-163 59.5t-62 159.5v448h124v-446q0 -50 27 -79.5t74 -29.5t74 29.5t27 79.5v446zM165 765q0 25 17.5 42t42.5 17t41.5 -17t16.5 -42t-16.5 -42.5t-41.5 -17.5t-42.5 17.5t-17.5 42.5zM305 765q0 25 17 42t42 17t42 -17
t17 -42t-17 -42.5t-42 -17.5t-42 17.5t-17 42.5z" />
    <glyph glyph-name="Yacute" unicode="&#xdd;" horiz-adv-x="508" 
d="M7 657h132l118 -271l118 271h126l-185 -391v-266h-124v264zM386 804l-132 -110l-56 48l112 133z" />
    <glyph glyph-name="Thorn" unicode="&#xde;" horiz-adv-x="561" 
d="M198 657v-112h104q99 0 163 -59t64 -155q0 -99 -63.5 -159.5t-163.5 -60.5h-104v-111h-125v657h125zM291 435h-93v-214h93q52 0 81.5 29t29.5 79q0 48 -30 77t-81 29z" />
    <glyph glyph-name="germandbls" unicode="&#xdf;" horiz-adv-x="512" 
d="M234 0v99h16q47 0 73.5 27.5t26.5 74.5t-26 75t-71 28h-19v99h11q42 0 66 23.5t24 65.5q0 39 -19.5 62t-58.5 23q-77 0 -77 -90v-487h-119v480q0 94 51.5 145.5t145.5 51.5q92 0 146 -47.5t54 -125.5q0 -107 -97 -145v-2q113 -40 113 -166q0 -87 -57.5 -139t-149.5 -52
h-33z" />
    <glyph glyph-name="agrave" unicode="&#xe0;" 
d="M46 180v130q0 86 43.5 138t123.5 52q77 0 119 -56l9 46h103v-490h-103l-9 46q-41 -56 -119 -56q-80 0 -123.5 52t-43.5 138zM243 95q37 0 59 24.5t22 61.5v127q0 38 -22 62.5t-59 24.5q-36 0 -56 -23.5t-20 -61.5v-131q0 -37 20 -60.5t56 -23.5zM246 542l-132 110l76 71
l112 -132z" />
    <glyph glyph-name="aacute" unicode="&#xe1;" 
d="M46 180v130q0 86 43.5 138t123.5 52q77 0 119 -56l9 46h103v-490h-103l-9 46q-41 -56 -119 -56q-80 0 -123.5 52t-43.5 138zM243 95q37 0 59 24.5t22 61.5v127q0 38 -22 62.5t-59 24.5q-36 0 -56 -23.5t-20 -61.5v-131q0 -37 20 -60.5t56 -23.5zM377 652l-132 -110
l-56 49l112 132z" />
    <glyph glyph-name="acircumflex" unicode="&#xe2;" 
d="M46 180v130q0 86 43.5 138t123.5 52q77 0 119 -56l9 46h103v-490h-103l-9 46q-41 -56 -119 -56q-80 0 -123.5 52t-43.5 138zM243 95q37 0 59 24.5t22 61.5v127q0 38 -22 62.5t-59 24.5q-36 0 -56 -23.5t-20 -61.5v-131q0 -37 20 -60.5t56 -23.5zM219 715h53l108 -133
l-47 -40l-89 77l-87 -76l-46 39z" />
    <glyph glyph-name="atilde" unicode="&#xe3;" 
d="M46 180v130q0 86 43.5 138t123.5 52q77 0 119 -56l9 46h103v-490h-103l-9 46q-41 -56 -119 -56q-80 0 -123.5 52t-43.5 138zM243 95q37 0 59 24.5t22 61.5v127q0 38 -22 62.5t-59 24.5q-36 0 -56 -23.5t-20 -61.5v-131q0 -37 20 -60.5t56 -23.5zM342 669h62q1 -10 1 -25
q0 -49 -23 -73t-61 -24q-28 0 -58 15l-43 21q-20 10 -32 10q-15 0 -24.5 -11.5t-11.5 -19.5t-2 -12h-62q-4 14 -4 28q0 42 26.5 69t67.5 27q26 0 53 -13l41 -20q28 -14 39 -14q17 0 24 15.5t7 26.5z" />
    <glyph glyph-name="adieresis" unicode="&#xe4;" 
d="M46 180v130q0 86 43.5 138t123.5 52q77 0 119 -56l9 46h103v-490h-103l-9 46q-41 -56 -119 -56q-80 0 -123.5 52t-43.5 138zM243 95q37 0 59 24.5t22 61.5v127q0 38 -22 62.5t-59 24.5q-36 0 -56 -23.5t-20 -61.5v-131q0 -37 20 -60.5t56 -23.5zM116 612q0 25 17.5 41.5
t42.5 16.5t41.5 -16.5t16.5 -41.5t-17 -43t-41 -18q-25 0 -42.5 18t-17.5 43zM256 612q0 25 17 41.5t42 16.5t42 -16.5t17 -41.5t-17 -43t-42 -18t-42 18t-17 43z" />
    <glyph glyph-name="aring" unicode="&#xe5;" 
d="M46 180v130q0 86 43.5 138t123.5 52q77 0 119 -56l9 46h103v-490h-103l-9 46q-41 -56 -119 -56q-80 0 -123.5 52t-43.5 138zM243 95q37 0 59 24.5t22 61.5v127q0 38 -22 62.5t-59 24.5q-36 0 -56 -23.5t-20 -61.5v-131q0 -37 20 -60.5t56 -23.5zM244 584q20 0 31.5 13
t11.5 33t-11.5 32.5t-31.5 12.5q-19 0 -30.5 -12.5t-11.5 -32.5t11.5 -33t30.5 -13zM244 527q-47 0 -77 29.5t-30 73.5t30 73.5t77 29.5q48 0 78.5 -29.5t30.5 -73.5t-30.5 -73.5t-78.5 -29.5z" />
    <glyph glyph-name="ae" unicode="&#xe6;" horiz-adv-x="737" 
d="M37 135q0 71 46.5 106t126.5 35h96v50q0 34 -18.5 55t-53.5 21q-33 0 -52.5 -20.5t-19.5 -52.5v-12h-117v5q0 82 51 130t134 48q91 0 138 -61q50 61 135 61q86 0 139 -54t53 -143v-81h-271v-50q0 -37 22 -61.5t59 -24.5q36 0 56 21t20 56v7h114v-4q0 -80 -53 -128
t-139 -48q-105 0 -153 84q-18 -38 -57.5 -61t-95.5 -23q-73 0 -116.5 37t-43.5 108zM227 85q38 0 58.5 24t20.5 63v20h-73q-74 0 -74 -54q0 -53 68 -53zM424 317v-12h157v12q0 38 -21 62.5t-57 24.5q-37 0 -58 -24.5t-21 -62.5z" />
    <glyph glyph-name="ccedilla" unicode="&#xe7;" horiz-adv-x="474" 
d="M186 -97l-21 16l22 77q-66 15 -104.5 65.5t-38.5 125.5v116q0 90 54.5 143.5t143.5 53.5q87 0 140.5 -50t53.5 -133v-4h-116v12q0 32 -21 52.5t-57 20.5t-56.5 -24.5t-20.5 -62.5v-133q0 -38 20.5 -62t56.5 -24q37 0 57.5 20t20.5 56v16h116v-6q0 -85 -50 -135t-134 -53
l-9 -30h12q39 0 60 -19t21 -53q0 -35 -22 -55t-59 -20h-112v57h101q19 0 19 17q0 16 -19 16h-58z" />
    <glyph glyph-name="egrave" unicode="&#xe8;" horiz-adv-x="475" 
d="M319 170h114v-4q0 -80 -52.5 -128t-138.5 -48q-89 0 -143.5 53t-54.5 142v118q0 90 54.5 143.5t143.5 53.5q85 0 138 -54t53 -143v-81h-271v-50q0 -37 22 -61.5t59 -24.5q36 0 56 21t20 56v7zM162 317v-12h157v12q0 38 -21 62.5t-56 24.5q-37 0 -58.5 -24t-21.5 -63z
M240 542l-132 110l76 71l112 -132z" />
    <glyph glyph-name="eacute" unicode="&#xe9;" horiz-adv-x="475" 
d="M371 652l-132 -110l-56 49l112 132zM319 170h114v-4q0 -80 -52.5 -128t-138.5 -48q-89 0 -143.5 53t-54.5 142v118q0 90 54.5 143.5t143.5 53.5q85 0 138 -54t53 -143v-81h-271v-50q0 -37 22 -61.5t59 -24.5q36 0 56 21t20 56v7zM162 317v-12h157v12q0 38 -21 62.5
t-56 24.5q-37 0 -58.5 -24t-21.5 -63z" />
    <glyph glyph-name="ecircumflex" unicode="&#xea;" horiz-adv-x="475" 
d="M213 715h53l108 -133l-47 -40l-89 77l-87 -76l-46 39zM319 170h114v-4q0 -80 -52.5 -128t-138.5 -48q-89 0 -143.5 53t-54.5 142v118q0 90 54.5 143.5t143.5 53.5q85 0 138 -54t53 -143v-81h-271v-50q0 -37 22 -61.5t59 -24.5q36 0 56 21t20 56v7zM162 317v-12h157v12
q0 38 -21 62.5t-56 24.5q-37 0 -58.5 -24t-21.5 -63z" />
    <glyph glyph-name="edieresis" unicode="&#xeb;" horiz-adv-x="475" 
d="M111 612q0 25 17.5 41.5t42.5 16.5t41.5 -16.5t16.5 -41.5t-17 -43t-41 -18q-25 0 -42.5 18t-17.5 43zM251 612q0 25 17 41.5t42 16.5t42 -16.5t17 -41.5t-17 -43t-42 -18t-42 18t-17 43zM319 170h114v-4q0 -80 -52.5 -128t-138.5 -48q-89 0 -143.5 53t-54.5 142v118
q0 90 54.5 143.5t143.5 53.5q85 0 138 -54t53 -143v-81h-271v-50q0 -37 22 -61.5t59 -24.5q36 0 56 21t20 56v7zM162 317v-12h157v12q0 38 -21 62.5t-56 24.5q-37 0 -58.5 -24t-21.5 -63z" />
    <glyph glyph-name="igrave" unicode="&#xec;" horiz-adv-x="243" 
d="M61 490h121v-490h-121v490zM121 542l-132 110l76 71l112 -132z" />
    <glyph glyph-name="iacute" unicode="&#xed;" horiz-adv-x="243" 
d="M252 652l-132 -110l-56 49l112 132zM61 490h121v-490h-121v490z" />
    <glyph glyph-name="icircumflex" unicode="&#xee;" horiz-adv-x="243" 
d="M95 715h53l108 -133l-47 -40l-89 77l-87 -76l-46 39zM61 490h121v-490h-121v490z" />
    <glyph glyph-name="idieresis" unicode="&#xef;" horiz-adv-x="243" 
d="M-7 612q0 25 17.5 41.5t42.5 16.5t41.5 -16.5t16.5 -41.5t-17 -43t-41 -18q-25 0 -42.5 18t-17.5 43zM133 612q0 25 17 41.5t42 16.5t42 -16.5t17 -41.5t-17 -43t-42 -18t-42 18t-17 43zM61 490h121v-490h-121v490z" />
    <glyph glyph-name="eth" unicode="&#xf0;" horiz-adv-x="499" 
d="M424 612l-47 -15q67 -87 67 -225v-185q0 -90 -55 -143.5t-144 -53.5q-90 0 -145 53.5t-55 143.5v116q0 91 45.5 144t126.5 53q69 0 107 -50q-12 71 -44 116l-97 -31v63l54 17l-56 62h122l29 -31l92 29v-63zM165 311v-133q0 -38 21.5 -62t58.5 -24t58 24t21 62v133
q0 38 -21 62.5t-58 24.5t-58.5 -24t-21.5 -63z" />
    <glyph glyph-name="ntilde" unicode="&#xf1;" horiz-adv-x="517" 
d="M182 0h-121v490h104l8 -48q45 58 124 58q80 0 121 -49.5t41 -133.5v-317h-120v310q0 38 -20 61.5t-56 23.5q-37 0 -59 -24.5t-22 -62.5v-308zM359 669h62q1 -10 1 -25q0 -49 -23 -73t-61 -24q-28 0 -58 15l-43 21q-20 10 -32 10q-15 0 -24.5 -11.5t-11.5 -19.5t-2 -12
h-62q-4 14 -4 28q0 42 26.5 69t67.5 27q26 0 53 -13l41 -20q28 -14 39 -14q17 0 24 15.5t7 26.5z" />
    <glyph glyph-name="ograve" unicode="&#xf2;" horiz-adv-x="488" 
d="M165 311v-133q0 -38 21 -62t58 -24t58 24t21 62v133q0 38 -21 62.5t-58 24.5t-58 -24.5t-21 -62.5zM443 303v-116q0 -90 -54.5 -143.5t-144.5 -53.5t-145 53.5t-55 143.5v116q0 90 55 143.5t145 53.5t144.5 -53.5t54.5 -143.5zM243 542l-132 110l76 71l112 -132z" />
    <glyph glyph-name="oacute" unicode="&#xf3;" horiz-adv-x="488" 
d="M375 652l-132 -110l-56 49l112 132zM165 311v-133q0 -38 21 -62t58 -24t58 24t21 62v133q0 38 -21 62.5t-58 24.5t-58 -24.5t-21 -62.5zM443 303v-116q0 -90 -54.5 -143.5t-144.5 -53.5t-145 53.5t-55 143.5v116q0 90 55 143.5t145 53.5t144.5 -53.5t54.5 -143.5z" />
    <glyph glyph-name="ocircumflex" unicode="&#xf4;" horiz-adv-x="488" 
d="M217 715h53l108 -133l-47 -40l-89 77l-87 -76l-46 39zM165 311v-133q0 -38 21 -62t58 -24t58 24t21 62v133q0 38 -21 62.5t-58 24.5t-58 -24.5t-21 -62.5zM443 303v-116q0 -90 -54.5 -143.5t-144.5 -53.5t-145 53.5t-55 143.5v116q0 90 55 143.5t145 53.5t144.5 -53.5
t54.5 -143.5z" />
    <glyph glyph-name="otilde" unicode="&#xf5;" horiz-adv-x="488" 
d="M165 311v-133q0 -38 21 -62t58 -24t58 24t21 62v133q0 38 -21 62.5t-58 24.5t-58 -24.5t-21 -62.5zM443 303v-116q0 -90 -54.5 -143.5t-144.5 -53.5t-145 53.5t-55 143.5v116q0 90 55 143.5t145 53.5t144.5 -53.5t54.5 -143.5zM341 669h62q1 -10 1 -25q0 -49 -23 -73
t-61 -24q-28 0 -58 15l-43 21q-20 10 -32 10q-15 0 -24.5 -11.5t-11.5 -19.5t-2 -12h-62q-4 14 -4 28q0 42 26.5 69t67.5 27q26 0 53 -13l41 -20q28 -14 39 -14q17 0 24 15.5t7 26.5z" />
    <glyph glyph-name="odieresis" unicode="&#xf6;" horiz-adv-x="488" 
d="M115 612q0 25 17.5 41.5t42.5 16.5t41.5 -16.5t16.5 -41.5t-17 -43t-41 -18q-25 0 -42.5 18t-17.5 43zM255 612q0 25 17 41.5t42 16.5t42 -16.5t17 -41.5t-17 -43t-42 -18t-42 18t-17 43zM165 311v-133q0 -38 21 -62t58 -24t58 24t21 62v133q0 38 -21 62.5t-58 24.5
t-58 -24.5t-21 -62.5zM443 303v-116q0 -90 -54.5 -143.5t-144.5 -53.5t-145 53.5t-55 143.5v116q0 90 55 143.5t145 53.5t144.5 -53.5t54.5 -143.5z" />
    <glyph glyph-name="divide" unicode="&#xf7;" horiz-adv-x="499" 
d="M47 276v103h405v-103h-405zM188 484q0 25 18 43t43 18t43 -18t18 -43t-18 -43t-43 -18t-43 18t-18 43zM188 171q0 25 18 43.5t43 18.5t43 -18.5t18 -43.5q0 -24 -18 -42.5t-43 -18.5t-43 18.5t-18 42.5z" />
    <glyph glyph-name="oslash" unicode="&#xf8;" horiz-adv-x="488" 
d="M443 303v-116q0 -90 -54.5 -143.5t-144.5 -53.5q-48 0 -92 18l-29 -57h-70l48 90q-57 54 -57 146v116q0 90 55 143.5t145 53.5q47 0 90 -18l31 58h70l-49 -92q57 -55 57 -145zM326 314q0 7 -2 21l-125 -235q19 -11 45 -11q38 0 60 24.5t22 62.5v138zM162 314v-138
q0 -15 2 -22l124 235q-19 11 -44 11q-38 0 -60 -24t-22 -62z" />
    <glyph glyph-name="ugrave" unicode="&#xf9;" horiz-adv-x="511" 
d="M57 164v326h121v-319q0 -34 18.5 -55t52.5 -21q37 0 59 24.5t22 61.5v309h120v-490h-103l-10 47q-42 -57 -122 -57q-78 0 -118 47.5t-40 126.5zM253 542l-132 110l76 71l112 -132z" />
    <glyph glyph-name="uacute" unicode="&#xfa;" horiz-adv-x="511" 
d="M386 652l-132 -110l-56 49l112 132zM57 164v326h121v-319q0 -34 18.5 -55t52.5 -21q37 0 59 24.5t22 61.5v309h120v-490h-103l-10 47q-42 -57 -122 -57q-78 0 -118 47.5t-40 126.5z" />
    <glyph glyph-name="ucircumflex" unicode="&#xfb;" horiz-adv-x="511" 
d="M227 715h53l108 -133l-47 -40l-89 77l-87 -76l-46 39zM57 164v326h121v-319q0 -34 18.5 -55t52.5 -21q37 0 59 24.5t22 61.5v309h120v-490h-103l-10 47q-42 -57 -122 -57q-78 0 -118 47.5t-40 126.5z" />
    <glyph glyph-name="udieresis" unicode="&#xfc;" horiz-adv-x="511" 
d="M125 612q0 25 17.5 41.5t42.5 16.5t41.5 -16.5t16.5 -41.5t-17 -43t-41 -18q-25 0 -42.5 18t-17.5 43zM265 612q0 25 17 41.5t42 16.5t42 -16.5t17 -41.5t-17 -43t-42 -18t-42 18t-17 43zM57 164v326h121v-319q0 -34 18.5 -55t52.5 -21q37 0 59 24.5t22 61.5v309h120
v-490h-103l-10 47q-42 -57 -122 -57q-78 0 -118 47.5t-40 126.5z" />
    <glyph glyph-name="yacute" unicode="&#xfd;" horiz-adv-x="464" 
d="M231 -187h-113l60 173l-162 504h129l90 -328l91 328h123zM365 652l-132 -110l-56 49l112 132z" />
    <glyph glyph-name="thorn" unicode="&#xfe;" 
d="M182 677v-224q40 47 111 47q80 0 123 -52t43 -138v-130q0 -86 -43 -138t-123 -52q-72 0 -111 46v-223h-121v864h121zM263 395q-37 0 -59 -24.5t-22 -62.5v-127q0 -37 22 -61.5t59 -24.5q36 0 56 23.5t20 60.5v131q0 38 -20 61.5t-56 23.5z" />
    <glyph glyph-name="ydieresis" unicode="&#xff;" horiz-adv-x="464" 
d="M231 -187h-113l60 173l-162 504h129l90 -328l91 328h123zM104 612q0 25 17.5 41.5t42.5 16.5t41.5 -16.5t16.5 -41.5t-17 -43t-41 -18q-25 0 -42.5 18t-17.5 43zM244 612q0 25 17 41.5t42 16.5t42 -16.5t17 -41.5t-17 -43t-42 -18t-42 18t-17 43z" />
    <glyph glyph-name="Amacron" unicode="&#x100;" horiz-adv-x="556" 
d="M138 0h-122l196 657h132l196 -657h-128l-33 118h-209zM274 503l-76 -279h153zM158 721v85h240v-85h-240z" />
    <glyph glyph-name="amacron" unicode="&#x101;" 
d="M46 180v130q0 86 43.5 138t123.5 52q77 0 119 -56l9 46h103v-490h-103l-9 46q-41 -56 -119 -56q-80 0 -123.5 52t-43.5 138zM243 95q37 0 59 24.5t22 61.5v127q0 38 -22 62.5t-59 24.5q-36 0 -56 -23.5t-20 -61.5v-131q0 -37 20 -60.5t56 -23.5zM125 563v85h240v-85h-240
z" />
    <glyph glyph-name="Abreve" unicode="&#x102;" horiz-adv-x="556" 
d="M138 0h-122l196 657h132l196 -657h-128l-33 118h-209zM274 503l-76 -279h153zM324 825h72v-21q0 -47 -33 -78.5t-86 -31.5q-52 0 -85 31.5t-33 78.5v21h72v-21q0 -21 12 -34t34 -13t34.5 13t12.5 34v21z" />
    <glyph glyph-name="abreve" unicode="&#x103;" 
d="M46 180v130q0 86 43.5 138t123.5 52q77 0 119 -56l9 46h103v-490h-103l-9 46q-41 -56 -119 -56q-80 0 -123.5 52t-43.5 138zM243 95q37 0 59 24.5t22 61.5v127q0 38 -22 62.5t-59 24.5q-36 0 -56 -23.5t-20 -61.5v-131q0 -37 20 -60.5t56 -23.5zM291 673h72v-21
q0 -47 -33 -78.5t-86 -31.5q-52 0 -85 31.5t-33 78.5v21h72v-21q0 -20 12 -33.5t34 -13.5t34.5 13.5t12.5 33.5v21z" />
    <glyph glyph-name="Aogonek" unicode="&#x104;" horiz-adv-x="556" 
d="M453 -125h48v-68h-63q-48 0 -73 22.5t-25 57.5q0 37 20 67t51 48l-32 116h-209l-32 -118h-122l196 657h132l196 -657h-63q-66 -45 -66 -92q0 -33 42 -33zM274 503l-76 -279h153z" />
    <glyph glyph-name="aogonek" unicode="&#x105;" 
d="M382 -125h48v-68h-63q-48 0 -73 22.5t-25 57.5q0 37 20 67t51 48l-8 44q-41 -56 -119 -56q-80 0 -123.5 52t-43.5 138v130q0 86 43.5 138t123.5 52q77 0 119 -56l9 46h103v-490h-38q-66 -45 -66 -92q0 -33 42 -33zM243 95q37 0 59 24.5t22 61.5v127q0 38 -22 62.5
t-59 24.5q-36 0 -56 -23.5t-20 -61.5v-131q0 -37 20 -60.5t56 -23.5z" />
    <glyph glyph-name="Cacute" unicode="&#x106;" horiz-adv-x="554" 
d="M389 225h120v-19q0 -99 -61.5 -157.5t-162.5 -58.5q-103 0 -166.5 59.5t-63.5 159.5v239q0 102 60.5 160.5t169.5 58.5q101 0 162.5 -58.5t61.5 -157.5v-16h-120v15q0 48 -28 76.5t-78 28.5q-48 0 -75.5 -29.5t-27.5 -79.5v-235q0 -50 27.5 -79.5t75.5 -29.5
q50 0 78 28.5t28 76.5v18zM413 804l-132 -110l-56 48l112 133z" />
    <glyph glyph-name="cacute" unicode="&#x107;" horiz-adv-x="474" 
d="M372 652l-132 -110l-56 49l112 132zM320 184h116v-6q0 -88 -53 -138t-141 -50q-89 0 -143.5 53.5t-54.5 143.5v116q0 90 54.5 143.5t143.5 53.5q87 0 140.5 -50t53.5 -133v-4h-116v12q0 32 -21 52.5t-57 20.5t-56.5 -24.5t-20.5 -62.5v-133q0 -38 20.5 -62t56.5 -24
q37 0 57.5 20t20.5 56v16z" />
    <glyph glyph-name="Ccircumflex" unicode="&#x108;" horiz-adv-x="554" 
d="M389 225h120v-19q0 -99 -61.5 -157.5t-162.5 -58.5q-103 0 -166.5 59.5t-63.5 159.5v239q0 102 60.5 160.5t169.5 58.5q101 0 162.5 -58.5t61.5 -157.5v-16h-120v15q0 48 -28 76.5t-78 28.5q-48 0 -75.5 -29.5t-27.5 -79.5v-235q0 -50 27.5 -79.5t75.5 -29.5
q50 0 78 28.5t28 76.5v18zM255 868h53l108 -134l-47 -40l-89 78l-87 -77l-46 39z" />
    <glyph glyph-name="ccircumflex" unicode="&#x109;" horiz-adv-x="474" 
d="M214 715h53l108 -133l-47 -40l-89 77l-87 -76l-46 39zM320 184h116v-6q0 -88 -53 -138t-141 -50q-89 0 -143.5 53.5t-54.5 143.5v116q0 90 54.5 143.5t143.5 53.5q87 0 140.5 -50t53.5 -133v-4h-116v12q0 32 -21 52.5t-57 20.5t-56.5 -24.5t-20.5 -62.5v-133
q0 -38 20.5 -62t56.5 -24q37 0 57.5 20t20.5 56v16z" />
    <glyph glyph-name="Cdotaccent" unicode="&#x10a;" horiz-adv-x="554" 
d="M212 775q0 29 20 48.5t48 19.5q29 0 49 -19.5t20 -48.5t-20 -49t-49 -20q-28 0 -48 20t-20 49zM389 225h120v-19q0 -99 -61.5 -157.5t-162.5 -58.5q-103 0 -166.5 59.5t-63.5 159.5v239q0 102 60.5 160.5t169.5 58.5q101 0 162.5 -58.5t61.5 -157.5v-16h-120v15
q0 48 -28 76.5t-78 28.5q-48 0 -75.5 -29.5t-27.5 -79.5v-235q0 -50 27.5 -79.5t75.5 -29.5q50 0 78 28.5t28 76.5v18z" />
    <glyph glyph-name="cdotaccent" unicode="&#x10b;" horiz-adv-x="474" 
d="M320 184h116v-6q0 -88 -53 -138t-141 -50q-89 0 -143.5 53.5t-54.5 143.5v116q0 90 54.5 143.5t143.5 53.5q87 0 140.5 -50t53.5 -133v-4h-116v12q0 32 -21 52.5t-57 20.5t-56.5 -24.5t-20.5 -62.5v-133q0 -38 20.5 -62t56.5 -24q37 0 57.5 20t20.5 56v16zM170 614
q0 29 20 49t48 20q29 0 49 -20t20 -49t-20 -48.5t-49 -19.5q-28 0 -48 20t-20 48z" />
    <glyph glyph-name="Ccaron" unicode="&#x10c;" horiz-adv-x="554" 
d="M389 225h120v-19q0 -99 -61.5 -157.5t-162.5 -58.5q-103 0 -166.5 59.5t-63.5 159.5v239q0 102 60.5 160.5t169.5 58.5q101 0 162.5 -58.5t61.5 -157.5v-16h-120v15q0 48 -28 76.5t-78 28.5q-48 0 -75.5 -29.5t-27.5 -79.5v-235q0 -50 27.5 -79.5t75.5 -29.5
q50 0 78 28.5t28 76.5v18zM308 693h-53l-108 134l48 40l88 -78l88 77l45 -39z" />
    <glyph glyph-name="ccaron" unicode="&#x10d;" horiz-adv-x="474" 
d="M266 542h-53l-108 134l48 40l88 -77l88 76l45 -39zM320 184h116v-6q0 -88 -53 -138t-141 -50q-89 0 -143.5 53.5t-54.5 143.5v116q0 90 54.5 143.5t143.5 53.5q87 0 140.5 -50t53.5 -133v-4h-116v12q0 32 -21 52.5t-57 20.5t-56.5 -24.5t-20.5 -62.5v-133q0 -38 20.5 -62
t56.5 -24q37 0 57.5 20t20.5 56v16z" />
    <glyph glyph-name="Dcaron" unicode="&#x10e;" horiz-adv-x="591" 
d="M300 657q111 0 174 -60t63 -164v-209q0 -104 -63 -164t-174 -60h-227v657h227zM300 545h-102v-433h102q53 0 82.5 30.5t29.5 83.5v205q0 53 -29.5 83.5t-82.5 30.5zM287 693h-53l-108 134l48 40l88 -78l88 77l45 -39z" />
    <glyph glyph-name="dcaron" unicode="&#x10f;" 
d="M495 677h106l-65 -154h-64zM341 0l-9 46q-41 -56 -119 -56q-80 0 -123.5 52t-43.5 138v130q0 86 43.5 138t123.5 52q69 0 111 -47v224h120v-677h-103zM243 95q37 0 59 24.5t22 61.5v127q0 38 -22 62.5t-59 24.5q-36 0 -56 -23.5t-20 -61.5v-131q0 -37 20 -60.5t56 -23.5z
" />
    <glyph glyph-name="Dcroat" unicode="&#x110;" horiz-adv-x="612" 
d="M321 657q111 0 173.5 -60t62.5 -164v-209q0 -104 -62.5 -164t-173.5 -60h-227v282h-68v102h68v273h227zM321 545h-103v-161h103v-102h-103v-170h103q53 0 82.5 30.5t29.5 83.5v205q0 53 -29.5 83.5t-82.5 30.5z" />
    <glyph glyph-name="dcroat" unicode="&#x111;" 
d="M341 0l-9 46q-41 -56 -119 -56q-80 0 -123.5 52t-43.5 138v130q0 86 43.5 138t123.5 52q69 0 111 -47v88h-96v72h96v64h120v-64h61v-72h-61v-541h-103zM243 95q37 0 59 24.5t22 61.5v127q0 38 -22 62.5t-59 24.5q-36 0 -56 -23.5t-20 -61.5v-131q0 -37 20 -60.5t56 -23.5
z" />
    <glyph glyph-name="Emacron" unicode="&#x112;" horiz-adv-x="525" 
d="M444 279h-246v-167h284v-112h-409v657h400v-112h-275v-156h246v-110zM155 721v85h240v-85h-240z" />
    <glyph glyph-name="emacron" unicode="&#x113;" horiz-adv-x="475" 
d="M319 170h114v-4q0 -80 -52.5 -128t-138.5 -48q-89 0 -143.5 53t-54.5 142v118q0 90 54.5 143.5t143.5 53.5q85 0 138 -54t53 -143v-81h-271v-50q0 -37 22 -61.5t59 -24.5q36 0 56 21t20 56v7zM162 317v-12h157v12q0 38 -21 62.5t-56 24.5q-37 0 -58.5 -24t-21.5 -63z
M119 563v85h240v-85h-240z" />
    <glyph glyph-name="Ebreve" unicode="&#x114;" horiz-adv-x="525" 
d="M444 279h-246v-167h284v-112h-409v657h400v-112h-275v-156h246v-110zM324 825h72v-21q0 -47 -33 -78.5t-86 -31.5q-52 0 -85 31.5t-33 78.5v21h72v-21q0 -21 12 -34t34 -13t34.5 13t12.5 34v21z" />
    <glyph glyph-name="ebreve" unicode="&#x115;" horiz-adv-x="475" 
d="M319 170h114v-4q0 -80 -52.5 -128t-138.5 -48q-89 0 -143.5 53t-54.5 142v118q0 90 54.5 143.5t143.5 53.5q85 0 138 -54t53 -143v-81h-271v-50q0 -37 22 -61.5t59 -24.5q36 0 56 21t20 56v7zM162 317v-12h157v12q0 38 -21 62.5t-56 24.5q-37 0 -58.5 -24t-21.5 -63z
M285 673h72v-21q0 -47 -33 -78.5t-86 -31.5q-52 0 -85 31.5t-33 78.5v21h72v-21q0 -20 12 -33.5t34 -13.5t34.5 13.5t12.5 33.5v21z" />
    <glyph glyph-name="Edotaccent" unicode="&#x116;" horiz-adv-x="525" 
d="M209 775q0 29 19.5 48.5t48.5 19.5t49 -19.5t20 -48.5t-20 -49t-49 -20q-28 0 -48 20t-20 49zM444 279h-246v-167h284v-112h-409v657h400v-112h-275v-156h246v-110z" />
    <glyph glyph-name="edotaccent" unicode="&#x117;" horiz-adv-x="475" 
d="M319 170h114v-4q0 -80 -52.5 -128t-138.5 -48q-89 0 -143.5 53t-54.5 142v118q0 90 54.5 143.5t143.5 53.5q85 0 138 -54t53 -143v-81h-271v-50q0 -37 22 -61.5t59 -24.5q36 0 56 21t20 56v7zM162 317v-12h157v12q0 38 -21 62.5t-56 24.5q-37 0 -58.5 -24t-21.5 -63z
M170 614q0 29 20 49t48 20q29 0 49 -20t20 -49t-20 -48.5t-49 -19.5q-28 0 -48 20t-20 48z" />
    <glyph glyph-name="Eogonek" unicode="&#x118;" horiz-adv-x="525" 
d="M444 279h-246v-167h284v-112h-36q-66 -45 -66 -92q0 -33 42 -33h48v-68h-63q-48 0 -73 22.5t-25 57.5q0 36 19 65.5t49 47.5h-304v657h400v-112h-275v-156h246v-110z" />
    <glyph glyph-name="eogonek" unicode="&#x119;" horiz-adv-x="476" 
d="M319 170h114v-4q0 -83 -58 -133q-64 -57 -64 -114q0 -44 41 -44h48v-68h-63q-47 0 -72 25t-25 66q0 50 30 94q-18 -2 -28 -2q-89 0 -143.5 53t-54.5 142v118q0 90 54.5 143.5t143.5 53.5q85 0 138 -54t53 -143v-81h-271v-50q0 -37 22 -61.5t59 -24.5q36 0 56 21t20 56v7z
M162 317v-12h157v12q0 38 -21 62.5t-56 24.5q-37 0 -58.5 -24t-21.5 -63z" />
    <glyph glyph-name="Ecaron" unicode="&#x11a;" horiz-adv-x="525" 
d="M444 279h-246v-167h284v-112h-409v657h400v-112h-275v-156h246v-110zM304 693h-53l-108 134l48 40l88 -78l88 77l45 -39z" />
    <glyph glyph-name="ecaron" unicode="&#x11b;" horiz-adv-x="475" 
d="M266 542h-53l-108 134l48 40l88 -77l88 76l45 -39zM319 170h114v-4q0 -80 -52.5 -128t-138.5 -48q-89 0 -143.5 53t-54.5 142v118q0 90 54.5 143.5t143.5 53.5q85 0 138 -54t53 -143v-81h-271v-50q0 -37 22 -61.5t59 -24.5q36 0 56 21t20 56v7zM162 317v-12h157v12
q0 38 -21 62.5t-56 24.5q-37 0 -58.5 -24t-21.5 -63z" />
    <glyph glyph-name="Gcircumflex" unicode="&#x11c;" horiz-adv-x="558" 
d="M255 868h53l108 -134l-47 -40l-89 78l-87 -77l-46 39zM297 236v98h212v-128q0 -99 -61.5 -157.5t-162.5 -58.5q-103 0 -166.5 59.5t-63.5 159.5v239q0 102 62 160.5t170 58.5q101 0 161.5 -55.5t60.5 -150.5v-16h-120v15q0 44 -27 69.5t-76 25.5q-50 0 -78 -29.5
t-28 -79.5v-235q0 -50 28 -79.5t76 -29.5q52 0 80.5 28.5t28.5 76.5v29h-96z" />
    <glyph glyph-name="gcircumflex" unicode="&#x11d;" 
d="M221 715h53l108 -133l-47 -40l-89 77l-87 -76l-46 39zM46 199v111q0 86 43.5 138t123.5 52q77 0 119 -56l9 46h103v-506q0 -83 -53.5 -132t-142.5 -49q-88 0 -142 43.5t-54 113.5v4h116v-9q0 -25 20 -41t58 -16q39 0 58.5 22t19.5 60v75q-41 -46 -111 -46
q-80 0 -123.5 52t-43.5 138zM243 114q37 0 59 24.5t22 62.5v107q0 38 -22 62.5t-59 24.5q-36 0 -56 -23.5t-20 -61.5v-111q0 -38 20 -61.5t56 -23.5z" />
    <glyph glyph-name="Gbreve" unicode="&#x11e;" horiz-adv-x="558" 
d="M297 236v98h212v-128q0 -99 -61.5 -157.5t-162.5 -58.5q-103 0 -166.5 59.5t-63.5 159.5v239q0 102 62 160.5t170 58.5q101 0 161.5 -55.5t60.5 -150.5v-16h-120v15q0 44 -27 69.5t-76 25.5q-50 0 -78 -29.5t-28 -79.5v-235q0 -50 28 -79.5t76 -29.5q52 0 80.5 28.5
t28.5 76.5v29h-96zM328 825h72v-21q0 -47 -33 -78.5t-86 -31.5q-52 0 -85 31.5t-33 78.5v21h72v-21q0 -21 12 -34t34 -13t34.5 13t12.5 34v21z" />
    <glyph glyph-name="gbreve" unicode="&#x11f;" 
d="M46 199v111q0 86 43.5 138t123.5 52q77 0 119 -56l9 46h103v-506q0 -83 -53.5 -132t-142.5 -49q-88 0 -142 43.5t-54 113.5v4h116v-9q0 -25 20 -41t58 -16q39 0 58.5 22t19.5 60v75q-41 -46 -111 -46q-80 0 -123.5 52t-43.5 138zM243 114q37 0 59 24.5t22 62.5v107
q0 38 -22 62.5t-59 24.5q-36 0 -56 -23.5t-20 -61.5v-111q0 -38 20 -61.5t56 -23.5zM293 673h72v-21q0 -47 -33 -78.5t-86 -31.5q-52 0 -85 31.5t-33 78.5v21h72v-21q0 -20 12 -33.5t34 -13.5t34.5 13.5t12.5 33.5v21z" />
    <glyph glyph-name="Gdotaccent" unicode="&#x120;" horiz-adv-x="558" 
d="M213 775q0 29 19.5 48.5t48.5 19.5t49 -19.5t20 -48.5t-20 -49t-49 -20q-28 0 -48 20t-20 49zM297 236v98h212v-128q0 -99 -61.5 -157.5t-162.5 -58.5q-103 0 -166.5 59.5t-63.5 159.5v239q0 102 62 160.5t170 58.5q101 0 161.5 -55.5t60.5 -150.5v-16h-120v15
q0 44 -27 69.5t-76 25.5q-50 0 -78 -29.5t-28 -79.5v-235q0 -50 28 -79.5t76 -29.5q52 0 80.5 28.5t28.5 76.5v29h-96z" />
    <glyph glyph-name="gdotaccent" unicode="&#x121;" 
d="M46 199v111q0 86 43.5 138t123.5 52q77 0 119 -56l9 46h103v-506q0 -83 -53.5 -132t-142.5 -49q-88 0 -142 43.5t-54 113.5v4h116v-9q0 -25 20 -41t58 -16q39 0 58.5 22t19.5 60v75q-41 -46 -111 -46q-80 0 -123.5 52t-43.5 138zM243 114q37 0 59 24.5t22 62.5v107
q0 38 -22 62.5t-59 24.5q-36 0 -56 -23.5t-20 -61.5v-111q0 -38 20 -61.5t56 -23.5zM178 614q0 29 20 49t48 20q29 0 49 -20t20 -49t-20 -48.5t-49 -19.5q-28 0 -48 20t-20 48z" />
    <glyph glyph-name="uni0122" unicode="&#x122;" horiz-adv-x="558" 
d="M236 -50h123l-87 -185h-74zM297 236v98h212v-128q0 -99 -61.5 -157.5t-162.5 -58.5q-103 0 -166.5 59.5t-63.5 159.5v239q0 102 62 160.5t170 58.5q101 0 161.5 -55.5t60.5 -150.5v-16h-120v15q0 44 -27 69.5t-76 25.5q-50 0 -78 -29.5t-28 -79.5v-235q0 -50 28 -79.5
t76 -29.5q52 0 80.5 28.5t28.5 76.5v29h-96z" />
    <glyph glyph-name="uni0123" unicode="&#x123;" 
d="M295 548h-123l87 185h74zM46 199v111q0 86 43.5 138t123.5 52q77 0 119 -56l9 46h103v-506q0 -83 -53.5 -132t-142.5 -49q-88 0 -142 43.5t-54 113.5v4h116v-9q0 -25 20 -41t58 -16q39 0 58.5 22t19.5 60v75q-41 -46 -111 -46q-80 0 -123.5 52t-43.5 138zM243 114
q37 0 59 24.5t22 62.5v107q0 38 -22 62.5t-59 24.5q-36 0 -56 -23.5t-20 -61.5v-111q0 -38 20 -61.5t56 -23.5z" />
    <glyph glyph-name="Hcircumflex" unicode="&#x124;" horiz-adv-x="599" 
d="M526 657v-657h-125v278h-203v-278h-125v657h125v-267h203v267h125zM273 868h53l108 -134l-47 -40l-89 78l-87 -77l-46 39z" />
    <glyph glyph-name="hcircumflex" unicode="&#x125;" horiz-adv-x="517" 
d="M95 868h53l108 -133l-47 -40l-89 77l-87 -76l-46 39zM182 0h-121v677h121v-226q44 49 115 49q80 0 121 -49.5t41 -133.5v-317h-120v310q0 38 -20 61.5t-56 23.5q-37 0 -59 -24.5t-22 -62.5v-308z" />
    <glyph glyph-name="Hbar" unicode="&#x126;" horiz-adv-x="604" 
d="M528 657v-104h63v-71h-63v-482h-125v278h-203v-278h-125v482h-61v71h61v104h125v-104h203v104h125zM200 390h203v92h-203v-92z" />
    <glyph glyph-name="hbar" unicode="&#x127;" horiz-adv-x="517" 
d="M182 0h-121v541h-59v72h59v64h121v-64h97v-72h-97v-90q44 49 115 49q80 0 121 -49.5t41 -133.5v-317h-120v310q0 38 -20 61.5t-56 23.5q-37 0 -59 -24.5t-22 -62.5v-308z" />
    <glyph glyph-name="Itilde" unicode="&#x128;" horiz-adv-x="271" 
d="M198 657v-657h-125v657h125zM233 818h62q1 -9 1 -25q0 -49 -23 -73t-61 -24q-28 0 -58 15l-43 21q-20 10 -32 10q-15 0 -24.5 -11.5t-11.5 -19.5t-2 -12h-62q-4 20 -4 28q0 42 26.5 69t67.5 27q26 0 53 -13l41 -20q28 -14 39 -14q17 0 24 15.5t7 26.5z" />
    <glyph glyph-name="itilde" unicode="&#x129;" horiz-adv-x="243" 
d="M61 490h121v-490h-121v490zM219 669h62q1 -10 1 -25q0 -49 -23 -73t-61 -24q-28 0 -58 15l-43 21q-20 10 -32 10q-15 0 -24.5 -11.5t-11.5 -19.5t-2 -12h-62q-4 14 -4 28q0 42 26.5 69t67.5 27q26 0 53 -13l41 -20q28 -14 39 -14q17 0 24 15.5t7 26.5z" />
    <glyph glyph-name="Imacron" unicode="&#x12a;" horiz-adv-x="271" 
d="M198 657v-657h-125v657h125zM15 721v85h240v-85h-240z" />
    <glyph glyph-name="imacron" unicode="&#x12b;" horiz-adv-x="243" 
d="M61 490h121v-490h-121v490zM2 563v85h240v-85h-240z" />
    <glyph glyph-name="Iogonek" unicode="&#x12e;" horiz-adv-x="271" 
d="M117 -125h48v-68h-63q-48 0 -73 22.5t-25 57.5q0 72 69 113v657h125v-657h-57q-66 -45 -66 -92q0 -33 42 -33z" />
    <glyph glyph-name="iogonek" unicode="&#x12f;" horiz-adv-x="243" 
d="M106 -125h48v-68h-63q-48 0 -73 22.5t-25 57.5q0 36 19 65.5t49 47.5v490h121v-490h-52q-66 -45 -66 -92q0 -33 42 -33zM53 622q0 29 20 48.5t49 19.5q28 0 48 -20t20 -48t-20 -48t-48 -20q-29 0 -49 19.5t-20 48.5z" />
    <glyph glyph-name="Idotaccent" unicode="&#x130;" horiz-adv-x="271" 
d="M198 657v-657h-125v657h125zM66 775q0 29 20 48.5t48 19.5q29 0 49 -19.5t20 -48.5t-20 -49t-49 -20q-28 0 -48 20t-20 49z" />
    <glyph glyph-name="dotlessi" unicode="&#x131;" horiz-adv-x="243" 
d="M61 490h121v-490h-121v490z" />
    <glyph glyph-name="IJ" unicode="&#x132;" horiz-adv-x="773" 
d="M198 657v-657h-125v657h125zM291 215h124v-24q0 -41 21.5 -65t60.5 -24t60.5 24t21.5 65v466h125v-468q0 -91 -57 -145t-150 -54t-149.5 53.5t-56.5 145.5v26z" />
    <glyph glyph-name="ij" unicode="&#x133;" horiz-adv-x="492" 
d="M53 622q0 29 20 48.5t49 19.5q28 0 48 -20t20 -48t-20 -48t-48 -20q-29 0 -49 19.5t-20 48.5zM61 490h121v-490h-121v490zM212 -95h21q77 0 77 70v515h121v-508q0 -88 -47.5 -133.5t-136.5 -45.5h-35v102zM302 622q0 28 20 48t48 20t48 -20t20 -48t-20 -48t-48 -20
t-48 20t-20 48z" />
    <glyph glyph-name="Jcircumflex" unicode="&#x134;" horiz-adv-x="499" 
d="M17 215h124v-24q0 -41 21.5 -65t60.5 -24t60.5 24t21.5 65v466h125v-468q0 -91 -57 -145t-150 -54t-149.5 53.5t-56.5 145.5v26zM341 868h53l108 -134l-47 -40l-89 78l-87 -77l-46 39z" />
    <glyph glyph-name="jcircumflex" unicode="&#x135;" horiz-adv-x="243" 
d="M95 715h53l108 -133l-47 -40l-89 77l-87 -76l-46 39zM-37 -95h21q77 0 77 70v515h121v-508q0 -88 -47.5 -133.5t-136.5 -45.5h-35v102z" />
    <glyph glyph-name="uni0136" unicode="&#x136;" horiz-adv-x="556" 
d="M233 -50h123l-87 -185h-74zM198 657v-314l201 314h139l-172 -273l178 -384h-140l-126 280l-80 -125v-155h-125v657h125z" />
    <glyph glyph-name="uni0137" unicode="&#x137;" horiz-adv-x="484" 
d="M193 -50h123l-87 -185h-74zM61 677h121v-379l151 192h131l-149 -188l157 -302h-133l-105 208l-52 -66v-142h-121v677z" />
    <glyph glyph-name="kgreenlandic" unicode="&#x138;" horiz-adv-x="484" 
d="M61 490h121v-191l149 191h133l-149 -188l157 -302h-133l-105 208l-52 -66v-142h-121v490z" />
    <glyph glyph-name="Lacute" unicode="&#x139;" horiz-adv-x="469" 
d="M263 804l-132 -110l-56 48l112 133zM198 657v-545h257v-112h-382v657h125z" />
    <glyph glyph-name="lacute" unicode="&#x13a;" horiz-adv-x="246" 
d="M253 812l-132 -110l-56 48l112 133zM63 677h120v-677h-120v677z" />
    <glyph glyph-name="uni013B" unicode="&#x13b;" horiz-adv-x="469" 
d="M194 -50h123l-87 -185h-74zM198 657v-545h257v-112h-382v657h125z" />
    <glyph glyph-name="uni013C" unicode="&#x13c;" horiz-adv-x="246" 
d="M60 -50h123l-87 -185h-74zM63 677h120v-677h-120v677z" />
    <glyph glyph-name="Lcaron" unicode="&#x13d;" horiz-adv-x="469" 
d="M275 657h106l-65 -154h-64zM198 657v-545h257v-112h-382v657h125z" />
    <glyph glyph-name="lcaron" unicode="&#x13e;" horiz-adv-x="246" 
d="M247 677h106l-65 -154h-64zM63 677h120v-677h-120v677z" />
    <glyph glyph-name="Ldot" unicode="&#x13f;" horiz-adv-x="470" 
d="M198 657v-545h257v-112h-382v657h125zM256 341q0 30 20.5 50.5t49.5 20.5t50 -20.5t21 -50.5q0 -29 -21 -49.5t-50 -20.5t-49.5 20.5t-20.5 49.5z" />
    <glyph glyph-name="ldot" unicode="&#x140;" horiz-adv-x="368" 
d="M63 677h120v-677h-120v677zM234 351q0 30 20.5 50.5t49.5 20.5t50 -20.5t21 -50.5q0 -29 -21 -49.5t-50 -20.5t-49.5 20.5t-20.5 49.5z" />
    <glyph glyph-name="Lslash" unicode="&#x141;" horiz-adv-x="476" 
d="M205 657v-244l94 54v-109l-94 -54v-192h257v-112h-382v232l-69 -39v108l69 40v316h125z" />
    <glyph glyph-name="lslash" unicode="&#x142;" horiz-adv-x="285" 
d="M83 677h120v-251l64 38v-109l-64 -38v-317h-120v247l-63 -36v109l63 36v321z" />
    <glyph glyph-name="Nacute" unicode="&#x143;" horiz-adv-x="595" 
d="M428 804l-132 -110l-56 48l112 133zM522 657v-657h-102l-233 415v-415h-114v657h107l228 -405v405h114z" />
    <glyph glyph-name="nacute" unicode="&#x144;" horiz-adv-x="517" 
d="M393 652l-132 -110l-56 49l112 132zM182 0h-121v490h104l8 -48q45 58 124 58q80 0 121 -49.5t41 -133.5v-317h-120v310q0 38 -20 61.5t-56 23.5q-37 0 -59 -24.5t-22 -62.5v-308z" />
    <glyph glyph-name="uni0145" unicode="&#x145;" horiz-adv-x="595" 
d="M250 -50h123l-87 -185h-74zM522 657v-657h-102l-233 415v-415h-114v657h107l228 -405v405h114z" />
    <glyph glyph-name="uni0146" unicode="&#x146;" horiz-adv-x="517" 
d="M199 -50h123l-87 -185h-74zM182 0h-121v490h104l8 -48q45 58 124 58q80 0 121 -49.5t41 -133.5v-317h-120v310q0 38 -20 61.5t-56 23.5q-37 0 -59 -24.5t-22 -62.5v-308z" />
    <glyph glyph-name="Ncaron" unicode="&#x147;" horiz-adv-x="595" 
d="M522 657v-657h-102l-233 415v-415h-114v657h107l228 -405v405h114zM324 693h-53l-108 134l48 40l88 -78l88 77l45 -39z" />
    <glyph glyph-name="ncaron" unicode="&#x148;" horiz-adv-x="517" 
d="M288 542h-53l-108 134l48 40l88 -77l88 76l45 -39zM182 0h-121v490h104l8 -48q45 58 124 58q80 0 121 -49.5t41 -133.5v-317h-120v310q0 38 -20 61.5t-56 23.5q-37 0 -59 -24.5t-22 -62.5v-308z" />
    <glyph glyph-name="napostrophe" unicode="&#x149;" horiz-adv-x="554" 
d="M31 677h123l-87 -185h-74zM219 0h-121v490h104l8 -48q45 58 124 58q80 0 121 -49.5t41 -133.5v-317h-120v310q0 38 -20 61.5t-56 23.5q-37 0 -59 -24.5t-22 -62.5v-308z" />
    <glyph glyph-name="Omacron" unicode="&#x14c;" horiz-adv-x="573" 
d="M180 446v-235q0 -50 28.5 -79.5t78.5 -29.5t78 29.5t28 79.5v235q0 50 -28 79.5t-78 29.5t-78.5 -29.5t-28.5 -79.5zM518 448v-239q0 -100 -63.5 -159.5t-167.5 -59.5t-168 59.5t-64 159.5v239q0 102 60.5 160.5t171.5 58.5q104 0 167.5 -59.5t63.5 -159.5zM167 721v85
h240v-85h-240z" />
    <glyph glyph-name="omacron" unicode="&#x14d;" horiz-adv-x="488" 
d="M124 563v85h240v-85h-240zM165 311v-133q0 -38 21 -62t58 -24t58 24t21 62v133q0 38 -21 62.5t-58 24.5t-58 -24.5t-21 -62.5zM443 303v-116q0 -90 -54.5 -143.5t-144.5 -53.5t-145 53.5t-55 143.5v116q0 90 55 143.5t145 53.5t144.5 -53.5t54.5 -143.5z" />
    <glyph glyph-name="Obreve" unicode="&#x14e;" horiz-adv-x="573" 
d="M180 446v-235q0 -50 28.5 -79.5t78.5 -29.5t78 29.5t28 79.5v235q0 50 -28 79.5t-78 29.5t-78.5 -29.5t-28.5 -79.5zM518 448v-239q0 -100 -63.5 -159.5t-167.5 -59.5t-168 59.5t-64 159.5v239q0 102 60.5 160.5t171.5 58.5q104 0 167.5 -59.5t63.5 -159.5zM333 825h72
v-21q0 -47 -33 -78.5t-86 -31.5q-52 0 -85 31.5t-33 78.5v21h72v-21q0 -21 12 -34t34 -13t34.5 13t12.5 34v21z" />
    <glyph glyph-name="obreve" unicode="&#x14f;" horiz-adv-x="488" 
d="M165 311v-133q0 -38 21 -62t58 -24t58 24t21 62v133q0 38 -21 62.5t-58 24.5t-58 -24.5t-21 -62.5zM443 303v-116q0 -90 -54.5 -143.5t-144.5 -53.5t-145 53.5t-55 143.5v116q0 90 55 143.5t145 53.5t144.5 -53.5t54.5 -143.5zM290 673h72v-21q0 -47 -33 -78.5t-86 -31.5
q-52 0 -85 31.5t-33 78.5v21h72v-21q0 -20 12 -33.5t34 -13.5t34.5 13.5t12.5 33.5v21z" />
    <glyph glyph-name="Ohungarumlaut" unicode="&#x150;" horiz-adv-x="573" 
d="M332 814l-123 -120l-46 40l103 136zM473 801l-135 -106l-40 45l118 124zM180 446v-235q0 -50 28.5 -79.5t78.5 -29.5t78 29.5t28 79.5v235q0 50 -28 79.5t-78 29.5t-78.5 -29.5t-28.5 -79.5zM518 448v-239q0 -100 -63.5 -159.5t-167.5 -59.5t-168 59.5t-64 159.5v239
q0 102 60.5 160.5t171.5 58.5q104 0 167.5 -59.5t63.5 -159.5z" />
    <glyph glyph-name="ohungarumlaut" unicode="&#x151;" horiz-adv-x="488" 
d="M292 662l-123 -120l-46 39l103 136zM433 649l-135 -106l-40 45l118 124zM165 311v-133q0 -38 21 -62t58 -24t58 24t21 62v133q0 38 -21 62.5t-58 24.5t-58 -24.5t-21 -62.5zM443 303v-116q0 -90 -54.5 -143.5t-144.5 -53.5t-145 53.5t-55 143.5v116q0 90 55 143.5
t145 53.5t144.5 -53.5t54.5 -143.5z" />
    <glyph glyph-name="OE" unicode="&#x152;" horiz-adv-x="853" 
d="M801 657v-112h-283v-156h254v-110h-254v-167h292v-112h-409v32q-53 -42 -126 -42q-100 0 -160 59t-60 160v239q0 103 57 161t163 58q74 0 126 -43v33h400zM180 446v-235q0 -50 28.5 -79.5t78.5 -29.5q49 0 77.5 29.5t28.5 77.5v237q0 50 -28 79.5t-78 29.5t-78.5 -29.5
t-28.5 -79.5z" />
    <glyph glyph-name="oe" unicode="&#x153;" horiz-adv-x="754" 
d="M598 170h114v-4q0 -80 -53 -128t-139 -48q-88 0 -138 64q-48 -64 -138 -64t-145 53.5t-55 143.5v116q0 90 55 143.5t145 53.5t139 -66q49 66 137 66q86 0 139 -54t53 -143v-81h-271v-50q0 -37 22 -61.5t59 -24.5q36 0 56 21t20 56v7zM165 311v-133q0 -38 21 -62t58 -24
t58 24t21 62v133q0 38 -21 62.5t-58 24.5t-58 -24.5t-21 -62.5zM441 317v-12h157v12q0 38 -21 62.5t-57 24.5q-37 0 -58 -24.5t-21 -62.5z" />
    <glyph glyph-name="Racute" unicode="&#x154;" horiz-adv-x="574" 
d="M533 0h-136l-95 241h-104v-241h-125v657h231q99 0 162 -56.5t63 -147.5q0 -63 -27.5 -110t-76.5 -73zM291 548h-93v-198h93q52 0 81.5 27t29.5 73q0 45 -29.5 71.5t-81.5 26.5zM395 804l-132 -110l-56 48l112 133z" />
    <glyph glyph-name="racute" unicode="&#x155;" horiz-adv-x="336" 
d="M309 652l-132 -110l-56 49l112 132zM182 0h-121v490h104l10 -56q41 66 113 66q16 0 29 -4v-113q-24 4 -41 4q-41 0 -67.5 -22t-26.5 -66v-299z" />
    <glyph glyph-name="uni0156" unicode="&#x156;" horiz-adv-x="574" 
d="M228 -50h123l-87 -185h-74zM533 0h-136l-95 241h-104v-241h-125v657h231q99 0 162 -56.5t63 -147.5q0 -63 -27.5 -110t-76.5 -73zM291 548h-93v-198h93q52 0 81.5 27t29.5 73q0 45 -29.5 71.5t-81.5 26.5z" />
    <glyph glyph-name="uni0157" unicode="&#x157;" horiz-adv-x="336" 
d="M63 -50h123l-87 -185h-74zM182 0h-121v490h104l10 -56q41 66 113 66q16 0 29 -4v-113q-24 4 -41 4q-41 0 -67.5 -22t-26.5 -66v-299z" />
    <glyph glyph-name="Rcaron" unicode="&#x158;" horiz-adv-x="574" 
d="M533 0h-136l-95 241h-104v-241h-125v657h231q99 0 162 -56.5t63 -147.5q0 -63 -27.5 -110t-76.5 -73zM291 548h-93v-198h93q52 0 81.5 27t29.5 73q0 45 -29.5 71.5t-81.5 26.5zM283 693h-53l-108 134l48 40l88 -78l88 77l45 -39z" />
    <glyph glyph-name="rcaron" unicode="&#x159;" horiz-adv-x="336" 
d="M195 542h-53l-108 134l48 40l88 -77l88 76l45 -39zM182 0h-121v490h104l10 -56q41 66 113 66q16 0 29 -4v-113q-24 4 -41 4q-41 0 -67.5 -22t-26.5 -66v-299z" />
    <glyph glyph-name="Sacute" unicode="&#x15a;" horiz-adv-x="533" 
d="M479 459h-122v19q0 39 -26 62.5t-69 23.5q-42 0 -65.5 -20.5t-23.5 -52.5q0 -52 62 -74l93 -34q37 -13 61.5 -26t50.5 -35t39.5 -55t13.5 -76q0 -90 -61.5 -145.5t-163.5 -55.5q-103 0 -166.5 52.5t-63.5 141.5v22h123v-27q0 -40 27.5 -62.5t76.5 -22.5q50 0 78 23t28 60
q0 61 -72 86l-100 38q-147 54 -147 181q0 78 57.5 131.5t152.5 53.5q98 0 157.5 -52.5t59.5 -141.5v-14zM395 804l-132 -110l-56 48l112 133z" />
    <glyph glyph-name="sacute" unicode="&#x15b;" horiz-adv-x="451" 
d="M354 652l-132 -110l-56 49l112 132zM35 156h111v-19q0 -27 21 -42t57 -15q76 0 76 54q0 36 -51 52l-87 27q-116 36 -116 141q0 60 48.5 103t126.5 43q85 0 135.5 -39.5t50.5 -107.5v-11h-112v14q0 25 -19 40t-53 15q-29 0 -47.5 -13t-18.5 -35q0 -33 48 -47l70 -21
q65 -21 101.5 -53.5t36.5 -95.5q0 -70 -50.5 -113.5t-136.5 -43.5q-85 0 -138 41t-53 111v15z" />
    <glyph glyph-name="Scircumflex" unicode="&#x15c;" horiz-adv-x="533" 
d="M479 459h-122v19q0 39 -26 62.5t-69 23.5q-42 0 -65.5 -20.5t-23.5 -52.5q0 -52 62 -74l93 -34q37 -13 61.5 -26t50.5 -35t39.5 -55t13.5 -76q0 -90 -61.5 -145.5t-163.5 -55.5q-103 0 -166.5 52.5t-63.5 141.5v22h123v-27q0 -40 27.5 -62.5t76.5 -22.5q50 0 78 23t28 60
q0 61 -72 86l-100 38q-147 54 -147 181q0 78 57.5 131.5t152.5 53.5q98 0 157.5 -52.5t59.5 -141.5v-14zM238 868h53l108 -134l-47 -40l-89 78l-87 -77l-46 39z" />
    <glyph glyph-name="scircumflex" unicode="&#x15d;" horiz-adv-x="451" 
d="M197 715h53l108 -133l-47 -40l-89 77l-87 -76l-46 39zM35 156h111v-19q0 -27 21 -42t57 -15q76 0 76 54q0 36 -51 52l-87 27q-116 36 -116 141q0 60 48.5 103t126.5 43q85 0 135.5 -39.5t50.5 -107.5v-11h-112v14q0 25 -19 40t-53 15q-29 0 -47.5 -13t-18.5 -35
q0 -33 48 -47l70 -21q65 -21 101.5 -53.5t36.5 -95.5q0 -70 -50.5 -113.5t-136.5 -43.5q-85 0 -138 41t-53 111v15z" />
    <glyph glyph-name="Scedilla" unicode="&#x15e;" horiz-adv-x="534" 
d="M214 -97l-21 16l22 76q-81 13 -128.5 62.5t-47.5 126.5v22h123v-27q0 -40 27.5 -62.5t76.5 -22.5q50 0 78 23t28 60q0 61 -72 86l-100 38q-147 54 -147 181q0 78 57.5 131.5t152.5 53.5q98 0 157.5 -52.5t59.5 -141.5v-14h-122v19q0 39 -26 62.5t-69 23.5
q-42 0 -65.5 -20.5t-23.5 -52.5q0 -52 62 -74l93 -34q37 -13 61.5 -26t50.5 -35t39.5 -55t13.5 -76q0 -87 -58.5 -142t-155.5 -59l-9 -30h12q39 0 60 -19t21 -53q0 -35 -22 -55t-59 -20h-112v57h101q19 0 19 17q0 16 -19 16h-58z" />
    <glyph glyph-name="scedilla" unicode="&#x15f;" horiz-adv-x="452" 
d="M173 -97l-21 16l22 75q-63 11 -100.5 50t-37.5 97v15h111v-19q0 -27 21 -42t57 -15q76 0 76 54q0 36 -51 52l-87 27q-116 36 -116 141q0 60 48.5 103t126.5 43q85 0 135.5 -39.5t50.5 -107.5v-11h-112v14q0 25 -19 40t-53 15q-29 0 -47.5 -13t-18.5 -35q0 -33 48 -47
l70 -21q65 -21 101.5 -53.5t36.5 -95.5q0 -67 -47 -110t-128 -47l-9 -29h12q39 0 60 -19t21 -53q0 -35 -22 -55t-59 -20h-112v57h101q19 0 19 17q0 16 -19 16h-58z" />
    <glyph glyph-name="Scaron" unicode="&#x160;" horiz-adv-x="533" 
d="M479 459h-122v19q0 39 -26 62.5t-69 23.5q-42 0 -65.5 -20.5t-23.5 -52.5q0 -52 62 -74l93 -34q37 -13 61.5 -26t50.5 -35t39.5 -55t13.5 -76q0 -90 -61.5 -145.5t-163.5 -55.5q-103 0 -166.5 52.5t-63.5 141.5v22h123v-27q0 -40 27.5 -62.5t76.5 -22.5q50 0 78 23t28 60
q0 61 -72 86l-100 38q-147 54 -147 181q0 78 57.5 131.5t152.5 53.5q98 0 157.5 -52.5t59.5 -141.5v-14zM292 693h-53l-108 134l48 40l88 -78l88 77l45 -39z" />
    <glyph glyph-name="scaron" unicode="&#x161;" horiz-adv-x="451" 
d="M249 542h-53l-108 134l48 40l88 -77l88 76l45 -39zM35 156h111v-19q0 -27 21 -42t57 -15q76 0 76 54q0 36 -51 52l-87 27q-116 36 -116 141q0 60 48.5 103t126.5 43q85 0 135.5 -39.5t50.5 -107.5v-11h-112v14q0 25 -19 40t-53 15q-29 0 -47.5 -13t-18.5 -35
q0 -33 48 -47l70 -21q65 -21 101.5 -53.5t36.5 -95.5q0 -70 -50.5 -113.5t-136.5 -43.5q-85 0 -138 41t-53 111v15z" />
    <glyph glyph-name="uni0162" unicode="&#x162;" horiz-adv-x="476" 
d="M203 -97l-21 16l23 81h-29v545h-158v112h439v-112h-157v-545h-28l-12 -40h12q39 0 60 -19t21 -53q0 -35 -22 -55t-59 -20h-112v57h101q19 0 19 17q0 16 -19 16h-58z" />
    <glyph glyph-name="uni0163" unicode="&#x163;" horiz-adv-x="331" 
d="M129 -97l-21 16l23 81h-26v384h-81v101h81v134h120v-134h82v-101h-82v-384h-27l-12 -40h12q39 0 60 -19t21 -53q0 -35 -22 -55t-59 -20h-112v57h101q19 0 19 17q0 16 -19 16h-58z" />
    <glyph glyph-name="Tcaron" unicode="&#x164;" horiz-adv-x="476" 
d="M18 545v112h439v-112h-157v-545h-124v545h-158zM264 693h-53l-108 134l48 40l88 -78l88 77l45 -39z" />
    <glyph glyph-name="tcaron" unicode="&#x165;" horiz-adv-x="331" 
d="M291 677h106l-65 -154h-64zM24 384v101h81v134h120v-134h82v-101h-82v-384h-120v384h-81z" />
    <glyph glyph-name="Tbar" unicode="&#x166;" horiz-adv-x="476" 
d="M18 545v112h439v-112h-157v-118h122v-95h-122v-332h-124v332h-121v95h121v118h-158z" />
    <glyph glyph-name="tbar" unicode="&#x167;" horiz-adv-x="336" 
d="M27 384v101h81v134h120v-134h82v-101h-82v-74h77v-78h-77v-232h-120v232h-77v78h77v74h-81z" />
    <glyph glyph-name="Utilde" unicode="&#x168;" horiz-adv-x="588" 
d="M395 657h124v-448q0 -100 -62 -159.5t-163 -59.5t-163 59.5t-62 159.5v448h124v-446q0 -50 27 -79.5t74 -29.5t74 29.5t27 79.5v446zM391 818h62q1 -9 1 -25q0 -49 -23 -73t-61 -24q-28 0 -58 15l-43 21q-20 10 -32 10q-15 0 -24.5 -11.5t-11.5 -19.5t-2 -12h-62
q-4 20 -4 28q0 42 26.5 69t67.5 27q26 0 53 -13l41 -20q28 -14 39 -14q17 0 24 15.5t7 26.5z" />
    <glyph glyph-name="utilde" unicode="&#x169;" horiz-adv-x="511" 
d="M57 164v326h121v-319q0 -34 18.5 -55t52.5 -21q37 0 59 24.5t22 61.5v309h120v-490h-103l-10 47q-42 -57 -122 -57q-78 0 -118 47.5t-40 126.5zM351 669h62q1 -10 1 -25q0 -49 -23 -73t-61 -24q-28 0 -58 15l-43 21q-20 10 -32 10q-15 0 -24.5 -11.5t-11.5 -19.5t-2 -12
h-62q-4 14 -4 28q0 42 26.5 69t67.5 27q26 0 53 -13l41 -20q28 -14 39 -14q17 0 24 15.5t7 26.5z" />
    <glyph glyph-name="Umacron" unicode="&#x16a;" horiz-adv-x="588" 
d="M395 657h124v-448q0 -100 -62 -159.5t-163 -59.5t-163 59.5t-62 159.5v448h124v-446q0 -50 27 -79.5t74 -29.5t74 29.5t27 79.5v446zM174 721v85h240v-85h-240z" />
    <glyph glyph-name="umacron" unicode="&#x16b;" horiz-adv-x="511" 
d="M57 164v326h121v-319q0 -34 18.5 -55t52.5 -21q37 0 59 24.5t22 61.5v309h120v-490h-103l-10 47q-42 -57 -122 -57q-78 0 -118 47.5t-40 126.5zM134 563v85h240v-85h-240z" />
    <glyph glyph-name="Ubreve" unicode="&#x16c;" horiz-adv-x="588" 
d="M395 657h124v-448q0 -100 -62 -159.5t-163 -59.5t-163 59.5t-62 159.5v448h124v-446q0 -50 27 -79.5t74 -29.5t74 29.5t27 79.5v446zM340 825h72v-21q0 -47 -33 -78.5t-86 -31.5q-52 0 -85 31.5t-33 78.5v21h72v-21q0 -21 12 -34t34 -13t34.5 13t12.5 34v21z" />
    <glyph glyph-name="ubreve" unicode="&#x16d;" horiz-adv-x="511" 
d="M57 164v326h121v-319q0 -34 18.5 -55t52.5 -21q37 0 59 24.5t22 61.5v309h120v-490h-103l-10 47q-42 -57 -122 -57q-78 0 -118 47.5t-40 126.5zM300 673h72v-21q0 -47 -33 -78.5t-86 -31.5q-52 0 -85 31.5t-33 78.5v21h72v-21q0 -20 12 -33.5t34 -13.5t34.5 13.5
t12.5 33.5v21z" />
    <glyph glyph-name="Uring" unicode="&#x16e;" horiz-adv-x="588" 
d="M293 734q20 0 31.5 13t11.5 34q0 20 -11.5 32.5t-31.5 12.5q-19 0 -30.5 -12.5t-11.5 -32.5q0 -21 11.5 -34t30.5 -13zM293 678q-47 0 -77 29.5t-30 73.5t30 73.5t77 29.5q48 0 78.5 -29.5t30.5 -73.5t-30.5 -73.5t-78.5 -29.5zM395 657h124v-448q0 -100 -62 -159.5
t-163 -59.5t-163 59.5t-62 159.5v448h124v-446q0 -50 27 -79.5t74 -29.5t74 29.5t27 79.5v446z" />
    <glyph glyph-name="uring" unicode="&#x16f;" horiz-adv-x="511" 
d="M252 584q20 0 31.5 13t11.5 33t-11.5 32.5t-31.5 12.5q-19 0 -30.5 -12.5t-11.5 -32.5t11.5 -33t30.5 -13zM252 527q-47 0 -77 29.5t-30 73.5t30 73.5t77 29.5q48 0 78.5 -29.5t30.5 -73.5t-30.5 -73.5t-78.5 -29.5zM57 164v326h121v-319q0 -34 18.5 -55t52.5 -21
q37 0 59 24.5t22 61.5v309h120v-490h-103l-10 47q-42 -57 -122 -57q-78 0 -118 47.5t-40 126.5z" />
    <glyph glyph-name="Uhungarumlaut" unicode="&#x170;" horiz-adv-x="588" 
d="M350 814l-123 -120l-46 40l103 136zM491 801l-135 -106l-40 45l118 124zM395 657h124v-448q0 -100 -62 -159.5t-163 -59.5t-163 59.5t-62 159.5v448h124v-446q0 -50 27 -79.5t74 -29.5t74 29.5t27 79.5v446z" />
    <glyph glyph-name="uhungarumlaut" unicode="&#x171;" horiz-adv-x="511" 
d="M57 164v326h121v-319q0 -34 18.5 -55t52.5 -21q37 0 59 24.5t22 61.5v309h120v-490h-103l-10 47q-42 -57 -122 -57q-78 0 -118 47.5t-40 126.5zM311 662l-123 -120l-46 39l103 136zM452 649l-135 -106l-40 45l118 124z" />
    <glyph glyph-name="Uogonek" unicode="&#x172;" horiz-adv-x="588" 
d="M395 657h124v-448q0 -101 -66 -164q-68 -66 -68 -126q0 -44 42 -44h48v-68h-63q-48 0 -73 25t-25 66q0 52 33 97q-28 -5 -53 -5q-101 0 -163 59.5t-62 159.5v448h124v-446q0 -50 27 -79.5t74 -29.5t74 29.5t27 79.5v446z" />
    <glyph glyph-name="uogonek" unicode="&#x173;" horiz-adv-x="511" 
d="M57 164v326h121v-319q0 -34 18.5 -55t52.5 -21q37 0 59 24.5t22 61.5v309h120v-490h-38q-66 -45 -66 -92q0 -33 42 -33h48v-68h-63q-48 0 -73 22.5t-25 57.5q0 37 20 67t51 48l-9 45q-42 -57 -122 -57q-78 0 -118 47.5t-40 126.5z" />
    <glyph glyph-name="Wcircumflex" unicode="&#x174;" horiz-adv-x="727" 
d="M337 868h53l108 -134l-47 -40l-89 78l-87 -77l-46 39zM584 657h119l-139 -657h-115l-86 445l-85 -445h-114l-139 657h125l77 -440l82 440h115l82 -441z" />
    <glyph glyph-name="wcircumflex" unicode="&#x175;" horiz-adv-x="682" 
d="M315 715h53l108 -133l-47 -40l-89 77l-87 -76l-46 39zM147 490l69 -323l77 323h100l77 -323l69 323h124l-136 -490h-110l-76 296l-76 -296h-109l-137 490h128z" />
    <glyph glyph-name="Ycircumflex" unicode="&#x176;" horiz-adv-x="508" 
d="M7 657h132l118 -271l118 271h126l-185 -391v-266h-124v264zM228 868h53l108 -134l-47 -40l-89 78l-87 -77l-46 39z" />
    <glyph glyph-name="ycircumflex" unicode="&#x177;" horiz-adv-x="464" 
d="M231 -187h-113l60 173l-162 504h129l90 -328l91 328h123zM206 715h53l108 -133l-47 -40l-89 77l-87 -76l-46 39z" />
    <glyph glyph-name="Ydieresis" unicode="&#x178;" horiz-adv-x="508" 
d="M7 657h132l118 -271l118 271h126l-185 -391v-266h-124v264zM125 765q0 25 17.5 42t42.5 17t41.5 -17t16.5 -42t-16.5 -42.5t-41.5 -17.5t-42.5 17.5t-17.5 42.5zM265 765q0 25 17 42t42 17t42 -17t17 -42t-17 -42.5t-42 -17.5t-42 17.5t-17 42.5z" />
    <glyph glyph-name="Zacute" unicode="&#x179;" horiz-adv-x="479" 
d="M45 547v110h390v-79l-248 -468h254v-110h-405v79l248 468h-239zM370 804l-132 -110l-56 48l112 133z" />
    <glyph glyph-name="zacute" unicode="&#x17a;" horiz-adv-x="437" 
d="M349 652l-132 -110l-56 49l112 132zM43 391v99h352v-70l-210 -322h215v-98h-365v70l211 321h-203z" />
    <glyph glyph-name="Zdotaccent" unicode="&#x17b;" horiz-adv-x="479" 
d="M170 775q0 29 20 48.5t48 19.5q29 0 49 -19.5t20 -48.5t-20 -49t-49 -20q-28 0 -48 20t-20 49zM45 547v110h390v-79l-248 -468h254v-110h-405v79l248 468h-239z" />
    <glyph glyph-name="zdotaccent" unicode="&#x17c;" horiz-adv-x="437" 
d="M43 391v99h352v-70l-210 -322h215v-98h-365v70l211 321h-203zM150 614q0 29 20 49t48 20q29 0 49 -20t20 -49t-20 -48.5t-49 -19.5q-28 0 -48 20t-20 48z" />
    <glyph glyph-name="Zcaron" unicode="&#x17d;" horiz-adv-x="479" 
d="M45 547v110h390v-79l-248 -468h254v-110h-405v79l248 468h-239zM266 693h-53l-108 134l48 40l88 -78l88 77l45 -39z" />
    <glyph glyph-name="zcaron" unicode="&#x17e;" horiz-adv-x="437" 
d="M245 542h-53l-108 134l48 40l88 -77l88 76l45 -39zM43 391v99h352v-70l-210 -322h215v-98h-365v70l211 321h-203z" />
    <glyph glyph-name="longs" unicode="&#x17f;" horiz-adv-x="263" 
d="M291 575h-36q-73 0 -73 -67v-508h-121v501q0 87 46.5 131.5t134.5 44.5h49v-102z" />
    <glyph glyph-name="florin" unicode="&#x192;" horiz-adv-x="416" 
d="M76 279v101h69v105q0 176 180 176h49v-101h-36q-73 0 -73 -68v-112h104v-101h-104v-290q0 -87 -46.5 -131.5t-134.5 -44.5h-49v102h36q74 0 74 67v297h-69z" />
    <glyph glyph-name="uni0218" unicode="&#x218;" horiz-adv-x="533" 
d="M218 -50h123l-87 -185h-74zM479 459h-122v19q0 39 -26 62.5t-69 23.5q-42 0 -65.5 -20.5t-23.5 -52.5q0 -52 62 -74l93 -34q37 -13 61.5 -26t50.5 -35t39.5 -55t13.5 -76q0 -90 -61.5 -145.5t-163.5 -55.5q-103 0 -166.5 52.5t-63.5 141.5v22h123v-27q0 -40 27.5 -62.5
t76.5 -22.5q50 0 78 23t28 60q0 61 -72 86l-100 38q-147 54 -147 181q0 78 57.5 131.5t152.5 53.5q98 0 157.5 -52.5t59.5 -141.5v-14z" />
    <glyph glyph-name="uni0219" unicode="&#x219;" horiz-adv-x="451" 
d="M176 -50h123l-87 -185h-74zM35 156h111v-19q0 -27 21 -42t57 -15q76 0 76 54q0 36 -51 52l-87 27q-116 36 -116 141q0 60 48.5 103t126.5 43q85 0 135.5 -39.5t50.5 -107.5v-11h-112v14q0 25 -19 40t-53 15q-29 0 -47.5 -13t-18.5 -35q0 -33 48 -47l70 -21
q65 -21 101.5 -53.5t36.5 -95.5q0 -70 -50.5 -113.5t-136.5 -43.5q-85 0 -138 41t-53 111v15z" />
    <glyph glyph-name="uni021A" unicode="&#x21a;" horiz-adv-x="476" 
d="M174 -50h123l-87 -185h-74zM18 545v112h439v-112h-157v-545h-124v545h-158z" />
    <glyph glyph-name="uni021B" unicode="&#x21b;" horiz-adv-x="331" 
d="M102 -50h123l-87 -185h-74zM24 384v101h81v134h120v-134h82v-101h-82v-384h-120v384h-81z" />
    <glyph glyph-name="uni0237" unicode="&#x237;" horiz-adv-x="243" 
d="M-37 -95h21q77 0 77 70v515h121v-508q0 -88 -47.5 -133.5t-136.5 -45.5h-35v102z" />
    <glyph glyph-name="circumflex" unicode="&#x2c6;" horiz-adv-x="309" 
d="M128 715h53l108 -133l-47 -40l-89 77l-87 -76l-46 39z" />
    <glyph glyph-name="caron" unicode="&#x2c7;" horiz-adv-x="309" 
d="M181 542h-53l-108 134l48 40l88 -77l88 76l45 -39z" />
    <glyph glyph-name="uni02C9" unicode="&#x2c9;" horiz-adv-x="280" 
d="M20 563v86h240v-86h-240z" />
    <glyph glyph-name="breve" unicode="&#x2d8;" horiz-adv-x="277" 
d="M185 673h72v-21q0 -47 -33 -78.5t-86 -31.5q-52 0 -85 31.5t-33 78.5v21h72v-21q0 -20 12 -33.5t34 -13.5t34.5 13.5t12.5 33.5v21z" />
    <glyph glyph-name="dotaccent" unicode="&#x2d9;" horiz-adv-x="177" 
d="M20 614q0 29 20 49t48 20q29 0 49 -20t20 -49t-20 -48.5t-49 -19.5q-28 0 -48 20t-20 48z" />
    <glyph glyph-name="ring" unicode="&#x2da;" horiz-adv-x="256" 
d="M127 584q20 0 31.5 13t11.5 33t-11.5 32.5t-31.5 12.5q-19 0 -30.5 -12.5t-11.5 -32.5t11.5 -33t30.5 -13zM127 527q-47 0 -77 29.5t-30 73.5t30 73.5t77 29.5q48 0 78.5 -29.5t30.5 -73.5t-30.5 -73.5t-78.5 -29.5z" />
    <glyph glyph-name="ogonek" unicode="&#x2db;" horiz-adv-x="265" 
d="M160 -125h48v-68h-63q-48 0 -73 22.5t-25 57.5q0 41 25 73t60 49l52 -9q-66 -45 -66 -92q0 -33 42 -33z" />
    <glyph glyph-name="tilde" unicode="&#x2dc;" horiz-adv-x="361" 
d="M278 669h62q1 -10 1 -25q0 -49 -23 -73t-61 -24q-28 0 -58 15l-43 21q-20 10 -32 10q-15 0 -24.5 -11.5t-11.5 -19.5t-2 -12h-62q-4 14 -4 28q0 42 26.5 69t67.5 27q26 0 53 -13l41 -20q28 -14 39 -14q17 0 24 15.5t7 26.5z" />
    <glyph glyph-name="hungarumlaut" unicode="&#x2dd;" horiz-adv-x="350" 
d="M189 662l-123 -120l-46 39l103 136zM330 649l-135 -106l-40 45l118 124z" />
    <glyph glyph-name="uni0394" unicode="&#x394;" horiz-adv-x="542" 
d="M525 0h-507l187 657h133zM268 480l-96 -371h192z" />
    <glyph glyph-name="uni03A9" unicode="&#x3a9;" horiz-adv-x="602" 
d="M347 0v107q61 13 61 90v249q0 50 -28.5 79.5t-78.5 29.5t-78.5 -29.5t-28.5 -79.5v-249q0 -77 61 -90v-107h-210v82h94q-69 44 -69 153v213q0 102 60 160.5t171 58.5t171.5 -58.5t60.5 -160.5v-213q0 -108 -70 -153h95v-82h-211z" />
    <glyph glyph-name="uni03BC" unicode="&#x3bc;" horiz-adv-x="515" 
d="M61 -187v677h120v-319q0 -34 19 -55t53 -21q35 0 56.5 22.5t23.5 59.5v313h121v-490h-104l-9 47q-44 -57 -123 -57q-22 0 -42 11l5 -144v-44h-120z" />
    <glyph glyph-name="pi" unicode="&#x3c0;" horiz-adv-x="625" 
d="M24 385v105h578v-105h-76v-385h-121v385h-184v-385h-121v385h-76z" />
    <glyph glyph-name="Wgrave" unicode="&#x1e80;" horiz-adv-x="727" 
d="M364 694l-132 110l76 71l112 -133zM584 657h119l-139 -657h-115l-86 445l-85 -445h-114l-139 657h125l77 -440l82 440h115l82 -441z" />
    <glyph glyph-name="wgrave" unicode="&#x1e81;" horiz-adv-x="682" 
d="M147 490l69 -323l77 323h100l77 -323l69 323h124l-136 -490h-110l-76 296l-76 -296h-109l-137 490h128zM340 542l-132 110l76 71l112 -132z" />
    <glyph glyph-name="Wacute" unicode="&#x1e82;" horiz-adv-x="727" 
d="M496 804l-132 -110l-56 48l112 133zM584 657h119l-139 -657h-115l-86 445l-85 -445h-114l-139 657h125l77 -440l82 440h115l82 -441z" />
    <glyph glyph-name="wacute" unicode="&#x1e83;" horiz-adv-x="682" 
d="M473 652l-132 -110l-56 49l112 132zM147 490l69 -323l77 323h100l77 -323l69 323h124l-136 -490h-110l-76 296l-76 -296h-109l-137 490h128z" />
    <glyph glyph-name="Wdieresis" unicode="&#x1e84;" horiz-adv-x="727" 
d="M584 657h119l-139 -657h-115l-86 445l-85 -445h-114l-139 657h125l77 -440l82 440h115l82 -441zM234 765q0 25 17.5 42t42.5 17t41.5 -17t16.5 -42t-16.5 -42.5t-41.5 -17.5t-42.5 17.5t-17.5 42.5zM374 765q0 25 17 42t42 17t42 -17t17 -42t-17 -42.5t-42 -17.5
t-42 17.5t-17 42.5z" />
    <glyph glyph-name="wdieresis" unicode="&#x1e85;" horiz-adv-x="682" 
d="M212 612q0 25 17.5 41.5t42.5 16.5t41.5 -16.5t16.5 -41.5t-17 -43t-41 -18q-25 0 -42.5 18t-17.5 43zM352 612q0 25 17 41.5t42 16.5t42 -16.5t17 -41.5t-17 -43t-42 -18t-42 18t-17 43zM147 490l69 -323l77 323h100l77 -323l69 323h124l-136 -490h-110l-76 296
l-76 -296h-109l-137 490h128z" />
    <glyph glyph-name="endash" unicode="&#x2013;" horiz-adv-x="531" 
d="M59 217v88h413v-88h-413z" />
    <glyph glyph-name="emdash" unicode="&#x2014;" horiz-adv-x="799" 
d="M59 217v88h681v-88h-681z" />
    <glyph glyph-name="quoteleft" unicode="&#x2018;" horiz-adv-x="243" 
d="M159 445h-124l96 212h74z" />
    <glyph glyph-name="quoteright" unicode="&#x2019;" horiz-adv-x="238" 
d="M89 657h123l-95 -212h-74z" />
    <glyph glyph-name="quotesinglbase" unicode="&#x201a;" horiz-adv-x="241" 
d="M71 118h124l-96 -212h-74z" />
    <glyph glyph-name="quotedblleft" unicode="&#x201c;" horiz-adv-x="399" 
d="M315 445h-122l96 212h73zM157 445h-122l111 212h72z" />
    <glyph glyph-name="quotedblright" unicode="&#x201d;" horiz-adv-x="393" 
d="M89 657h122l-96 -212h-72zM248 657h122l-112 -212h-72z" />
    <glyph glyph-name="quotedblbase" unicode="&#x201e;" horiz-adv-x="398" 
d="M71 118h123l-96 -212h-73zM230 118h122l-111 -212h-72z" />
    <glyph glyph-name="dagger" unicode="&#x2020;" horiz-adv-x="426" 
d="M271 556l-10 -66h131v-79h-142l21 -421v-101h-116v101l20 421h-141v79h130l-9 66v101h116v-101z" />
    <glyph glyph-name="daggerdbl" unicode="&#x2021;" horiz-adv-x="447" 
d="M281 556l-5 -66h126v-79h-132l-10 -138l10 -138h132v-79h-126l5 -66v-101h-115v101l4 66h-125v79h132l9 138l-9 138h-132v79h125l-4 66v101h115v-101z" />
    <glyph glyph-name="bullet" unicode="&#x2022;" horiz-adv-x="354" 
d="M66 274q0 46 32.5 79t77.5 33q46 0 79 -33t33 -79q0 -45 -33 -77.5t-79 -32.5q-45 0 -77.5 32.5t-32.5 77.5z" />
    <glyph glyph-name="ellipsis" unicode="&#x2026;" horiz-adv-x="652" 
d="M47 58q0 29 19.5 49t48.5 20t49 -20t20 -49t-20 -48.5t-49 -19.5t-48.5 20t-19.5 48zM257 58q0 29 20 49t49 20t48.5 -20t19.5 -49q0 -28 -20 -48t-48 -20q-29 0 -49 20t-20 48zM468 58q0 29 19.5 49t48.5 20t49 -20t20 -49t-20 -48.5t-49 -19.5q-28 0 -48 20t-20 48z
" />
    <glyph glyph-name="perthousand" unicode="&#x2030;" horiz-adv-x="930" 
d="M125 548v-101q0 -21 11 -33.5t31 -12.5q19 0 30 12.5t11 33.5v101q0 21 -11 33.5t-30 12.5q-20 0 -31 -12.5t-11 -33.5zM290 550v-105q0 -52 -33 -84.5t-90 -32.5q-58 0 -90.5 32.5t-32.5 84.5v105q0 52 32.5 84.5t90.5 32.5q57 0 90 -32.5t33 -84.5zM281 330l182 327h94
l-192 -329l-183 -328h-93zM437 210v-101q0 -21 11 -33.5t30 -12.5q20 0 30.5 12.5t10.5 33.5v101q0 21 -10.5 33.5t-30.5 12.5q-19 0 -30 -12.5t-11 -33.5zM601 212v-105q0 -52 -32.5 -84.5t-90.5 -32.5t-90.5 32.5t-32.5 84.5v105q0 52 32.5 84.5t90.5 32.5t90.5 -32.5
t32.5 -84.5zM727 210v-101q0 -21 10.5 -33.5t30.5 -12.5t30.5 12.5t10.5 33.5v101q0 21 -10.5 33.5t-30.5 12.5t-30.5 -12.5t-10.5 -33.5zM891 212v-105q0 -52 -32.5 -84.5t-90.5 -32.5t-90.5 32.5t-32.5 84.5v105q0 52 32.5 84.5t90.5 32.5t90.5 -32.5t32.5 -84.5z" />
    <glyph glyph-name="guilsinglleft" unicode="&#x2039;" horiz-adv-x="269" 
d="M43 233l78 165h99l-65 -165l65 -165h-99z" />
    <glyph glyph-name="guilsinglright" unicode="&#x203a;" horiz-adv-x="269" 
d="M148 398l78 -165l-78 -165h-99l65 165l-65 165h99z" />
    <glyph glyph-name="fraction" unicode="&#x2044;" horiz-adv-x="147" 
d="M32 330l182 327h94l-192 -329l-183 -328h-93z" />
    <glyph glyph-name="zero.superior" unicode="&#x2070;" horiz-adv-x="297" 
d="M116 704v-120q0 -17 9 -27t24 -10q33 0 33 37v120q0 37 -33 37t-33 -37zM263 705v-122q0 -50 -31.5 -79t-82.5 -29t-82.5 29t-31.5 79v122q0 51 29 79.5t85 28.5q51 0 82.5 -29t31.5 -79z" />
    <glyph glyph-name="four.superior" unicode="&#x2074;" horiz-adv-x="305" 
d="M152 808h93v-197h34v-67h-34v-64h-81v64h-144v77zM92 611h72v102z" />
    <glyph glyph-name="five.superior" unicode="&#x2075;" horiz-adv-x="284" 
d="M241 808v-69h-131v-62q18 15 52 15q43 0 69.5 -28t26.5 -78q0 -51 -31 -81t-83 -30q-51 0 -82 24t-31 66v8h78v-5q0 -26 32 -26q33 0 33 42q0 44 -32 44q-16 0 -34 -16h-70v196h203z" />
    <glyph glyph-name="six.superior" unicode="&#x2076;" horiz-adv-x="291" 
d="M262 579q0 -50 -30.5 -77t-82.5 -27t-83 26.5t-31 76.5v121q0 53 29.5 83.5t84.5 30.5q50 0 79.5 -25.5t29.5 -69.5v-4h-78v2q0 13 -8 20.5t-21 7.5q-35 0 -35 -38v-38q21 13 49 13q44 0 70.5 -26.5t26.5 -75.5zM148 617q-17 0 -32 -11v-26q0 -38 32 -38q31 0 31 35
q0 40 -31 40z" />
    <glyph glyph-name="seven.superior" unicode="&#x2077;" horiz-adv-x="248" 
d="M20 739v69h210v-61l-103 -267h-87l102 259h-122z" />
    <glyph glyph-name="eight.superior" unicode="&#x2078;" horiz-adv-x="286" 
d="M249 720q0 -49 -34 -70q41 -20 41 -77q0 -44 -31 -71t-82 -27t-82 27t-31 71q0 58 40 77q-35 19 -35 70q0 41 29.5 67t78.5 26t77.5 -26t28.5 -67zM112 578q0 -39 31 -39t31 39q0 40 -32 40q-30 0 -30 -40zM115 713q0 -37 28 -37q26 0 26 37q0 33 -27 33t-27 -33z" />
    <glyph glyph-name="nine.superior" unicode="&#x2079;" horiz-adv-x="289" 
d="M28 709q0 49 31 76.5t83 27.5t82.5 -29t30.5 -86v-109q0 -53 -29.5 -83.5t-84.5 -30.5q-50 0 -79.5 25.5t-29.5 69.5v4h78v-2q0 -13 8 -20.5t21 -7.5q35 0 35 38v38q-21 -13 -49 -13q-45 0 -71 27t-26 75zM142 671q18 0 32 12v13q0 50 -31 50q-32 0 -32 -35q0 -40 31 -40
z" />
    <glyph glyph-name="parenleft.superior" unicode="&#x207d;" horiz-adv-x="186" 
d="M155 496h5v-72h-5q-58 0 -89 31.5t-31 85.5v205q0 54 31 85t89 31h5v-72h-5q-18 0 -28.5 -11t-10.5 -30v-212q0 -19 10.5 -30t28.5 -11z" />
    <glyph glyph-name="parenright.superior" unicode="&#x207e;" horiz-adv-x="186" 
d="M26 496h5q18 0 28.5 11t10.5 30v212q0 19 -10.5 30t-28.5 11h-5v72h5q58 0 89 -31t31 -85v-205q0 -54 -31 -85.5t-89 -31.5h-5v72z" />
    <glyph glyph-name="zero.inferior" unicode="&#x2080;" horiz-adv-x="300" 
d="M118 72v-120q0 -37 32 -37q33 0 33 37v120q0 37 -33 37q-32 0 -32 -37zM264 73v-122q0 -50 -31.5 -79t-82.5 -29t-82 29t-31 79v122q0 51 28.5 79.5t84.5 28.5q51 0 82.5 -29t31.5 -79z" />
    <glyph glyph-name="one.inferior" unicode="&#x2081;" horiz-adv-x="241" 
d="M31 105v71h136v-259h57v-69h-193v69h55v188h-55z" />
    <glyph glyph-name="two.inferior" unicode="&#x2082;" horiz-adv-x="290" 
d="M30 -152v39q0 69 45 99l64 41q34 22 34 53q0 29 -29 29q-32 0 -32 -32v-8h-79v10q0 44 31.5 73t82.5 29q50 0 80 -26.5t30 -70.5q0 -67 -65 -110l-51 -32q-17 -11 -17 -21h133v-73h-227z" />
    <glyph glyph-name="three.inferior" unicode="&#x2083;" horiz-adv-x="286" 
d="M112 -16v61h20q20 0 28 7t8 25q0 32 -29 32q-30 0 -30 -33v-5h-79v7q0 44 31 73.5t81 29.5q49 0 78 -26t29 -67q0 -50 -34 -70q39 -20 39 -76q0 -45 -31 -72t-83 -27q-51 0 -81.5 28t-30.5 75v8h79v-6q0 -36 31 -36q34 0 34 38q0 34 -40 34h-20z" />
    <glyph glyph-name="four.inferior" unicode="&#x2084;" horiz-adv-x="306" 
d="M152 176h93v-197h35v-67h-35v-64h-80v64h-145v77zM93 -21h72v102z" />
    <glyph glyph-name="five.inferior" unicode="&#x2085;" horiz-adv-x="286" 
d="M242 176v-69h-131v-62q18 15 51 15q43 0 70 -28t27 -78q0 -51 -31 -81t-83 -30q-51 0 -82 24t-31 66v8h78v-5q0 -26 32 -26q33 0 33 42q0 44 -32 44q-16 0 -34 -16h-70v196h203z" />
    <glyph glyph-name="six.inferior" unicode="&#x2086;" horiz-adv-x="293" 
d="M264 -53q0 -50 -30.5 -77t-82.5 -27t-83 26.5t-31 76.5v121q0 53 29.5 83.5t84.5 30.5q50 0 79.5 -25.5t29.5 -69.5v-4h-79v2q0 28 -28 28q-35 0 -35 -38v-38q20 13 49 13q44 0 70.5 -26.5t26.5 -75.5zM149 -15q-16 0 -31 -11v-26q0 -38 31 -38q32 0 32 35q0 40 -32 40z
" />
    <glyph glyph-name="seven.inferior" unicode="&#x2087;" horiz-adv-x="249" 
d="M21 107v69h210v-61l-103 -267h-87l101 259h-121z" />
    <glyph glyph-name="eight.inferior" unicode="&#x2088;" horiz-adv-x="289" 
d="M250 88q0 -50 -34 -70q41 -19 41 -77q0 -44 -31 -71t-82 -27t-81.5 27t-30.5 71q0 59 40 77q-35 18 -35 70q0 41 29 67t78 26t77.5 -26t28.5 -67zM114 -54q0 -40 30 -40q31 0 31 40t-31 40q-30 0 -30 -40zM117 81q0 -37 27 -37q26 0 26 37q0 33 -26 33q-27 0 -27 -33z
" />
    <glyph glyph-name="nine.inferior" unicode="&#x2089;" horiz-adv-x="292" 
d="M29 77q0 49 31 76.5t82 27.5q53 0 83.5 -29t30.5 -86v-109q0 -53 -30 -83.5t-85 -30.5q-50 0 -79 25.5t-29 69.5v4h78v-2q0 -13 8 -20.5t21 -7.5q35 0 35 38v38q-21 -13 -49 -13q-45 0 -71 27t-26 75zM143 39q18 0 32 12v13q0 50 -31 50q-32 0 -32 -35q0 -40 31 -40z" />
    <glyph glyph-name="parenleft.inferior" unicode="&#x208d;" horiz-adv-x="189" 
d="M157 -136h5v-72h-5q-58 0 -89 31.5t-31 85.5v205q0 54 31 85t89 31h5v-72h-5q-18 0 -28.5 -11t-10.5 -30v-212q0 -19 10.5 -30t28.5 -11z" />
    <glyph glyph-name="parenright.inferior" unicode="&#x208e;" horiz-adv-x="189" 
d="M27 -136h5q18 0 28.5 11t10.5 30v212q0 19 -10.5 30t-28.5 11h-5v72h5q58 0 89 -31t31 -85v-205q0 -54 -31 -85.5t-89 -31.5h-5v72z" />
    <glyph glyph-name="franc" unicode="&#x20a3;" horiz-adv-x="546" 
d="M111 433v224h400v-112h-275v-112h157v-90h-157v-57h157v-90h-157v-196h-125v196h-60v90h60v57h-60v90h60z" />
    <glyph glyph-name="lira" unicode="&#x20a4;" horiz-adv-x="567" 
d="M234 190v-81h286v-109h-470v109h60v81h-60v74h60v57h-60v74h60v67q0 93 57 149t148 56q90 0 145.5 -55t55.5 -147v-24h-120v23q0 42 -21 67t-59 25q-39 0 -60.5 -26t-21.5 -70v-65h127v-74h-127v-57h127v-74h-127z" />
    <glyph glyph-name="peseta" unicode="&#x20a7;" horiz-adv-x="1276" 
d="M75 0v657h228q100 0 164 -59t64 -154q0 -100 -64 -160t-164 -60h-104v-224h-124zM293 548h-94v-215h94q51 0 81 29t30 79q0 49 -30 78t-81 29zM565 384v101h80v134h120v-134h83v-101h-83v-384h-120v384h-80zM854 156h112v-19q0 -27 20.5 -42t57.5 -15q75 0 75 54
q0 37 -51 52l-86 27q-117 37 -117 141q0 60 48.5 103t127.5 43q85 0 135.5 -39.5t50.5 -107.5v-11h-112v14q0 25 -19.5 40t-53.5 15q-28 0 -46.5 -13t-18.5 -35q0 -33 47 -47l71 -21q65 -20 101 -53t36 -96q0 -70 -50 -113.5t-136 -43.5q-85 0 -138.5 41t-53.5 111v15z" />
    <glyph glyph-name="Euro" unicode="&#x20ac;" horiz-adv-x="589" 
d="M41 359v74h62v9q0 105 58.5 165t164.5 60q97 0 155.5 -57.5t58.5 -154.5v-16h-116v18q0 47 -27 75t-74 28q-46 0 -73 -30t-27 -80v-17h117v-74h-117v-57h117v-74h-117v-21q0 -50 27 -80t73 -30q47 0 74 28t27 75v21h116v-19q0 -97 -59.5 -154.5t-156.5 -57.5
q-100 0 -160.5 61t-60.5 165v12h-62v74h62v57h-62z" />
    <glyph glyph-name="uni2113" unicode="&#x2113;" horiz-adv-x="486" 
d="M80 159l-58 90l93 65v185q0 82 45.5 128.5t124.5 46.5q81 0 125 -44.5t44 -107.5q0 -99 -100 -170l-119 -84v-96q0 -70 77 -70h122v-102h-135q-89 0 -136.5 45.5t-47.5 133.5v4zM235 499v-101l52 37q30 21 43 40.5t13 45.5q0 22 -14 37.5t-38 15.5q-56 0 -56 -75z" />
    <glyph glyph-name="trademark" unicode="&#x2122;" horiz-adv-x="797" 
d="M576 376h-50l-65 110v-197h-80v368h75l100 -175l98 175h75v-368h-83v203zM59 578v79h284v-79h-95v-289h-93v289h-96z" />
    <glyph glyph-name="Omega" unicode="&#x2126;" horiz-adv-x="605" 
d="M349 0v107q60 13 60 90v249q0 50 -28.5 79.5t-78.5 29.5t-78 -29.5t-28 -79.5v-249q0 -78 60 -90v-107h-210v82h94q-69 44 -69 153v213q0 102 60.5 160.5t170.5 58.5q111 0 171.5 -58.5t60.5 -160.5v-213q0 -108 -70 -153h95v-82h-210z" />
    <glyph glyph-name="estimated" unicode="&#x212e;" horiz-adv-x="760" 
d="M585 142h83q-46 -70 -121.5 -111.5t-164.5 -41.5q-141 0 -240 98.5t-99 239.5t99.5 240.5t240.5 99.5t240.5 -99.5t99.5 -240.5v-8h-529v-191q79 -76 188 -76q123 0 203 90zM383 604q-109 0 -189 -78v-146h378v145q-81 79 -189 79z" />
    <glyph glyph-name="uni2153" unicode="&#x2153;" horiz-adv-x="666" 
d="M301 330l182 327h93l-191 -329l-183 -328h-94zM46 586v71h136v-259h57v-69h-193v69h55v188h-55zM483 136v61h20q20 0 28 7t8 25q0 32 -29 32q-14 0 -22.5 -9t-8.5 -24v-5h-78v7q0 44 30.5 73.5t80.5 29.5q49 0 78.5 -26t29.5 -67q0 -50 -34 -70q39 -20 39 -76
q0 -45 -31 -72t-83 -27q-51 0 -81.5 28t-30.5 75v8h78v-6q0 -36 32 -36q33 0 33 38q0 34 -39 34h-20z" />
    <glyph glyph-name="uni2154" unicode="&#x2154;" horiz-adv-x="695" 
d="M330 330l182 327h93l-191 -329l-183 -328h-94zM512 136v61h20q20 0 28 7t8 25q0 32 -29 32q-14 0 -22.5 -9t-8.5 -24v-5h-78v7q0 44 30.5 73.5t80.5 29.5q49 0 78.5 -26t29.5 -67q0 -50 -34 -70q39 -20 39 -76q0 -45 -31 -72t-83 -27q-51 0 -81.5 28t-30.5 75v8h78v-6
q0 -36 32 -36q33 0 33 38q0 34 -39 34h-20zM43 329v40q0 68 45 98l63 41q35 21 35 53q0 29 -29 29q-33 0 -33 -32v-8h-78v10q0 44 31.5 73t82.5 29q50 0 80 -26.5t30 -70.5q0 -67 -65 -110l-51 -32q-17 -11 -17 -21h133v-73h-227z" />
    <glyph glyph-name="uni2155" unicode="&#x2155;" horiz-adv-x="686" 
d="M301 330l182 327h93l-191 -329l-183 -328h-94zM46 586v71h136v-259h57v-69h-193v69h55v188h-55zM628 328v-69h-131v-62q18 15 51 15q43 0 70 -28t27 -78q0 -51 -31 -81t-83 -30q-51 0 -82 24t-31 66v8h78v-5q0 -26 32 -26q33 0 33 42q0 44 -32 44q-16 0 -34 -16h-70v196
h203z" />
    <glyph glyph-name="uni2156" unicode="&#x2156;" horiz-adv-x="708" 
d="M323 330l182 327h93l-191 -329l-183 -328h-94zM650 328v-69h-131v-62q18 15 51 15q43 0 70 -28t27 -78q0 -51 -31 -81t-83 -30q-51 0 -82 24t-31 66v8h78v-5q0 -26 32 -26q33 0 33 42q0 44 -32 44q-16 0 -34 -16h-70v196h203zM43 329v40q0 67 46 98l63 41q35 21 35 53
q0 29 -29 29q-33 0 -33 -32v-8h-78v10q0 44 31.5 73t82.5 29q50 0 80 -26.5t30 -70.5q0 -67 -65 -110l-51 -32q-15 -10 -18 -21h134v-73h-228z" />
    <glyph glyph-name="uni2157" unicode="&#x2157;" horiz-adv-x="679" 
d="M294 330l182 327h93l-191 -329l-183 -328h-94zM621 328v-69h-131v-62q18 15 51 15q43 0 70 -28t27 -78q0 -51 -31 -81t-83 -30q-51 0 -82 24t-31 66v8h78v-5q0 -26 32 -26q33 0 33 42q0 44 -32 44q-16 0 -34 -16h-70v196h203zM125 470v61h21q19 0 27.5 7t8.5 25
q0 31 -30 31t-30 -33v-5h-78v8q0 44 30.5 73t80.5 29q49 0 78 -26t29 -67q0 -49 -34 -69q40 -23 40 -77q0 -45 -31.5 -72t-83.5 -27q-51 0 -81 28.5t-30 74.5v8h78v-6q0 -36 32 -36q33 0 33 38q0 35 -39 35h-21z" />
    <glyph glyph-name="uni2158" unicode="&#x2158;" horiz-adv-x="713" 
d="M327 330l182 327h93l-191 -329l-183 -328h-94zM654 328v-69h-132v-62q20 15 52 15q43 0 69.5 -28t26.5 -78q0 -51 -31 -81t-82 -30t-82 24t-31 66v8h78v-5q0 -26 32 -26q33 0 33 42q0 44 -32 44q-16 0 -34 -16h-70v196h203zM168 657h93v-197h35v-67h-35v-64h-81v64h-144
v77zM108 460h72v102z" />
    <glyph glyph-name="uni2159" unicode="&#x2159;" horiz-adv-x="682" 
d="M301 330l182 327h93l-191 -329l-183 -328h-94zM46 586v71h136v-259h57v-69h-193v69h55v188h-55zM640 99q0 -50 -30.5 -77t-82.5 -27t-83 26.5t-31 76.5v121q0 53 29.5 83.5t84.5 30.5q50 0 79.5 -25.5t29.5 -69.5v-4h-78v2q0 13 -8 20.5t-21 7.5q-35 0 -35 -38v-38
q21 13 49 13q44 0 70.5 -26.5t26.5 -75.5zM526 137q-17 0 -32 -11v-26q0 -38 32 -38q31 0 31 35q0 40 -31 40z" />
    <glyph glyph-name="uni215A" unicode="&#x215a;" horiz-adv-x="684" 
d="M304 330l182 327h93l-192 -329l-182 -328h-94zM643 99q0 -50 -30.5 -77t-82.5 -27t-83 26.5t-31 76.5v121q0 53 29.5 83.5t84.5 30.5q50 0 79.5 -25.5t29.5 -69.5v-4h-79v2q0 28 -28 28q-35 0 -35 -38v-38q21 13 49 13q44 0 70.5 -26.5t26.5 -75.5zM529 137
q-17 0 -32 -11v-26q0 -38 31 -38q32 0 32 35q0 40 -31 40zM252 657v-69h-131v-62q18 15 52 15q43 0 69.5 -28t26.5 -78q0 -51 -31 -81t-82 -30q-52 0 -83 24t-31 66v8h78v-5q0 -26 32 -26q34 0 34 42q0 44 -33 44q-16 0 -34 -16h-70v196h203z" />
    <glyph glyph-name="uni215B" unicode="&#x215b;" horiz-adv-x="676" 
d="M301 330l182 327h93l-191 -329l-183 -328h-94zM46 586v71h136v-259h57v-69h-193v69h55v188h-55zM629 240q0 -49 -34 -70q41 -20 41 -77q0 -44 -31 -71t-82 -27t-82 27t-31 71q0 58 40 77q-35 19 -35 70q0 41 29.5 67t78.5 26t77.5 -26t28.5 -67zM492 98q0 -39 31 -39
t31 39q0 40 -32 40q-30 0 -30 -40zM495 233q0 -37 28 -37q26 0 26 37q0 33 -27 33t-27 -33z" />
    <glyph glyph-name="uni215C" unicode="&#x215c;" horiz-adv-x="674" 
d="M298 330l183 327h93l-192 -329l-183 -328h-93zM627 240q0 -49 -35 -70q41 -19 41 -77q0 -44 -30.5 -71t-81.5 -27q-52 0 -82.5 27t-30.5 71q0 59 40 77q-35 18 -35 70q0 41 29 67t79 26q49 0 77.5 -26t28.5 -67zM490 98q0 -39 31 -39q30 0 30 39q0 40 -31 40
q-30 0 -30 -40zM493 233q0 -37 28 -37q25 0 25 37q0 33 -26 33q-27 0 -27 -33zM125 470v61h21q19 0 27.5 7t8.5 25q0 31 -30 31t-30 -33v-5h-78v8q0 44 30.5 73t80.5 29q49 0 78 -26t29 -67q0 -49 -34 -69q40 -23 40 -77q0 -45 -31.5 -72t-83.5 -27q-51 0 -81 28.5t-30 74.5
v8h78v-6q0 -36 32 -36q33 0 33 38q0 35 -39 35h-21z" />
    <glyph glyph-name="uni215D" unicode="&#x215d;" horiz-adv-x="678" 
d="M303 330l182 327h93l-191 -329l-183 -328h-94zM631 240q0 -49 -34 -70q41 -20 41 -77q0 -44 -31 -71t-82 -27t-82 27t-31 71q0 58 40 77q-35 19 -35 70q0 41 29.5 67t78.5 26t77.5 -26t28.5 -67zM494 98q0 -39 31 -39t31 39q0 40 -32 40q-30 0 -30 -40zM497 233
q0 -37 28 -37q26 0 26 37q0 33 -27 33t-27 -33zM252 657v-69h-131v-62q18 15 52 15q43 0 69.5 -28t26.5 -78q0 -51 -31 -81t-82 -30q-52 0 -83 24t-31 66v8h78v-5q0 -26 32 -26q34 0 34 42q0 44 -33 44q-16 0 -34 -16h-70v196h203z" />
    <glyph glyph-name="uni215E" unicode="&#x215e;" horiz-adv-x="656" 
d="M277 330l182 327h94l-192 -329l-183 -328h-93zM608 240q0 -49 -35 -70q41 -19 41 -77q0 -44 -30.5 -71t-81.5 -27q-52 0 -82.5 27t-30.5 71q0 59 40 77q-35 18 -35 70q0 41 29.5 67t78.5 26t77.5 -26t28.5 -67zM471 98q0 -39 31 -39t31 39q0 40 -32 40q-30 0 -30 -40z
M474 233q0 -37 28 -37q26 0 26 37q0 33 -27 33t-27 -33zM39 588v69h227v-61l-112 -267h-87l110 259h-138z" />
    <glyph glyph-name="uni215F" unicode="&#x215f;" horiz-adv-x="496" 
d="M381 330l183 327h93l-192 -329l-183 -328h-93zM127 586v71h135v-259h57v-69h-192v69h54v188h-54z" />
    <glyph glyph-name="partialdiff" unicode="&#x2202;" horiz-adv-x="496" 
d="M443 327v-140q0 -90 -55 -143.5t-145 -53.5q-89 0 -144 53.5t-55 143.5v80q0 91 45.5 144t126.5 53q72 0 109 -52q-19 182 -143 182q-20 0 -38.5 -3t-27.5 -7l-9 -3l-22 85q53 21 117 21q241 0 241 -360zM164 276v-98q0 -38 21 -62t58 -24t58.5 24t21.5 62v98
q0 38 -21.5 62.5t-58.5 24.5t-58 -24.5t-21 -62.5z" />
    <glyph glyph-name="Delta" unicode="&#x2206;" horiz-adv-x="566" 
d="M537 0h-507l187 657h133zM280 480l-96 -371h192z" />
    <glyph glyph-name="product" unicode="&#x220f;" horiz-adv-x="599" 
d="M526 657v-657h-125v545h-203v-545h-125v657h453z" />
    <glyph glyph-name="summation" unicode="&#x2211;" horiz-adv-x="542" 
d="M484 544h-278l161 -209l-180 -222h313v-113h-458v108l184 228l-173 213v108h431v-113z" />
    <glyph glyph-name="minus" unicode="&#x2212;" horiz-adv-x="528" 
d="M61 276v107h406v-107h-406z" />
    <glyph glyph-name="uni2215" unicode="&#x2215;" horiz-adv-x="474" 
d="M196 330l182 327h94l-192 -329l-183 -328h-93z" />
    <glyph glyph-name="uni2219" unicode="&#x2219;" horiz-adv-x="314" 
d="M46 274q0 46 32.5 79t77.5 33q46 0 79 -33t33 -79q0 -45 -33 -77.5t-79 -32.5q-45 0 -77.5 32.5t-32.5 77.5z" />
    <glyph glyph-name="radical" unicode="&#x221a;" horiz-adv-x="598" 
d="M26 381v98h181l111 -396l162 604h106l-220 -779h-113l-142 473h-85z" />
    <glyph glyph-name="infinity" unicode="&#x221e;" horiz-adv-x="778" 
d="M569 433h1q68 0 113 -45t45 -116q0 -66 -47 -114t-115 -48q-44 0 -83.5 22.5t-93.5 71.5q-102 -93 -179 -93h-1q-69 0 -114 45.5t-45 116.5q0 66 47 113.5t116 47.5q43 0 82.5 -22.5t93.5 -72.5q100 94 180 94zM209 208h1q46 0 111 63q-35 34 -59 50t-49 16
q-28 0 -47 -18.5t-19 -45.5q0 -28 17.5 -46.5t44.5 -18.5zM570 336h-1q-44 0 -112 -62h1l-1 -1q35 -34 59 -50t50 -16q28 0 46.5 19t18.5 46q0 28 -17.5 46t-43.5 18z" />
    <glyph glyph-name="integral" unicode="&#x222b;" horiz-adv-x="384" 
d="M132 38v528q0 87 46.5 131.5t134.5 44.5h49v-102h-36q-74 0 -74 -67v-528q0 -87 -46 -131.5t-134 -44.5h-49v101h36q73 0 73 68z" />
    <glyph glyph-name="approxequal" unicode="&#x2248;" horiz-adv-x="553" 
d="M438 500l67 -50q-58 -110 -139 -110q-28 0 -49.5 9t-55.5 31q-45 28 -66 28q-22 0 -40.5 -18t-43.5 -55l-62 51q25 51 64.5 83t84.5 32q43 0 102 -36q43 -30 65 -30q34 0 73 65zM438 281l67 -49q-58 -110 -139 -110q-28 0 -50 9t-55 30q-42 28 -66 28q-22 0 -40.5 -17.5
t-43.5 -54.5l-62 51q25 50 64.5 82t84.5 32q43 0 102 -36q43 -30 65 -30q34 0 73 65z" />
    <glyph glyph-name="notequal" unicode="&#x2260;" horiz-adv-x="527" 
d="M64 376v100h227l41 86h81l-41 -86h90v-100h-135l-44 -93h179v-100h-225l-41 -86h-81l41 86h-92v100h137l44 93h-181z" />
    <glyph glyph-name="lessequal" unicode="&#x2264;" horiz-adv-x="519" 
d="M59 100v76h398v-76h-398zM59 317v97l398 114v-101l-259 -57l259 -60v-107z" />
    <glyph glyph-name="greaterequal" unicode="&#x2265;" horiz-adv-x="519" 
d="M460 176v-76h-398v76h398zM460 414v-97l-398 -114v107l259 60l-259 57v101z" />
    <glyph glyph-name="lozenge" unicode="&#x25ca;" horiz-adv-x="540" 
d="M314 675l197 -346l-197 -347h-88l-197 347l197 346h88zM269 532l-111 -203l111 -204l111 204z" />
    <glyph glyph-name="cent.denominator" unicode="&#xf629;" horiz-adv-x="260" 
d="M106 333h56v-45q34 -8 53.5 -32t19.5 -60v-1h-79v6q0 26 -22 26t-22 -31v-64q0 -30 22 -30t22 29v8h79v-2q0 -39 -20 -64.5t-53 -32.5v-45h-56v45q-35 8 -55 33.5t-20 64.5v53q0 39 20 64t55 33v45z" />
    <glyph glyph-name="dollar.denominator" unicode="&#xf62a;" horiz-adv-x="272" 
d="M242 225h-80v12q0 30 -28 30q-26 0 -26 -25q0 -21 21 -30l36 -14q26 -10 41.5 -19t29 -30.5t13.5 -50.5q0 -40 -24 -67.5t-64 -33.5v-51h-56v52q-39 8 -61 33.5t-22 64.5v12h80v-15q0 -32 34 -32t34 29q0 21 -28 33l-48 20q-65 27 -65 91q0 34 20 61t56 35v52h56v-52
q37 -8 59 -33.5t22 -64.5v-7z" />
    <glyph glyph-name="hyphen.denominator" unicode="&#xf62b;" horiz-adv-x="204" 
d="M41 94v69h122v-69h-122z" />
    <glyph glyph-name="parenleft.denominator" unicode="&#xf62c;" horiz-adv-x="190" 
d="M158 16h5v-72h-5q-58 0 -89 31.5t-31 85.5v205q0 54 31 85t89 31h5v-72h-5q-18 0 -28.5 -11t-10.5 -30v-212q0 -19 10.5 -30t28.5 -11z" />
    <glyph glyph-name="parenright.denominator" unicode="&#xf62d;" horiz-adv-x="190" 
d="M27 16h5q18 0 28.5 11t10.5 30v212q0 19 -10.5 30t-28.5 11h-5v72h5q58 0 89 -31t31 -85v-205q0 -54 -31 -85.5t-89 -31.5h-5v72z" />
    <glyph glyph-name="cent.numerator" unicode="&#xf62e;" horiz-adv-x="260" 
d="M106 662h56v-44q34 -8 53.5 -32.5t19.5 -60.5v-1h-79v6q0 26 -22 26t-22 -31v-63q0 -31 22 -31t22 29v9h79v-3q0 -38 -19.5 -63.5t-53.5 -33.5v-45h-56v45q-35 8 -55 33.5t-20 64.5v53q0 39 20 64.5t55 33.5v44z" />
    <glyph glyph-name="dollar.numerator" unicode="&#xf62f;" horiz-adv-x="271" 
d="M242 554h-80v12q0 30 -28 30q-26 0 -26 -25q0 -21 21 -30l36 -14q39 -14 61.5 -35.5t22.5 -64.5q0 -40 -24 -67.5t-64 -33.5v-51h-56v53q-39 7 -61 32.5t-22 64.5v13h80v-16q0 -32 34 -32t34 29q0 14 -6.5 20.5t-21.5 13.5l-48 20q-65 27 -65 91q0 34 20 60.5t56 34.5v52
h56v-52q37 -7 59 -32.5t22 -64.5v-8z" />
    <glyph glyph-name="hyphen.numerator" unicode="&#xf630;" horiz-adv-x="204" 
d="M41 423v69h122v-69h-122z" />
    <glyph glyph-name="parenleft.numerator" unicode="&#xf631;" horiz-adv-x="188" 
d="M157 345h5v-72h-5q-58 0 -89 31.5t-31 85.5v205q0 54 31 85t89 31h5v-72h-5q-17 0 -28 -10.5t-11 -29.5v-212q0 -19 11 -30.5t28 -11.5z" />
    <glyph glyph-name="parenright.numerator" unicode="&#xf632;" horiz-adv-x="188" 
d="M27 345h5q17 0 28 11.5t11 30.5v212q0 19 -10.5 29.5t-28.5 10.5h-5v72h5q58 0 89 -31t31 -85v-205q0 -54 -31 -85.5t-89 -31.5h-5v72z" />
    <glyph glyph-name="zero.denominator" unicode="&#xf655;" horiz-adv-x="302" 
d="M118 224v-120q0 -37 32 -37q34 0 34 37v120q0 37 -34 37q-32 0 -32 -37zM265 225v-122q0 -50 -31.5 -79t-83.5 -29q-51 0 -82 29t-31 79v122q0 51 29 79.5t84 28.5q52 0 83.5 -29t31.5 -79z" />
    <glyph glyph-name="one.denominator" unicode="&#xf656;" horiz-adv-x="243" 
d="M32 257v71h136v-259h57v-69h-193v69h55v188h-55z" />
    <glyph glyph-name="two.denominator" unicode="&#xf657;" horiz-adv-x="291" 
d="M30 0v40q0 67 46 98l63 41q35 21 35 53q0 29 -29 29q-33 0 -33 -32v-8h-78v10q0 44 31.5 73t82.5 29q50 0 80 -26.5t30 -70.5q0 -67 -65 -110l-51 -32q-15 -10 -18 -21h134v-73h-228z" />
    <glyph glyph-name="three.denominator" unicode="&#xf658;" horiz-adv-x="285" 
d="M111 136v61h21q19 0 27.5 7t8.5 25q0 32 -30 32t-30 -33v-5h-78v7q0 44 30.5 73.5t80.5 29.5q49 0 78.5 -26t29.5 -67q0 -49 -34 -70q39 -20 39 -76q0 -45 -31.5 -72t-83.5 -27q-51 0 -81 28t-30 75v8h78v-6q0 -36 32 -36q33 0 33 38q0 34 -39 34h-21z" />
    <glyph glyph-name="four.denominator" unicode="&#xf659;" horiz-adv-x="306" 
d="M152 328h93v-197h35v-67h-35v-64h-80v64h-145v77zM93 131h72v102z" />
    <glyph glyph-name="five.denominator" unicode="&#xf65a;" horiz-adv-x="287" 
d="M243 328v-69h-131v-62q18 15 51 15q43 0 70 -28t27 -78q0 -51 -31 -81t-83 -30q-51 0 -82 24t-31 66v8h78v-5q0 -26 32 -26q33 0 33 42q0 44 -32 44q-16 0 -34 -16h-70v196h203z" />
    <glyph glyph-name="six.denominator" unicode="&#xf65b;" horiz-adv-x="293" 
d="M264 99q0 -50 -30.5 -77t-82.5 -27t-83 26.5t-31 76.5v121q0 53 29.5 83.5t84.5 30.5q50 0 79.5 -25.5t29.5 -69.5v-4h-79v2q0 28 -28 28q-35 0 -35 -38v-38q20 13 49 13q44 0 70.5 -26.5t26.5 -75.5zM149 137q-16 0 -31 -11v-26q0 -38 31 -38q32 0 32 35q0 40 -32 40z
" />
    <glyph glyph-name="seven.denominator" unicode="&#xf65c;" horiz-adv-x="249" 
d="M21 259v69h210v-61l-103 -267h-87l101 259h-121z" />
    <glyph glyph-name="eight.denominator" unicode="&#xf65d;" horiz-adv-x="290" 
d="M251 240q0 -50 -34 -70q41 -19 41 -77q0 -44 -31 -71t-82 -27t-82 27t-31 71q0 58 40 77q-35 19 -35 70q0 41 29.5 67t78.5 26t77.5 -26t28.5 -67zM114 98q0 -39 31 -39t31 39q0 40 -32 40q-30 0 -30 -40zM118 233q0 -37 27 -37q26 0 26 37q0 33 -27 33q-26 0 -26 -33z
" />
    <glyph glyph-name="nine.denominator" unicode="&#xf65e;" horiz-adv-x="292" 
d="M30 229q0 49 31 76.5t82 27.5q52 0 82.5 -29t30.5 -86v-109q0 -53 -29.5 -83.5t-84.5 -30.5q-50 0 -79 25.5t-29 69.5v4h78v-2q0 -28 28 -28q35 0 35 38v38q-19 -13 -49 -13q-44 0 -70 27t-26 75zM144 191q19 0 31 12v13q0 50 -30 50q-33 0 -33 -35q0 -40 32 -40z" />
    <glyph glyph-name="comma.denominator" unicode="&#xf65f;" horiz-adv-x="145" 
d="M43 73h77l-57 -120h-45z" />
    <glyph glyph-name="period.denominator" unicode="&#xf660;" horiz-adv-x="140" 
d="M27 37q0 18 12.5 30.5t30.5 12.5q19 0 31.5 -12.5t12.5 -30.5q0 -19 -12.5 -31.5t-31.5 -12.5q-18 0 -30.5 12.5t-12.5 31.5z" />
    <glyph glyph-name="zero.numerator" unicode="&#xf661;" horiz-adv-x="300" 
d="M118 553v-120q0 -37 32 -37q33 0 33 37v120q0 37 -33 37q-32 0 -32 -37zM264 555v-123q0 -49 -31.5 -78.5t-82.5 -29.5t-82 29.5t-31 78.5v123q0 51 28.5 79t84.5 28q51 0 82.5 -29t31.5 -78z" />
    <glyph glyph-name="one.numerator" unicode="&#xf662;" horiz-adv-x="241" 
d="M31 586v71h136v-259h57v-69h-193v69h55v188h-55z" />
    <glyph glyph-name="two.numerator" unicode="&#xf663;" horiz-adv-x="290" 
d="M29 329v40q0 68 46 98l63 41q35 21 35 54q0 28 -29 28q-33 0 -33 -32v-8h-78v10q0 44 31.5 73t82.5 29q50 0 80 -26t30 -70q0 -68 -65 -110l-51 -33q-15 -10 -18 -21h134v-73h-228z" />
    <glyph glyph-name="three.numerator" unicode="&#xf664;" horiz-adv-x="286" 
d="M112 466v61h20q20 0 28 7t8 25q0 31 -29 31q-30 0 -30 -33v-5h-79v8q0 44 31 73t81 29q49 0 78 -26t29 -67q0 -48 -34 -70q39 -20 39 -76q0 -45 -31 -72t-83 -27q-51 0 -81.5 28t-30.5 75v8h79v-6q0 -36 31 -36q34 0 34 38q0 35 -40 35h-20z" />
    <glyph glyph-name="four.numerator" unicode="&#xf665;" horiz-adv-x="306" 
d="M152 657h93v-197h35v-67h-35v-64h-80v64h-145v77zM93 460h72v102z" />
    <glyph glyph-name="five.numerator" unicode="&#xf666;" horiz-adv-x="286" 
d="M242 657v-69h-131v-62q20 16 51 16q43 0 70 -28t27 -78q0 -52 -31 -82t-83 -30q-51 0 -82 24.5t-31 66.5v8h78v-6q0 -26 32 -26q33 0 33 42q0 44 -32 44q-14 0 -34 -15h-70v195h203z" />
    <glyph glyph-name="six.numerator" unicode="&#xf667;" horiz-adv-x="293" 
d="M264 428q0 -50 -30.5 -77t-82.5 -27t-83 26.5t-31 77.5v121q0 53 29.5 83t84.5 30q50 0 79.5 -25.5t29.5 -68.5v-5h-79v2q0 29 -28 29q-35 0 -35 -39v-38q21 14 49 14q44 0 70.5 -27t26.5 -76zM149 466q-16 0 -31 -11v-25q0 -39 31 -39q32 0 32 35q0 40 -32 40z" />
    <glyph glyph-name="seven.numerator" unicode="&#xf668;" horiz-adv-x="249" 
d="M20 588v69h211v-61l-103 -267h-87l101 259h-122z" />
    <glyph glyph-name="eight.numerator" unicode="&#xf669;" horiz-adv-x="289" 
d="M250 569q0 -50 -34 -70q41 -17 41 -77q0 -44 -31 -71t-82 -27t-81.5 27t-30.5 71q0 59 40 77q-35 18 -35 70q0 41 29 67t78 26t77.5 -26t28.5 -67zM114 427q0 -39 30 -39q31 0 31 39q0 40 -31 40q-30 0 -30 -40zM117 562q0 -37 27 -37q26 0 26 37q0 33 -26 33
q-27 0 -27 -33z" />
    <glyph glyph-name="nine.numerator" unicode="&#xf66a;" horiz-adv-x="291" 
d="M29 558q0 49 31 76.5t82 27.5q52 0 82.5 -29t30.5 -86v-109q0 -53 -29.5 -83.5t-84.5 -30.5q-49 0 -78.5 25.5t-29.5 69.5v4h78v-2q0 -28 28 -28q35 0 35 39v37q-20 -13 -49 -13q-44 0 -70 27t-26 75zM143 520q17 0 31 12v13q0 50 -30 50q-33 0 -33 -35q0 -40 32 -40z
" />
    <glyph glyph-name="comma.numerator" unicode="&#xf66b;" horiz-adv-x="146" 
d="M43 402h77l-57 -120h-46z" />
    <glyph glyph-name="period.numerator" unicode="&#xf66c;" horiz-adv-x="141" 
d="M27 366q0 18 12.5 30.5t30.5 12.5q19 0 31.5 -12.5t12.5 -30.5q0 -19 -12.5 -31.5t-31.5 -12.5q-18 0 -30.5 12.5t-12.5 31.5z" />
    <glyph glyph-name="commaaccent" unicode="&#xf6c3;" horiz-adv-x="187" 
d="M48 -50h123l-87 -185h-74z" />
    <glyph glyph-name="uniF8FF" unicode="&#xf8ff;" horiz-adv-x="1420" 
d="M340 488h38q11 0 11 -11v-6q28 21 58 21q34 0 51 -26q29 26 64 26q26 0 41.5 -15t15.5 -39v-132q0 -11 -12 -11h-38q-13 0 -13 11v116q0 9 -2.5 12.5t-11.5 3.5q-18 0 -38 -15v-117q0 -11 -11 -11h-38q-12 0 -12 11v116q0 9 -3 12.5t-12 3.5q-20 0 -37 -15v-117
q0 -11 -10 -11h-41q-11 0 -11 11v171q0 11 11 11zM1007 488h36q12 0 12 -11l1 -7q27 22 60 22q57 0 57 -60v-80q0 -62 -57 -62q-32 0 -58 21v-83q0 -11 -11 -11h-40q-11 0 -11 11v249q0 11 11 11zM296 431v-43q0 -11 -12 -11h-93v-23q0 -18 23 -18q25 0 25 18v1q0 11 11 11
h32q12 0 12 -11v-3q0 -62 -80 -62q-85 0 -85 62v79q0 61 85 61q82 0 82 -61zM1370 431v-43q0 -11 -11 -11h-94v-23q0 -18 23 -18q24 0 24 18v1q0 11 12 11h32q11 0 11 -11v-3q0 -62 -79 -62q-84 0 -84 62v79q0 61 84 61q82 0 82 -61zM850 477l22 -70q7 -27 7 -37q2 2 10 35
l24 72q3 11 12 11h37q14 0 11 -11l-84 -249q-4 -11 -14 -11h-28q-14 0 -11 11l16 59l-65 190q-4 11 11 11h40q9 0 12 -11zM731 487h31q11 0 11 -10v-27q0 -11 -11 -11h-31v-77q0 -18 24 -18h10q12 0 12 -11v-27q0 -11 -12 -11h-19q-43 0 -60.5 14t-17.5 46v84h-17
q-11 0 -11 11v25q0 8 11 11l16 1h1v36q0 12 12 12h39q12 0 12 -12v-36zM472 147v-49q0 -4 -4 -4h-114v-48q0 -33 50 -33q48 0 48 33v8q0 4 6 4h9q5 0 5 -4v-9q0 -48 -69 -48t-69 48v102q0 48 70 48q68 0 68 -48zM154 188v-17q33 24 67 24q27 0 40.5 -12.5t13.5 -33.5v-144
q0 -5 -4 -5h-11q-4 0 -4 5v140q0 31 -39 31t-62 -23v-148q0 -5 -4 -5h-11q-5 0 -5 5v183q0 4 5 4h9q5 0 5 -4zM556 191h47q4 0 4 -4v-8q0 -5 -4 -5h-47v-124q0 -33 50 -33h6q5 0 5 -5v-7q0 -5 -5 -5h-9q-37 0 -51.5 12t-14.5 36v126h-25q-4 0 -4 5v7q0 4 4 5h25v41q0 5 4 5
h11q4 0 4 -5v-41zM354 146v-36h98v36q0 32 -48 32q-50 0 -50 -32zM1112 361v62q0 15 -17 15q-13 0 -37 -15v-63q26 -16 37 -16q17 0 17 17zM191 428v-11h48v11q0 18 -25 18q-23 0 -23 -18zM1265 428v-11h47v11q0 18 -24 18q-23 0 -23 -18zM70 35v-30q0 -5 -5 -5h-11
q-4 0 -4 5v30q0 5 4 5h11q5 0 5 -5z" />
    <glyph glyph-name="f_f" unicode="&#xfb00;" horiz-adv-x="633" 
d="M215 384v-384h-120v384h-69v101h69v16q0 87 46 131.5t134 44.5h50v-102h-36q-74 0 -74 -67v-23h172v16q0 87 46.5 131.5t134.5 44.5h49v-102h-36q-73 0 -73 -67v-23h104v-101h-104v-384h-121v384h-172z" />
    <glyph glyph-name="f_f_i" unicode="&#xfb03;" horiz-adv-x="858" 
d="M26 384v101h69v16q0 87 46 131.5t134 44.5h50v-102h-36q-74 0 -74 -67v-23h173v16q0 87 46 131.5t135 44.5h228v-102h-215q-74 0 -74 -67v-23h289v-485h-121v384h-168v-384h-120v384h-173v-384h-120v384h-69z" />
    <glyph glyph-name="f_f_l" unicode="&#xfb04;" horiz-adv-x="859" 
d="M215 384v-384h-120v384h-69v101h69v16q0 87 46 131.5t134 44.5h50v-102h-36q-74 0 -74 -67v-23h173v16q0 87 46 131.5t135 44.5h228v-677h-121v575h-94q-74 0 -74 -67v-23h102v-101h-102v-384h-120v384h-173z" />
    <glyph glyph-name="longs_t" unicode="&#xfb05;" horiz-adv-x="585" 
d="M291 575h-36q-73 0 -73 -67v-508h-121v501q0 87 46.5 131.5t134.5 44.5h49v-102zM278 384v101h80v134h120v-134h83v-101h-83v-384h-120v384h-80z" />
    <glyph glyph-name="grave.case" horiz-adv-x="228" 
d="M152 694l-132 110l76 71l112 -133z" />
    <glyph glyph-name="dieresis.case" horiz-adv-x="298" 
d="M20 765q0 25 17.5 42t42.5 17t41.5 -17t16.5 -42t-16.5 -42.5t-41.5 -17.5t-42.5 17.5t-17.5 42.5zM160 765q0 25 17 42t42 17t42 -17t17 -42t-17 -42.5t-42 -17.5t-42 17.5t-17 42.5z" />
    <glyph glyph-name="macron.case" horiz-adv-x="280" 
d="M20 721v85h240v-85h-240z" />
    <glyph glyph-name="acute.case" horiz-adv-x="228" 
d="M208 804l-132 -110l-56 48l112 133z" />
    <glyph glyph-name="circumflex.case" horiz-adv-x="309" 
d="M128 868h53l108 -134l-47 -40l-89 78l-87 -77l-46 39z" />
    <glyph glyph-name="caron.case" horiz-adv-x="309" 
d="M181 693h-53l-108 134l48 40l88 -78l88 77l45 -39z" />
    <glyph glyph-name="breve.case" horiz-adv-x="277" 
d="M185 825h72v-21q0 -47 -33 -78.5t-86 -31.5q-52 0 -85 31.5t-33 78.5v21h72v-21q0 -21 12 -34t34 -13t34.5 13t12.5 34v21z" />
    <glyph glyph-name="dotaccent.case" horiz-adv-x="177" 
d="M20 775q0 29 20 48.5t48 19.5q29 0 49 -19.5t20 -48.5t-20 -49t-49 -20q-28 0 -48 20t-20 49z" />
    <glyph glyph-name="ring.case" horiz-adv-x="256" 
d="M127 747q20 0 31.5 13t11.5 34q0 20 -11.5 32.5t-31.5 12.5q-19 0 -30.5 -12.5t-11.5 -32.5q0 -21 11.5 -34t30.5 -13zM127 691q-47 0 -77 29.5t-30 73.5t30 73.5t77 29.5q48 0 78.5 -29.5t30.5 -73.5t-30.5 -73.5t-78.5 -29.5z" />
    <glyph glyph-name="tilde.case" horiz-adv-x="361" 
d="M278 818h62q1 -9 1 -25q0 -49 -23 -73t-61 -24q-28 0 -58 15l-43 21q-20 10 -32 10q-15 0 -24.5 -11.5t-11.5 -19.5t-2 -12h-62q-4 20 -4 28q0 42 26.5 69t67.5 27q26 0 53 -13l41 -20q28 -14 39 -14q17 0 24 15.5t7 26.5z" />
    <glyph glyph-name="hungarumlaut.case" horiz-adv-x="350" 
d="M189 814l-123 -120l-46 40l103 136zM330 801l-135 -106l-40 45l118 124z" />
    <glyph glyph-name="caron.salt" horiz-adv-x="206" 
d="M59 677h106l-65 -154h-64z" />
    <glyph glyph-name="commaaccent.salt" horiz-adv-x="218" 
d="M65 -41h123l-90 -187h-74z" />
    <glyph glyph-name="a.alt" horiz-adv-x="482" 
d="M322 0l-9 43q-40 -53 -117 -53q-73 0 -116.5 35t-43.5 102q0 75 46.5 112t126.5 37h96v56q0 32 -19 51t-53 19t-53 -19t-19 -48v-12h-115v5q0 79 52.5 125.5t138.5 46.5t137 -48.5t51 -130.5v-321h-103zM227 85q35 0 54.5 20.5t23.5 54.5v32h-73q-74 0 -74 -54
q0 -53 69 -53z" />
    <glyph glyph-name="t.alt" horiz-adv-x="347" 
d="M26 384v101h68v134h120v-134h105v-101h-105v-216q0 -31 19 -48.5t55 -17.5h31v-102h-44q-87 0 -134 44.5t-47 130.5v209h-68z" />
    <glyph glyph-name="ampersand.alt" horiz-adv-x="600" 
d="M472 497v-27h-113v28q0 32 -17 50.5t-47 18.5q-28 0 -43.5 -17.5t-15.5 -44.5q0 -53 44 -113l118 -161l65 129h114l-117 -214l108 -146h-134l-44 59q-71 -69 -159 -69q-89 0 -142.5 44t-53.5 133q0 63 38 108.5t106 67.5q-61 81 -61 161q0 74 49.5 118.5t129.5 44.5
q81 0 128 -45.5t47 -124.5zM248 92q50 0 85 43l-104 140q-69 -28 -69 -95q0 -88 88 -88z" />
    <glyph glyph-name="zero.tab" horiz-adv-x="546" 
d="M180 455v-253q0 -46 24.5 -73t68.5 -27t68.5 27t24.5 73v253q0 46 -24.5 73t-68.5 27t-68.5 -27t-24.5 -73zM490 457v-257q0 -96 -59.5 -153t-157.5 -57t-158 57t-60 153v257q0 98 57 154t161 56q98 0 157.5 -57t59.5 -153z" />
    <glyph glyph-name="one.tab" horiz-adv-x="546" 
d="M87 546v111h260v-548h130v-109h-390v109h135v437h-135z" />
    <glyph glyph-name="two.tab" horiz-adv-x="546" 
d="M54 0v49q0 78 23 132.5t89 98.5l116 77q75 48 75 121q0 36 -22 56.5t-64 20.5t-66.5 -23t-24.5 -62v-18h-120v20q0 86 59.5 140.5t155.5 54.5q97 0 154.5 -49.5t57.5 -133.5q0 -127 -123 -208l-117 -78q-49 -32 -55 -84h295v-114h-433z" />
    <glyph glyph-name="three.tab" horiz-adv-x="546" 
d="M213 289v97h45q50 0 72 21.5t22 64.5q0 39 -23 61t-63 22q-41 0 -64.5 -22.5t-23.5 -61.5v-14h-120v16q0 84 58.5 139t152.5 55q95 0 151 -50t56 -131q0 -100 -74 -144q86 -43 86 -159q0 -88 -60 -140.5t-160 -52.5q-97 0 -155.5 53t-58.5 141v15h120v-13q0 -40 24.5 -64
t67.5 -24q45 0 69 25.5t24 72.5q0 93 -101 93h-45z" />
    <glyph glyph-name="four.tab" horiz-adv-x="546" 
d="M299 657h147v-412h71v-105h-71v-140h-123v140h-299v119zM138 245h185v268z" />
    <glyph glyph-name="five.tab" horiz-adv-x="546" 
d="M462 657v-109h-272v-167q41 34 110 34q88 0 140.5 -55t52.5 -152q0 -101 -59.5 -159.5t-157.5 -58.5q-96 0 -156 47.5t-60 128.5v16h120v-15q0 -32 24 -51.5t67 -19.5q46 0 70 28.5t24 80.5q0 50 -22 79.5t-68 29.5q-51 0 -91 -36h-107v379h385z" />
    <glyph glyph-name="six.tab" horiz-adv-x="546" 
d="M497 196q0 -98 -59.5 -152t-158.5 -54q-98 0 -157 55.5t-59 156.5v249q0 100 57.5 158t160.5 58q94 0 151 -50t57 -135v-10h-120v8q0 35 -23.5 57t-63.5 22q-46 0 -70.5 -25.5t-24.5 -71.5v-102q49 38 116 38q89 0 141.5 -54t52.5 -148zM280 296q-55 0 -93 -40v-53
q0 -53 24 -80.5t67 -27.5q44 0 67.5 25.5t23.5 71.5q0 47 -22.5 75.5t-66.5 28.5z" />
    <glyph glyph-name="seven.tab" horiz-adv-x="546" 
d="M59 548v109h430v-94l-231 -563h-133l226 548h-292z" />
    <glyph glyph-name="eight.tab" horiz-adv-x="546" 
d="M478 484q0 -103 -77 -143q89 -39 89 -157q0 -88 -59.5 -141t-157.5 -53t-158 53t-60 141q0 117 89 156q-78 42 -78 144q0 82 56.5 132.5t150.5 50.5t149.5 -50.5t55.5 -132.5zM182 191q0 -47 23.5 -72.5t67.5 -25.5t67.5 25.5t23.5 72.5t-23.5 73t-68.5 26q-90 0 -90 -99
zM189 475q0 -92 84 -92q82 0 82 92q0 40 -22 62.5t-61 22.5q-40 0 -61.5 -22t-21.5 -63z" />
    <glyph glyph-name="nine.tab" horiz-adv-x="546" 
d="M49 461q0 97 60 151.5t159 54.5q98 0 156.5 -59t58.5 -168v-234q0 -100 -57.5 -158t-160.5 -58q-94 0 -151 50t-57 135v10h120v-8q0 -35 23 -57t63 -22q46 0 71 25.5t25 72.5v100q-51 -37 -117 -37q-89 0 -141 54.5t-52 147.5zM266 361q53 0 93 40v37q0 60 -23.5 92
t-66.5 32q-44 0 -68 -25.5t-24 -71.5q0 -47 22 -75.5t67 -28.5z" />
    <glyph glyph-name="agrave.alt" horiz-adv-x="482" 
d="M322 0l-9 43q-40 -53 -117 -53q-73 0 -116.5 35t-43.5 102q0 75 46.5 112t126.5 37h96v56q0 32 -19 51t-53 19t-53 -19t-19 -48v-12h-115v5q0 79 52.5 125.5t138.5 46.5t137 -48.5t51 -130.5v-321h-103zM227 85q35 0 54.5 20.5t23.5 54.5v32h-73q-74 0 -74 -54
q0 -53 69 -53zM235 542l-132 110l76 71l112 -132z" />
    <glyph glyph-name="aacute.alt" horiz-adv-x="482" 
d="M363 652l-132 -110l-56 49l112 132zM322 0l-9 43q-40 -53 -117 -53q-73 0 -116.5 35t-43.5 102q0 75 46.5 112t126.5 37h96v56q0 32 -19 51t-53 19t-53 -19t-19 -48v-12h-115v5q0 79 52.5 125.5t138.5 46.5t137 -48.5t51 -130.5v-321h-103zM227 85q35 0 54.5 20.5
t23.5 54.5v32h-73q-74 0 -74 -54q0 -53 69 -53z" />
    <glyph glyph-name="acircumflex.alt" horiz-adv-x="482" 
d="M208 715h53l108 -133l-47 -40l-89 77l-87 -76l-46 39zM322 0l-9 43q-40 -53 -117 -53q-73 0 -116.5 35t-43.5 102q0 75 46.5 112t126.5 37h96v56q0 32 -19 51t-53 19t-53 -19t-19 -48v-12h-115v5q0 79 52.5 125.5t138.5 46.5t137 -48.5t51 -130.5v-321h-103zM227 85
q35 0 54.5 20.5t23.5 54.5v32h-73q-74 0 -74 -54q0 -53 69 -53z" />
    <glyph glyph-name="atilde.alt" horiz-adv-x="482" 
d="M322 0l-9 43q-40 -53 -117 -53q-73 0 -116.5 35t-43.5 102q0 75 46.5 112t126.5 37h96v56q0 32 -19 51t-53 19t-53 -19t-19 -48v-12h-115v5q0 79 52.5 125.5t138.5 46.5t137 -48.5t51 -130.5v-321h-103zM227 85q35 0 54.5 20.5t23.5 54.5v32h-73q-74 0 -74 -54
q0 -53 69 -53zM330 669h62q1 -10 1 -25q0 -49 -23 -73t-61 -24q-28 0 -58 15l-43 21q-20 10 -32 10q-15 0 -24.5 -11.5t-11.5 -19.5t-2 -12h-62q-4 14 -4 28q0 42 26.5 69t67.5 27q26 0 53 -13l41 -20q28 -14 39 -14q17 0 24 15.5t7 26.5z" />
    <glyph glyph-name="adieresis.alt" horiz-adv-x="482" 
d="M104 612q0 25 17.5 41.5t42.5 16.5t41.5 -16.5t16.5 -41.5t-17 -43t-41 -18q-25 0 -42.5 18t-17.5 43zM244 612q0 25 17 41.5t42 16.5t42 -16.5t17 -41.5t-17 -43t-42 -18t-42 18t-17 43zM322 0l-9 43q-40 -53 -117 -53q-73 0 -116.5 35t-43.5 102q0 75 46.5 112
t126.5 37h96v56q0 32 -19 51t-53 19t-53 -19t-19 -48v-12h-115v5q0 79 52.5 125.5t138.5 46.5t137 -48.5t51 -130.5v-321h-103zM227 85q35 0 54.5 20.5t23.5 54.5v32h-73q-74 0 -74 -54q0 -53 69 -53z" />
    <glyph glyph-name="aring.alt" horiz-adv-x="482" 
d="M231 584q20 0 31.5 13t11.5 33t-11.5 32.5t-31.5 12.5q-19 0 -30.5 -12.5t-11.5 -32.5t11.5 -33t30.5 -13zM231 527q-47 0 -77 29.5t-30 73.5t30 73.5t77 29.5q48 0 78.5 -29.5t30.5 -73.5t-30.5 -73.5t-78.5 -29.5zM322 0l-9 43q-40 -53 -117 -53q-73 0 -116.5 35
t-43.5 102q0 75 46.5 112t126.5 37h96v56q0 32 -19 51t-53 19t-53 -19t-19 -48v-12h-115v5q0 79 52.5 125.5t138.5 46.5t137 -48.5t51 -130.5v-321h-103zM227 85q35 0 54.5 20.5t23.5 54.5v32h-73q-74 0 -74 -54q0 -53 69 -53z" />
    <glyph glyph-name="amacron.alt" horiz-adv-x="482" 
d="M322 0l-9 43q-40 -53 -117 -53q-73 0 -116.5 35t-43.5 102q0 75 46.5 112t126.5 37h96v56q0 32 -19 51t-53 19t-53 -19t-19 -48v-12h-115v5q0 79 52.5 125.5t138.5 46.5t137 -48.5t51 -130.5v-321h-103zM227 85q35 0 54.5 20.5t23.5 54.5v32h-73q-74 0 -74 -54
q0 -53 69 -53zM112 563v85h240v-85h-240z" />
    <glyph glyph-name="abreve.alt" horiz-adv-x="482" 
d="M322 0l-9 43q-40 -53 -117 -53q-73 0 -116.5 35t-43.5 102q0 75 46.5 112t126.5 37h96v56q0 32 -19 51t-53 19t-53 -19t-19 -48v-12h-115v5q0 79 52.5 125.5t138.5 46.5t137 -48.5t51 -130.5v-321h-103zM227 85q35 0 54.5 20.5t23.5 54.5v32h-73q-74 0 -74 -54
q0 -53 69 -53zM278 673h72v-21q0 -47 -33 -78.5t-86 -31.5q-52 0 -85 31.5t-33 78.5v21h72v-21q0 -20 12 -33.5t34 -13.5t34.5 13.5t12.5 33.5v21z" />
    <glyph glyph-name="aogonek.alt" horiz-adv-x="482" 
d="M363 -125h48v-68h-63q-48 0 -73 22.5t-25 57.5q0 37 20 67t51 48l-8 41q-40 -53 -117 -53q-73 0 -116.5 35t-43.5 102q0 75 46.5 112t126.5 37h96v56q0 32 -19 51t-53 19t-53 -19t-19 -48v-12h-115v5q0 79 52.5 125.5t138.5 46.5t137 -48.5t51 -130.5v-321h-38
q-66 -45 -66 -92q0 -33 42 -33zM227 85q35 0 54.5 20.5t23.5 54.5v32h-73q-74 0 -74 -54q0 -53 69 -53z" />
    <glyph glyph-name="uni0163.alt" horiz-adv-x="347" 
d="M26 384v101h68v134h120v-134h105v-101h-105v-216q0 -31 19 -48.5t55 -17.5h31v-102h-44q-13 0 -37 2l-13 -42h12q39 0 60 -19t21 -53q0 -35 -22 -55t-59 -20h-112v57h101q19 0 19 17q0 16 -19 16h-58l-20 16l29 100q-83 40 -83 156v209h-68z" />
    <glyph glyph-name="tcaron.alt" horiz-adv-x="347" 
d="M26 384v101h68v134h120v-134h105v-101h-105v-216q0 -31 19 -48.5t55 -17.5h31v-102h-44q-87 0 -134 44.5t-47 130.5v209h-68zM279 677h106l-65 -154h-64z" />
    <glyph glyph-name="tbar.alt" horiz-adv-x="377" 
d="M46 383v101h68v134h120v-134h105v-101h-105v-74h90v-77h-90v-65q0 -31 19 -48.5t55 -17.5h31v-102h-44q-87 0 -134 44.5t-47 130.5v58h-77v77h77v74h-68z" />
    <glyph glyph-name="longs_t.alt" horiz-adv-x="599" 
d="M278 384v101h68v134h120v-134h105v-101h-105v-216q0 -31 19 -48.5t55 -17.5h31v-102h-44q-87 0 -134 44.5t-47 130.5v209h-68zM291 575h-36q-73 0 -73 -67v-508h-121v501q0 87 46.5 131.5t134.5 44.5h49v-102z" />
    <glyph glyph-name="uni021B.alt" horiz-adv-x="360" 
d="M120 -50h123l-87 -185h-74zM26 384v101h68v134h120v-134h105v-101h-105v-216q0 -31 19 -48.5t55 -17.5h31v-102h-44q-87 0 -134 44.5t-47 130.5v209h-68z" />
    </font>
</defs>
</svg>
